<?xml version="1.0" encoding="utf-8"?>
<!-- Generator: Adobe Illustrator 19.1.0, SVG Export Plug-In . SVG Version: 6.00 Build 0)  -->
<svg version="1.1" id="Layer_1" xmlns="http://www.w3.org/2000/svg" xmlns:xlink="http://www.w3.org/1999/xlink" x="0px" y="0px"
	 viewBox="0 0 77.8 56.6" style="enable-background:new 0 0 77.8 56.6;" xml:space="preserve">
<style type="text/css">
	.st0{fill:#007793;}
	.st1{clip-path:url(#SVGID_2_);fill:#007793;}
</style>
<path class="st0" d="M23.5,12.5C23.5,12.5,23.5,12.5,23.5,12.5C23.5,12.5,23.6,12.4,23.5,12.5C23.6,12.4,23.5,12.4,23.5,12.5"/>
<path class="st0" d="M63.4,52.9L63.2,53C63.3,52.9,63.3,52.9,63.4,52.9"/>
<path class="st0" d="M67.5,49.3l0.2-0.2l0.4-0.4c-0.4,0.4-0.8,0.8-1.2,1.2C67.1,49.7,67.3,49.5,67.5,49.3"/>
<path class="st0" d="M56.6,2.6L56.6,2.6l-0.3-0.1c0.2,0.1,0.4,0.2,0.6,0.2C56.8,2.6,56.7,2.6,56.6,2.6"/>
<path class="st0" d="M37,56.6c0.1,0,0.1,0,0.2,0.1c-0.2-0.1-0.4-0.1-0.6-0.2L37,56.6z"/>
<path class="st0" d="M56.9,2.7c0.2,0.1,0.2,0.1,0.2,0.1v0c0,0,0,0,0,0c0,0-0.3-0.1-0.3-0.1C56.7,2.6,56.7,2.6,56.9,2.7
	C56.9,2.7,56.9,2.7,56.9,2.7"/>
<path class="st0" d="M61.6,12.9C61.6,12.9,61.6,12.8,61.6,12.9C61.6,12.8,61.6,12.8,61.6,12.9c0-0.1,0-0.1-0.1-0.2c0,0,0,0,0,0
	C61.5,12.7,61.5,12.7,61.6,12.9C61.6,12.9,61.6,12.9,61.6,12.9"/>
<path class="st0" d="M57.2,2.8C57.2,2.8,57.2,2.8,57.2,2.8c-0.1,0-0.2-0.1-0.2-0.1C57.1,2.8,57.2,2.8,57.2,2.8"/>
<path class="st0" d="M53.7,1.6L53.7,1.6C53.7,1.6,53.7,1.6,53.7,1.6C53.7,1.6,53.7,1.6,53.7,1.6c0,0-0.1,0-0.1,0
	C53.6,1.6,53.7,1.6,53.7,1.6"/>
<path class="st0" d="M55.1,7.1C55.1,7.2,55.1,7.2,55.1,7.1L55.1,7.1c0.2,0.1,0.2,0,0.2,0C55.2,7.1,55.2,7.1,55.1,7.1"/>
<path class="st0" d="M61.2,11.7c0,0,0,0.1,0,0.1c-0.1,0-0.3,0-0.3,0c0,0,0,0-0.1-0.1c0,0-0.1-0.1-0.2-0.1c-0.1,0-0.1,0.1-0.1,0.1
	c-0.1,0-0.1,0-0.1-0.6c0,0-0.1-0.1-0.1-0.1c0,0,0.1-0.1-0.1-0.1c-0.1,0-0.1,0-0.1,0.1c0,0,0,0.1,0,0.1c0,0.1,0,0.2,0,0.3
	c0,0.5,0.1,0.5,0.1,0.5c0,0,0.1,0,0.1,0.1c0,0,0,0,0,0.1c-0.1,0-0.1,0-0.1,0c-0.1,0-0.1,0.1-0.1,0.2c-0.1,0.2,0,0.4,0.1,0.4
	c0,0,0.9,0,1.1-0.1c0.3-0.1,0.4,0.2,0.4,0.2c0,0.1,0,0.1,0.1,0.1c0.1-0.1,0.1-0.3,0.2-0.4c0,0,0.1,0,0.3,0.3c0.1,0,0.1,0,0.1,0
	c0.1,0,0.1,0.1,0.2,0.1c0,0,0,0,0,0c0,0,0-0.1,0-0.3c0,0,0,0,0-0.1c0,0,0,0,0,0c0-0.1,0-0.2-0.1-0.2c-0.1,0-0.1,0.1-0.1,0.2
	c0,0-0.1-0.1-0.1-0.3c0-0.1,0-0.1,0-0.1c0,0,0,0-0.1,0c0,0-0.1,0-0.1,0L61.6,12c0,0,0,0,0-0.1c0,0,0-0.1,0-0.2c0,0,0,0,0,0
	C61.6,11.7,61.2,11.7,61.2,11.7"/>
<path class="st0" d="M55.2,6.6c0,0-0.2-0.1-0.2,0C55,6.6,55.1,6.7,55.2,6.6C55.2,6.6,55.2,6.6,55.2,6.6"/>
<path class="st0" d="M56.2,2.4C56.1,2.4,56.1,2.4,56.2,2.4C56.1,2.4,56.1,2.4,56.2,2.4C56.1,2.4,56.2,2.4,56.2,2.4"/>
<path class="st0" d="M60.1,13.5L60.1,13.5C60.1,13.5,60.1,13.5,60.1,13.5C60.1,13.5,60.1,13.5,60.1,13.5
	C60.1,13.5,60.1,13.5,60.1,13.5"/>
<path class="st0" d="M60.2,12.8C60.2,12.8,60.2,12.8,60.2,12.8C60.2,12.8,60.2,12.8,60.2,12.8c-0.2,0-0.3,0.2-0.3,0.2
	c0,0.1,0,0.4,0.1,0.4c0,0.1,0.1,0,0.1,0c0,0,0,0-0.1-0.1c0,0,0,0,0-0.1c0-0.1,0-0.3,0.1-0.4C60.1,12.9,60.1,12.8,60.2,12.8"/>
<path class="st0" d="M54.7,5.3c-0.2-0.2-0.4-0.1-0.6-0.2c0,0,0,0,0,0c0,0,0,0-0.5-0.2c0,0,0,0,0,0c-0.1,0-0.1-0.1-0.2-0.1
	c0,0,0,0,0,0.1c0,0-0.1,0-0.1,0c0,0-0.1,0.1-0.1,0.1c-0.3-0.1-0.6-0.1-0.8-0.3c0,0,0-0.1,0.1-0.1c0-0.2-0.1-0.2-0.1-0.2
	c-0.1-0.1-0.2,0-0.3,0c0-0.1,0-0.1,0.1-0.1c0,0,0,0,0,0c-0.1-0.1-0.2-0.1-0.2-0.1c0,0,0,0,0,0.1c0,0,0,0-0.2-0.1c0,0,0,0,0,0
	C51.3,3.9,50.9,4,50.9,4c-0.1-0.2-0.3-0.1-0.3-0.1c0,0,0,0.1,0,0.1c-0.1,0-0.1,0-0.2-0.1c0,0,0,0-0.1,0.1c-0.2,0-0.2-0.2-0.3-0.3
	c-0.2-0.1-0.2-0.1-0.4-0.1c-0.2,0-0.8,0-0.9,0c0.1,0,0.2,0,0.3-0.1c-0.1-0.3-1-0.2-1.1-0.1c0,0,0,0,0,0c-0.2,0-0.9,0.1-0.9,0.3
	c0.1,0.1,0.3,0,0.4,0.1c-0.2,0-0.2,0-0.3,0c0,0,0,0,0,0.1c0.3,0.1,0.3,0.1,0.4,0.2c-0.1,0-0.1,0-0.4,0c0,0,0,0,0-0.1c0,0,0,0,0,0
	c-0.4-0.4-0.4-0.4-0.3-0.4c0-0.1,0-0.1,0.4-0.2C47.1,3.3,46,3.4,46,4c0,0.3,0.4,0.3,0.7,0.3c0,0,0,0,0,0c0,0-0.1,0-0.1,0
	c0,0,0.1,0.1,0.4,0.1c0,0,0,0,0,0c0,0,0,0,0,0c0.2,0,0.5,0.1,0.7,0.1l0.7,0c0,0,0,0,0,0c0,0,0,0,0,0c0,0,0,0,0,0
	c0.2,0,0.3,0.1,0.5,0.1c0,0,0,0,0,0c-0.1,0-0.1-0.1-0.2-0.1c0,0,0,0,0,0c0.2,0,0.4,0.1,0.6,0c0-0.1,0-0.1-0.2-0.1c0,0,0,0,0.1,0
	c0.2,0.1,0.2,0.1,0.2,0c0.1,0,0.1,0,0.2,0.1c0.1-0.1,0.1-0.1,0.3,0c0.1,0,0.2-0.1,0.4,0.2c0,0,0,0.1,0,0.1c0.3,0.1,0.4,0,0.4-0.1
	c0.2,0.2,0.6,0.2,0.7,0.6c0,0,0,0,0,0c0,0,0,0,0,0c0.1,0.1,0.1,0.1,0.1,0.1c-0.1,0.1-0.1,0.1,0.1,0.6c-0.1,0.1-0.1,0.2-0.6,0.2
	c-0.2,0-0.5,0.1-0.5,0.2c0,0.2,0.4,0.4,0.5,0.3c0.1,0,0.1-0.2,0.2-0.3c0.1,0,0.2,0,0.3,0c-0.1,0-0.1,0-0.2-0.1C52,6.3,53,6.8,53,6.8
	c0,0-0.1,0.1-0.1,0.1c0,0,0,0,0,0l1.6,0c0.2,0,0.2,0,0.2-0.1c-0.4-0.3-0.9-0.1-1.2-0.4c0,0,0,0,0,0c0.1,0,0.2,0,0.3,0c0,0,0,0,0,0
	c0.3,0,0.6,0.1,0.8,0.2c-0.1-0.1-0.2-0.2-0.2-0.3c0,0,0,0,0,0C54.5,6.1,54.2,6,54.2,6c-0.4,0-1-0.4-1-0.4c0,0,0.1,0,0.1,0v0l0,0
	c-0.1-0.1-0.2-0.1-0.2-0.2c0.1,0,0.1,0,0.2,0.1c0.1-0.1,0.9,0.3,0.9,0.3c0.2,0.1,0.5,0.1,0.5,0.1c0,0,0,0,0-0.1
	c-0.1-0.1-0.1-0.1-0.2-0.2c0.1,0,0.1,0,0.2,0c0-0.1,0-0.1-0.2-0.3C54.7,5.3,54.7,5.3,54.7,5.3"/>
<path class="st0" d="M60.9,26c-0.1,0,0,0.1,0.1,0.1c0.1,0,0.3,0,0.3-0.1C61.3,26,61,26,60.9,26"/>
<path class="st0" d="M60.5,13.3C60.5,13.3,60.5,13.3,60.5,13.3c0-0.1-0.1-0.2-0.2-0.1c0,0,0,0.1,0,0.1c0,0,0,0,0,0c0,0,0,0.1,0,0.1
	c0,0,0,0,0,0.1c0,0,0.1,0,0.1,0c0,0,0,0,0,0c0,0,0,0,0,0C60.4,13.5,60.4,13.4,60.5,13.3C60.4,13.4,60.4,13.4,60.5,13.3"/>
<path class="st0" d="M61.6,5.3C61.6,5.3,61.6,5.3,61.6,5.3C61.6,5.3,61.6,5.3,61.6,5.3L61.6,5.3C61.6,5.3,61.5,5.3,61.6,5.3
	C61.5,5.3,61.6,5.3,61.6,5.3"/>
<path class="st0" d="M60.5,10.8L60.5,10.8L60.5,10.8C60.5,10.8,60.5,10.8,60.5,10.8C60.5,10.8,60.5,10.8,60.5,10.8
	C60.5,10.8,60.5,10.8,60.5,10.8"/>
<path class="st0" d="M61,7.6C61,7.6,61.1,7.6,61,7.6C61.1,7.5,61.1,7.5,61,7.6c0-0.1-0.1-0.1-0.1-0.1v0C60.9,7.5,61,7.5,61,7.6"/>
<path class="st0" d="M47.5,5.5C47.5,5.5,47.5,5.5,47.5,5.5L47.5,5.5C47.5,5.5,47.5,5.5,47.5,5.5C47.5,5.5,47.5,5.5,47.5,5.5
	C47.5,5.5,47.5,5.5,47.5,5.5"/>
<path class="st0" d="M48.3,6.2c0,0-0.1-0.1-0.1,0C48.1,6.1,48.2,6.2,48.3,6.2C48.3,6.2,48.3,6.2,48.3,6.2"/>
<path class="st0" d="M49.1,4.6C49.1,4.6,49,4.6,49.1,4.6c0,0.1,0.2,0,0.2,0C49.3,4.5,49.2,4.6,49.1,4.6"/>
<path class="st0" d="M49.5,5c0.1,0,0.1,0,0.1,0C49.6,4.9,49.6,4.9,49.5,5C49.5,4.9,49.4,4.9,49.5,5C49.4,4.9,49.4,5,49.5,5L49.5,5z"
	/>
<path class="st0" d="M49.4,7c-0.1,0.1-0.1,0.1-0.2,0.2c-0.1,0-0.2,0.1-0.2,0.1c0,0.1,0.1,0,0.1,0C49.2,7.3,49.4,7.2,49.4,7
	C49.4,7,49.4,7,49.4,7C49.4,7,49.4,7,49.4,7"/>
<path class="st0" d="M47.2,4.7C47.2,4.8,47.2,4.8,47.2,4.7c0.1,0.1,0.2,0,0.2,0C47.4,4.7,47.2,4.7,47.2,4.7
	C47.1,4.7,47.1,4.7,47.2,4.7"/>
<path class="st0" d="M49.6,6.7c0,0-0.1-0.1-0.2-0.1c-0.1,0-0.1,0-0.2,0c-0.2-0.1-0.3-0.2-0.4-0.3c-0.2-0.1-0.2-0.1-0.5,0
	c-0.1,0-0.1,0-0.1,0c0,0,0-0.1,0-0.1c0,0-0.1,0-0.1,0.1c0,0,0,0,0,0c0,0.1,0.1,0.2,0.1,0.3c0,0.1-0.2,0.2-0.1,0.3
	c0.1,0.1,0.2,0,0.2,0c0.1,0,0.1,0.1,0.2,0.1c0,0,0.1,0,0.1,0c0.1,0,0.1-0.2,0.1-0.3c0-0.1,0-0.1,0-0.2c0,0,0,0,0,0
	c0.2-0.1,0.3,0,0.3,0c0,0,0.1,0.1,0.1,0.1c0.1,0.1,0.2,0.1,0.3,0.1C49.6,6.9,49.6,6.8,49.6,6.7"/>
<path class="st0" d="M63.4,29.6c0.1,0,0.1,0,0.1-0.1c0-0.1,0-0.1,0-0.2c0,0,0,0,0,0c-0.1,0-0.1,0-0.2,0.1
	C63.3,29.5,63.3,29.6,63.4,29.6"/>
<path class="st0" d="M49.5,4.7c0,0-0.1,0-0.1,0C49.5,4.7,49.5,4.7,49.5,4.7L49.5,4.7C49.5,4.8,49.5,4.8,49.5,4.7"/>
<path class="st0" d="M45.3,3.5l0.2,0c0.1,0,0.3-0.2,0.4-0.1c0.2,0,0.4,0.1,0.4,0c0.1,0,0.7-0.1,0.7-0.1c0.1,0,0.1-0.1,0.2,0
	c0,0,0.4,0,0.5,0c0.1,0,0.1-0.1,0.1-0.1c0,0,0,0,0.1,0l0,0c0,0,0.1,0,0.1,0c0,0,0,0-0.1,0c0,0,0-0.1,0-0.1c-0.1-0.1-0.7-0.1-0.7-0.1
	c-0.4,0-0.8,0.2-1.3,0.2c-0.2,0-0.2,0-0.6-0.1c0,0,0.2,0,0.2-0.1c0,0,0,0,0,0c-0.2,0-0.3-0.1-0.4-0.1c-0.1,0-0.2,0.1-0.3,0.1
	c-0.1,0-0.2-0.1-0.4-0.1c-0.4,0-0.3,0.1-0.3,0.1c0,0,0.1,0,0.1,0.1c0.3,0.1,0.7-0.2,1,0.1C45.2,3.2,45.1,3.4,45.3,3.5"/>
<path class="st0" d="M51.3,6.9C51.3,7,51.4,7,51.4,7c0,0,0,0,0,0C51.4,6.9,51.3,6.9,51.3,6.9C51.3,6.9,51.3,6.9,51.3,6.9"/>
<path class="st0" d="M54.4,7.5L54.4,7.5C54.5,7.5,54.5,7.5,54.4,7.5C54.5,7.5,54.4,7.5,54.4,7.5C54.4,7.5,54.4,7.5,54.4,7.5"/>
<path class="st0" d="M50.8,5.1c0-0.1-0.2-0.2-0.3-0.1c0,0.1,0.1,0.3,0.2,0.2C50.7,5.2,50.8,5.2,50.8,5.1"/>
<path class="st0" d="M51.5,11C51.5,11,51.5,11,51.5,11c0-0.1,0-0.1-0.1-0.1c0,0-0.1,0-0.1,0.1C51.3,11,51.4,11,51.5,11"/>
<path class="st0" d="M53.3,7L53.3,7C53.4,7.1,53.4,7.1,53.3,7C53.4,7,53.3,7,53.3,7C53.3,7,53.3,7,53.3,7"/>
<path class="st0" d="M51.1,7C51.1,7,51,7,51,7C51,7,51,7,51.1,7L51.1,7C51.1,7,51.1,7,51.1,7"/>
<path class="st0" d="M50.5,7.4c0.1,0,0.1-0.1,0.1-0.2c0-0.1-0.1,0-0.1,0v0c0,0,0,0,0,0.1c0,0,0,0,0,0C50.5,7.4,50.5,7.5,50.5,7.4"/>
<path class="st0" d="M51,5.1L51,5.1c0,0,0.1,0,0.1-0.1C51.1,5.1,51.1,5,51,5.1C51,5.1,51,5.1,51,5.1"/>
<path class="st0" d="M51,4.9C51,4.9,51,4.9,51,4.9C51,4.9,51,4.9,51,4.9C51,5,51,5,51,4.9L51,4.9C51,5,51.1,4.9,51,4.9"/>
<path class="st0" d="M50.2,4.6c0,0-0.1,0-0.1,0C50.1,4.6,50.2,4.7,50.2,4.6C50.2,4.6,50.2,4.6,50.2,4.6"/>
<path class="st0" d="M49.6,4.7L49.6,4.7C49.6,4.6,49.5,4.6,49.6,4.7C49.5,4.6,49.5,4.6,49.6,4.7C49.6,4.6,49.6,4.6,49.6,4.7
	C49.6,4.7,49.6,4.7,49.6,4.7"/>
<path class="st0" d="M40.8,6.1l0.3,0c0.1,0,0.1-0.1,0.2-0.2C41.1,6,40.9,6.1,40.8,6.1"/>
<path class="st0" d="M54.1,31.2C54.1,31.2,54.1,31.2,54.1,31.2C54.1,31.2,54,31.2,54.1,31.2C54,31.1,54,31.1,54.1,31.2
	C54,31.1,54,31.2,54.1,31.2"/>
<path class="st0" d="M54.3,54L54.3,54C54.3,54,54.3,54,54.3,54C54.3,54,54.3,54,54.3,54C54.3,54,54.3,54,54.3,54
	C54.3,54,54.3,54,54.3,54L54.3,54C54.3,54,54.3,54,54.3,54"/>
<path class="st0" d="M34.7,14.4C34.7,14.4,34.7,14.4,34.7,14.4c0.1,0.1,0.1,0.1,0.1,0.1C34.8,14.4,34.7,14.3,34.7,14.4
	C34.7,14.3,34.7,14.3,34.7,14.4"/>
<path class="st0" d="M54.4,53.6C54.4,53.6,54.4,53.5,54.4,53.6c-0.1,0-0.1,0-0.1,0.1l0,0C54.4,53.6,54.4,53.6,54.4,53.6"/>
<path class="st0" d="M54.2,53.9C54.2,54,54.2,54,54.2,53.9C54,54.2,54,54.3,54,54.3c0,0,0,0,0,0c0,0,0.1,0,0.2,0c0,0,0,0,0,0
	c0,0,0,0,0,0c0,0,0,0,0,0c0,0,0,0,0,0c0,0,0-0.1,0-0.2C54.3,54,54.3,54,54.2,53.9C54.3,54,54.3,54,54.2,53.9
	C54.2,54,54.2,54,54.2,53.9"/>
<path class="st0" d="M70.3,36.2c-0.1-0.1-0.2-0.2-0.2-0.3c-0.2-0.5-0.3-0.6-0.7-0.6c-0.5-0.2-0.5-0.2-0.7,0c0-0.2-0.1-0.5-0.2-0.6
	c-0.3-0.2-0.3-0.2-0.7-0.3c0-0.1-0.1-0.1-0.2-0.2c0,0,0-0.1,0-0.1c-0.2,0-0.4,0-0.5-0.1c0.3-1.7-0.9-3.1-2.2-2.5
	c0-0.1,0.1-0.3,0.1-0.4c-0.1,0-0.3,0-0.4-0.1c-0.1,0.1-0.1,0.1-0.2,0.2c-0.4-0.9-0.4-0.9-1.1-0.8c0,0,0,0,0-0.1l0.2-0.1
	c0-0.1,0-0.2,0-0.3c-0.1-0.1-0.3-0.1-0.5-0.2c0-0.1,0-0.2-0.1-0.3c-0.4,0-0.8,0.2-1.2,0.2c-0.6-0.3-1.3-0.1-1.9-0.5
	c0,0.1,0,0.2,0,0.3c-0.1,0.1-0.3,0.2-0.4,0.3c0,0.3,0.2,0.5,0.2,0.8c-0.2,0-0.4-0.1-0.5-0.2c0-0.1,0-0.2,0-0.3c0,0,0.1-0.1,0.2-0.1
	c0-0.2-0.1-0.4-0.1-0.5c0.1-0.1,0.1-0.1,0.2-0.2c0,0,0,0,0,0l-0.1,0c-0.3,0.1-0.5,0.4-0.9,0.3c-0.2,0.2-0.4,0.3-0.5,0.5
	c-0.1,0.3-0.1,0.3-0.7,0.9c-1.2-0.4-1.2-0.4-1.6-0.3c-1.4,0.2-1.4-0.6-1.5-2.2c0-0.1,0-0.1-2.5-0.5c-0.1-0.4,0.4-0.8,0-1.2
	c0.1,0,0.2,0,0.3,0c0.3-0.6,0.1-1.6,0.1-1.6c-0.6-0.1-0.6-0.1-1.8,1.6c-0.1,0.2-2.2,0.5-2.2,0.5c-0.1-0.1-0.2-0.3-0.3-0.4
	c-0.5-0.5-0.5-0.5-1.2-2.4c0.1-0.1,0.2-0.3,0.3-0.5c0-0.1,0-0.1-0.3-0.7c0.2-0.4,0.6-0.9,1.4-1.3c0.5-0.3,1.1-0.7,1.8-0.1
	c0.1-0.1,0.2-0.2,0.3-0.3c0.2,0,0.4,0,0.5,0c0-0.1,0.1-0.2,0.2-0.2c-0.1,0-0.2-0.1-0.2-0.1c0.7-0.7,1.6,0,2.3-0.1
	c0.1-0.1,0.1-0.2,0.2-0.2c0.8,0.6,0.9,1.7,1.7,2.2c0.5-0.9-0.2-1.6-0.2-1.6c-1.5-1.5,1.5-3.3,1.6-3.3c-0.1,0-0.2,0-0.3-0.1
	c0-0.1,0-0.3,0-0.4c-0.1,0-0.2-0.1-0.3-0.1c0-0.1,0-0.2,0.1-0.3c-0.3-0.3-0.3-0.4-0.2-0.7c0.1,0.1,0.1,0.2,0.2,0.4
	c0.1,0.1,0.4,0.1,0.5,0.1c0-0.1,0-0.2,0-0.3c0-0.1,0-0.2-0.1-0.3c0.1,0,0.2-0.1,0.3-0.1c0-0.1,0.1-0.2,0.1-0.2
	c0-0.1-0.1-0.2-0.2-0.2c0.1-0.2,0.3-0.5,1.3-0.7c-0.1-0.1-0.1-0.2-0.2-0.2c0-0.1,0.1-0.5,0.7-0.8c0.1,0,0.2,0.1,0.2,0.1
	c0.1-0.1,0.1-0.1,0.2-0.2c0-0.1-0.1-0.2-0.2-0.3c0.1,0,0.2,0,0.3,0.1c0.1-0.2,0.3-0.2,0.5-0.3c0.1,0.1,0.4,0.1,0.5,0.1
	c-0.1,0-0.1,0.1-0.2,0.2c-0.2,0.2-0.5,0.3-0.7,0.5c0.4,0.1,0.5,0.1,0.8,0.2c0.1-0.2,0.1-0.2,0.8-0.7c0-0.1,0-0.3-0.1-0.4
	c-0.3,0.2-0.3,0.2-0.8,0c-0.5-0.5-0.5-0.5-0.5-0.8c-0.2,0-0.4,0-0.6,0c0.1-0.1,0.3-0.2,0.4-0.3c-0.2-1-1.4-0.1-1.6,0.1
	c0,0.1-0.1,0.2-0.1,0.3c-0.1-0.1-0.1-0.2-0.2-0.2c0.2-0.3,0.3-0.4,1.6-0.8c0,0,0.4,0.2,0.5,0.3c0.2,0,0.5,0.1,0.6,0.1c0,0,0,0,0,0
	c0,0-0.1-0.1-0.1-0.1c0,0,0,0,0,0c-0.4-0.2-0.7-0.3-0.9-0.3c0.4-0.1,0.8-0.2,1.3-0.4c0.1-0.1,0.1-0.1,0.2-0.2c0-0.1,0-0.2,0-0.3
	c0.2-0.1,0.4-0.2,0.6-0.2c0,0-0.1-1.2-1.4-0.3c0.1-0.1,0.1-0.1,0.6-0.6c-1.7-0.6-1.7-0.6-1.7-0.6c0-0.1,0-0.2,0-0.3
	c-1.3-0.6-1.9-1.4-1.9-1.4c-0.1,0.3-0.2,0.5-0.3,0.8c-1.5,0-2.6-1.5-4.3-1.1c0.1,0.1,0.1,0.1,0.2,0.2c0,0.1-0.1,0.2-0.1,0.3
	c0.1,0.1,0.3,0.2,0.5,0.3c0,0.1-0.1,0.3-0.2,0.4c0,0,0.9,0.6,1.1,1.1c-0.4,0.6-0.2,1.4-0.4,2c-0.3,0-1.1,0-1.3-0.9
	c0-0.1,0-0.1-2.5-0.9c0,0-2.8-0.7-3-0.9c0.1-0.6,0.6-0.9,0.9-1.3c0.1,0,0.3,0,0.4,0c0-0.1-0.1-0.2-0.1-0.2c0.1-0.1,0.2-0.3,0.3-0.4
	c0.5,0,0.5,0,0.7-0.3c-0.2-0.1-0.2-0.1-0.9-0.1c0.1-0.1,0.1-0.1,0.2-0.2c0.6,0,0.6,0,0.8,0c0-0.1,0.1-0.2,0.1-0.3
	c0.2,0,0.4,0,0.5,0.1c0.3-0.2,0.6-0.3,0.9-0.5c-0.1-0.1-0.3-0.1-0.5-0.2c0-0.2,0-0.4,0-0.5c-0.1,0-0.2,0-0.2,0
	c-0.3-0.1-0.4-0.2-0.8-0.2c0.1,0.7-0.1,0.9-0.3,1c-0.2,0-0.3-0.1-0.5-0.2c0-0.1,0-0.3,0.1-0.4C47,5,46.9,5,46.8,5
	c-0.1,0.1-0.3,0.3-0.3,0.4C46,5,46,5,45.8,5c-0.1-0.6-0.7-0.4-1-0.8c0-0.1,0.1-0.2,0.1-0.3c0.6-0.1,0.6-0.1,0.7-0.3
	c-0.2-0.1-0.9-0.3-1.2,0.1c0.1,0.1,0.2,0.3,0.2,0.5c-0.2,0.5-0.2,0.5-0.2,0.8C44.7,5,45,5,45.2,5c-0.1,0.1-0.1,0.1-0.2,0.2
	c0.1,0.1,0.1,0.1,0.2,0.2c-0.1,0.1-0.3,0.2-0.5,0.3c0,0.1,0,0.2,0,0.3c-0.1,0-0.2,0-0.3,0c-0.4-0.4-0.4-0.4-0.6-0.4
	c-0.1,0.1-0.3,0.3-0.4,0.4l-2.5,0.1c0,0-0.1,0-0.1,0.1c-0.1,0.1-0.2,0.3-0.2,0.5c0-0.1-0.1-0.2-0.1-0.2c-0.1,0-0.3-0.1-0.5-0.2
	c-0.1,0-0.2,0.1-0.2,0.1c0,0,0,0,0,0c-0.8,0.2-0.8,0.2-0.9,0.1c0-0.1,0.1-0.2,0.1-0.2c-0.1,0-0.2-0.1-0.2-0.1
	c-0.7,0.4-1.6-0.4-2.3,0.2c-0.1-0.1-0.3-0.3-0.4-0.4c-0.6,0.1-1.6,0.9-1.6,0.9c0.2-0.3,0.2-0.3,0.9-0.6c-0.3,0-0.3,0-0.7,0.2
	c0,0-1.2,0.5-1.4,0.3c0,0,0,0,0,0l-2.6,0.1c-2.7,1.4-2.7,1.7-2.8,2.3c-0.1,0-0.1,0.1-0.2,0.2c-0.1,0-0.2-0.1-0.3-0.1
	c-0.2,0.2-0.4,0.3-0.6,0.4c0,0.1-0.1,0.2-0.1,0.3c0.2,0,0.4,0,0.6-0.1c0,0.2-0.1,0.4-0.3,0.5c0,0,0,0-0.1,0
	c-0.1,0.1-0.3,0.2-0.5,0.2c-0.2,0.3-0.6,0.5-0.8,0.9c0,0.1,0,0.2-0.1,0.2c0.1,0,0.2,0,0.3,0c0,0.1-0.1,0.2-0.1,0.3
	c-0.1,0.1-0.1,0.3-0.2,0.4c0.3-0.2,0.3-0.2,0.7-0.2c0,0.1-0.1,0.2-0.1,0.3c-0.1,0.1-0.1,0.1-1.8,1.7c0.1-0.1,0.3-0.2,0.4-0.3
	c0,0-0.1,0.1-0.1,0.1c1.5-0.9,2.1-2.8,3.9-3.3C28,11.4,28,11.4,28,11.6c0.5-0.3,1.2-0.8,1.2-0.8c0.1-0.1,0.1-0.1,0.2-0.2
	c0.1,0.1,0.1,0.1,1.8,0.4c0.1,0.1,0.3,0.2,0.4,0.3c0,0.1,0,0.2,0,0.3c0.1,0.1,0.2,0.3,0.2,0.5c0.2,0,0.4,0,0.5,0
	c-0.1,0-0.2,0-0.3-0.1c0-0.2-0.1-0.4-0.1-0.5c-0.1,0-0.2,0-0.3,0c0.1-0.1,0.3-0.2,0.4-0.3c0.5,0.3,0.5,0.9,0.8,1.4
	c0.1,0,0.2,0,0.3,0C33.1,12.6,33,12.8,33,13c0.1,0.1,0.1,0.2,0.2,0.3l0.1-0.1c0,0.1-0.1,0.2-0.1,0.2c0.1,0.1,0.3,0.2,0.5,0.2
	c0,0.1,0,0.2,0,0.3c0.1,0.1,0.2,0.2,0.3,0.3c-0.2,0-0.4,0-0.6,0.1c0.2,0.2,0.3,0.3,1,0.4c0,0.1,0.1,0.2,0.1,0.2
	c0,0.1-0.1,0.2-0.1,0.3c1.2,1.3-1.1,3.6,0.9,4.5c-0.1,0.5-0.1,0.5,1.7,1.9c0.2,0.1,0.2,0.1,0.3,0.5c0.4,0.4,1.1,0.6,1.3,1.3
	c0,0.4,0,0.4-0.3,0.7c1,0.2,1.4,1.4,2.3,1.8c0.1-0.1,0.1-0.2,0.2-0.2c-0.1-0.1-0.3-0.3-0.5-0.3c0-0.1,0-0.2,0-0.3
	c-0.5-0.3-1.2-1.6-1.2-1.6c-0.5-0.3-0.9-1.2-0.9-1.2c0.2,0,0.4,0,0.5-0.1c0.1,0.1,0.1,0.1,0.2,0.2l5,5.4c0.2,0.1,7.9,1.4,8,1.4
	c0,0,0.1-0.1,0.1-0.2c0.1,0.1,0.1,0.2,0.2,0.3c0.2,0.6,0.6,1,0.8,1.5c0.5-0.1,0.5-0.1,0.9,0.5c0.6-0.1,1.1,0.5,1.7,0.3
	c-0.1-0.1-0.2-0.1-0.2-0.2c0.2-1,0.9-0.1,0.9-0.1c0,0.1,0,0.2,0,0.3c0,0,0,0,0.3,1.8c-0.2,0.1-1.5,1.3-1.1,3.1
	c-1.2,1.1,2.7,5.2,2.8,5.3c0.4,0.2,0.9,1.4-2.4,9.5c-0.2,0.4-0.5,0.8-0.7,1.2c-0.1,0-0.3,0.1-0.5,0.2c0.1,0,0.1,0.1,0.2,0.2
	c-0.2,0.3-0.2,0.3-0.4,0.6c0,0.1-0.1,0.2-0.1,0.2c0.1-0.3,0.2-0.4,0.2-0.6c-0.2,0.2-0.3,0.2-0.2,0.7c-0.1,0.1-0.3,0.2-0.3,0.4
	c0.1,0,0.1-0.1,0.2-0.2c0,0.1-0.1,0.1-0.1,0.2c0,0.2-0.1,0.4-0.2,0.5c0.1,0,0.2-0.1,0.2-0.1l-0.1,0.2c0.1-0.1,0.3-0.2,0.4-0.2
	c0,0,0,0,0,0c0,0,0,0.1,0,0.1c0,0.1-0.1,0.1-0.2,0.2c0,0,0,0,0,0c0.1,0,0.1,0,0.2,0c-0.1,0-0.2,0.1-0.3,0.1c0,0,0,0,0,0
	c0,0,0.1-0.1,0.1-0.1c0,0,0,0,0,0c-0.1,0-0.2,0-0.2,0.1c0,0,0,0,0.1,0c0,0,0,0-0.1,0c-0.1,0-0.1,0.1-0.1,0.1c0,0,0,0,0.1,0
	c0,0,0.1,0,0.2,0.1c0,0,0,0,0,0c0,0-0.1,0-0.1,0c0,0,0,0.1,0,0c0,0,0,0,0.1,0c0.1,0,0.1,0,0.2-0.1v0c0,0,0,0,0,0c0,0,0,0,0,0
	c0,0,0,0,0,0.1c0,0,0,0,0,0c0.1,0,0.2-0.1,0.3-0.1c0.1,0,0.2,0,0.2,0c0,0,0,0,0,0c0-0.1-0.1-0.1-0.2-0.1c0.2-0.3,0.2-0.3,0.1-0.3
	c0,0-0.1,0-0.2,0c0.1,0,0.2-0.1,0.3-0.1c0.3-0.4,0.3-0.4,0.4-0.5c0.7-0.6,0.9-0.8,1.1-0.9c0-0.1-0.1-0.2-0.1-0.2
	c0.3-0.6,0.7-0.6,0.7-0.6c0.5-0.8,0.5-0.8,0.5-0.8c0.1,0,0.2,0,0.3,0c0-0.2,0-0.4,0-0.5c0.1,0,0.2,0,0.3,0c0,0,0.1,0.1,0.1,0.1
	c0.3-0.2,0.4-0.3,0.6-0.7c0.5-0.3,1.1-0.3,1.5-0.7c0.4-0.5,0.2-1.2,0.6-1.7c-0.1,0.2-0.2,0.4-0.2,0.6c0,0.1,0.1,0.2,0.1,0.2
	c1.1,0,1.3-1.4,2.4-1.6c0.3-0.5,2.2-2.6,2.2-2.6c1.2-0.3,1.7-1.1,2.6-2.4c0,0,2.4-4.6,2.4-5.2L70.3,36.2L70.3,36.2z"/>
<path class="st0" d="M49.9,21.3C50,21.2,50,21.3,49.9,21.3C50,21.3,49.9,21.3,49.9,21.3"/>
<path class="st0" d="M53.2,14.7c0.1,0,0.7-0.2,0.8-0.1c-0.1,0-0.2,0-0.3-0.1c0.3,0,0.5,0,0.7-0.1c0,0,0,0,0,0c0,0,0,0,0,0
	c0,0.1-0.2,0.2-0.2,0.2c-0.3,0.2-0.6,0.2-0.9,0.4c-0.2,0.1-0.3,0.4-0.4,0.5c0,0,0,0,0,0c-0.1,0.1-0.3,0.1-0.5,0.1
	c0,0.2-0.5,0.4-0.6,0.2c-0.1-0.1-0.1-0.1-0.3-0.1c0.1-0.2,0.2-0.2,0.3-0.4c-0.1,0.3-0.1,0.3,0.2,0.2c0.2-0.1,0.3-0.3,0.5-0.4
	c0.2,0,0.6-0.2,0.6-0.2c0,0-0.1-0.1-0.2-0.1C53.1,14.8,53.1,14.7,53.2,14.7"/>
<path class="st0" d="M48.3,13.3l0.4-0.3c0,0,0,0,0.1-0.1c0,0,0,0,0.1,0c0-0.4,0.7,0,0.9,0.1c0,0,0,0,0,0c0.5,0.1,0.5,0.1,0.5,0.1
	c0.1,0.1,0.1,0.1,0.1,0.2c0,0.1,0,0.2,0.3,0.3c0.1,0,1.3,0.2,1.5,0.1c0.1,0.1,0.3,0,0.4,0.2l0.2,0.3c0,0.1-0.1,0.2-0.1,0.2
	c-0.3-0.1-0.5-0.1-0.6,0c0,0,0,0,0,0.1c-0.1,0.1,0,0.3-0.1,0.4c0,0.1-0.2,0.1-0.2,0.2c0-0.1-0.2-0.3-0.3-0.4
	c-0.1-0.1-0.3,0.1-0.3-0.1c0-0.3-0.4-0.5-0.4-0.5c-0.2-0.1-0.3-0.1-0.3,0c0,0-0.3,0.2-0.4,0.2c0.2,1.1,0.2,1.1-0.2,1.5
	c-0.4,0-0.6-1-0.4-1.1c0,0,0.1,0,0.1-0.1c0-0.1-0.1-0.2,0-0.3c-0.1,0.1-0.2,0.2-0.3,0.2c0.2-0.4,0.2-0.5,0.3-0.5
	c0.1,0,0.6-0.3,0.6-0.3c0.1,0,0.1,0,0.4,0.1c0,0,0,0,0,0c0-0.1,0-0.1,0-0.1c0.2,0.1,0.2,0.1,0.3,0.1c0,0,0-0.1,0-0.1
	c-0.1-0.1-0.3-0.1-0.3-0.1c-0.2,0-0.1-0.2-0.2-0.2c0,0-0.1,0-0.2,0c-0.4,0.2-0.4,0.2-0.6,0.2c-0.2,0-0.3-0.2-0.5-0.2
	c-0.1,0-0.3,0.1-0.4,0.1c0,0,0,0,0,0c0.4-0.2,0.4-0.2,0.5-0.2c-0.1,0-0.2,0-0.7,0.3c-0.2,0.1-0.3,0.2-0.8,0
	C47.6,13.6,47.6,13.6,48.3,13.3"/>
<path class="st0" d="M34.8,15c0.3-0.1,0.4-0.3,0.2-0.4c-0.1-0.1-0.2-0.1-0.3-0.1c-0.1,0-0.2,0-0.2,0c0,0-0.2-0.3-0.1-0.3
	c0,0,0,0,0,0c0,0,0,0,0,0c0,0,0,0,0,0c0,0,0.1,0,0.1-0.1c0,0.1,0,0.1,0.2,0.2c0.1,0.1,0.1,0.1,0.2,0.1c0,0,0,0,0.1,0.1
	c0.1,0,0.1,0,0.1,0c0,0,0,0,0.1,0c0,0,0.2,0.2,0.2,0.3C35.4,14.8,35.2,14.9,34.8,15"/>
<path class="st0" d="M54.2,53.7C54.3,53.7,54.2,53.7,54.2,53.7C54.2,53.7,54.2,53.7,54.2,53.7L54.2,53.7
	C54.2,53.7,54.2,53.7,54.2,53.7"/>
<polyline class="st0" points="54.4,53.8 54.4,53.8 54.4,53.8 "/>
<path class="st0" d="M55.3,54.6C55.3,54.6,55.3,54.6,55.3,54.6C55.4,54.6,55.3,54.6,55.3,54.6C55.3,54.6,55.2,54.6,55.3,54.6"/>
<path class="st0" d="M50.2,35.8C50.1,35.8,50.2,35.8,50.2,35.8C50.2,35.8,50.2,35.8,50.2,35.8L50.2,35.8L50.2,35.8
	C50.2,35.8,50.2,35.8,50.2,35.8"/>
<path class="st0" d="M50.1,35.6c0,0,0,0.1,0,0.1c0,0,0,0.1,0,0.1c0,0,0,0,0,0c0,0,0,0,0-0.1C50.2,35.7,50.2,35.6,50.1,35.6
	C50.2,35.6,50.2,35.6,50.1,35.6"/>
<path class="st0" d="M54.2,54.8C54.2,54.8,54.2,54.8,54.2,54.8L54.2,54.8C54.2,54.8,54.2,54.8,54.2,54.8
	C54.3,54.8,54.3,54.8,54.2,54.8C54.2,54.8,54.2,54.8,54.2,54.8"/>
<path class="st0" d="M75.2,25.9c-0.2-1-0.3-1.6-0.3-2.1c-0.2-0.8-0.4-1.6-0.6-2.4c-0.2-0.7-0.5-1.6-0.8-2.4
	c-0.1-0.2-0.2-0.4-0.2-0.6c1,2.7,1,3.4,1,6c0,0.8,0.4,1.6,0.4,2.4c0,1.3,0,1.3,0,2c0.1,0.6,0.2,1.1,0.3,1.7l0,0.7
	c0.1,0.5,0.1,1,0.2,1.5c0.1-0.1,0.1-0.2,0.1-0.3c0,0.1,0,0.1,0,0.3c0,0,0,0,0,0c0-0.1,0-0.3,0-0.4c0,0,0,0,0-0.1c0,0,0-0.1,0-0.1
	c0.1-1,0.1-2.2,0.1-3.2c0-0.2,0-0.4,0-0.5c0-0.5-0.1-1-0.1-1.6c0-0.1,0-0.3,0-0.4C75.2,26.2,75.2,26.1,75.2,25.9"/>
<path class="st0" d="M57,53.7C57,53.7,56.9,53.7,57,53.7C56.9,53.7,56.9,53.7,57,53.7C56.9,53.7,56.9,53.7,57,53.7
	c-0.1,0-0.1,0-0.2,0c0,0-0.3,0.2-0.3,0.2c0,0,0,0,0.1,0c0.1,0,0.1,0,0.1-0.1c0,0,0,0,0.1,0C56.8,53.8,56.9,53.8,57,53.7
	C56.9,53.8,57,53.8,57,53.7C57,53.8,57,53.7,57,53.7"/>
<path class="st0" d="M56.6,53.8C56.6,53.8,56.6,53.8,56.6,53.8c0.1-0.1,0.1-0.1,0.2-0.1c0.1,0-0.1-0.1-0.1-0.1c0,0,0,0,0,0
	c-0.1,0.1-0.2,0.1-0.3,0.2c0,0,0,0,0,0C56.5,53.9,56.5,53.8,56.6,53.8C56.6,53.8,56.6,53.8,56.6,53.8"/>
<path class="st0" d="M55.4,52C55.4,51.9,55.4,51.9,55.4,52C55.4,51.9,55.4,51.9,55.4,52c-0.1,0-0.1,0.1-0.1,0.1c0,0,0,0,0,0
	c-0.1,0.1-0.2,0.1-0.2,0.1c0,0,0,0,0,0c0,0,0,0,0,0c0,0,0.2-0.1,0.2-0.2c0,0,0,0,0,0c0,0,0,0-0.1,0c0,0,0,0,0,0
	C55.4,52.1,55.4,52,55.4,52"/>
<path class="st0" d="M54.4,55L54.4,55C54.4,55,54.5,55,54.4,55C54.5,54.9,54.5,54.9,54.4,55C54.5,54.9,54.5,54.9,54.4,55"/>
<path class="st0" d="M23.2,29.9C23.2,29.9,23.2,29.9,23.2,29.9c0,0,0,0.1,0.1,0.2c0,0,0,0,0.1,0c0,0,0,0,0,0
	C23.4,29.9,23.3,29.9,23.2,29.9"/>
<path class="st0" d="M21.8,16.2c0,0-0.1,0.1-0.1,0.1c0,0,0,0,0,0c0,0,0,0,0,0C21.7,16.3,21.8,16.3,21.8,16.2
	C21.8,16.2,21.8,16.2,21.8,16.2"/>
<path class="st0" d="M21.6,16.4"/>
<path class="st0" d="M21.7,16.3C21.7,16.3,21.7,16.3,21.7,16.3C21.6,16.3,21.6,16.3,21.7,16.3C21.6,16.4,21.7,16.3,21.7,16.3
	C21.7,16.3,21.7,16.3,21.7,16.3"/>
<path class="st0" d="M61.9,5.5C61.9,5.5,61.9,5.5,61.9,5.5c-0.1,0,0.1,0.2,0.1,0.2C62,5.7,62,5.7,61.9,5.5c0.1,0.1,0.3,0.1,0.4,0.3
	c0,0,0,0,0,0c0.1,0,0.1,0,0.2,0c0.2,0.1,0.2,0.2,0.2,0.2c0,0,0.1,0.1,0.1,0.1c0,0,0.1,0,0.1,0c0,0,0.1,0,0.2,0.1
	c0.1,0,0.1,0.1,0.2,0.1c0,0,0.1,0,0.1,0c0,0,0,0-0.2-0.1c0,0,0.1,0,0.1,0c0-0.1-0.2-0.3-0.3-0.3c0,0-0.2-0.2-0.3-0.2c0,0,0,0,0,0
	c0,0,0,0-0.4-0.3c0,0,0,0,0,0c-0.1,0-0.1-0.1-0.2-0.1c0,0,0,0,0,0c0,0,0,0,0.1,0.1c0,0,0,0,0,0c0,0,0,0,0,0c0,0,0,0,0,0c0,0,0,0,0,0
	c0,0,0,0-0.1,0c0,0,0.1,0,0.1,0.1c-0.1,0-0.2-0.1-0.2-0.1c0,0,0,0,0.1,0.1C62.1,5.5,62.1,5.5,61.9,5.5c0.2,0,0.3,0.1,0.3,0.2
	c-0.2-0.1-0.3-0.2-0.5-0.3C61.8,5.4,61.9,5.5,61.9,5.5"/>
<path class="st0" d="M22.8,29.7C22.8,29.7,22.9,29.8,22.8,29.7L22.8,29.7C22.9,29.8,22.8,29.7,22.8,29.7
	C22.8,29.7,22.8,29.7,22.8,29.7"/>
<path class="st0" d="M49.1,1.5c0,0,0,0-0.4,0.2c0.2,0.4,0.6,0,0.9,0.2c-0.3,0.3-0.6,0.1-0.9,0.2c0,0,0,0,0,0.1
	c0.1,0.1,0.6,0.2,0.7,0.1c0.2,0,0.4,0,0.6,0c-0.2,0.1-0.4,0.1-0.6,0.1c0,0,0,0,0,0c0,0,0,0-0.3,0c0,0,0,0,0,0.1
	c0.6,0.1,0.6,0.1,1.8,0c0.2,0,1,0.1,1.9,0.4c0,0.1,0.1,0.1,0.1,0.1c0.3,0,0.8,0.3,0.8,0.3c0.1,0.2,0.3,0.3,0.5,0.3c0,0,0-0.1,0-0.1
	c0.2,0,0.8,0.2,0.8,0.2c0.1,0,0.1,0.1,0.2,0.1c0,0,0,0,0,0.1c0,0,0.1,0,0.1,0.1c-0.2,0.1-0.4-0.1-0.6-0.1c0,0,0,0,0,0.1
	c0,0,0.1,0.1,0.1,0.1c0,0,0,0.1,0,0.1c0,0-0.1,0-0.1,0.1c0.1,0.1,0.1,0.1,0.5,0.2c0,0,0,0,0,0.1c0.2,0.1,0.2,0,0.3,0
	c0-0.3-0.4-0.2-0.6-0.4c0.7,0,0.9,0.2,1.3,0.5c0,0-0.1,0-0.1,0c0.1,0.1,0.1,0.1,0.2,0.2c0,0-0.1,0-0.2,0c0.1,0.1,0.1,0.1,0.4,0.1
	c0,0,0,0,0,0.1c-0.1,0-0.1,0-0.3,0c0,0.1,0,0.1,0.6,0.6c0,0,0,0,0,0c0.1,0.1,0.2,0.1,0.2,0.2c0.3,0.1,0.5,0.6,0.9,0.3c0,0,0,0,0.1,0
	c0,0.1,0,0.2,0.1,0.3c0.1,0.1,0.2,0.1,0.3,0.2c0.2,0,0.3,0.4,0.6,0.3c0.3-0.1,0.5,0.2,0.7,0.3c0.1,0.2,0.3,0.2,0.4,0.2
	c0.2-0.1,0.6,0.2,0.6,0.2c0,0,0,0,0.1,0c0,0,0.1,0,0.1,0.1c0.1,0,0.2,0.1,0.3,0.1c0,0,0,0,0-0.1c0,0,0,0-0.3-0.2c0,0,0,0,0-0.1
	c-0.1-0.1-0.1-0.1-0.5-0.7c0,0,0,0,0-0.1c-0.1-0.1-0.2-0.3-0.5-0.4c0,0,0.1,0,0.1,0c0-0.1,0-0.1-0.3-0.2c0,0,0,0,0-0.1
	c0,0,0,0,0-0.1c0.1-0.1,0.1-0.1,0.4-0.1c0,0,0,0,0-0.1c0,0,0,0,0.1,0c-0.1-0.1-0.1-0.2-0.2-0.3C59.9,5.1,60,5,60,5
	c-0.1-0.1-0.1-0.1-0.2-0.2c-0.2-0.1-0.2-0.1-0.2-0.1c0.3,0,0.3,0,0.5,0c0,0,0,0,0-0.1C60,4.5,60,4.5,60,4.4c0,0,0,0,0.1,0
	c-0.5-0.4-0.9-0.5-1.2-0.5c0,0,0,0.1,0.1,0.1c-0.2,0-0.2-0.1-0.2-0.1c0,0,0.1,0,0.1,0c0,0,0,0-0.5-0.2c0.5,0.1,0.9,0.4,1.4,0.5
	c-0.3-0.2-1.2-0.6-1.5-0.8c-0.1,0-0.1,0-0.2-0.1c0,0,0,0,0-0.1C57.7,3.1,57.6,3,57.4,3c0,0,0,0,0,0c0,0,0,0,0,0v0c0,0-0.1-0.1-0.2,0
	c0,0,0,0,0,0c0,0-0.1,0-0.1,0c0,0,0,0,0.3,0.1c-0.1-0.1-0.3-0.1-0.4-0.2c0,0,0,0,0.1,0c-0.2-0.1-0.3-0.1-0.5-0.2
	c0.1,0,0.1,0,0.2,0.1c-0.3-0.1-0.7-0.3-1-0.4c0,0,0,0,0.1,0c-0.3-0.1-0.7-0.2-1.1-0.3c0,0,0.1,0,0.1,0c-0.3-0.1-0.3-0.1-1.4-0.4
	c0,0,0,0,0.1,0c-0.3-0.1-0.6-0.1-0.9-0.2c0.1,0,0.1,0,0.2,0.1c-0.3,0-0.5-0.1-0.8-0.2c0.1,0,0.1,0,0.2,0c-0.1,0-0.7-0.1-0.7-0.1
	c0.1,0,0.1,0,0.4,0c0,0,0,0-0.1,0c-0.1,0-0.2,0-0.2,0c-0.1,0-0.2,0-0.3-0.1l0,0l-0.3,0h0c-0.2,0-0.5-0.1-0.8-0.1l0,0
	C50.3,1,50.2,1,50,1c0,0,0,0,0.1,0c0,0,0,0,0,0c0,0,0.1,0,0.3,0.1c0,0-0.1,0-0.1,0c0,0,0,0,0.1,0c-0.1,0-0.3,0-0.4,0
	c0.1,0,0.2,0.1,0.3,0.1c0,0-0.1,0-0.1,0c0.1,0,0.1,0.1,1,0.2c-0.4,0-0.8-0.1-1.2-0.2c0.1,0.1,0.3,0.1,0.4,0.1c-0.4,0-0.8-0.2-1.1,0
	C49.1,1.3,49.1,1.4,49.1,1.5c0-0.1-0.1-0.1-0.1-0.1C49,1.4,49,1.4,49.1,1.5"/>
<path class="st0" d="M58.6,3.5C58.6,3.5,58.6,3.5,58.6,3.5C58.6,3.5,58.6,3.5,58.6,3.5C58.6,3.5,58.6,3.5,58.6,3.5"/>
<path class="st0" d="M24.5,14.3L24.5,14.3C24.6,14.3,24.6,14.2,24.5,14.3C24.6,14.2,24.6,14.2,24.5,14.3
	C24.5,14.2,24.5,14.3,24.5,14.3"/>
<path class="st0" d="M22.3,29.6C22.3,29.6,22.3,29.6,22.3,29.6C22.3,29.7,22.3,29.6,22.3,29.6C22.3,29.6,22.4,29.6,22.3,29.6
	L22.3,29.6C22.4,29.6,22.4,29.6,22.3,29.6C22.3,29.6,22.3,29.6,22.3,29.6"/>
<path class="st0" d="M21.8,16.2c0,0-0.1,0.2-0.1,0.2c0,0,0,0,0,0C21.8,16.3,21.8,16.2,21.8,16.2C21.8,16.2,21.8,16.2,21.8,16.2"/>
<path class="st0" d="M55,31.6c0,0-0.1-0.1-0.1-0.1C54.9,31.5,54.9,31.6,55,31.6L55,31.6C55,31.6,55,31.6,55,31.6"/>
<path class="st0" d="M24.4,14.2c0,0-0.1,0-0.2,0.1c-0.1,0.1-0.1,0.2-0.2,0.2c0,0,0,0,0,0c0.1,0,0.3-0.1,0.3-0.2
	C24.4,14.3,24.4,14.2,24.4,14.2"/>
<path class="st0" d="M55.4,51.7C55.4,51.7,55.4,51.7,55.4,51.7L55.4,51.7C55.4,51.7,55.4,51.7,55.4,51.7
	C55.5,51.7,55.4,51.7,55.4,51.7"/>
<path class="st0" d="M55.8,50.9c0,0-0.1,0-0.1,0.2c-0.1,0.1-0.1,0.2-0.1,0.4c0,0,0,0,0,0c0.1-0.1,0.2-0.1,0.3-0.2
	C55.9,51.2,55.8,50.9,55.8,50.9"/>
<path class="st0" d="M23.2,15.4c0,0,0.2-0.2,0.3-0.3c0,0,0,0,0,0c0,0,0-0.1,0-0.1C23.4,15.1,23.1,15.4,23.2,15.4"/>
<path class="st0" d="M23.2,15.2C23.2,15.2,23.2,15.2,23.2,15.2C23.2,15.2,23.2,15.2,23.2,15.2C23.2,15.2,23.2,15.2,23.2,15.2
	c-0.1,0-0.2,0.2-0.2,0.2c0,0,0,0,0.1,0C23.1,15.4,23.1,15.3,23.2,15.2C23.2,15.3,23.2,15.3,23.2,15.2"/>
<path class="st0" d="M23.5,30.4c-0.1,0.1,0.1,0.4,0.1,0.4c0,0,0.1-0.2,0.1-0.3C23.7,30.2,23.5,30.4,23.5,30.4"/>
<path class="st0" d="M22,16.1C22,16.1,22.1,16.1,22,16.1c0.1-0.1,0.1-0.2,0.1-0.2c0,0,0,0,0,0h0C22.2,15.9,22,16.1,22,16.1"/>
<path class="st0" d="M45.2,2.8c0,0,0.1,0,0.1,0c0,0,0,0,0,0c0,0,0,0,0,0C45.3,2.7,45.3,2.7,45.2,2.8C45.3,2.7,45.2,2.8,45.2,2.8"/>
<path class="st0" d="M32.1,11.6C32.1,11.6,32.2,11.7,32.1,11.6c0.1,0.1,0.1,0.1,0.1,0.1c0,0,0.1-0.1,0.1-0.2c0,0,0,0,0,0
	c0,0,0,0,0,0C32.3,11.3,32.2,11.5,32.1,11.6"/>
<path class="st0" d="M32.8,12.3c-0.2,0-0.2-0.1-0.1-0.1c0.1-0.1,0-0.1-0.1-0.1c-0.1,0-0.3,0.1-0.3,0.2c0,0,0,0,0.1,0c0,0,0,0,0.1,0
	c0,0,0,0,0.1,0c0,0,0,0.1,0,0.1c0,0,0,0,0,0c0,0,0,0,0,0c0,0,0.1,0,0.1,0.1c0,0,0.1,0,0.1,0.1c0,0,0,0,0,0.1c0.1,0,0.1-0.2,0.1-0.2
	C32.8,12.4,32.8,12.3,32.8,12.3L32.8,12.3"/>
<path class="st0" d="M31.7,11.8C31.7,11.8,31.7,11.8,31.7,11.8L31.7,11.8C31.7,11.8,31.7,11.8,31.7,11.8
	C31.7,11.8,31.7,11.8,31.7,11.8"/>
<path class="st0" d="M32.9,13C32.9,13,32.9,13,32.9,13C32.9,13.1,32.9,13.1,32.9,13L32.9,13C33,13,33,13,32.9,13
	C33,13,32.9,13,32.9,13"/>
<path class="st0" d="M51.4,9.3C51.4,9.4,51.3,9.4,51.4,9.3C51.5,9.4,51.5,9.4,51.4,9.3C51.5,9.4,51.5,9.4,51.4,9.3
	C51.5,9.4,51.5,9.3,51.4,9.3C51.5,9.3,51.4,9.3,51.4,9.3"/>
<path class="st0" d="M32.4,13.4c-0.1,0-0.2,0.1-0.2,0.2c0,0,0,0.1,0,0.1c0.1,0,0.1,0.1,0.2,0.1c0,0,0,0,0-0.1
	C32.5,13.6,32.5,13.3,32.4,13.4"/>
<path class="st0" d="M33.4,13.8C33.4,13.7,33.5,13.7,33.4,13.8C33.5,13.6,33.4,13.7,33.4,13.8C33.3,13.7,33.4,13.8,33.4,13.8"/>
<path class="st0" d="M35.9,21.2L35.9,21.2L35.9,21.2C35.9,21.2,35.9,21.2,35.9,21.2L35.9,21.2L35.9,21.2
	C35.9,21.2,35.9,21.2,35.9,21.2"/>
<path class="st0" d="M29,11.1c0,0,0,0,0.1-0.1c0,0,0,0,0,0c0-0.1,0.1-0.1,0-0.1C29.2,10.9,29.2,10.9,29,11.1
	C29,11.1,29,11.1,29,11.1"/>
<path class="st0" d="M32.4,13.1C32.4,13.1,32.4,13.1,32.4,13.1c-0.1,0-0.2,0-0.2,0c-0.2,0.1-0.2,0.3-0.1,0.3
	C32.2,13.5,32.4,13.2,32.4,13.1"/>
<path class="st0" d="M43.8,2.7C43.8,2.7,43.8,2.7,43.8,2.7c0.2,0.1,0.4,0,0.4-0.1c0,0-0.1-0.1-0.1-0.1c0,0-0.3-0.1-0.4-0.1
	c-0.1,0-0.2,0-0.3,0.1c0,0,0,0,0,0C43.8,2.6,43.8,2.6,43.8,2.7"/>
<path class="st0" d="M27.3,12.1c-0.1,0.1-0.1,0.1-0.1,0.1c0,0,0.3-0.2,0.3-0.3c0,0,0,0,0,0c0,0,0,0,0,0
	C27.4,12.1,27.4,12.1,27.3,12.1"/>
<path class="st0" d="M25.9,10.5C25.9,10.5,25.9,10.5,25.9,10.5C26,10.5,26,10.5,25.9,10.5c0,0.1,0,0.1,0,0.1c0,0,0,0,0,0
	C25.9,10.7,25.9,10.7,25.9,10.5C26,10.6,26,10.6,25.9,10.5c0.1,0,0.1-0.1,0.1-0.1c0,0,0,0,0,0c-0.1,0-0.2,0.1-0.2,0.2
	C25.8,10.6,25.8,10.6,25.9,10.5"/>
<path class="st0" d="M54.7,3.7C54.7,3.7,54.7,3.7,54.7,3.7c0,0-0.1-0.1-0.2-0.1c0,0,0,0,0,0C54.7,3.7,54.7,3.7,54.7,3.7
	C54.7,3.7,54.7,3.7,54.7,3.7"/>
<path class="st0" d="M50.1,1.3C50.1,1.3,50.1,1.3,50.1,1.3c0,0-0.2,0-0.3,0v0C49.9,1.3,50.1,1.3,50.1,1.3"/>
<path class="st0" d="M25.1,14.1C25.1,14.1,25.1,14.1,25.1,14.1C25.1,14.1,25.1,14.1,25.1,14.1C25.1,14.1,25.1,14.1,25.1,14.1
	C25.1,14,25.1,14,25.1,14.1C25.1,14,25.1,14,25.1,14.1C25.1,14,25.1,14,25.1,14.1C25.1,14,25,14,25.1,14.1"/>
<path class="st0" d="M27.3,12.3C27.2,12.3,27.2,12.3,27.3,12.3C27.2,12.3,27.2,12.3,27.3,12.3c-0.1,0-0.4,0.1-0.5,0.3
	c0,0.1-0.1,0.1,0,0.1c0,0,0,0,0,0c0,0,0,0,0,0c0,0,0.1,0,0.1,0c0,0,0,0,0.1,0c0,0,0,0,0.1,0c0.1,0,0.1-0.1,0.1-0.2
	c0,0,0.1,0,0.1-0.1C27.4,12.4,27.3,12.4,27.3,12.3"/>
<path class="st0" d="M25.4,11.9c0-0.1,0.1-0.1,0.1-0.1c0,0,0,0,0,0C25.4,11.8,25.4,11.9,25.4,11.9c-0.1,0-0.1,0-0.1,0
	c0,0,0,0.1,0,0.1C25.3,12,25.3,12,25.4,11.9"/>
<path class="st0" d="M25,13.9C25,13.9,25,13.9,25,13.9L25,13.9C25,14,25,14,25,13.9C25.1,13.9,25.1,13.9,25,13.9"/>
<path class="st0" d="M73.6,21.5C73.6,21.5,73.6,21.5,73.6,21.5C73.6,21.5,73.6,21.5,73.6,21.5C73.6,21.4,73.6,21.4,73.6,21.5
	L73.6,21.5C73.6,21.4,73.6,21.4,73.6,21.5C73.6,21.5,73.6,21.5,73.6,21.5"/>
<path class="st0" d="M68.8,11.2C68.8,11.2,68.8,11.2,68.8,11.2c-0.3-0.4-0.6-0.8-1-1.1c0,0,0.1,0.1,0.1,0.1c0,0,0,0,0,0l0.4,0.5
	c0,0-0.1-0.1-0.1-0.1c0.1,0.1,0.7,0.8,0.7,0.8c0,0,0,0,0,0C68.9,11.3,68.9,11.3,68.8,11.2C68.8,11.3,68.8,11.3,68.8,11.2
	c0,0.1,0.1,0.1,0.1,0.1C68.9,11.3,68.8,11.3,68.8,11.2"/>
<path class="st0" d="M71.7,15.4c-0.1-0.2-0.2-0.4-0.3-0.6c0,0-0.1-0.1-0.1-0.1l1.5,2.8c0,0,0,0,0,0.1c0,0,0,0,0,0c0,0,0,0,0,0
	c-0.1-0.2-0.2-0.4-0.3-0.5C72.3,16.5,72,15.9,71.7,15.4"/>
<path class="st0" d="M49.8,21.8L49.8,21.8c0.1,0,0.2,0,0.2-0.1c0,0,0-0.1-0.3-0.1C49.8,21.7,49.8,21.8,49.8,21.8"/>
<path class="st0" d="M57.4,15.3L57.4,15.3C57.4,15.3,57.4,15.3,57.4,15.3C57.4,15.2,57.3,15.2,57.4,15.3
	C57.3,15.2,57.3,15.4,57.4,15.3C57.4,15.3,57.4,15.3,57.4,15.3"/>
<path class="st0" d="M56.8,15.9C56.8,15.9,56.8,15.9,56.8,15.9C56.8,15.9,56.8,15.9,56.8,15.9c-0.3-0.2-0.3-0.2-0.8,0c0,0,0,0,0,0
	C56.2,15.9,56.2,16,56.8,15.9"/>
<path class="st0" d="M73.9,21.5C73.9,21.5,73.9,21.5,73.9,21.5c0-0.1,0-0.1,0-0.1C73.8,21.4,73.8,21.6,73.9,21.5
	C73.8,21.6,73.8,21.6,73.9,21.5C73.9,21.6,73.9,21.5,73.9,21.5"/>
<path class="st0" d="M73.7,21.5c0,0,0,0.1,0.1,0.2C73.8,21.7,73.8,21.6,73.7,21.5C73.7,21.5,73.7,21.5,73.7,21.5"/>
<path class="st0" d="M53.7,3.3L53.7,3.3C53.7,3.3,53.7,3.3,53.7,3.3C53.7,3.3,53.7,3.3,53.7,3.3C53.7,3.3,53.7,3.3,53.7,3.3"/>
<path class="st0" d="M53.7,24.8L53.7,24.8C53.7,24.9,53.7,24.9,53.7,24.8c0,0.1,0,0.1,0,0.1c0,0,0,0,0,0c0,0,0.1,0,0.2-0.1
	c0,0,0,0,0,0c0,0,0,0,0,0C53.9,24.9,53.7,24.8,53.7,24.8"/>
<path class="st0" d="M59.4,12.5c0,0,0,0.2,0,0.1c0,0,0,0,0,0C59.4,12.6,59.5,12.6,59.4,12.5C59.4,12.5,59.4,12.5,59.4,12.5"/>
<path class="st0" d="M55.6,23.5c0.1,0,0.2-0.1,0.2-0.1c0,0-0.1,0-0.1-0.1c-0.1,0-0.1,0-0.2-0.1C55.6,23.3,55.6,23.3,55.6,23.5
	C55.6,23.5,55.6,23.5,55.6,23.5"/>
<path class="st0" d="M51.7,9.5C51.7,9.5,51.7,9.5,51.7,9.5L51.7,9.5c0-0.1-0.1-0.1-0.1-0.1C51.6,9.4,51.7,9.6,51.7,9.5
	C51.7,9.6,51.7,9.6,51.7,9.5C51.7,9.5,51.7,9.5,51.7,9.5"/>
<path class="st0" d="M59.3,26.1c0.2,0,0.3-0.1,0.5-0.1c0.1,0,0.2,0,0.3,0c0.1,0,0.1,0,0.1-0.1c0-0.1,0-0.2-0.1-0.2
	c-0.1-0.1-0.3,0-0.4,0c-0.2,0-0.4-0.1-0.5-0.2c-0.1,0-0.3-0.1-0.3,0c-0.1,0-0.1,0.1-0.1,0.2c0-0.1,0-0.1-0.1-0.2c-0.1,0-0.3,0-0.4,0
	c0.1,0.1,0.4,0.5,0.1,0.6c-0.2,0-0.4-0.1-0.6,0.1c0,0,0,0,0,0c0.1,0.1,0.1,0.1,0.3,0.1c0.3,0,0.5-0.1,0.8-0.1c0.1,0,0.1,0.1,0.2,0.1
	c0.1,0,0.1-0.2,0.1-0.3c0,0,0,0,0,0C59.2,26.1,59.3,26.1,59.3,26.1"/>
<path class="st0" d="M59.1,13.2c-0.1,0-0.2-0.2-0.3-0.2c0.1,0.1,0,0.2,0.1,0.3C58.9,13.3,59,13.3,59.1,13.2c0,0.1,0.1,0.1,0.2,0.1
	c0.1,0,0.1,0,0.1,0c0.1,0.1,0.1,0.1,0.1,0c0,0,0-0.1-0.1-0.1C59.3,13.2,59.2,13.2,59.1,13.2"/>
<path class="st0" d="M51.4,9.4C51.4,9.4,51.4,9.5,51.4,9.4C51.5,9.5,51.5,9.5,51.4,9.4L51.4,9.4C51.5,9.5,51.5,9.5,51.4,9.4
	C51.5,9.4,51.4,9.4,51.4,9.4"/>
<path class="st0" d="M55.9,26.3c-0.2,0.1,0.4,0.2,0.4,0.2c0.3,0.1,0.3-0.1,0.3-0.1c0-0.1-0.1-0.2-0.3-0.2
	C56.4,26.2,56,26.3,55.9,26.3"/>
<path class="st0" d="M57.9,26.3C57.9,26.3,57.9,26.3,57.9,26.3C57.8,26.3,57.8,26.3,57.9,26.3C57.8,26.3,57.9,26.3,57.9,26.3"/>
<path class="st0" d="M57.5,25.3C57.5,25.3,57.5,25.3,57.5,25.3c0-0.1,0-0.1-0.1-0.1c-0.1-0.1-0.3,0-0.4,0c-0.1,0-0.1-0.2-0.2-0.2
	c-0.1,0-0.2,0-0.3-0.1c-0.2-0.1-0.3-0.2-0.5-0.2c-0.3-0.1-0.5,0-0.8-0.1c-0.1-0.1-0.2-0.2-0.4-0.2c-0.7-0.1-1.7-0.2-1.9,0.6
	c0,0,0,0,0,0.1c0,0,0,0,0,0c0.4,0,0.5-0.6,0.9-0.5c0,0,0.1,0,0.2,0c0.1,0,0.1,0.1,0.2,0.2c0.2,0.1,0.4,0.1,0.6,0.1l0.8,0.4
	c0.1,0,0.1,0.1,0.1,0.1c0.1,0.1,0.3,0.1,0.5,0.1c0.1,0.1,0.1,0.2,0.3,0.2C56.7,25.6,57.5,25.4,57.5,25.3"/>
<path class="st0" d="M40.4,3.1C40.4,3.1,40.4,3,40.4,3.1c-0.2,0-0.2,0-0.2,0.1C40.2,3.2,40.3,3.2,40.4,3.1"/>
<path class="st0" d="M40.8,2.9C40.8,2.9,40.8,3,40.8,2.9C40.9,3,40.9,2.9,40.8,2.9c0.1,0,0.2,0,0.3,0s0.2,0,0.2,0
	c0.1,0,0.1-0.1,0.1-0.1c0,0,0,0,0,0c0,0,0,0-0.1,0c-0.1,0-0.2,0-0.3,0.1C40.9,2.9,40.8,2.9,40.8,2.9c-0.2,0-0.2,0-0.3,0c0,0,0,0,0,0
	C40.7,2.9,40.8,2.9,40.8,2.9"/>
<path class="st0" d="M39.5,3.7c0,0-0.2,0.1-0.2,0.1c-0.1,0.1-0.2,0.1-0.1,0.1C39.2,4,39.4,3.8,39.5,3.7C39.5,3.7,39.5,3.7,39.5,3.7"
	/>
<path class="st0" d="M41.1,3.1C41.1,3.1,41.1,3.1,41.1,3.1C41.1,3.1,41.2,3.1,41.1,3.1C41.3,3,41,2.9,41,2.9c0,0,0,0,0,0
	C41,3,40.9,3,40.9,3c-0.1,0-0.1,0-0.2,0.1c-0.1,0-0.1,0-0.1,0c0,0-0.1,0.1,0,0.2C40.6,3.3,41.1,3.2,41.1,3.1"/>
<path class="st0" d="M42.2,2.7C42.2,2.7,42.2,2.7,42.2,2.7C42.3,2.7,42.3,2.7,42.2,2.7c0.6-0.1,0.6-0.1,0.8,0c0,0,0.3,0.1,0.3,0.1
	c0,0,0.1,0,0.1,0c0.1-0.1-0.8-0.3-0.9-0.2c0,0-0.1,0-0.1,0c0,0,0,0-0.1-0.1C42.3,2.5,42,2.5,42.2,2.7C42.2,2.7,42.2,2.7,42.2,2.7"/>
<path class="st0" d="M39.9,3.5C40,3.5,39.9,3.5,39.9,3.5C39.8,3.5,39.8,3.6,39.9,3.5C39.9,3.6,39.9,3.6,39.9,3.5"/>
<polyline class="st0" points="38.7,3.9 38.7,3.9 38.7,3.9 38.7,3.9 "/>
<path class="st0" d="M37.4,5.6c0.2,0,0.3-0.2,0.4-0.3c0.1,0,0.3,0,0.4-0.1c0.2-0.2,0.4-0.4,0.6-0.5c0.4-0.2,0.5-0.2,0.7-0.3
	c0,0,0.1,0,0.1,0c0,0,0,0,0,0c0,0-0.2-0.2-0.3-0.2c-0.1,0-0.3,0.1-0.4,0.1c-0.2,0-0.3-0.1-0.5,0c-0.3,0.1-0.7,0.2-0.8,0.4
	c0,0,0,0.1,0,0.1c0,0-0.1,0.1-0.1,0.1c0,0-0.2,0.2-0.2,0.3C37.3,5.5,37.3,5.6,37.4,5.6"/>
<path class="st0" d="M40.2,3.4C40.2,3.3,40.2,3.3,40.2,3.4c0,0-0.1,0-0.1,0.1C40.1,3.4,40.2,3.4,40.2,3.4"/>
<path class="st0" d="M38.3,4c0,0,0.3-0.1,0.3-0.1c0.1,0,0.1-0.1,0.2-0.1c0.1,0,0.1,0,0.1,0c0,0,0.2-0.1,0.3-0.2
	c0.1-0.1,0.2-0.1,0.3-0.2c0,0,0,0,0,0c-0.1,0.1-0.1,0.1-0.1,0.1c0.1,0,0.2-0.1,0.2-0.1c0.1,0,0.1-0.1,0.1-0.1c0,0,0.1,0,0.1,0
	c0,0,0.1-0.1,0.1-0.1c0,0,0,0,0,0c-0.1-0.1-0.1-0.1-0.2,0c-0.1,0-0.2,0.1-0.3,0.1c-0.3,0-0.3,0-0.4,0.1l-0.5,0.2
	c0,0-0.1,0.1-0.1,0.1C38.5,3.7,38.3,3.7,38.3,4C38.3,3.9,38.3,4,38.3,4"/>
<path class="st0" d="M44.2,4.1C44,4.1,43.8,4,43.8,4c0,0,0,0,0.1-0.1c0.1,0,0.1,0,0.1-0.1c0,0,0-0.2,0-0.2c0,0-0.3,0.1-0.4,0.1
	c-0.1,0-0.1,0.1-0.2,0.1c-0.1,0.1-0.3,0-0.4,0.2c0.1,0.1,0.3,0,0.3,0.2c0,0-0.2,0.1-0.3,0.1c-0.1,0-0.2-0.1-0.2-0.1
	c0,0-0.1,0.1,0,0.1c0.2,0.2,0.4,0,0.5,0.1c0.1,0,0.2,0,0.2,0.1c0,0,0,0,0.1,0.1c0,0.1,0.1,0.1,0.1,0.1c0,0,0.1,0,0.1,0c0,0,0,0,0,0
	c0.1,0,0.6-0.2,0.6-0.2c0.1,0,0.1,0,0.1-0.2c0,0,0,0,0-0.1C44.3,4.1,44.3,4,44.2,4.1"/>
<path class="st0" d="M39.8,3.6c-0.1,0-0.3,0.2-0.2,0.2c0,0-0.1,0-0.1,0.1c0,0,0,0,0,0c0,0,0.3,0,0.4-0.1c0,0,0,0,0,0.1
	c0,0,0.1,0,0.1-0.1c0,0,0.1-0.1,0.2-0.1c0,0,0,0,0,0c0,0.1,0,0.1,0,0.1c0,0,0,0,0,0l0.6-0.1c-0.1,0.1-0.1,0.1-0.5,0.2
	C40.1,4,40,4,40,4.1c0.1,0.1,0.1,0.1,0.6-0.2c0.1,0,0.2-0.1,0.3-0.1c0.1,0,0.1,0,0.2-0.1c0.1,0,0.2,0,0.2,0c0.1,0,0.1-0.1,0.2-0.1
	c0.1,0,0.3,0,0.4-0.1c0,0,0,0,0,0c0,0,0-0.1,0-0.3c0,0,0,0,0,0c-0.1,0.1-0.1,0.1-0.1,0.2c0,0,0,0,0-0.1c0,0,0,0,0,0
	c-0.1,0-0.1-0.1-0.3-0.1c-0.1,0-0.1-0.1-0.2-0.1c0,0,0,0,0,0c0,0-0.1,0.1,0,0.2c0,0.1,0.1,0.1,0,0.2c0,0-0.3,0.1-0.5,0
	c-0.1,0-0.1,0-0.2,0C40,3.6,40,3.6,39.8,3.6"/>
<path class="st0" d="M43.1,5.3C43.1,5.4,43.1,5.4,43.1,5.3C43.2,5.4,43.2,5.4,43.1,5.3C43.2,5.4,43.1,5.3,43.1,5.3
	C43.1,5.3,43.1,5.3,43.1,5.3"/>
<path class="st0" d="M42.8,5.3C42.8,5.3,42.8,5.3,42.8,5.3C42.8,5.3,42.8,5.3,42.8,5.3L42.8,5.3C42.8,5.3,42.8,5.3,42.8,5.3"/>
<path class="st0" d="M43.8,5.1C43.8,5.2,43.8,5.2,43.8,5.1c0,0.1-0.1,0.1-0.1,0.1c0,0.1-0.2,0.1-0.1,0.2c0,0,0,0,0,0
	c0.1,0,0.1,0,0.2,0c0.1,0,0.1,0.1,0.2,0.1c0.1,0,0.2,0,0.3-0.1c0.1,0,0.2-0.1,0.3-0.1c0,0,0,0,0,0c0,0,0,0,0,0
	c-0.1-0.1-0.1-0.2-0.1-0.2c-0.1,0-0.1,0-0.4-0.1C44,5.1,43.9,5.1,43.8,5.1"/>
<path class="st0" d="M41.9,4.7c0-0.1-0.1-0.1-0.1-0.2c0.1-0.2-0.3-0.3-0.3-0.3c-0.1,0-0.1,0.1,0,0.2c0.1,0,0.2,0.1,0.2,0.1
	c-0.1,0-0.2,0-0.3,0.1c-0.1,0-0.1,0.1-0.2,0.2c0,0-0.1,0-0.1,0c0,0,0,0,0,0c0.1-0.2,0.2-0.5-0.2-0.4c-0.1,0-0.1,0.1-0.2,0.2
	c0,0-0.1,0-0.1-0.1c-0.1-0.1-0.2-0.1-0.3,0c-0.1,0.1,0,0.2-0.1,0.3c0,0-0.2,0-0.2-0.1c0-0.1,0.1-0.2,0-0.2c0-0.1-0.1-0.1-0.1-0.1
	c0,0,0,0-0.1,0c-0.1,0.1-0.2,0.2-0.3,0.2c-0.1,0-0.2,0-0.3,0.1c0,0-0.8,0.5-0.7,0.6c0,0,0.1,0,0.3-0.1c0,0-0.1,0.1-0.1,0.1
	c0,0,0,0,0.2-0.1c0.1,0,0.2-0.1,0.6-0.1c-0.2,0.2-0.6,0.1-0.9,0.3c0,0,0,0,0,0c0.3,0,0.9-0.1,0.9-0.1c0,0,0.5-0.1,0.6,0
	c-0.1,0.1-0.1,0.1-0.4,0.1c-0.3,0-1.1,0.3-1.1,0.4c0,0.1,0,0.1,0.5,0.1c0.1,0,0.1,0,0.2,0.2c0.7,0.1,2-0.5,2-0.5
	c0.2-0.1,0.2-0.1,0.3-0.2c0,0.2,0.2,0.2,0.3,0.2c0,0,0,0,0.4,0c0,0,0.1,0,0.1,0c0,0,0,0,0.1,0C43,5.5,43,5.4,42.9,5.4
	c-0.1-0.1-0.3,0-0.5-0.1c0,0,0.1,0,0.4,0c0,0,0,0,0,0c0-0.2,0.3,0,0.4-0.1c0,0,0,0,0,0c0,0,0,0,0,0C43.1,5,43,5,42.8,5.1
	c-0.1,0-0.1,0-0.3-0.1c0,0,0,0,0,0c0,0,0,0,0,0.1c0,0.1-0.2,0-0.2,0c0,0,0,0-0.1,0c-0.1-0.1-0.1-0.2-0.2-0.2
	C42,4.7,41.9,4.7,41.9,4.7"/>
<polyline class="st0" points="43.1,5.3 43.1,5.3 43.1,5.3 "/>
<polyline class="st0" points="38.6,5.3 38.6,5.3 38.6,5.3 38.6,5.3 "/>
<path class="st0" d="M41.8,5.8L41.8,5.8c0,0,0.2,0,0.2,0l0,0C42.1,5.7,41.9,5.8,41.8,5.8"/>
<path class="st0" d="M42.8,5.6C42.8,5.6,42.8,5.6,42.8,5.6C42.9,5.6,42.9,5.6,42.8,5.6c0.1,0.1,0.1,0,0.1,0
	C43,5.5,42.8,5.5,42.8,5.6"/>
<path class="st0" d="M44,3.3C44,3.3,44.1,3.3,44,3.3C44.1,3.3,44.1,3.3,44,3.3C44.1,3.3,44.1,3.3,44,3.3C44.1,3.3,44.1,3.3,44,3.3
	C44.1,3.2,44.1,3.2,44,3.3c0.1-0.1,0.1-0.1,0.1-0.1c0,0,0,0,0,0c0,0,0,0,0,0h0C44.1,3.2,44,3.3,44,3.3C44,3.3,44,3.3,44,3.3
	C44,3.3,44,3.3,44,3.3"/>
<path class="st0" d="M43.3,2.3C43.3,2.3,43.3,2.3,43.3,2.3C43.3,2.3,43.3,2.3,43.3,2.3C43.3,2.2,43.3,2.2,43.3,2.3
	C43.3,2.2,43.3,2.2,43.3,2.3C43.2,2.2,43.3,2.3,43.3,2.3"/>
<path class="st0" d="M47.8,2.7c0,0-0.1,0-0.1,0C47.7,2.8,47.7,2.8,47.8,2.7C47.8,2.8,47.8,2.8,47.8,2.7C47.8,2.8,47.8,2.7,47.8,2.7"
	/>
<path class="st0" d="M47.8,1.9C47.8,2,48,2,48,2c0,0,0,0,0,0C48,1.9,47.9,1.9,47.8,1.9"/>
<path class="st0" d="M44.7,3.3c0,0,0-0.1-0.3-0.2c-0.1,0-0.2,0-0.2,0.1c-0.1,0.2-0.1,0.2,0,0.2c0.1,0,0.3,0.1,0.4,0
	C44.7,3.5,44.8,3.4,44.7,3.3"/>
<path class="st0" d="M43.9,2C44,2,44.2,2,44.3,2c-0.1,0.1-0.2,0-0.2,0.1c0,0,0,0,0.4,0c-0.1,0.1-0.3,0-0.3,0.1c0.1,0.1,0.3,0,0.4,0
	c0,0,0,0,0,0c0.1,0,0.2,0,0.3,0c-0.1,0-0.2,0-0.2,0.1c0,0.1,0.1,0.1,0.1,0.2c0.1,0,0.5,0,0.5,0c0.1,0,0,0,0-0.1
	c0.1-0.1,0.2-0.1,0.3,0c0,0,0,0,0,0c0.1-0.1,0.1-0.1,0.3-0.1c-0.3,0.1-0.3,0.1-0.2,0.2c0,0,0.1,0.1,0.4,0c0.3-0.1,0.6,0.1,0.6,0.1
	c0,0.1-0.3,0-0.5,0c-0.3-0.1-0.5,0-0.6,0c0,0,0.1,0,0.1,0.1c0,0,0,0,0,0c-0.1,0.1-0.3,0.1-0.4,0.2c0.1,0.1,0.4,0.1,0.5,0.1
	c0,0,0,0,0,0c0.1,0,0.2,0,0.5,0c0.1,0,0.1,0,0.1,0c0,0,0,0,0-0.1c0,0,0.1-0.1,0.2,0c0,0,0.1,0,0.2,0c0.2,0,0.4-0.2,0.5,0
	c0.2,0.1,0.5-0.1,0.5-0.1c0-0.1,0-0.1-0.5-0.2c0,0,0,0,0.1,0c0.1,0,0.1,0,0.4-0.2c0,0,0,0,0-0.1c0,0,0,0,0.1,0c0,0,0,0-0.1,0
	c0.1,0,0.1,0,0.1-0.1c-0.2-0.1-0.4,0.1-0.6,0c0,0,0,0,0,0c0,0,0.1,0,0.4,0c-0.1,0-0.1,0-0.2,0c0,0,0.1,0,0.1,0c-0.1,0-0.2,0-0.3,0
	c0.1,0,0.2,0,0.3,0c0.5-0.1,0.5-0.1,0.5-0.1c-0.1,0-0.1,0-0.2,0c0.2-0.1,0.3-0.1,0.5-0.3c0,0,0,0,0.1-0.2c0,0,0,0,0,0
	c0,0-0.2-0.1-0.9-0.1c0,0,0,0,0,0.1c-0.1,0.1-0.2-0.1-0.3-0.1c-0.1,0-0.1,0-0.2,0c-0.1,0-0.1,0-0.2,0c0,0,0,0,0,0c0,0,0,0,0,0
	c-0.2,0-0.4,0-0.6,0.1c0,0,0,0,0,0c0.1,0,0.1,0,0.2,0c-0.3,0-0.3,0-0.7,0.1c0,0,0,0,0,0.1c0,0,0,0,0,0c-0.2,0-0.4-0.1-0.7-0.1
	c0,0,0,0,0,0c-0.1,0-0.1,0-0.2,0c0,0,0,0,0,0c0.1,0,0.3-0.1,0.4,0c0,0,0,0,0,0c-0.5,0-0.5,0-0.5,0c0,0-0.5,0.1-0.5,0.2
	c0.1,0,0.2,0,0.4,0c0,0,0,0-0.2,0.1c0.1,0,0.2-0.1,0.4-0.1c-0.1,0-0.2,0-0.3,0.1c0,0,0.8,0,0.8,0c0.1,0,0.3-0.1,0.4-0.1
	c0.1,0,0.8-0.1,0.8-0.1c0,0,0,0,0.1,0c-0.1,0-0.1,0-0.2,0.1c0.1,0,0.1,0,0.2,0c0,0,0,0,0,0c-0.2,0.1-0.4,0-0.6,0.1
	c0.1,0.1,0.2,0.1,0.3,0.1c0,0,0,0,0,0c-0.2,0-0.4-0.1-0.6-0.1c0,0-0.4,0-0.5,0.1c0,0.1,0,0.1,0,0.1c-0.1,0-0.2-0.1-0.3-0.1
	C45,2,45,2,44.9,2c0,0,0,0-0.1,0c-0.1,0-0.3-0.1-0.4-0.2C44.3,1.8,44.1,1.9,43.9,2c0.2-0.1,0.2-0.1,0.3,0C44.1,1.9,44,1.9,43.9,2"/>
<path class="st0" d="M48.9,2.3C48.9,2.3,48.8,2.3,48.9,2.3C48.8,2.3,48.9,2.3,48.9,2.3C48.9,2.3,48.9,2.3,48.9,2.3"/>
<path class="st0" d="M45.1,2.5c0,0.1,0.1,0.1,0.1,0.1c0,0,0,0,0-0.1C45.3,2.5,45.1,2.5,45.1,2.5"/>
<path class="st0" d="M50.5,3.9C50.5,3.9,50.5,3.9,50.5,3.9C50.5,3.9,50.5,3.9,50.5,3.9L50.5,3.9C50.5,3.9,50.5,3.9,50.5,3.9"/>
<path class="st0" d="M44.7,2.6c0,0-0.1-0.1-0.1,0c0,0-0.1,0-0.3,0.1c0,0,0,0,0,0c-0.2,0-0.2,0-0.2,0c0,0,0,0,0,0
	C44.3,2.8,44.7,2.8,44.7,2.6"/>
<path class="st0" d="M52.7,2.8C52.7,2.8,52.7,2.8,52.7,2.8C52.7,2.8,52.6,2.8,52.7,2.8C52.6,2.9,52.7,2.9,52.7,2.8"/>
<path class="st0" d="M42.3,3.5C42.3,3.6,42.3,3.6,42.3,3.5C42.3,3.6,42.3,3.6,42.3,3.5C42.3,3.6,42.4,3.6,42.3,3.5
	C42.4,3.6,42.4,3.5,42.3,3.5C42.3,3.5,42.3,3.5,42.3,3.5"/>
<path class="st0" d="M43.2,3C43.2,3,43.2,3,43.2,3c0.1,0.1,0,0.1,0,0.2c0,0,0,0,0,0c0,0,0.1,0,0.1,0c0,0-0.1,0-0.1,0
	c0,0,0.1,0,0.1,0.1c0,0,0,0-0.1,0c0,0,0,0,0,0c0-0.1-0.2-0.2-0.2-0.2c0,0-0.1,0-0.1,0.1c0,0,0.1,0.2,0.1,0.2c-0.1,0.1-0.2,0-0.3,0.1
	c0,0,0.1,0,0.4,0c0.1,0,0.1,0,0.1,0c-0.1,0.1-0.1,0.1-0.1,0.1c0.1,0.1,0.4,0,0.5,0c0.1,0,0.2,0,0.2-0.1c0-0.1-0.1-0.1-0.2-0.2
	c0,0,0-0.1-0.1-0.1c0,0-0.2-0.1-0.2,0c0,0,0,0,0,0C43.2,3,43.2,3,43.2,3"/>
<path class="st0" d="M44.1,3.9C44.1,3.9,44.1,3.9,44.1,3.9C44.1,3.9,44.1,3.9,44.1,3.9C44,3.9,44,3.9,44.1,3.9"/>
<path class="st0" d="M43.8,3.5C43.8,3.6,43.8,3.6,43.8,3.5C43.9,3.6,43.9,3.6,43.8,3.5C43.9,3.6,43.9,3.5,43.8,3.5
	C43.9,3.5,43.8,3.5,43.8,3.5"/>
<path class="st0" d="M42.4,3.5C42.4,3.5,42.5,3.5,42.4,3.5c0.2,0,0.4-0.2,0.4-0.2c0,0,0,0,0-0.1c0,0-0.1-0.1-0.1-0.1c0,0,0,0,0,0
	c0,0-0.1,0-0.1,0c0,0,0,0,0,0c0,0,0,0-0.1,0c-0.1,0-0.1,0.1-0.1,0.1c0,0,0,0,0,0c0,0,0.1,0,0.2,0c0,0-0.2,0.1-0.2,0.1c0,0,0,0,0,0
	C42.3,3.4,42.3,3.4,42.4,3.5C42.5,3.4,42.4,3.4,42.4,3.5C42.4,3.4,42.4,3.5,42.4,3.5"/>
<path class="st0" d="M43.1,4.9C43.1,4.9,43.1,5,43.1,4.9C43.1,5,43.2,5,43.1,4.9C43.2,5,43.2,4.9,43.1,4.9
	C43.2,4.8,43.2,4.8,43.1,4.9"/>
<path class="st0" d="M43.2,5.4C43.2,5.4,43.2,5.5,43.2,5.4C43.2,5.5,43.2,5.5,43.2,5.4c0.1,0,0.1,0,0.1,0c0,0,0.1,0,0.1,0
	C43.4,5.4,43.3,5.4,43.2,5.4"/>
<path class="st0" d="M43,2.8c0,0-0.1,0-0.1,0C42.8,2.8,42.9,2.8,43,2.8C42.9,2.8,43,2.8,43,2.8"/>
<path class="st0" d="M42.3,3c0-0.1-0.1-0.1-0.1-0.1C42.2,2.9,42.2,3,42.3,3C42.2,3,42.3,3,42.3,3"/>
<g>
	<g>
		<defs>
			<rect id="SVGID_1_" x="1" y="3" width="28.5" height="51.2"/>
		</defs>
		<clipPath id="SVGID_2_">
			<use xlink:href="#SVGID_1_"  style="overflow:visible;"/>
		</clipPath>
		<path class="st1" d="M21.7,34.2c-0.1-0.1-0.2-0.1-0.2-0.2c-0.2-0.4-0.1-0.9-0.2-1.3c-0.2-0.9-0.7-1.8-1.1-2.6
			c-0.3-0.6-0.4-1-0.6-1.6c-0.1-0.2-0.4-0.6-0.4-0.8l-0.7-2.3c0,0-0.1,0-0.1,0c-0.1,0-0.2,0-0.2,0.1c-0.1,0-0.1,0.1-0.2,0.1
			c0,0-0.1,0-0.1,0c0,0-0.1,0-0.1,0c-0.3,0-0.6,0.3-0.9,0.3c-0.1,0-0.3,0-0.6,0c-0.2,0-0.5,0-0.5-0.1c0,0-0.1,0-0.1,0
			c-0.1,0-0.2,0.1-0.4,0.2c-0.2,0.1-0.3,0.2-0.5,0.2c-0.1,0-0.2,0-0.3-0.1c-0.5-0.3-0.7-0.2-1.2-0.4c-0.5-0.2-1.4-0.4-1.8-0.6
			c-0.4-0.2-0.8-0.7-1.4-0.7c-0.1,0-0.1,0-0.2,0c-0.9,0.2-1,0.8-1,1.6c0,0.5-0.3,0.7-0.7,0.7c-0.1,0-0.3,0-0.4-0.1
			c-0.7-0.2-1.7-0.2-2.3-0.8c-0.5-0.5-0.7-1-1.3-1.2L13,4l-1.9,18.3h17.3L21.7,34.2z"/>
		<path class="st1" d="M10.9,53.3l5-23.1H2l2.3-5.6c0.5,0.2,0.8,0.8,1.3,1.2c0.6,0.6,1.5,0.5,2.3,0.8c0.2,0.1,0.3,0.1,0.4,0.1
			C8.7,26.6,9,26.4,9,26c0-0.8,0.1-1.4,1-1.6c0.1,0,0.1,0,0.2,0c0.5,0,0.9,0.5,1.4,0.7c0.5,0.2,1.3,0.5,1.8,0.6
			c0.4,0.1,0.7,0.1,1.2,0.4c0.1,0.1,0.2,0.1,0.3,0.1c0.2,0,0.4-0.1,0.5-0.2c0.2-0.1,0.3-0.2,0.4-0.2c0,0,0.1,0,0.1,0
			c0.1,0.1,0.3,0.1,0.5,0.1c0.2,0,0.5,0,0.6,0c0.3,0,0.6-0.3,0.9-0.3c0,0,0.1,0,0.1,0c0,0,0.1,0,0.1,0c0.1,0,0.1,0,0.2-0.1
			c0.1,0,0.1-0.1,0.2-0.1c0,0,0.1,0,0.1,0l0.7,2.3c0,0.2,0.3,0.6,0.4,0.8c0.2,0.6,0.3,1,0.6,1.6c0.4,0.8,0.8,1.8,1.1,2.6
			c0.1,0.4,0.1,0.9,0.2,1.3c0,0.1,0.1,0.2,0.2,0.2L10.9,53.3z"/>
	</g>
</g>
</svg>
