<?xml version="1.0" encoding="utf-8"?>
<!-- Generator: Adobe Illustrator 18.1.1, SVG Export Plug-In . SVG Version: 6.00 Build 0)  -->
<!DOCTYPE svg PUBLIC "-//W3C//DTD SVG 1.1//EN" "http://www.w3.org/Graphics/SVG/1.1/DTD/svg11.dtd">
<svg version="1.1" id="Layer_1" xmlns="http://www.w3.org/2000/svg" xmlns:xlink="http://www.w3.org/1999/xlink" x="0px" y="0px"
	 viewBox="0 0 340.1 348.3" enable-background="new 0 0 340.1 348.3" xml:space="preserve">
<g>
	<defs>
		<rect id="SVGID_1_" x="3.7" y="7" width="332.6" height="334.2"/>
	</defs>
	<clipPath id="SVGID_2_">
		<use xlink:href="#SVGID_1_"  overflow="visible"/>
	</clipPath>
	<polygon clip-path="url(#SVGID_2_)" fill="#12100B" points="259.7,279.6 248.2,292 254.6,295.8 263.5,285.9 	"/>
	<polygon clip-path="url(#SVGID_2_)" fill="#DFEAF4" points="259.8,281 249.6,292.1 254.4,295.1 262.8,285.8 	"/>
	<polygon clip-path="url(#SVGID_2_)" fill="#12100B" points="256.7,292.6 252.3,288.7 252.8,288.5 257.1,292.3 	"/>
	<polygon clip-path="url(#SVGID_2_)" fill="#12100B" points="259.9,289 256.2,284.6 256.5,284.2 260.5,288.9 	"/>
	<polygon clip-path="url(#SVGID_2_)" fill="#12100B" points="261.6,283.7 252.2,293.8 251.8,293.7 261.4,283.3 	"/>
	<polygon clip-path="url(#SVGID_2_)" fill="#12100B" points="249.3,282.8 254,286.7 254.4,286.4 250.4,281.8 	"/>
	<polygon clip-path="url(#SVGID_2_)" fill="#CCDD9C" points="252.1,277.4 256.9,280.1 253.8,281.1 254.3,283.8 251.2,282.2 
		250.9,284.9 248.1,283.5 249.2,287.1 245.7,285.3 246.4,287.2 244,286.6 245,289.7 241.5,287.9 241.6,290.6 238.9,289.2 235.3,286 
			"/>
	<polygon clip-path="url(#SVGID_2_)" fill="#305620" points="235.8,263.8 253.8,277.3 238.5,289.6 226.6,268 	"/>
	<polygon clip-path="url(#SVGID_2_)" fill="#F1F0E2" points="235.8,265.6 251.2,277.4 249.2,279.1 235,266.3 	"/>
	<polygon clip-path="url(#SVGID_2_)" fill="#F1F0E2" points="235,267.4 248.1,280.4 245.9,282.2 234.4,268.2 	"/>
	<polygon clip-path="url(#SVGID_2_)" fill="#F8F8F1" points="233.3,268.9 244.7,283.1 242.6,284.5 232,269.7 	"/>
	<polygon clip-path="url(#SVGID_2_)" fill="#305620" points="251.5,276.9 242,284.6 242.4,285.3 252.7,277.2 	"/>
	<polygon clip-path="url(#SVGID_2_)" fill="#305620" points="249.7,275.4 240.8,282.7 240.3,281.9 249.1,274.5 	"/>
	<polygon clip-path="url(#SVGID_2_)" fill="#305620" points="239,280.1 247.2,273.2 246.7,272.5 238.4,279.4 	"/>
	<polygon clip-path="url(#SVGID_2_)" fill="#305620" points="245.1,271.4 237.3,277.7 236.7,277.1 244.7,270.6 	"/>
	<polygon clip-path="url(#SVGID_2_)" fill="#305620" points="243,269.8 235.7,275.7 235.3,274.9 242.4,269.2 	"/>
	<polygon clip-path="url(#SVGID_2_)" fill="#305620" points="241.2,268 234.2,273.7 233.8,273 240.6,267.4 	"/>
	<polygon clip-path="url(#SVGID_2_)" fill="#305620" points="233,271.8 239.2,266.7 236.2,264.5 231.1,269 	"/>
	<polygon clip-path="url(#SVGID_2_)" fill="#305620" points="244.3,275.1 246.5,272.9 249.1,275.2 246.3,277.5 	"/>
	<polygon clip-path="url(#SVGID_2_)" fill="#E8AC13" points="246.5,273.8 244.9,275.2 246.5,276.6 248.3,275.1 	"/>
	<polygon clip-path="url(#SVGID_2_)" fill="#CCDD9C" points="109.7,51.5 105.4,48.2 108.6,47.6 108.6,44.9 111.4,46.9 112,44.3 
		114.6,46.2 114.1,42.5 117.2,44.8 116.9,42.7 119.1,43.6 118.6,40.5 121.8,42.8 122.1,40.1 124.6,41.9 127.7,45.6 	"/>
	<polygon clip-path="url(#SVGID_2_)" fill="#305620" points="124.5,66.7 108.3,51.2 125.1,41.6 133.5,64.7 	"/>
	<polygon clip-path="url(#SVGID_2_)" fill="#F1F0E2" points="124,65.2 111,51.3 113.5,50 125.3,65 	"/>
	<polygon clip-path="url(#SVGID_2_)" fill="#F1F0E2" points="125.9,64.4 114.4,49 116.6,47.8 126.4,63.3 	"/>
	<polygon clip-path="url(#SVGID_2_)" fill="#F8F8F1" points="127,62.8 117.5,47.4 120.2,46 128.4,62.2 	"/>
	<polygon clip-path="url(#SVGID_2_)" fill="#305620" points="110.8,51.8 120.8,46 120.5,45.2 110,50.9 	"/>
	<polygon clip-path="url(#SVGID_2_)" fill="#305620" points="111.8,53.9 121.7,48.1 122.1,48.9 112.2,54.9 	"/>
	<polygon clip-path="url(#SVGID_2_)" fill="#305620" points="123.1,50.9 114,56.4 114.7,56.7 123.6,51.7 	"/>
	<polygon clip-path="url(#SVGID_2_)" fill="#305620" points="116.2,58.3 124.4,53.5 124.9,54.2 116.8,58.9 	"/>
	<polygon clip-path="url(#SVGID_2_)" fill="#305620" points="118.1,60.2 126.2,55.5 126.5,56.3 118.7,60.8 	"/>
	<polygon clip-path="url(#SVGID_2_)" fill="#305620" points="120,61.9 126.9,57.9 127.1,58.7 120.5,62.6 	"/>
	<polygon clip-path="url(#SVGID_2_)" fill="#305620" points="128.9,59.3 121.9,63.5 124,66.4 130.4,62.3 	"/>
	<polygon clip-path="url(#SVGID_2_)" fill="#305620" points="115.7,52.5 112.7,54.2 114.8,56.3 117.5,54.3 	"/>
	<polygon clip-path="url(#SVGID_2_)" fill="#E8AC13" points="115.7,52.8 113.6,54.1 115.2,55.7 117,54.6 	"/>
	<polygon clip-path="url(#SVGID_2_)" fill="#12100B" points="127.1,26.8 143.9,27.3 142.6,20 129.2,19.7 	"/>
	<polygon clip-path="url(#SVGID_2_)" fill="#DFEAF4" points="128,25.8 143,26.1 142.2,20.6 129.6,20.4 	"/>
	<polygon clip-path="url(#SVGID_2_)" fill="#12100B" points="138.3,26.1 138.7,26.3 138.7,20.5 138.3,20.3 	"/>
	<polygon clip-path="url(#SVGID_2_)" fill="#12100B" points="133.9,20.5 133.1,26.1 132.6,26.1 133.5,20.1 	"/>
	<polygon clip-path="url(#SVGID_2_)" fill="#12100B" points="128.7,23 142.8,23.4 142.7,23.1 128.9,22.7 	"/>
	<polygon clip-path="url(#SVGID_2_)" fill="#12100B" points="136.3,32.5 136.1,26.4 135.6,26.3 134.8,32.4 	"/>
	<g clip-path="url(#SVGID_2_)">
		<defs>
			<rect id="SVGID_3_" x="4.7" y="8" width="330.6" height="332.2"/>
		</defs>
		<clipPath id="SVGID_4_">
			<use xlink:href="#SVGID_3_"  overflow="visible"/>
		</clipPath>
		<path clip-path="url(#SVGID_4_)" fill="#CCDD9C" d="M129.1,35.9c0-0.3-2.9-3.2-2.9-3.2l2.9-0.5l0.3-3.1l3.1,2.1l1-2.8l1.1,2.5
			l1-1.4l1.6,1.2l1.7-3.3l1.7,3l2.6-1.9l-1.9,5.4L129.1,35.9z"/>
		<polygon clip-path="url(#SVGID_4_)" fill="#305620" points="135.9,73.5 128.9,34.6 142.5,33.4 141.2,72.9 		"/>
		<polygon clip-path="url(#SVGID_4_)" fill="#F1F0E2" points="140.1,63.9 140.2,34.8 137.7,35.1 138.8,63.9 		"/>
		<polygon clip-path="url(#SVGID_4_)" fill="#F1F0E2" points="138.2,64.3 135.2,35.3 132.1,35.3 136.9,64.8 		"/>
		<polygon clip-path="url(#SVGID_4_)" fill="#305620" points="141.6,37.6 131.8,38.7 131.9,39.6 141.5,38.4 		"/>
		<polygon clip-path="url(#SVGID_4_)" fill="#305620" points="140.7,40.8 132.6,41.7 132.5,42.5 140.9,41.5 		"/>
		<polygon clip-path="url(#SVGID_4_)" fill="#305620" points="140.8,43.6 133.1,44.5 133.4,45.3 140.9,44.3 		"/>
		<polygon clip-path="url(#SVGID_4_)" fill="#305620" points="133.7,47.4 141,46.5 140.9,47.2 133.7,48.2 		"/>
		<polygon clip-path="url(#SVGID_4_)" fill="#305620" points="141.2,49.3 133.5,50.2 133.7,51 141.3,50 		"/>
		<polygon clip-path="url(#SVGID_4_)" fill="#305620" points="134.4,52.9 141.7,51.9 141.5,52.7 134.4,53.7 		"/>
		<polygon clip-path="url(#SVGID_4_)" fill="#305620" points="135.1,55.3 141.8,54.4 141.7,55.2 135.1,56.1 		"/>
		<polygon clip-path="url(#SVGID_4_)" fill="#305620" points="135.3,57.8 141.5,56.9 141.3,60.7 136,61.3 		"/>
		<polygon clip-path="url(#SVGID_4_)" fill="#305620" points="137.5,38.6 140.7,38.2 140.6,41.2 137.6,41.5 		"/>
		<polygon clip-path="url(#SVGID_4_)" fill="#E8AC13" points="137.9,38.9 137.9,41.1 140.2,40.8 140.2,38.6 		"/>
		<polygon clip-path="url(#SVGID_4_)" fill="#305620" points="133.7,47.8 136.8,47.4 137.1,50.1 134.2,50.7 		"/>
		<polygon clip-path="url(#SVGID_4_)" fill="#E8AC13" points="136.5,47.8 134.2,48.1 134.5,50.1 136.7,49.9 		"/>
		<polygon clip-path="url(#SVGID_4_)" fill="#CCDD9C" points="108.4,35.2 103.9,32.9 107.5,32.5 106.4,28.7 108.9,30.4 109.1,28.2 
			111.5,29.8 111.2,27.4 114.6,29.3 113.8,26.5 116.3,30.1 117,33.1 		"/>
		<polygon clip-path="url(#SVGID_4_)" fill="#305620" points="128.2,64.7 106.8,35.2 122.8,26.2 134.2,62.6 		"/>
		<polygon clip-path="url(#SVGID_4_)" fill="#F1F0E2" points="113.2,37.5 111.1,38.8 112.9,41.6 114.7,40.5 		"/>
		<polygon clip-path="url(#SVGID_4_)" fill="#F1F0E2" points="119.2,41.7 117.5,42.7 119.1,45.6 121.1,44.6 		"/>
		<polygon clip-path="url(#SVGID_4_)" fill="#12100B" points="129.5,16.4 109.8,21.9 109.2,12.9 124.9,8.8 		"/>
		<polygon clip-path="url(#SVGID_4_)" fill="#DFEAF4" points="128,15.5 110.5,20.3 109.9,13.5 124.6,9.7 		"/>
		<polygon clip-path="url(#SVGID_4_)" fill="#12100B" points="113.9,12.4 115.6,19.3 116.1,18.9 114.3,12.1 		"/>
		<polygon clip-path="url(#SVGID_4_)" fill="#12100B" points="119.5,11 122.1,17.4 122.8,17.3 119.9,10.4 		"/>
		<polygon clip-path="url(#SVGID_4_)" fill="#12100B" points="126.2,12.1 110,16.6 109.9,17.1 126.5,12.5 		"/>
		<polygon clip-path="url(#SVGID_4_)" fill="#12100B" points="120.3,25.8 118.7,18.7 119.3,18.3 122,25.3 		"/>
		<polygon clip-path="url(#SVGID_4_)" fill="#45772F" points="129.5,62.6 110.2,26 127.8,19.9 135.2,60.5 		"/>
		<polygon clip-path="url(#SVGID_4_)" fill="#F1F0E2" points="130.7,62.8 113.2,27.1 116.3,25.6 131.4,62.5 		"/>
		<polygon clip-path="url(#SVGID_4_)" fill="#F1F0E2" points="132,62.2 118.3,25.2 121.1,23.7 132.6,61.8 		"/>
		<polygon clip-path="url(#SVGID_4_)" fill="#F1F0E2" points="133.7,62 123,22.8 125.8,21.8 134.7,61.8 		"/>
		<polygon clip-path="url(#SVGID_4_)" fill="#45772F" points="112.6,28 127.5,22.7 126.9,21.2 111.9,26.7 		"/>
		<polygon clip-path="url(#SVGID_4_)" fill="#45772F" points="113.8,31.3 128,25.9 127.9,27.2 114,32.5 		"/>
		<polygon clip-path="url(#SVGID_4_)" fill="#45772F" points="128.6,30 115.5,34.9 115.9,36.2 128.6,31.2 		"/>
		<polygon clip-path="url(#SVGID_4_)" fill="#45772F" points="129.4,33.8 117.1,38.5 118,39.7 129.8,35.1 		"/>
		<polygon clip-path="url(#SVGID_4_)" fill="#45772F" points="130.1,37.8 118.8,41.8 119.2,42.8 130.8,38.9 		"/>
		<polygon clip-path="url(#SVGID_4_)" fill="#45772F" points="130.8,41.4 120.5,45.1 121,46.3 131.1,42.9 		"/>
		<polygon clip-path="url(#SVGID_4_)" fill="#45772F" points="131.6,44.9 122.1,48.1 122.7,49.1 132,45.9 		"/>
		<polygon clip-path="url(#SVGID_4_)" fill="#45772F" points="132,48.2 123.9,51 124.3,52.1 132.2,49.2 		"/>
		<polygon clip-path="url(#SVGID_4_)" fill="#45772F" points="125.2,53.9 132.7,51 132.8,52 125.7,54.8 		"/>
		<polygon clip-path="url(#SVGID_4_)" fill="#45772F" points="133.2,53.6 126.9,56.2 126.8,57 133.4,54.5 		"/>
		<polygon clip-path="url(#SVGID_4_)" fill="#45772F" points="133.6,55.9 127.7,58.2 128.3,58.7 133.7,56.6 		"/>
		<polygon clip-path="url(#SVGID_4_)" fill="#45772F" points="128.9,59.8 134.1,57.8 134.1,58.5 129,60.5 		"/>
		<polygon clip-path="url(#SVGID_4_)" fill="#45772F" points="129.6,61.3 134.6,59.4 134.9,61.3 130.3,62.9 		"/>
		<polygon clip-path="url(#SVGID_4_)" fill="#45772F" points="116.7,35.4 120.2,34 121.7,37.5 118,38.5 		"/>
		<polygon clip-path="url(#SVGID_4_)" fill="#E8AC13" points="117.4,35.6 119.9,34.6 120.9,37 118.5,38 		"/>
		<polygon clip-path="url(#SVGID_4_)" fill="#45772F" points="127.1,39.7 130.1,38.8 130.8,42 127.9,42.9 		"/>
		<polygon clip-path="url(#SVGID_4_)" fill="#E8AC13" points="129.7,39.3 127.7,39.9 128.3,42.3 130.2,41.6 		"/>
		<polygon clip-path="url(#SVGID_4_)" fill="#45772F" points="125.9,54.2 128.1,53.4 128.8,55.4 126.9,56.4 		"/>
		<polygon clip-path="url(#SVGID_4_)" fill="#E8AC13" points="127.9,53.9 126.6,54.5 127.3,56 128.5,55.5 		"/>
		<polygon clip-path="url(#SVGID_4_)" fill="#45772F" points="128.5,53.2 130.3,52.5 131.1,55 129.4,55.5 		"/>
		<polygon clip-path="url(#SVGID_4_)" fill="#E8AC13" points="128.8,53.6 130,53.1 130.5,54.7 129.4,55.2 		"/>
		<polygon clip-path="url(#SVGID_4_)" fill="#45772F" points="123.8,27.9 128,26.5 128.3,30.7 124.9,32 		"/>
		<polygon clip-path="url(#SVGID_4_)" fill="#E8AC13" points="127,27.5 124.5,28.5 125.3,31.2 127.7,30.4 		"/>
		<path clip-path="url(#SVGID_4_)" fill="#FFFFFF" d="M158.1,48.8L158.1,48.8L158.1,48.8c0,0,0.4,0.9,0.6,1.7
			c1.1-0.5,2.4-0.7,2.4-0.7l0,0l0,0c0,0,0.5,3.7-0.6,4.6c-1.1,0.9-4.7,1.6-4.7,1.6s-1.6-3.6-0.7-4.7C156,50.2,158.1,48.8,158.1,48.8
			"/>
		<path clip-path="url(#SVGID_4_)" fill="#FFFFFF" d="M158.1,48.8l-1.7,0.5l0,0l0.7,2.4l2-1.5L158.1,48.8l-1.6,0.7l0,0
			c0.1,0.2,0.3,0.9,0.6,1.6l0.6,1.8l1.8-0.7c0.4-0.2,1-0.3,1.4-0.5c0.2-0.1,0.4-0.1,0.5-0.1l0.1,0l0,0l0,0l-0.4-1.7l-1.7,0.3l0,0
			l0.3,1.8l1.8-0.3l-0.3-1.7l-1.8,0.2v0c0,0,0.1,0.7,0.1,1.5c0,0.5,0,1-0.1,1.3c0,0.2-0.1,0.3-0.1,0.3l0,0l0.1,0l-0.1-0.1l0,0l0.1,0
			l-0.1-0.1l0.5,0.3l-0.4-0.5c-0.1,0.1-0.1,0.1-0.1,0.2l0.5,0.3l-0.4-0.5c0,0-0.1,0.1-0.2,0.1c-0.2,0.1-0.6,0.3-1,0.4
			c-0.6,0.2-1.3,0.4-1.8,0.5c-0.3,0.1-0.5,0.1-0.6,0.1c-0.1,0-0.1,0-0.2,0l0,0l0,0l0.3,1.7l1.6-0.7c0,0-0.2-0.6-0.4-1.2
			c-0.1-0.3-0.2-0.7-0.3-1c-0.1-0.3-0.1-0.6-0.1-0.8l0-0.1l0,0l-0.6-0.1l0.5,0.4c0.1-0.2,0.2-0.3,0.2-0.3l-0.6-0.1l0.5,0.4
			c0.1-0.2,0.4-0.4,0.6-0.6c0.4-0.4,0.9-0.7,1.3-1c0.2-0.1,0.4-0.3,0.5-0.3l0.1-0.1l0,0l0,0L158.1,48.8l-1.7,0.5L158.1,48.8l-1-1.5
			c0,0-0.6,0.4-1.2,0.9c-0.3,0.3-0.7,0.5-1.1,0.9c-0.4,0.3-0.7,0.6-1,1c-0.3,0.4-0.5,0.8-0.6,1.1c-0.1,0.4-0.1,0.7-0.1,1
			c0,0.6,0.1,1.1,0.2,1.6c0.3,1.5,0.9,2.8,0.9,2.8l0.6,1.3l1.4-0.3c0,0,0.9-0.2,2-0.5c0.6-0.2,1.1-0.3,1.7-0.6
			c0.3-0.1,0.6-0.2,0.8-0.4c0.3-0.1,0.5-0.3,0.8-0.5c0.4-0.3,0.7-0.8,0.9-1.1c0.3-0.6,0.4-1.1,0.4-1.6c0.1-0.5,0.1-1,0.1-1.5
			c0-1.1-0.1-1.9-0.1-1.9l-0.2-1.8l-1.8,0.3l0.3,1.7l1.7-0.2l0,0l-0.3-1.9l-1.8,0.4c0,0-0.4,0.1-0.9,0.2
			C159.4,48.4,158.7,48.6,158.1,48.8l0.6,1.7l1.7-0.6c-0.3-0.9-0.7-1.8-0.7-1.8l-0.9-2.1l-1.8,1.4L158.1,48.8l1.7-0.5l0,0l-0.7-2.2
			l-2,1.3L158.1,48.8z"/>
		<path clip-path="url(#SVGID_4_)" fill="#45772F" d="M161.1,49.8c0,0.2,0.6,3.8-0.6,4.5c-1.2,0.7-3.4,1.3-3.5,1.3l0,0l0,0l0,0l0,0
			c0-0.2-0.2-2.4,0.1-3.8C157.3,50.6,160.9,49.8,161.1,49.8L161.1,49.8L161.1,49.8L161.1,49.8L161.1,49.8z"/>
		<path clip-path="url(#SVGID_4_)" fill="#CCDD9C" d="M155.9,55.7c-0.1-0.2-1.7-3.4-0.8-4.5c0.9-1,2.8-2.3,2.9-2.4l0,0l0,0l0,0l0,0
			c0.1,0.2,1,2.2,1.1,3.6C159.3,53.8,156.1,55.7,155.9,55.7L155.9,55.7L155.9,55.7L155.9,55.7L155.9,55.7z"/>
		<polygon clip-path="url(#SVGID_4_)" fill="#305620" points="156.2,56.5 156.2,48 150.7,43.8 145.9,49.2 147.9,57.4 		"/>
		<polygon clip-path="url(#SVGID_4_)" fill="#F1F0E2" points="154.6,48.7 154.7,54.4 149.3,55.3 147.8,49.6 		"/>
		<polygon clip-path="url(#SVGID_4_)" fill="#305620" points="151.4,47.5 152.5,55.1 152,55.5 150.4,48 		"/>
		<polygon clip-path="url(#SVGID_4_)" fill="#305620" points="148.2,52.2 155.6,50.9 155.2,51.5 148.4,52.7 		"/>
		<polygon clip-path="url(#SVGID_4_)" fill="#305620" points="68.4,266 76.5,271.7 86.4,254.6 79.1,247.1 		"/>
		<polygon clip-path="url(#SVGID_4_)" fill="#F1F0E2" points="74.7,265.5 73.6,267.2 75.2,268.6 76.4,266.8 		"/>
		<polygon clip-path="url(#SVGID_4_)" fill="#12100B" points="66.7,278.4 54.2,269 51.3,275.3 61.3,282.6 		"/>
		<polygon clip-path="url(#SVGID_4_)" fill="#DFEAF4" points="65.4,278.6 54.3,270.4 51.9,275 61.3,281.9 		"/>
		<polygon clip-path="url(#SVGID_4_)" fill="#12100B" points="54.5,277 57.6,272.5 57.9,272.9 54.7,277.3 		"/>
		<polygon clip-path="url(#SVGID_4_)" fill="#12100B" points="58.1,279.5 61.8,275.7 62.2,275.9 58.2,280 		"/>
		<polygon clip-path="url(#SVGID_4_)" fill="#12100B" points="63.1,280.6 52.9,272.9 53,272.5 63.5,280.4 		"/>
		<polygon clip-path="url(#SVGID_4_)" fill="#12100B" points="62.8,269.1 59.7,273.8 60,274.2 63.8,270 		"/>
		<polygon clip-path="url(#SVGID_4_)" fill="#CCDD9C" points="69.2,271.5 68.4,274.9 67,272.8 63.9,274.9 64,271.3 61.7,271.6 
			61.9,269.1 58,269.5 58.4,266.7 55.9,268.2 56.6,265.7 54.4,264.3 59,262.3 		"/>
		<polygon clip-path="url(#SVGID_4_)" fill="#45772F" points="81.4,249.4 69.8,272.5 57.9,262.1 77,246 		"/>
		<polygon clip-path="url(#SVGID_4_)" fill="#F1F0E2" points="79.8,251.8 69.2,270.2 66.9,268.2 78.8,251.4 		"/>
		<polygon clip-path="url(#SVGID_4_)" fill="#F1F0E2" points="78,251.1 65.8,267.2 63.5,265.2 77.1,250.1 		"/>
		<polygon clip-path="url(#SVGID_4_)" fill="#F1F0E2" points="76.2,249.7 62.5,264.2 60.2,262.3 75.3,249.3 		"/>
		<polygon clip-path="url(#SVGID_4_)" fill="#45772F" points="70,270.1 60.1,261.9 59,262.4 69.2,271.3 		"/>
		<polygon clip-path="url(#SVGID_4_)" fill="#45772F" points="71.5,267.9 62,259.9 62.5,259.2 72,266.9 		"/>
		<polygon clip-path="url(#SVGID_4_)" fill="#45772F" points="73.2,264.7 64.5,257.4 65.2,256.8 73.7,263.8 		"/>
		<polygon clip-path="url(#SVGID_4_)" fill="#45772F" points="75,261.9 67.3,255.5 68,254.8 75.5,261 		"/>
		<polygon clip-path="url(#SVGID_4_)" fill="#45772F" points="76.2,259.1 69.6,253.5 70.3,252.9 76.7,258.1 		"/>
		<polygon clip-path="url(#SVGID_4_)" fill="#45772F" points="77.7,256.7 71.7,251.7 72.2,251.2 78,255.9 		"/>
		<polygon clip-path="url(#SVGID_4_)" fill="#45772F" points="78.6,254.5 73.4,250.1 76.6,248.6 80.5,250.8 		"/>
		<polygon clip-path="url(#SVGID_4_)" fill="#45772F" points="69,264.7 70.7,262.2 73,264 71.6,267 		"/>
		<polygon clip-path="url(#SVGID_4_)" fill="#E8AC13" points="70.8,262.7 69.3,264.7 71.4,266.5 72.6,264.3 		"/>
		<polygon clip-path="url(#SVGID_4_)" fill="#45772F" points="68.1,259.6 70.5,261.6 72.3,259.1 70,257.5 		"/>
		<polygon clip-path="url(#SVGID_4_)" fill="#E8AC13" points="70.1,257.8 68.5,259.6 70.4,261.1 71.8,259.2 		"/>
		<polygon clip-path="url(#SVGID_4_)" fill="#CCDD9C" points="55.8,257 54.1,260 53.4,257.7 49.8,258.9 50.8,255.4 48.5,255.1 
			49.4,252.7 45.6,252.1 46.7,249.5 43.9,250.3 45.2,248 43.5,246.1 48.4,245.4 		"/>
		<polygon clip-path="url(#SVGID_4_)" fill="#DFEAF4" points="317.5,150.5 280.5,156.1 280.3,159.9 317.9,152.2 		"/>
		<polygon clip-path="url(#SVGID_4_)" fill="#DFEAF4" points="317.5,151.9 321.1,154.9 322.4,170.2 321.1,169.2 315.6,154.5 
			316.6,152 		"/>
		<polygon clip-path="url(#SVGID_4_)" fill="#DFEAF4" points="315.8,151.8 311.4,153.4 297.6,146.6 299.1,146 314.6,148.8 
			316.2,151 		"/>
		<polygon clip-path="url(#SVGID_4_)" fill="#DFEAF4" points="317.2,150.3 318,145.6 330.7,136.9 330.4,138.5 320.4,150.6 
			317.8,151 		"/>
		<path clip-path="url(#SVGID_4_)" fill="#DFEAF4" d="M315.4,151.2c-0.1-1,0.6-1.9,1.6-1.9c1-0.1,1.9,0.6,1.9,1.6
			c0.1,1-0.6,1.9-1.6,1.9C316.4,153,315.5,152.2,315.4,151.2"/>
		<polygon clip-path="url(#SVGID_4_)" points="256.2,240.8 257.6,238 275,246.9 289.5,250.5 278.7,250 281.7,253.2 296.3,263.6 
			281.3,256 280.2,262.9 278,256.1 		"/>
		<path clip-path="url(#SVGID_4_)" fill="#BECE92" d="M290.1,244.9c-1.5-2.2-4.5-2.8-6.7-1.3c-2.2,1.5-2.8,4.5-1.3,6.7
			c1.5,2.2,4.5,2.8,6.7,1.3C291,250.1,291.6,247.1,290.1,244.9"/>
		<path clip-path="url(#SVGID_4_)" fill="#BECE92" d="M281.5,261.4c-1.7-2.5-5-3.1-7.4-1.4c-2.5,1.7-3.1,5-1.5,7.4
			c1.7,2.5,5,3.1,7.4,1.4C282.5,267.2,283.2,263.9,281.5,261.4"/>
		<path clip-path="url(#SVGID_4_)" fill="#45772F" d="M302.6,259.8c-2.5-3.6-7.4-4.6-11.1-2.2c-3.7,2.5-4.6,7.4-2.2,11.1
			c2.5,3.7,7.4,4.6,11.1,2.2C304.1,268.4,305.1,263.5,302.6,259.8"/>
		<polygon clip-path="url(#SVGID_4_)" fill="#DFEAF4" points="90.5,300.5 109.9,268.4 107.1,265.9 88.9,299.6 		"/>
		<polygon clip-path="url(#SVGID_4_)" fill="#DFEAF4" points="90,297.5 86.8,294.1 87.5,278.7 88.6,279.9 92.3,295.2 90.9,297.5 		
			"/>
		<polygon clip-path="url(#SVGID_4_)" fill="#DFEAF4" points="91.7,297.8 96.3,296.8 109.1,305.3 107.5,305.6 92.6,300.9 
			91.2,298.6 		"/>
		<polygon clip-path="url(#SVGID_4_)" fill="#DFEAF4" points="90.1,299.2 88.7,303.6 75.1,310.7 75.6,309.1 87,298.4 89.7,298.4 		
			"/>
		<path clip-path="url(#SVGID_4_)" fill="#DFEAF4" d="M92,298.4c0,1-0.9,1.8-1.9,1.7c-1,0-1.8-0.9-1.7-1.9c0-1,0.9-1.8,1.9-1.7
			C91.3,296.6,92.1,297.4,92,298.4"/>
		<polygon clip-path="url(#SVGID_4_)" fill="#45772F" points="52,255.4 47.7,244.7 71.6,236 78.7,242.8 		"/>
		<polygon clip-path="url(#SVGID_4_)" fill="#F1F0E2" points="59.3,244.8 57.1,245.7 58.3,247.9 60.3,246.7 		"/>
		<polygon clip-path="url(#SVGID_4_)" fill="#F1F0E2" points="52.8,244.3 50.4,245.3 51.3,247.2 53.6,246.3 		"/>
		<polygon clip-path="url(#SVGID_4_)" fill="#12100B" points="50.6,272.4 42.7,255.2 36,260.2 42.4,273.7 		"/>
		<polygon clip-path="url(#SVGID_4_)" fill="#DFEAF4" points="49.1,272 42,256.6 36.8,260.3 42.8,273 		"/>
		<polygon clip-path="url(#SVGID_4_)" fill="#12100B" points="38.4,263.8 44.3,260.9 44.3,261.4 38.4,264.3 		"/>
		<polygon clip-path="url(#SVGID_4_)" fill="#12100B" points="40.8,268.6 46.9,266.6 47.2,267.2 40.6,269.2 		"/>
		<polygon clip-path="url(#SVGID_4_)" fill="#12100B" points="45.5,272.7 39.1,258.5 39.3,258.2 46,272.7 		"/>
		<polygon clip-path="url(#SVGID_4_)" fill="#12100B" points="51.8,260.3 45.7,263.5 45.8,264.1 52.4,261.8 		"/>
		<polygon clip-path="url(#SVGID_4_)" fill="#305620" points="80.7,244.5 55.5,269 46,255 77.9,239.2 		"/>
		<polygon clip-path="url(#SVGID_4_)" fill="#F1F0E2" points="72.8,243 48.5,255.9 50.8,258.9 73.7,244 		"/>
		<polygon clip-path="url(#SVGID_4_)" fill="#F1F0E2" points="73.9,244.6 51.5,260.3 53,262.6 74.9,245.2 		"/>
		<polygon clip-path="url(#SVGID_4_)" fill="#F1F0E2" points="75.5,245.8 54.4,263.6 55.8,266 76.1,246.8 		"/>
		<polygon clip-path="url(#SVGID_4_)" fill="#305620" points="56.8,266.6 48.7,255.4 47.5,255.9 56,267.7 		"/>
		<polygon clip-path="url(#SVGID_4_)" fill="#305620" points="59.1,264.8 51,254.1 51.9,253.4 59.8,264 		"/>
		<polygon clip-path="url(#SVGID_4_)" fill="#305620" points="54.4,252.2 61.6,262.2 62.6,261.7 55,251.4 		"/>
		<polygon clip-path="url(#SVGID_4_)" fill="#305620" points="57.3,250.8 64.2,259.8 65.1,259.1 58.2,250.1 		"/>
		<polygon clip-path="url(#SVGID_4_)" fill="#305620" points="60.1,248.8 66.7,257.9 67.4,257 60.8,248.6 		"/>
		<polygon clip-path="url(#SVGID_4_)" fill="#305620" points="62.7,247.7 68.8,255.8 69.6,255.1 63.4,247.2 		"/>
		<polygon clip-path="url(#SVGID_4_)" fill="#305620" points="64.9,245.9 71,253.9 71.7,253.2 65.7,245.6 		"/>
		<polygon clip-path="url(#SVGID_4_)" fill="#305620" points="67.4,244.9 72.8,251.7 73.4,251.2 68.2,244.5 		"/>
		<polygon clip-path="url(#SVGID_4_)" fill="#305620" points="69.7,243.9 74.7,250.1 77.5,247.1 72.9,242.1 		"/>
		<path clip-path="url(#SVGID_4_)" fill="#FFFFFF" d="M59.8,230.6L59.8,230.6L59.8,230.6c0,0,0.7-0.6,1.4-1.1
			c-0.8-0.9-1.4-2.1-1.4-2.1l0,0l0,0c0,0,3.4-1.5,4.5-0.7c1.2,0.8,2.9,4,2.9,4s-3,2.6-4.3,2C61.7,232.2,59.8,230.6,59.8,230.6"/>
		<path clip-path="url(#SVGID_4_)" fill="#FFFFFF" d="M59.8,230.6l1,1.5l0,0l2.1-1.4l-2-1.5L59.8,230.6l1.1,1.3l0,0
			c0.1-0.1,0.7-0.6,1.3-1l1.6-1.1l-1.2-1.5c-0.3-0.4-0.6-0.8-0.9-1.2c-0.1-0.2-0.2-0.3-0.3-0.5l-0.1-0.1l0,0l0,0l-0.2,0.1l0.2-0.1v0
			l-0.2,0.1l0.2-0.1l-1.5,0.9l0.8,1.6l0,0l1.6-0.8l-0.8-1.6l-1.6,0.8l0.7,1.6l0-0.1l0,0.1h0l0-0.1l0,0.1c0,0,0.5-0.2,1.2-0.4
			c0.3-0.1,0.7-0.2,1-0.3c0.3-0.1,0.6-0.1,0.8-0.1l0.1,0l0,0l0.1-0.3l-0.1,0.3l0,0l0.1-0.3l-0.1,0.3l0.3-0.7l-0.4,0.6
			c0.1,0,0.1,0.1,0.2,0.1l0.3-0.7l-0.4,0.6l0,0c0,0,0.3,0.3,0.6,0.6c0.4,0.5,0.9,1.2,1.2,1.8c0.2,0.3,0.3,0.5,0.4,0.7
			c0,0.1,0.1,0.2,0.1,0.2l0,0.1l0,0l1.6-0.8l-1.1-1.3l0,0c0,0-0.6,0.5-1.3,1c-0.3,0.2-0.7,0.4-1,0.6c-0.1,0.1-0.3,0.1-0.4,0.1
			l-0.1,0l0,0l0,0.2V231l0,0l0,0.2V231v0.7l0.3-0.7c-0.1-0.1-0.2-0.1-0.3-0.1v0.7l0.3-0.7c-0.2-0.1-0.5-0.2-0.8-0.4
			c-0.5-0.3-1-0.6-1.3-0.9c-0.2-0.1-0.3-0.3-0.5-0.3l-0.1-0.1l0,0l0,0L59.8,230.6l1,1.5L59.8,230.6l-1.1,1.4c0,0,0.5,0.4,1.2,0.9
			c0.3,0.2,0.7,0.5,1.1,0.8c0.4,0.3,0.8,0.5,1.3,0.7c0.4,0.2,0.8,0.2,1.1,0.2c0.4,0,0.7-0.1,1.1-0.2c0.6-0.2,1-0.4,1.5-0.6
			c0.7-0.4,1.3-0.8,1.7-1.1c0.4-0.3,0.7-0.6,0.8-0.6l1.1-0.9l-0.7-1.2c0,0-0.5-0.8-1.1-1.8c-0.3-0.5-0.7-1-1-1.5
			c-0.4-0.5-0.8-0.9-1.3-1.3l0,0c-0.3-0.2-0.7-0.4-1-0.5c-0.3-0.1-0.6-0.1-0.9-0.1c-0.6,0-1.1,0.1-1.6,0.2c-1.4,0.3-2.7,0.9-2.8,0.9
			l-1.7,0.8l0.9,1.7l1.6-0.8l-0.8-1.6l0,0l-1.6,0.8l0.9,1.6c0,0,0.2,0.3,0.5,0.8C59,229.5,59.4,230.1,59.8,230.6l1.4-1.1l-1-1.4
			c-0.8,0.6-1.5,1.2-1.5,1.2l-1.7,1.4l1.8,1.4L59.8,230.6l-0.9-1.5l0,0l-2,1.3l1.9,1.5L59.8,230.6z"/>
		<path clip-path="url(#SVGID_4_)" fill="#45772F" d="M59.9,227.5c0.2-0.1,3.5-1.7,4.5-0.7c1,0.9,2.2,2.8,2.3,3l0,0l0,0l0,0l0,0
			c-0.2,0.1-2.3,0.9-3.6,1C61.7,230.9,60,227.7,59.9,227.5L59.9,227.5L59.9,227.5L59.9,227.5L59.9,227.5z"/>
		<path clip-path="url(#SVGID_4_)" fill="#CCDD9C" d="M67.1,230.7c-0.1,0.1-2.8,2.7-4.1,2.1c-1.3-0.5-3-2-3.1-2.1h0l0,0l0,0l0,0
			c0.1-0.1,1.9-1.6,3.1-2.1C64.2,228,66.9,230.5,67.1,230.7L67.1,230.7L67.1,230.7L67.1,230.7L67.1,230.7z"/>
		<polygon clip-path="url(#SVGID_4_)" fill="#305620" points="67.4,230.8 59.6,232.7 57.2,239.1 63.7,242.2 70.5,236.3 		"/>
		<polygon clip-path="url(#SVGID_4_)" fill="#F1F0E2" points="60.7,234 65.9,232.7 68.1,236.6 63.6,240.2 		"/>
		<polygon clip-path="url(#SVGID_4_)" fill="#305620" points="60.5,237.4 67.5,234.1 68,234.5 61.3,238.4 		"/>
		<polygon clip-path="url(#SVGID_4_)" fill="#305620" points="65.9,239.1 62.5,232.4 63.3,232.6 66.3,238.5 		"/>
		<polygon clip-path="url(#SVGID_4_)" fill="#305620" points="130.9,36.3 141.9,35.1 140.9,33.9 130.7,35.1 		"/>
		<polygon clip-path="url(#SVGID_4_)" fill="#305620" points="135.8,59.7 141.5,59.1 141.4,63.7 137.5,64.8 		"/>
		<path clip-path="url(#SVGID_4_)" fill="#CCDD9C" d="M186.9,280.2c5.6-7.4,16.1-8.9,23.5-3.3c7.4,5.6,8.9,16.1,3.3,23.5
			c-5.6,7.4-16.1,8.9-23.5,3.3C182.8,298.2,181.3,287.6,186.9,280.2"/>
		<polygon clip-path="url(#SVGID_4_)" fill="#DFEAF4" points="210.9,25.6 200.5,61.5 203.9,63.3 212.6,26 		"/>
		<polygon clip-path="url(#SVGID_4_)" fill="#12100B" points="241.5,301 225.3,305.7 228.8,312.3 241.6,308.4 		"/>
		<polygon clip-path="url(#SVGID_4_)" fill="#DFEAF4" points="240.9,302.3 226.5,306.5 229,311.6 241,307.9 		"/>
		<polygon clip-path="url(#SVGID_4_)" fill="#12100B" points="232.3,310.6 230.5,305.1 231,305.1 232.7,310.6 		"/>
		<polygon clip-path="url(#SVGID_4_)" fill="#12100B" points="236.9,309.2 235.9,303.5 236.4,303.3 237.4,309.4 		"/>
		<polygon clip-path="url(#SVGID_4_)" fill="#12100B" points="241,305.5 227.8,309.3 227.5,309.1 241.1,305.1 		"/>
		<polygon clip-path="url(#SVGID_4_)" fill="#12100B" points="231,298.4 233,304.1 233.5,304.1 232.4,298.1 		"/>
		<polygon clip-path="url(#SVGID_4_)" fill="#12100B" points="261.4,303.6 244.9,315.2 251.4,321.3 264.4,311.9 		"/>
		<polygon clip-path="url(#SVGID_4_)" fill="#DFEAF4" points="261.2,305.2 246.6,315.6 251.4,320.4 263.5,311.6 		"/>
		<polygon clip-path="url(#SVGID_4_)" fill="#12100B" points="254.8,318 250.6,312.4 251.1,312.2 255.2,317.8 		"/>
		<polygon clip-path="url(#SVGID_4_)" fill="#12100B" points="259.4,314.6 256.1,308.6 256.6,308.2 260,314.7 		"/>
		<polygon clip-path="url(#SVGID_4_)" fill="#12100B" points="262.7,308.8 249.1,318.3 248.7,318.1 262.6,308.3 		"/>
		<polygon clip-path="url(#SVGID_4_)" fill="#12100B" points="248.5,304.7 253,310.4 253.6,310.2 250,303.8 		"/>
		<polygon clip-path="url(#SVGID_4_)" fill="#305620" points="221.2,271.4 225.8,300.3 245.5,295.5 226,266.5 		"/>
		<polygon clip-path="url(#SVGID_4_)" fill="#45772F" points="223,268.3 240.6,311.1 256.9,301 229,264.3 		"/>
		<polygon clip-path="url(#SVGID_4_)" fill="#F1F0E2" points="241.6,308.2 224.3,269.1 225,268.7 244,306.8 		"/>
		<polygon clip-path="url(#SVGID_4_)" fill="#F1F0E2" points="245.1,306 247.2,304.4 226.4,267.9 225.7,268.4 		"/>
		<polygon clip-path="url(#SVGID_4_)" fill="#F1F0E2" points="229,266.1 253.4,300.5 251.5,302.1 228.6,266.8 		"/>
		<polygon clip-path="url(#SVGID_4_)" fill="#F1F0E2" points="248,303.9 250.4,302.4 227.9,267.2 227.1,267.4 		"/>
		<polygon clip-path="url(#SVGID_4_)" fill="#45772F" points="240.7,308.2 253.8,300 254.6,301.3 241.1,309.7 		"/>
		<polygon clip-path="url(#SVGID_4_)" fill="#45772F" points="239.8,305.7 252.5,297.8 251.5,297.1 239.2,304.8 		"/>
		<polygon clip-path="url(#SVGID_4_)" fill="#45772F" points="238.3,302.6 250.3,295.1 249.7,294.5 237.7,301.7 		"/>
		<polygon clip-path="url(#SVGID_4_)" fill="#45772F" points="237.1,299.5 248.4,292.5 247.9,291.6 236.9,298.2 		"/>
		<polygon clip-path="url(#SVGID_4_)" fill="#45772F" points="236,296.3 246.4,289.8 246,289.1 235.4,295.3 		"/>
		<polygon clip-path="url(#SVGID_4_)" fill="#45772F" points="234.6,293.5 244.6,287.4 244.2,286.7 234.2,292.8 		"/>
		<polygon clip-path="url(#SVGID_4_)" fill="#45772F" points="233.6,291.1 243.1,285.1 242.7,284.4 233.1,290.3 		"/>
		<polygon clip-path="url(#SVGID_4_)" fill="#45772F" points="232.5,288.6 241.6,283 241,282.1 232.4,287.3 		"/>
		<polygon clip-path="url(#SVGID_4_)" fill="#45772F" points="231.2,286.1 240,280.6 239.4,279.7 230.7,285.2 		"/>
		<polygon clip-path="url(#SVGID_4_)" fill="#45772F" points="230.1,283.4 238.3,278.4 237.8,277.7 229.6,282.8 		"/>
		<polygon clip-path="url(#SVGID_4_)" fill="#45772F" points="229.2,281.2 237,276.3 236.3,275.6 228.8,280.3 		"/>
		<polygon clip-path="url(#SVGID_4_)" fill="#45772F" points="228,279.1 235.8,274.5 235.1,273.9 228,278.4 		"/>
		<polygon clip-path="url(#SVGID_4_)" fill="#45772F" points="227.4,277.1 234.3,272.7 234,272.2 226.9,276.5 		"/>
		<polygon clip-path="url(#SVGID_4_)" fill="#45772F" points="227.1,276.9 234.2,272.5 233,270.7 226.2,274.8 		"/>
		<polygon clip-path="url(#SVGID_4_)" fill="#45772F" points="226,273.7 232.3,270.1 232.1,269.7 225.6,273.3 		"/>
		<polygon clip-path="url(#SVGID_4_)" fill="#45772F" points="225.3,272.3 231.5,268.8 231,268.2 225.1,272 		"/>
		<polygon clip-path="url(#SVGID_4_)" fill="#45772F" points="224.8,270.9 230.6,267.3 230.2,266.9 224.6,270.6 		"/>
		<polygon clip-path="url(#SVGID_4_)" fill="#45772F" points="224.3,269.5 229.7,266.1 228.9,265.5 223.8,269 		"/>
		<polygon clip-path="url(#SVGID_4_)" fill="#45772F" points="238.2,287.6 240.3,286.1 239,284.3 237.1,285.5 		"/>
		<polygon clip-path="url(#SVGID_4_)" fill="#E8AC13" points="237.5,285.5 239,284.6 239.9,286.1 238.3,287.1 		"/>
		<polygon clip-path="url(#SVGID_4_)" fill="#45772F" points="238.5,301.7 241.1,300.1 239.7,297.4 237.1,299.3 		"/>
		<polygon clip-path="url(#SVGID_4_)" fill="#E8AC13" points="238.5,301.2 240.6,300 239.6,298 237.6,299.2 		"/>
		<polygon clip-path="url(#SVGID_4_)" fill="#45772F" points="247.8,304.2 251,302.5 249.1,299.4 246.3,301.5 		"/>
		<polygon clip-path="url(#SVGID_4_)" fill="#E8AC13" points="247.9,303.7 250.3,302.2 248.9,300 246.6,301.5 		"/>
		<polygon clip-path="url(#SVGID_4_)" fill="#45772F" points="240.8,292.6 238.5,293.9 237.2,291.6 239.3,290 		"/>
		<polygon clip-path="url(#SVGID_4_)" fill="#E8AC13" points="240.3,292.4 238.6,293.5 237.7,291.7 239.3,290.7 		"/>
		<polygon clip-path="url(#SVGID_4_)" fill="#45772F" points="242.6,284.8 240.5,285.7 239.2,284.1 241.2,283 		"/>
		<polygon clip-path="url(#SVGID_4_)" fill="#E8AC13" points="242.2,284.7 240.8,285.6 239.8,284 241.1,283.2 		"/>
		<polygon clip-path="url(#SVGID_4_)" fill="#45772F" points="233.8,280.4 232.7,278.4 231.4,279.4 232.1,281.6 		"/>
		<polygon clip-path="url(#SVGID_4_)" fill="#E8AC13" points="233.5,280.4 232.2,281.1 231.5,279.7 232.7,279 		"/>
		<polygon clip-path="url(#SVGID_4_)" fill="#DFEAF4" points="317.9,189.8 280.5,188.1 279.9,184.4 318,188 		"/>
		<polygon clip-path="url(#SVGID_4_)" fill="#DFEAF4" points="306.7,226.6 271.6,213.6 269.6,216.9 306.2,228.3 		"/>
		<polygon clip-path="url(#SVGID_4_)" fill="#DFEAF4" points="194.1,324 186.2,287.4 189.6,285.8 195.8,323.6 		"/>
		<path clip-path="url(#SVGID_4_)" fill="#DFEAF4" d="M204.6,336.6c0.2,0.4,0.2,0.7,0.2,0.7c0,0-0.3,0-0.6-0.4
			c-9.9-11.8-9.6-12.1-9.9-13.4h-0.1c-0.4,0-0.7-0.2-0.9-0.4c-1,0.6-2,0.9-16.7,0.3c-0.5,0-0.7-0.2-0.7-0.2c0,0,0.2-0.2,0.6-0.3
			c14.2-2.6,15.4-2.3,16.5-1.9c0.2-0.3,0.5-0.5,0.9-0.6c0.1-1.2,0.2-2.1,8.1-14.6c0.2-0.4,0.5-0.5,0.5-0.5l0,0l0,0
			c0,0,0.1,0.2-0.1,0.7c-5.1,14.4-5.8,14.7-6.7,15.5c0.1,0.2,0.1,0.4,0.1,0.6c0,0.1,0,0.3-0.1,0.4
			C197.2,323,197.8,323.6,204.6,336.6"/>
		<path clip-path="url(#SVGID_4_)" fill="#CCDD9C" d="M95.2,92.7c0,9.3-7.5,16.8-16.8,16.8c-9.3,0-16.8-7.5-16.8-16.8
			c0-9.3,7.5-16.8,16.8-16.8C87.7,75.9,95.2,83.4,95.2,92.7"/>
		<polygon clip-path="url(#SVGID_4_)" fill="#DFEAF4" points="61.2,63.3 87,90.4 90.2,88.4 62.4,62 		"/>
		<polygon clip-path="url(#SVGID_4_)" points="183.5,62.2 186.6,62.5 188.6,43.1 193.5,28.9 188,38.3 186.9,34 186.1,16.1 
			184.4,32.9 178,30 182.5,35.6 		"/>
		<path clip-path="url(#SVGID_4_)" fill="#BECE92" d="M198.5,31.5c1.1,2.5-0.1,5.3-2.6,6.4c-2.5,1.1-5.3-0.1-6.4-2.6
			c-1.1-2.5,0.1-5.3,2.6-6.4C194.6,27.9,197.4,29,198.5,31.5"/>
		<path clip-path="url(#SVGID_4_)" fill="#BECE92" d="M180,29.7c1.2,2.7-0.1,5.9-2.8,7c-2.7,1.2-5.9-0.1-7-2.8
			c-1.2-2.7,0.1-5.9,2.8-7C175.7,25.7,178.8,27,180,29.7"/>
		<path clip-path="url(#SVGID_4_)" fill="#45772F" d="M192.7,12.9c1.7,4-0.1,8.7-4.2,10.5c-4,1.7-8.7-0.1-10.5-4.2
			c-1.7-4.1,0.1-8.7,4.2-10.5C186.3,7,191,8.8,192.7,12.9"/>
		<polygon clip-path="url(#SVGID_4_)" points="67.7,121.4 66.6,124.3 48.3,117.7 33.4,115.9 44.2,115.1 40.8,112.2 25,103.7 
			40.9,109.4 41,102.4 44.1,108.9 		"/>
		<path clip-path="url(#SVGID_4_)" fill="#BECE92" d="M33.5,121.5c1.8,2,4.8,2.2,6.9,0.5c2-1.8,2.2-4.8,0.5-6.9
			c-1.8-2-4.8-2.2-6.9-0.5C32,116.5,31.8,119.5,33.5,121.5"/>
		<path clip-path="url(#SVGID_4_)" fill="#BECE92" d="M39.9,104.1c1.9,2.2,5.3,2.5,7.6,0.5c2.2-1.9,2.5-5.3,0.5-7.6
			c-1.9-2.2-5.3-2.5-7.6-0.5C38.2,98.5,38,101.8,39.9,104.1"/>
		<path clip-path="url(#SVGID_4_)" fill="#45772F" d="M19.2,108.3c2.9,3.3,7.9,3.7,11.3,0.8c3.3-2.9,3.7-7.9,0.8-11.3
			c-2.9-3.3-7.9-3.7-11.3-0.8C16.7,99.9,16.3,105,19.2,108.3"/>
		<path clip-path="url(#SVGID_4_)" d="M195,293.7l2.1,6.7l0.3-0.1l-0.3,0.1c0,0,0.1,0.4,0.3,0.7c0.3,0.4,0.7,0.7,1.5,0.7
			c0.4,0,0.9-0.1,1.4-0.3L200,301c-0.5,0.2-0.9,0.3-1.1,0.3c-0.5,0-0.8-0.2-1-0.5c-0.1-0.1-0.1-0.2-0.2-0.3l0-0.1l0,0l0,0l-0.1,0
			l0.1,0l0,0l-0.1,0l0.1,0l0,0l-2.1-6.8L195,293.7z"/>
		<polygon clip-path="url(#SVGID_4_)" fill="#2B2523" points="195.4,294.9 193.9,293.4 194.3,293.2 194.2,291.4 194.9,292 
			195.3,291.6 195.9,292.9 196.1,292.8 196,294.7 		"/>
		<path clip-path="url(#SVGID_4_)" fill="#2B2523" d="M215,298.5c0.4,1.3,1.8,2.1,3.1,1.7c1.3-0.4,2.1-1.8,1.7-3.1
			c0-0.2-0.1-0.3-0.2-0.5c-0.5-1.1-1.7-4-2.1-4.3c-0.4-0.2-2.8,0.3-3.2,1c-0.1,0.2,0.3,3.2,0.6,4.5C214.9,298,214.9,298.3,215,298.5
			"/>
		<path clip-path="url(#SVGID_4_)" fill="#2B2523" d="M220.4,299c-0.8,0-2-0.9-1.9-1.4c0.1-0.5,1.3-0.9,2.2-0.8
			c0.5,0.1,1.5,1.3,1.5,1.3S220.9,299,220.4,299"/>
		<path clip-path="url(#SVGID_4_)" fill="#2B2523" d="M215.6,300.5c0.6-0.4,1.2-1.9,0.8-2.2c-0.3-0.3-1.6,0-2.2,0.6
			c-0.4,0.3-0.5,1.9-0.5,1.9S215.3,300.7,215.6,300.5"/>
		<path clip-path="url(#SVGID_4_)" fill="#2B2523" d="M206.6,290.3c-0.3-0.8-1.1-1.3-2-1l-2.3,0.7c-0.8,0.3-1.3,1.1-1,2l0.4,1.5
			c0.3,0.8,1.1,1.3,2,1l2.3-0.7c0.8-0.3,1.3-1.1,1-2L206.6,290.3z"/>
		<path clip-path="url(#SVGID_4_)" d="M204,290l-0.3-0.9c-0.1-0.2-0.2-0.3-0.4-0.2c-0.2,0.1-0.3,0.2-0.2,0.4l0.3,0.9
			c0.1,0.2,0.2,0.3,0.4,0.2C203.9,290.4,204,290.2,204,290"/>
		<path clip-path="url(#SVGID_4_)" d="M202.5,290.5l-0.3-0.9c-0.1-0.2-0.2-0.3-0.4-0.2c-0.2,0.1-0.3,0.2-0.2,0.4l0.3,0.9
			c0.1,0.2,0.2,0.3,0.4,0.2C202.5,290.8,202.6,290.6,202.5,290.5"/>
		<path clip-path="url(#SVGID_4_)" d="M205.4,289.6l-0.3-0.9c-0.1-0.2-0.2-0.3-0.4-0.2c-0.2,0.1-0.3,0.2-0.2,0.4l0.3,0.9
			c0.1,0.2,0.2,0.3,0.4,0.2C205.3,289.9,205.4,289.8,205.4,289.6"/>
		<path clip-path="url(#SVGID_4_)" fill="#2B2523" d="M203.3,294.5c-0.1,0.3-0.3,0.7-0.3,1.1c-0.1,0.3,0.1,0.7,0,1.1
			c-0.1,0.7-1.1,1.2-1.9,0.3c-0.7-0.7-1.2-0.9-1.5-1.1c-0.4-0.2-0.6-1.2,0.4-1.4c1.2-0.2,1.9-1.1,2.2-1.3
			C202.9,292.8,203.6,293.3,203.3,294.5 M211.4,288.9L211.4,288.9c-0.8-1.9-1.5-3.8-1.3-4.1c0.3-0.6,0.4-1.8,0.4-1.8l-2.1,0.7
			c0,0,1.4,4.2,0.8,6.6c-3.1,0.2-7,0.6-9.3,0.9c-0.4-0.4-1.4-0.7-1.5-0.8c0,0-0.6-2.1-0.5-2.3c0.5-0.6,0.4-1.6,0.4-1.6l-1.7,0.5
			l0.4,4.8l1,0.7l1.9,10.3l2.6-0.9c-0.2-0.9-0.4-2.8,0.2-3c0.7-0.2,1.5,0.3,1.9-0.4c0.4-0.8,0.3-4,1.9-3.6c0.9,0.2,1.1,1.2,1.8,1
			c2.2-0.7,2.4,0.7,3.5,0.4c1.3-0.4,1.3,1.4,1.2,2.1l3.4-1.2c0,0-0.5-3.1-1.7-5.2c-0.2,0.2-0.5,0.5-0.6,0.8
			c-0.3,0.5-0.6,1.1-0.8,0.7c-0.3-0.4-0.4-1-0.8-1.2c-0.4-0.2-0.8,0.2-1-0.5c-0.2-0.7-0.2-1.5-0.3-2
			C210.9,289.4,211.2,289,211.4,288.9"/>
		<path clip-path="url(#SVGID_4_)" fill="#FFFFFF" d="M202.6,298.9c0.7-0.2,1.5,0.3,1.9-0.4c0.4-0.8,0.3-4,1.9-3.6
			c0.9,0.2,1,1.2,1.8,1c2.2-0.7,2.4,0.7,3.5,0.4c1.3-0.4,1.3,1.4,1.2,2.1l-10.6,3.6C202.2,301,202,299.1,202.6,298.9"/>
		<path clip-path="url(#SVGID_4_)" fill="#FFFFFF" d="M203,295.6c-0.1,0.3,0.1,0.7,0,1.1c-0.1,0.7-1.1,1.2-1.9,0.3
			c-0.7-0.7-1.2-0.9-1.5-1.1c-0.4-0.2-0.6-1.2,0.4-1.4c1.2-0.2,1.9-1.1,2.2-1.3c0.7-0.4,1.5,0.1,1.2,1.2
			C203.3,294.7,203.1,295.2,203,295.6"/>
		<path clip-path="url(#SVGID_4_)" fill="#FFFFFF" d="M212.6,290.3c0.8,0.1,1.5,0.8,2.1,1.7c-0.2,0.2-0.5,0.5-0.6,0.8
			c-0.3,0.5-0.6,1.1-0.8,0.7c-0.3-0.4-0.4-1-0.8-1.2c-0.4-0.2-0.8,0.2-1-0.5c-0.2-0.7-0.2-1.5-0.3-2c-0.1-0.4,0.1-0.8,0.3-0.8v0
			c0.2,0.4,0.4,0.9,0.6,1.3C212.2,290.2,212.4,290.2,212.6,290.3"/>
		<path clip-path="url(#SVGID_4_)" fill="#E8AC13" d="M179.8,290.3l2.3,17.3c0,0.3,0.3,0.5,0.6,0.5c0.3,0,0.5-0.3,0.5-0.6l-2.3-17.3
			c0-0.3-0.3-0.5-0.6-0.5C180,289.8,179.8,290,179.8,290.3"/>
		<path clip-path="url(#SVGID_4_)" fill="#E8AC13" d="M182.2,311.6c-0.2-0.8,0.3-1.8,0.8-1.8c0.5-0.1,1.2,0.8,1.1,1.6
			c-0.1,0.5-0.7,2.5-0.7,2.5S182.4,312.2,182.2,311.6"/>
		<path clip-path="url(#SVGID_4_)" fill="#E8AC13" d="M184.3,306.8c-0.8-0.4-1.2-1.3-0.9-1.8c0.3-0.4,1.4-0.4,1.9,0.2
			c0.4,0.4,1.5,2.1,1.5,2.1S184.8,307,184.3,306.8"/>
		<path clip-path="url(#SVGID_4_)" fill="#E8AC13" d="M184.7,309.7c-0.8-0.4-1.2-1.3-0.9-1.8c0.3-0.4,1.4-0.4,1.9,0.2
			c0.4,0.4,1.5,2.1,1.5,2.1S185.2,309.9,184.7,309.7"/>
		<path clip-path="url(#SVGID_4_)" fill="#E8AC13" d="M183.9,303.8c-0.8-0.4-1.2-1.3-0.9-1.8c0.3-0.4,1.4-0.4,1.9,0.2
			c0.4,0.4,1.5,2.1,1.5,2.1S184.4,304,183.9,303.8"/>
		<path clip-path="url(#SVGID_4_)" fill="#E8AC13" d="M180.9,307.2c0.6-0.6,0.8-1.6,0.4-1.9c-0.4-0.3-1.5,0-1.8,0.7
			c-0.2,0.5-0.8,2.4-0.8,2.4S180.5,307.6,180.9,307.2"/>
		<path clip-path="url(#SVGID_4_)" fill="#E8AC13" d="M181.3,310.1c0.6-0.6,0.8-1.6,0.4-1.9c-0.4-0.3-1.5,0-1.8,0.7
			c-0.2,0.5-0.8,2.4-0.8,2.4S180.9,310.5,181.3,310.1"/>
		<path clip-path="url(#SVGID_4_)" fill="#E8AC13" d="M180.5,304.2c0.6-0.6,0.8-1.6,0.4-1.9c-0.4-0.3-1.5,0-1.8,0.7
			c-0.2,0.5-0.8,2.5-0.8,2.5S180.1,304.6,180.5,304.2"/>
		<path clip-path="url(#SVGID_4_)" fill="#E8AC13" d="M170.2,284.1l0.6,17.4c0,0.3,0.3,0.5,0.5,0.5c0.3,0,0.5-0.3,0.5-0.5l-0.6-17.4
			c0-0.3-0.3-0.5-0.5-0.5C170.4,283.6,170.2,283.8,170.2,284.1"/>
		<path clip-path="url(#SVGID_4_)" fill="#E8AC13" d="M170.4,305.6c-0.1-0.8,0.5-1.7,1-1.7c0.5,0,1.1,0.9,0.9,1.7
			c-0.1,0.5-0.9,2.4-0.9,2.4S170.5,306.1,170.4,305.6"/>
		<path clip-path="url(#SVGID_4_)" fill="#E8AC13" d="M173,300.9c-0.7-0.5-1-1.5-0.7-1.9c0.3-0.4,1.4-0.3,1.9,0.4
			c0.3,0.4,1.2,2.3,1.2,2.3S173.4,301.2,173,300.9"/>
		<path clip-path="url(#SVGID_4_)" fill="#E8AC13" d="M173.1,303.8c-0.7-0.5-1-1.5-0.7-1.9c0.3-0.4,1.4-0.3,1.9,0.4
			c0.3,0.4,1.2,2.3,1.2,2.3S173.5,304.1,173.1,303.8"/>
		<path clip-path="url(#SVGID_4_)" fill="#E8AC13" d="M172.9,297.9c-0.7-0.5-1-1.5-0.7-1.9c0.3-0.4,1.4-0.3,1.9,0.4
			c0.3,0.4,1.2,2.3,1.2,2.3S173.3,298.2,172.9,297.9"/>
		<path clip-path="url(#SVGID_4_)" fill="#E8AC13" d="M169.5,301c0.7-0.5,0.9-1.5,0.5-1.9c-0.4-0.4-1.5-0.2-1.9,0.5
			c-0.3,0.5-1.1,2.4-1.1,2.4S169.1,301.3,169.5,301"/>
		<path clip-path="url(#SVGID_4_)" fill="#E8AC13" d="M169.6,304c0.7-0.5,0.9-1.5,0.5-1.9c-0.4-0.4-1.5-0.2-1.9,0.5
			c-0.3,0.5-1.1,2.4-1.1,2.4S169.2,304.3,169.6,304"/>
		<path clip-path="url(#SVGID_4_)" fill="#E8AC13" d="M169.4,298c0.7-0.5,0.9-1.5,0.5-1.9c-0.4-0.4-1.5-0.2-1.9,0.5
			c-0.3,0.5-1.1,2.4-1.1,2.4S169,298.3,169.4,298"/>
		<path clip-path="url(#SVGID_4_)" d="M288.7,137c-0.1-0.3-1.2-1.2-2.5-2.2c0.5,1.6,1,3.2,1.2,4c0.3,1.1-1.9,2-2.6,1.3
			c-0.5-0.5-1.3-3.7-2.7-7.9c-1.6-0.3-1.9,1.5-0.4,6v0v0c3.8,11.3,5.8,23.5,5.8,36.1c0,22.1-6.3,42.7-17.1,60.2
			c-3.5,6.2,5,5.1,7.4,1.4c10.7-18,16.8-39.1,16.8-61.6C294.5,161.2,292.5,148.7,288.7,137"/>
		<path clip-path="url(#SVGID_4_)" fill="#CCDD9C" d="M287.4,138.7c-0.2-0.8-0.7-2.4-1.2-4c-0.8-0.6-1.6-1.2-2.4-1.9
			c-0.7-0.4-1.3-0.7-1.7-0.8c1.5,4.2,2.3,7.5,2.7,7.9C285.5,140.7,287.7,139.8,287.4,138.7"/>
		<polygon clip-path="url(#SVGID_4_)" fill="#12100B" points="160.1,289.4 156.4,289.4 156.4,321.5 160.1,304 		"/>
		<polygon clip-path="url(#SVGID_4_)" fill="#12100B" points="159.5,306.7 167.5,314.7 159,302.9 		"/>
		<polygon clip-path="url(#SVGID_4_)" fill="#12100B" points="157.6,301.2 152.3,306.6 157.9,297.4 		"/>
		<path clip-path="url(#SVGID_4_)" fill="#45772F" d="M172.7,313.7c-0.6-2.9-3.3-4.8-6.2-4.2c-2.9,0.6-4.8,3.3-4.2,6.2
			c0.6,2.9,3.3,4.8,6.2,4.2C171.4,319.4,173.3,316.6,172.7,313.7"/>
		<path clip-path="url(#SVGID_4_)" fill="#45772F" d="M155.1,307.1c-0.6-3.3-3.8-5.4-7.1-4.8c-3.3,0.6-5.4,3.8-4.8,7.1
			c0.6,3.3,3.8,5.4,7.1,4.8C153.6,313.5,155.7,310.4,155.1,307.1"/>
		<path clip-path="url(#SVGID_4_)" fill="#BECE92" d="M162.9,325.9c-0.4,4.1-3.9,7.1-8,6.7c-4.1-0.4-7.1-3.9-6.7-8
			c0.4-4.1,3.9-7.1,8-6.7C160.2,318.3,163.2,321.9,162.9,325.9"/>
		<path clip-path="url(#SVGID_4_)" fill="#FFFFFF" d="M112,62.3L112,62.3L112,62.3c0,0,0.7,0.7,1.2,1.3c0.8-0.8,2-1.6,2-1.6l0,0l0,0
			c0,0,1.8,3.3,1.1,4.5c-0.7,1.3-3.7,3.2-3.7,3.2s-2.9-2.8-2.4-4.1C110.6,64.4,112,62.3,112,62.3"/>
		<path clip-path="url(#SVGID_4_)" fill="#FFFFFF" d="M112,62.3l-1.4,1.1l0,0l1.6,1.9l1.3-2.1L112,62.3l-1.2,1.2l0,0
			c0.1,0.1,0.7,0.7,1.1,1.2l1.2,1.4l1.3-1.4c0.3-0.3,0.8-0.7,1.1-1c0.2-0.1,0.3-0.2,0.4-0.3l0.1-0.1l0,0l0,0l-0.2-0.2l0.2,0.2
			l-0.2-0.2l0.2,0.2l-1-1.5l-1.5,0.9l0,0l0.9,1.5l1.5-0.9l-0.9-1.5l-1.5,0.9c0,0,0.3,0.6,0.6,1.2c0.1,0.3,0.3,0.7,0.4,1
			c0.1,0.3,0.1,0.6,0.1,0.7l0,0l0.1,0l-0.1,0l0,0l0.1,0l-0.1,0l0.6,0.1l-0.5-0.3c-0.1,0.1-0.1,0.2-0.1,0.2l0.6,0.1l-0.5-0.3l0,0
			c0,0-0.3,0.3-0.6,0.6c-0.5,0.5-1.2,1-1.7,1.4c-0.3,0.2-0.5,0.4-0.7,0.5c-0.1,0.1-0.1,0.1-0.2,0.1l0,0l0,0l1,1.5l1.2-1.3l-0.5,0.5
			l0.5-0.5l0,0l-0.5,0.5l0.5-0.5c0,0-0.6-0.6-1.1-1.2c-0.3-0.3-0.5-0.7-0.7-1c-0.1-0.1-0.1-0.3-0.1-0.3l0-0.1l-0.3,0.1h0.3l0-0.1
			l-0.3,0.1h0.3h-0.8l0.8,0.2c0-0.1,0-0.2,0-0.2h-0.8l0.8,0.2l0,0c0.1-0.2,0.2-0.5,0.4-0.8c0.2-0.5,0.6-1,0.8-1.4
			c0.1-0.2,0.2-0.4,0.3-0.5l0.1-0.1l0,0l0,0L112,62.3l-1.4,1.1L112,62.3l-1.5-1c0,0-0.4,0.6-0.8,1.3c-0.2,0.4-0.4,0.8-0.7,1.2
			c-0.2,0.4-0.4,0.9-0.6,1.3l0,0c-0.1,0.3-0.1,0.6-0.1,0.8c0,0.4,0.1,0.8,0.2,1.1c0.2,0.6,0.5,1.1,0.8,1.5c0.4,0.7,0.9,1.3,1.3,1.7
			c0.4,0.4,0.7,0.7,0.7,0.7l1,1l1.2-0.8c0,0,0.8-0.5,1.7-1.2c0.5-0.3,0.9-0.7,1.4-1.2c0.4-0.4,0.9-0.9,1.2-1.4l0,0
			c0.3-0.6,0.4-1.1,0.4-1.6c0-0.6-0.1-1.2-0.3-1.7c-0.2-0.8-0.5-1.5-0.8-2c-0.3-0.5-0.5-0.9-0.5-0.9l-0.9-1.6l-1.6,0.9l0.9,1.5
			l1.5-0.9l0,0l-1-1.6l-1.5,1c0,0-0.3,0.2-0.8,0.5C113,61.5,112.5,61.9,112,62.3l1.2,1.3l1.3-1.2c-0.6-0.7-1.3-1.4-1.3-1.4l-1.6-1.6
			l-1.2,2L112,62.3l1.4-1.1l0,0l-1.5-1.8l-1.3,2L112,62.3z"/>
		<path clip-path="url(#SVGID_4_)" fill="#45772F" d="M115.1,62.2c0.1,0.1,2,3.3,1.2,4.4c-0.8,1.1-2.6,2.5-2.7,2.6l0,0l0,0l0,0l0,0
			c-0.1-0.2-1.1-2.2-1.4-3.5C111.9,64.3,115,62.3,115.1,62.2L115.1,62.2L115.1,62.2L115.1,62.2L115.1,62.2z"/>
		<path clip-path="url(#SVGID_4_)" fill="#CCDD9C" d="M112.6,69.6c-0.1-0.1-2.9-2.5-2.5-3.8c0.4-1.3,1.7-3.2,1.8-3.3l0,0l0,0l0,0
			l0,0c0.1,0.1,1.7,1.7,2.4,2.9C115,66.6,112.7,69.5,112.6,69.6L112.6,69.6L112.6,69.6L112.6,69.6L112.6,69.6z"/>
		<polygon clip-path="url(#SVGID_4_)" fill="#305620" points="113.3,69.6 109.9,62.3 103.3,60.6 101.1,66.6 105.8,73.7 		"/>
		<polygon clip-path="url(#SVGID_4_)" fill="#F1F0E2" points="108.7,63.6 111.3,68.3 106,71.2 103.1,66.8 		"/>
		<polygon clip-path="url(#SVGID_4_)" fill="#305620" points="105.6,63.9 109.5,70.9 109,71.3 104.9,64.7 		"/>
		<polygon clip-path="url(#SVGID_4_)" fill="#305620" points="103.8,69.3 110.5,65.3 110.4,66 104.1,69.7 		"/>
		<path clip-path="url(#SVGID_4_)" fill="#FFFFFF" d="M88.7,77.5L88.7,77.5L88.7,77.5c0,0,0.4,0.8,0.8,1.6c-1.1,0.5-2.2,1.3-2.2,1.3
			l0,0l0,0c0,0,2.4,2.9,3.8,2.6c1.4-0.2,4.3-2.4,4.3-2.4s-1.6-3.6-3-3.7C91.1,76.9,88.7,77.5,88.7,77.5"/>
		<path clip-path="url(#SVGID_4_)" fill="#FFFFFF" d="M88.7,77.5l-1.5,0.9l0,0L88.7,77.5l-0.3-1.7l0,0l-2.2,0.4l1,2
			c0,0,0.4,0.9,0.9,1.7l1.5-0.9L88.7,77.5c-0.6,0.3-1.2,0.7-1.6,1c-0.5,0.3-0.8,0.5-0.8,0.5L84.8,80l1.1,1.5l1.4-1.1l-1.1-1.4l0,0
			l-1.4,1.1l1.2,1.4c0,0,0.6,0.7,1.5,1.5c0.4,0.4,0.9,0.8,1.4,1.1c0.3,0.2,0.6,0.3,0.9,0.4c0.3,0.1,0.7,0.2,1.2,0.2
			c0.2,0,0.3,0,0.5,0l0,0l0,0c0.3-0.1,0.6-0.2,0.9-0.3c0.5-0.2,1-0.4,1.5-0.7c1.4-0.8,2.7-1.7,2.7-1.7l1.1-0.8L97.1,80
			c0,0-0.4-1-1.1-2.1c-0.3-0.5-0.7-1.1-1.2-1.6c-0.2-0.2-0.5-0.5-0.9-0.7c-0.3-0.2-0.8-0.4-1.4-0.4c-0.1,0-0.2,0-0.3,0
			c-0.9,0-1.8,0.2-2.6,0.3c-0.8,0.1-1.3,0.3-1.4,0.3L86,76.4l1.2,2L88.7,77.5l0.4,1.7l0,0c0.1,0,0.6-0.1,1.3-0.3
			c0.6-0.1,1.4-0.2,1.9-0.2l0.1,0l0-0.8l-0.3,0.8c0,0,0.1,0,0.2,0l0-0.8l-0.3,0.8l0.1-0.4l-0.2,0.3l0.1,0l0.1-0.4l-0.2,0.3l0,0
			c0.1,0.1,0.3,0.3,0.5,0.6c0.3,0.4,0.6,1,0.9,1.4c0.1,0.2,0.2,0.4,0.3,0.5c0,0.1,0.1,0.1,0.1,0.1l0,0l0,0l0.3-0.1l-0.3,0.1l0,0
			l0.3-0.1l-0.3,0.1l1.6-0.7l-1-1.4l0,0c-0.1,0-0.8,0.6-1.6,1.1c-0.4,0.3-0.9,0.5-1.2,0.7c-0.2,0.1-0.4,0.2-0.5,0.2
			c-0.1,0.1-0.2,0.1-0.3,0.1l0,0l0.1,0.8v-0.8l-0.1,0l0.1,0.8v-0.8v0.4l0.1-0.4l-0.1,0v0.4l0.1-0.4v0c0,0-0.3-0.1-0.6-0.3
			c-0.4-0.3-0.9-0.7-1.2-1.1c-0.2-0.2-0.3-0.3-0.4-0.4l-0.1-0.1l0,0l0,0l-0.3,0.2l0.3-0.2l0,0l-0.3,0.2l0.3-0.2l-1.3,1.1l1.1,1.4
			l0,0l1.3-1.1l-1-1.4l-1.4,1.1l1,1.4l-0.2-0.2l0.2,0.2l0,0l-0.2-0.2l0.2,0.2c0,0,0.3-0.2,0.6-0.4c0.4-0.2,0.8-0.5,1.2-0.7L92,80
			l-0.9-1.7c-0.2-0.4-0.4-0.8-0.5-1c-0.1-0.1-0.1-0.3-0.2-0.4l0-0.1l0,0L88.7,77.5l0.3,1.7l0,0l2.4-0.5l-1.3-2.2L88.7,77.5l0.4,1.7
			L88.7,77.5z"/>
		<path clip-path="url(#SVGID_4_)" fill="#45772F" d="M87.5,80.4c0.1,0.1,2.4,3,3.8,2.6c1.3-0.4,3.2-1.6,3.4-1.7l0,0l0,0l0,0l0,0
			c-0.1-0.1-1.7-1.8-2.8-2.5C90.6,78.1,87.6,80.3,87.5,80.4L87.5,80.4L87.5,80.4L87.5,80.4L87.5,80.4z"/>
		<path clip-path="url(#SVGID_4_)" fill="#CCDD9C" d="M95.3,80.6c-0.1-0.2-1.4-3.6-2.7-3.7c-1.4-0.1-3.6,0.5-3.7,0.5l0,0l0,0l0,0
			l0,0c0.1,0.2,1,2.2,1.9,3.3C91.6,81.8,95.1,80.7,95.3,80.6L95.3,80.6L95.3,80.6L95.3,80.6L95.3,80.6z"/>
		<polygon clip-path="url(#SVGID_4_)" fill="#305620" points="95.7,81.3 89.4,75.6 90,68.8 97.2,68.8 101.9,75.9 		"/>
		<polygon clip-path="url(#SVGID_4_)" fill="#F1F0E2" points="91,74.9 95.1,78.8 99.5,75.4 96.3,70.5 		"/>
		<polygon clip-path="url(#SVGID_4_)" fill="#305620" points="92.3,71.7 97.2,77.7 97.8,77.5 93.3,71.3 		"/>
		<polygon clip-path="url(#SVGID_4_)" fill="#305620" points="97.9,72.5 92,77.1 92.7,77.3 98.2,73 		"/>
		<polygon clip-path="url(#SVGID_4_)" fill="#12100B" points="257.3,105.1 259.1,108.4 287.4,93.5 270.2,98.3 		"/>
		<polygon clip-path="url(#SVGID_4_)" fill="#12100B" points="272.9,97.6 276.2,86.8 269.7,99.8 		"/>
		<polygon clip-path="url(#SVGID_4_)" fill="#12100B" points="268.9,101.8 276.2,104.1 265.4,103.4 		"/>
		<path clip-path="url(#SVGID_4_)" fill="#45772F" d="M272.9,82.7c-2.3,1.8-2.7,5.2-0.8,7.5c1.8,2.3,5.2,2.7,7.4,0.8
			c2.3-1.8,2.7-5.2,0.8-7.5C278.5,81.2,275.2,80.8,272.9,82.7"/>
		<path clip-path="url(#SVGID_4_)" fill="#45772F" d="M275.3,101.4c-2.6,2.1-3,5.9-1,8.5c2.1,2.6,5.9,3,8.5,1c2.6-2.1,3-5.9,1-8.5
			C281.7,99.7,277.9,99.3,275.3,101.4"/>
		<path clip-path="url(#SVGID_4_)" fill="#BECE92" d="M288.3,85.7c3.8-1.6,8.1,0.2,9.7,4c1.6,3.8-0.2,8.1-4,9.6
			c-3.8,1.6-8.1-0.2-9.7-4C282.8,91.6,284.5,87.3,288.3,85.7"/>
		<polygon clip-path="url(#SVGID_4_)" points="262.4,124 261.2,121.1 279.3,113.9 291.7,105.4 284.1,113.2 288.6,113.1 306,109 
			290.4,115.2 294.9,120.6 288.3,117.7 		"/>
		<path clip-path="url(#SVGID_4_)" fill="#BECE92" d="M287.9,101.2c-2.7-0.3-5.1,1.5-5.4,4.2c-0.3,2.7,1.5,5.1,4.2,5.4
			c2.7,0.3,5.1-1.5,5.4-4.2C292.4,104,290.5,101.6,287.9,101.2"/>
		<path clip-path="url(#SVGID_4_)" fill="#BECE92" d="M294.6,118.6c-2.9-0.4-5.6,1.7-6,4.6c-0.4,2.9,1.7,5.6,4.6,6
			c2.9,0.4,5.6-1.7,6-4.6C299.6,121.6,297.6,119,294.6,118.6"/>
		<path clip-path="url(#SVGID_4_)" fill="#45772F" d="M307.3,101.7c-4.4-0.6-8.4,2.5-8.9,6.9c-0.6,4.4,2.5,8.4,6.9,8.9
			c4.4,0.6,8.4-2.5,8.9-6.9C314.8,106.3,311.7,102.3,307.3,101.7"/>
		<path clip-path="url(#SVGID_4_)" fill="#FFFFFF" d="M117.3,325.8c0.7,1,1.9,3.1,2.5,5c0.3,1.2,0.1,2.1-0.3,2.9
			c-0.6,1.4-1.7,2.6-2.5,3.5c-0.4,0.4-0.8,0.8-1.1,1.1l-2.3,2l-1.9-2.5c-0.2-0.3-0.4-0.6-0.6-1l-0.1,0l-3.1,1.8l-0.7-3.6
			c-0.3-1.2-0.8-3.6-0.8-5.6l0,0c0-0.5,0.1-1,0.3-1.3c0.4-1,1.1-1.6,1.8-2.2c0.7-0.5,1.4-1,2.1-1.4c0.8-0.4,1.5-0.8,2-1l1.7-0.7
			l1,1.9l1-0.7L117.3,325.8z"/>
		<path clip-path="url(#SVGID_4_)" fill="#45772F" d="M113.9,337.2c0.2-0.2,4.5-3.8,3.9-5.8c-0.6-2-2.5-4.9-2.7-5.1l0,0l0,0l0,0l0,0
			c-0.2,0.2-2.7,2.6-3.8,4.4C110.3,332.5,113.7,337,113.9,337.2L113.9,337.2L113.9,337.2L113.9,337.2L113.9,337.2z"/>
		<path clip-path="url(#SVGID_4_)" fill="#CCDD9C" d="M114,325.2c-0.2,0.1-5.5,2.2-5.5,4.3c0,2.1,0.8,5.4,0.9,5.7l0,0l0,0l0,0l0,0
			c0.2-0.1,3.4-1.6,4.9-3C116,330.8,114.2,325.4,114,325.2L114,325.2L114,325.2L114,325.2L114,325.2z"/>
		<path clip-path="url(#SVGID_4_)" fill="#FFFFFF" d="M130.7,316.1c0.7,1,1.9,3.1,2.5,5c0.3,1.2,0.1,2.1-0.3,2.9
			c-0.6,1.4-1.7,2.6-2.5,3.5c-0.4,0.4-0.8,0.8-1.1,1.1l-2.3,2l-2-2.5c-0.2-0.3-0.4-0.6-0.6-1l-0.1,0l-3.1,1.8l-0.7-3.6
			c-0.3-1.2-0.8-3.6-0.8-5.6l0,0c0-0.5,0.1-1,0.3-1.3c0.4-1,1.1-1.6,1.8-2.2c0.7-0.5,1.4-1,2.1-1.4c0.7-0.4,1.5-0.8,2-1l1.7-0.7
			l1,1.9l1-0.7L130.7,316.1z"/>
		<path clip-path="url(#SVGID_4_)" fill="#45772F" d="M127.3,327.6c0.2-0.2,4.5-3.8,3.9-5.8c-0.6-2-2.5-4.9-2.7-5.1l0,0l0,0l0,0l0,0
			c-0.2,0.2-2.7,2.6-3.7,4.4C123.7,322.9,127.1,327.3,127.3,327.6L127.3,327.6L127.3,327.6L127.3,327.6L127.3,327.6z"/>
		<path clip-path="url(#SVGID_4_)" fill="#CCDD9C" d="M127.4,315.5c-0.2,0.1-5.5,2.2-5.5,4.3c0,2.1,0.8,5.4,0.9,5.7l0,0l0,0l0,0l0,0
			c0.2-0.1,3.4-1.6,4.9-3C129.3,321.2,127.5,315.8,127.4,315.5L127.4,315.5L127.4,315.5L127.4,315.5L127.4,315.5z"/>
		<polygon clip-path="url(#SVGID_4_)" points="136,295.1 128.9,314.9 126.9,314.7 132.8,293.3 		"/>
		<polygon clip-path="url(#SVGID_4_)" points="142.4,302.6 115.9,292.7 123.6,271.1 148.1,280.9 		"/>
		<polygon clip-path="url(#SVGID_4_)" points="127.7,294.1 116.6,323.9 114.6,323.4 122.4,292.2 		"/>
		<polygon clip-path="url(#SVGID_4_)" fill="#F1F0E2" points="121.6,292.9 125.2,282.8 126.3,283.4 122.7,293.3 		"/>
		<polygon clip-path="url(#SVGID_4_)" fill="#F1F0E2" points="123.7,294.3 126.9,284.2 128.1,284.7 124.7,294.4 		"/>
		<polygon clip-path="url(#SVGID_4_)" fill="#F1F0E2" points="125.9,294.9 126.9,295.4 130.1,285.6 128.9,285.6 		"/>
		<polygon clip-path="url(#SVGID_4_)" fill="#F1F0E2" points="128.2,295.1 129.2,295.6 132.4,285.7 131.1,285.7 		"/>
		<polygon clip-path="url(#SVGID_4_)" fill="#F1F0E2" points="130.4,296 133.7,286.1 134.7,286.3 131.5,296.4 		"/>
		<polygon clip-path="url(#SVGID_4_)" fill="#F1F0E2" points="132.9,296.2 135.7,286.9 136.6,287.1 133.9,297.2 		"/>
		<polygon clip-path="url(#SVGID_4_)" fill="#F1F0E2" points="134.9,297.3 138.1,287 138.9,287.8 136.1,297.4 		"/>
		<polygon clip-path="url(#SVGID_4_)" fill="#F1F0E2" points="137.2,298.1 140.3,288.1 141.1,289 138.3,298.3 		"/>
		<polygon clip-path="url(#SVGID_4_)" fill="#F1F0E2" points="139.6,298.9 142.4,288.7 143.4,289 140.7,299.3 		"/>
		<polygon clip-path="url(#SVGID_4_)" fill="#F1F0E2" points="120.8,292.1 123.7,283.6 123.4,281.7 119.5,292.1 		"/>
		<polygon clip-path="url(#SVGID_4_)" points="141,298.2 118.1,290.8 117.3,293.2 140.6,301.2 		"/>
		<polygon clip-path="url(#SVGID_4_)" points="144.7,291.9 120.5,284.6 122.7,281.2 145.2,288.5 		"/>
		<polygon clip-path="url(#SVGID_4_)" fill="#12100B" points="245.3,86.7 241.7,85.4 252.8,55.3 250.3,73 		"/>
		<polygon clip-path="url(#SVGID_4_)" fill="#12100B" points="250.7,70.2 260.9,65.5 248.9,73.7 		"/>
		<polygon clip-path="url(#SVGID_4_)" fill="#12100B" points="247,74.8 243.8,67.8 245.9,78.4 		"/>
		<path clip-path="url(#SVGID_4_)" fill="#45772F" d="M265.5,68.2c-1.5,2.5-4.8,3.3-7.3,1.8c-2.5-1.5-3.3-4.8-1.8-7.3
			c1.5-2.5,4.8-3.3,7.3-1.8C266.2,62.5,267,65.7,265.5,68.2"/>
		<path clip-path="url(#SVGID_4_)" fill="#BECE92" d="M258.6,57.2c-2,3.2-6.2,4.3-9.4,2.3c-3.2-2-4.3-6.2-2.3-9.4
			c2-3.2,6.2-4.3,9.4-2.3C259.5,49.8,260.6,54,258.6,57.2"/>
		<path clip-path="url(#SVGID_4_)" fill="#45772F" d="M246.6,68.4c-1.7,2.9-5.4,3.8-8.3,2.1c-2.9-1.7-3.8-5.4-2.1-8.3
			c1.7-2.9,5.4-3.8,8.3-2.1C247.4,61.8,248.4,65.5,246.6,68.4"/>
		<polygon clip-path="url(#SVGID_4_)" points="253.7,97.1 251.2,95.2 263.1,79.7 269.4,66.1 266.8,76.7 270.6,74.3 283.5,61.9 
			273.2,75.2 279.9,77.5 272.7,78.5 		"/>
		<path clip-path="url(#SVGID_4_)" fill="#BECE92" d="M263.9,64.5c-2.5,1.1-3.6,3.9-2.5,6.4c1.1,2.5,3.9,3.6,6.4,2.5
			c2.5-1.1,3.6-3.9,2.5-6.4C269.3,64.6,266.4,63.5,263.9,64.5"/>
		<path clip-path="url(#SVGID_4_)" fill="#BECE92" d="M278.6,76c-2.7,1.2-4,4.3-2.8,7c1.2,2.7,4.3,4,7,2.8c2.7-1.2,4-4.3,2.8-7
			C284.5,76,281.3,74.8,278.6,76"/>
		<path clip-path="url(#SVGID_4_)" fill="#45772F" d="M280.9,55c-4,1.7-5.9,6.4-4.2,10.5c1.7,4,6.4,5.9,10.5,4.2
			c4-1.7,5.9-6.4,4.2-10.5C289.7,55.1,285,53.2,280.9,55"/>
		<path clip-path="url(#SVGID_4_)" fill="#FFFFFF" d="M43.5,160.8c-2.5,0-5.4,6.5-5.4,6.5s2.6,6.6,5.1,6.7l1.4,0l0.3-13.2l-1.7,0
			L43.5,160.8z"/>
		<path clip-path="url(#SVGID_4_)" fill="#FFFFFF" d="M43.5,160.8l0-1.6l-0.1,0c-0.7,0-1.2,0.2-1.7,0.5c-0.8,0.5-1.5,1.2-2.1,1.9
			c-0.9,1.1-1.6,2.3-2.1,3.3c-0.5,1-0.9,1.7-0.9,1.7l-0.3,0.6l0.3,0.6c0,0,0.7,1.7,1.7,3.5c0.5,0.9,1.1,1.8,1.9,2.6
			c0.4,0.4,0.8,0.7,1.2,1c0.5,0.3,1.1,0.5,1.7,0.5l3.1,0.1l0.3-16.4l-3.4,0l0,3.2l0.3,0l0.1-3.2L43.5,160.8l0-1.6l-0.3,0l0,3.2
			l0.1,0l-0.2,11.5l1.6,0l0-1.6l-1.4,0l0,0.2l0-0.2l0,0l0,0.2l0-0.2l0,0c0,0-0.2-0.1-0.3-0.2c-0.3-0.2-0.7-0.7-1.1-1.3
			c-0.6-0.9-1.2-1.9-1.5-2.7c-0.2-0.4-0.4-0.8-0.5-1c-0.1-0.1-0.1-0.2-0.1-0.3l0-0.1l0,0l-1.5,0.6l1.5,0.7l0,0
			c0.1-0.1,0.8-1.7,1.7-3.2c0.5-0.7,1-1.4,1.4-1.8c0.2-0.2,0.4-0.4,0.6-0.4c0.1,0,0.1-0.1,0.1-0.1l0,0l0-0.1v0.2l0,0l0-0.1v0.2v-0.4
			l0,0.4h0v-0.4l0,0.4l0.1-3.2L43.5,160.8z"/>
		
			<rect x="41.6" y="164.2" transform="matrix(1.983854e-02 -0.9998 0.9998 1.983854e-02 -120.2285 212.2599)" clip-path="url(#SVGID_4_)" fill="#FFFFFF" width="13.2" height="6.6"/>
		<polygon clip-path="url(#SVGID_4_)" fill="#FFFFFF" points="45,160.8 43.4,160.8 43.1,175.5 52.9,175.7 53.2,159.3 43.4,159.2 
			43.4,160.8 45,160.8 45,162.4 49.9,162.5 49.7,172.4 46.4,172.4 46.6,160.8 45,160.8 45,162.4 		"/>
		<path clip-path="url(#SVGID_4_)" fill="#45772F" d="M43.5,160.8c-2.5,0-5.4,6.5-5.4,6.5s2.6,6.6,5.1,6.7l1.4,0l0.3-13.2
			L43.5,160.8L43.5,160.8z"/>
		
			<rect x="41.6" y="164.2" transform="matrix(1.975976e-02 -0.9998 0.9998 1.975976e-02 -120.2247 212.2734)" clip-path="url(#SVGID_4_)" fill="#DFDDDD" width="13.2" height="6.6"/>
		<path clip-path="url(#SVGID_4_)" fill="#FFFFFF" d="M46.4,143.5c-2.4-0.4-6.2,5.7-6.2,5.7s1.7,6.9,4.1,7.3l1.4,0.2l2.1-13
			l-1.7-0.3L46.4,143.5z"/>
		<path clip-path="url(#SVGID_4_)" fill="#FFFFFF" d="M46.4,143.5l0.3-1.6c-0.2,0-0.3,0-0.5,0c-0.6,0-1.2,0.2-1.6,0.4
			c-0.8,0.4-1.5,1-2.2,1.6c-1,1-1.8,2-2.5,2.9c-0.6,0.9-1,1.5-1,1.5l-0.4,0.6l0.2,0.7c0,0,0.4,1.8,1.2,3.7c0.4,1,0.9,2,1.5,2.8
			c0.3,0.4,0.7,0.8,1.1,1.2c0.4,0.4,1,0.7,1.6,0.8l3,0.5l2.6-16.2l-3.3-0.5l-0.5,3.2l0.3,0l0.5-3.2L46.4,143.5l0.3-1.6l-0.3,0
			l-0.5,3.2l0.1,0l-1.8,11.4l1.6,0.3l0.3-1.6l-1.4-0.2l0,0l0,0.2l0.1-0.2l0,0l0,0.2l0.1-0.2l0,0c0,0-0.2-0.1-0.3-0.3
			c-0.3-0.3-0.6-0.8-0.9-1.4c-0.5-0.9-0.9-2.1-1.2-2.9c-0.1-0.4-0.2-0.8-0.3-1.1c0-0.1-0.1-0.2-0.1-0.3l0-0.1l0,0l-1.6,0.4l1.4,0.9
			l0,0c0.1-0.1,1-1.5,2-2.8c0.5-0.6,1.1-1.2,1.6-1.6c0.3-0.2,0.5-0.3,0.7-0.4c0.1,0,0.1-0.1,0.2-0.1l0,0l0,0v0v0v0v0v-0.2l0,0.2l0,0
			v-0.2l0,0.2l0.5-3.2L46.4,143.5z"/>
		
			<rect x="43.5" y="147.5" transform="matrix(0.1566 -0.9877 0.9877 0.1566 -106.6843 176.5494)" clip-path="url(#SVGID_4_)" fill="#FFFFFF" width="13.2" height="6.6"/>
		<polygon clip-path="url(#SVGID_4_)" fill="#FFFFFF" points="47.8,143.7 46.2,143.5 43.9,158.1 53.6,159.6 56.2,143.4 46.5,141.9 
			46.2,143.5 47.8,143.7 47.6,145.3 52.5,146.1 50.9,155.9 47.6,155.4 49.4,144 47.8,143.7 47.6,145.3 		"/>
		<path clip-path="url(#SVGID_4_)" fill="#45772F" d="M46.4,143.5c-2.4-0.4-6.2,5.7-6.2,5.7s1.7,6.9,4.1,7.3l1.4,0.2l2.1-13
			L46.4,143.5L46.4,143.5z"/>
		
			<rect x="43.5" y="147.5" transform="matrix(0.1565 -0.9877 0.9877 0.1565 -106.6817 176.5616)" clip-path="url(#SVGID_4_)" fill="#DFDDDD" width="13.2" height="6.6"/>
		<path clip-path="url(#SVGID_4_)" fill="#FFFFFF" d="M52.6,125.5c-2.3-0.9-7.2,4.3-7.2,4.3s0.3,7.1,2.6,8l1.3,0.5l4.7-12.3
			l-1.6-0.6L52.6,125.5z"/>
		<path clip-path="url(#SVGID_4_)" fill="#FFFFFF" d="M52.6,125.5l0.6-1.5c-0.4-0.1-0.8-0.2-1.2-0.2c-0.5,0-1,0.1-1.5,0.3
			c-0.8,0.3-1.6,0.7-2.3,1.2c-1.1,0.7-2.1,1.6-2.8,2.2c-0.7,0.7-1.2,1.2-1.2,1.2l-0.5,0.5l0,0.7c0,0,0.1,1.9,0.4,3.9
			c0.2,1,0.5,2.1,0.9,3.1c0.2,0.5,0.5,1,0.8,1.4c0.4,0.4,0.8,0.8,1.5,1.1l2.9,1.1L56,125l-3.2-1.2l-1.1,3L52,127l1.1-3L52.6,125.5
			l0.6-1.5l-0.3-0.1l-1.1,3l0.1,0l-4.1,10.8l1.5,0.6l0.6-1.5l-1.3-0.5l-0.1,0.2l0.1-0.1l0,0l-0.1,0.2l0.1-0.1l0,0l0,0l0,0l0,0
			c0,0-0.1-0.1-0.2-0.3c-0.2-0.3-0.5-0.9-0.6-1.6c-0.3-1-0.5-2.2-0.6-3.1c-0.1-0.5-0.1-0.9-0.1-1.1c0-0.1,0-0.2,0-0.3l0-0.1l0,0
			l-1.6,0.1l1.2,1.1l0,0c0.1-0.1,1.1-1.2,2.4-2.1c0.6-0.5,1.3-1,1.9-1.3c0.3-0.2,0.6-0.3,0.8-0.4c0.2-0.1,0.4-0.1,0.4-0.1l0,0l0-0.1
			L52,127l0,0l0-0.1L52,127l1.1-3L52.6,125.5z"/>
		
			<rect x="48.1" y="130" transform="matrix(0.3538 -0.9353 0.9353 0.3538 -89.3403 137.2647)" clip-path="url(#SVGID_4_)" fill="#FFFFFF" width="13.2" height="6.6"/>
		<polygon clip-path="url(#SVGID_4_)" fill="#FFFFFF" points="53.9,126 52.4,125.4 47.2,139.2 56.4,142.7 62.2,127.4 53,123.9 
			52.4,125.4 53.9,126 53.4,127.5 58,129.2 54.5,138.5 51.4,137.3 55.4,126.5 53.9,126 53.4,127.5 		"/>
		<path clip-path="url(#SVGID_4_)" fill="#45772F" d="M52.6,125.5c-2.3-0.9-7.2,4.3-7.2,4.3s0.3,7.1,2.6,8l1.3,0.5l4.7-12.3
			L52.6,125.5L52.6,125.5z"/>
		
			<rect x="48.1" y="130" transform="matrix(0.3538 -0.9353 0.9353 0.3538 -89.3405 137.274)" clip-path="url(#SVGID_4_)" fill="#DFDDDD" width="13.2" height="6.6"/>
		<path clip-path="url(#SVGID_4_)" d="M79,86.5l-5.5-4.4l-0.2,0.3l0.2-0.2c0,0-0.5-0.5-1.3-0.5c-0.3,0-0.7,0.1-1,0.3
			c-0.3,0.2-0.7,0.6-1,1.1l0.6,0.3c0.3-0.5,0.6-0.7,0.8-0.9c0.2-0.2,0.5-0.2,0.6-0.2c0.2,0,0.4,0.1,0.6,0.2c0.1,0,0.1,0.1,0.2,0.1
			l0,0l0,0l0,0l0,0l0,0l0,0l0,0l0,0l5.5,4.4L79,86.5z"/>
		<polygon clip-path="url(#SVGID_4_)" fill="#2B2523" points="78.1,85.7 80.1,86.2 79.9,86.5 81.1,87.9 80.1,87.8 80.1,88.4 
			78.8,87.6 78.6,87.9 77.7,86.2 		"/>
		<path clip-path="url(#SVGID_4_)" fill="#2B2523" d="M59.9,93.9c-1.1-0.9-2.7-0.7-3.5,0.4c-0.9,1.1-0.7,2.7,0.4,3.5
			c0.1,0.1,0.3,0.2,0.4,0.3c1,0.7,3.7,2.4,4.2,2.3c0.5,0,2.1-1.9,2-2.6c0-0.2-2.1-2.4-3-3.4C60.2,94.2,60.1,94.1,59.9,93.9"/>
		<path clip-path="url(#SVGID_4_)" fill="#2B2523" d="M55.2,96.5c0.6-0.4,2.2-0.4,2.4,0c0.2,0.4-0.6,1.5-1.3,1.9
			c-0.4,0.2-2-0.3-2-0.3S54.8,96.8,55.2,96.5"/>
		<path clip-path="url(#SVGID_4_)" fill="#2B2523" d="M58.2,92.6c-0.2,0.7,0.1,2.2,0.6,2.3c0.5,0.1,1.3-0.9,1.5-1.7
			c0.1-0.5-0.7-1.8-0.7-1.8S58.4,92.2,58.2,92.6"/>
		<path clip-path="url(#SVGID_4_)" fill="#2B2523" d="M71.4,95.9c0.7,0.5,1.7,0.4,2.2-0.3l1.5-1.9c0.5-0.7,0.4-1.7-0.3-2.2l-1.2-0.9
			C73,90,72,90.1,71.5,90.8L70,92.7c-0.5,0.7-0.4,1.7,0.3,2.2L71.4,95.9z"/>
		<path clip-path="url(#SVGID_4_)" d="M73.8,94.6l0.8,0.6c0.1,0.1,0.3,0.1,0.5-0.1c0.1-0.1,0.1-0.3-0.1-0.5l-0.8-0.6
			c-0.1-0.1-0.3-0.1-0.5,0.1C73.6,94.3,73.6,94.5,73.8,94.6"/>
		<path clip-path="url(#SVGID_4_)" d="M74.7,93.4l0.8,0.6c0.1,0.1,0.3,0.1,0.5-0.1c0.1-0.1,0.1-0.3-0.1-0.5l-0.8-0.6
			c-0.1-0.1-0.3-0.1-0.5,0.1C74.5,93.1,74.6,93.3,74.7,93.4"/>
		<path clip-path="url(#SVGID_4_)" d="M72.9,95.8l0.8,0.6c0.1,0.1,0.3,0.1,0.5-0.1c0.1-0.1,0.1-0.3-0.1-0.5l-0.8-0.6
			c-0.1-0.1-0.3-0.1-0.5,0.1C72.7,95.4,72.7,95.7,72.9,95.8"/>
		<path clip-path="url(#SVGID_4_)" fill="#2B2523" d="M71.8,90.6c-0.1-0.2-0.2-0.7-0.3-1.1c-0.1-0.3-0.5-0.6-0.6-0.9
			c-0.3-0.6,0.3-1.6,1.4-1.4c1,0.2,1.5,0.1,1.9,0.1c0.4,0,1.2,0.7,0.4,1.4c-0.8,0.8-0.9,2-1.1,2.3C73.1,91.7,72.2,91.7,71.8,90.6
			 M68.3,99.7L68.3,99.7c1.7,1.1,3.3,2.3,3.4,2.6c0.1,0.7,0.7,1.7,0.7,1.7l1.3-1.8c0,0-3.5-2.7-4.4-5c2.4-1.9,5.4-4.5,7.2-6
			c0.6,0.1,1.6-0.2,1.7-0.2c0,0,1.7,1.4,1.7,1.6c-0.1,0.8,0.6,1.6,0.6,1.6l1.1-1.4l-3-3.7l-1.2,0L70,81.8l-1.6,2.2
			c0.7,0.7,1.9,2.1,1.5,2.6c-0.5,0.6-1.4,0.6-1.3,1.4c0.1,0.9,2,3.5,0.5,4.1c-0.9,0.4-1.5-0.4-2,0.2c-1.4,1.8-2.4,0.8-3.1,1.6
			c-0.9,1.1-1.9-0.4-2.2-1l-2.2,2.9c0,0,2.2,2.3,4.4,3.3c0-0.3,0.1-0.7,0.1-1.1c-0.1-0.5-0.2-1.2,0.3-1c0.5,0.2,0.9,0.5,1.4,0.5
			c0.5-0.1,0.5-0.6,1.1-0.1c0.6,0.5,1,1.2,1.4,1.4C68.5,99.1,68.4,99.6,68.3,99.7"/>
		<path clip-path="url(#SVGID_4_)" fill="#FFFFFF" d="M69.9,86.5c-0.5,0.6-1.4,0.6-1.3,1.4c0.1,0.9,2,3.5,0.5,4.1
			c-0.9,0.4-1.5-0.4-2,0.2c-1.4,1.8-2.4,0.8-3.1,1.6c-0.9,1.1-1.9-0.4-2.2-1l6.7-9C69,84.6,70.3,86,69.9,86.5"/>
		<path clip-path="url(#SVGID_4_)" fill="#FFFFFF" d="M71.4,89.5c-0.1-0.3-0.5-0.6-0.6-0.9c-0.3-0.6,0.3-1.6,1.4-1.4
			c1,0.2,1.5,0.1,1.9,0.1c0.4,0,1.2,0.7,0.4,1.4c-0.8,0.8-0.9,2-1.1,2.3c-0.4,0.7-1.2,0.8-1.7-0.4C71.7,90.3,71.6,89.8,71.4,89.5"/>
		<path clip-path="url(#SVGID_4_)" fill="#FFFFFF" d="M66.5,99.3c-0.7,0.4-1.7,0.2-2.7-0.2c0-0.3,0.1-0.7,0.1-1.1
			c-0.1-0.5-0.2-1.2,0.3-1c0.5,0.2,0.9,0.5,1.4,0.5c0.5-0.1,0.5-0.6,1.1-0.1c0.6,0.5,1,1.2,1.4,1.4c0.3,0.3,0.3,0.7,0.2,0.9h0
			c-0.4-0.3-0.8-0.5-1.2-0.7C66.9,99.1,66.7,99.2,66.5,99.3"/>
		<path clip-path="url(#SVGID_4_)" fill="#E8AC13" d="M51.1,178.2l-17.3,1.6c-0.3,0-0.5,0.3-0.5,0.6c0,0.3,0.3,0.5,0.6,0.5l17.3-1.6
			c0.3,0,0.5-0.3,0.5-0.6C51.7,178.4,51.4,178.1,51.1,178.2"/>
		<path clip-path="url(#SVGID_4_)" fill="#E8AC13" d="M29.7,179.7c0.8-0.2,1.7,0.4,1.8,0.9c0,0.5-0.9,1.2-1.6,1
			c-0.5-0.1-2.5-0.8-2.5-0.8S29.2,179.8,29.7,179.7"/>
		<path clip-path="url(#SVGID_4_)" fill="#E8AC13" d="M34.5,181.9c0.4-0.7,1.4-1.1,1.8-0.8c0.4,0.3,0.3,1.4-0.3,1.9
			c-0.4,0.3-2.2,1.4-2.2,1.4S34.2,182.4,34.5,181.9"/>
		<path clip-path="url(#SVGID_4_)" fill="#E8AC13" d="M31.6,182.2c0.4-0.7,1.4-1.1,1.8-0.8c0.4,0.3,0.3,1.4-0.3,1.9
			c-0.4,0.3-2.2,1.4-2.2,1.4S31.3,182.7,31.6,182.2"/>
		<path clip-path="url(#SVGID_4_)" fill="#E8AC13" d="M37.5,181.7c0.4-0.7,1.4-1.1,1.8-0.8c0.4,0.3,0.3,1.4-0.3,1.9
			c-0.4,0.3-2.2,1.4-2.2,1.4S37.3,182.1,37.5,181.7"/>
		<path clip-path="url(#SVGID_4_)" fill="#E8AC13" d="M34.2,178.5c0.5,0.6,1.6,0.8,1.9,0.4c0.4-0.4,0.1-1.5-0.6-1.8
			c-0.5-0.3-2.4-0.9-2.4-0.9S33.9,178.1,34.2,178.5"/>
		<path clip-path="url(#SVGID_4_)" fill="#E8AC13" d="M31.3,178.8c0.5,0.6,1.6,0.8,1.9,0.4c0.4-0.4,0.1-1.5-0.6-1.8
			c-0.5-0.3-2.4-0.9-2.4-0.9S30.9,178.4,31.3,178.8"/>
		<path clip-path="url(#SVGID_4_)" fill="#E8AC13" d="M37.2,178.2c0.5,0.6,1.6,0.8,1.9,0.4c0.4-0.4,0.1-1.5-0.6-1.8
			c-0.5-0.3-2.4-0.9-2.4-0.9S36.9,177.8,37.2,178.2"/>
		<path clip-path="url(#SVGID_4_)" fill="#E8AC13" d="M60.2,187l-17.3,1.6c-0.3,0-0.5,0.3-0.5,0.6c0,0.3,0.3,0.5,0.6,0.5l17.3-1.6
			c0.3,0,0.5-0.3,0.5-0.6C60.8,187.2,60.5,187,60.2,187"/>
		<path clip-path="url(#SVGID_4_)" fill="#E8AC13" d="M38.8,188.5c0.8-0.2,1.7,0.4,1.8,0.9c0,0.5-0.9,1.2-1.6,1
			c-0.5-0.1-2.5-0.8-2.5-0.8S38.3,188.6,38.8,188.5"/>
		<path clip-path="url(#SVGID_4_)" fill="#E8AC13" d="M43.6,190.8c0.4-0.7,1.4-1.1,1.8-0.8c0.4,0.3,0.3,1.4-0.3,1.9
			c-0.4,0.3-2.2,1.4-2.2,1.4S43.4,191.3,43.6,190.8"/>
		<path clip-path="url(#SVGID_4_)" fill="#E8AC13" d="M40.7,191.1c0.4-0.7,1.4-1.1,1.8-0.8c0.4,0.3,0.3,1.4-0.3,1.9
			c-0.4,0.3-2.2,1.4-2.2,1.4S40.4,191.5,40.7,191.1"/>
		<path clip-path="url(#SVGID_4_)" fill="#E8AC13" d="M46.7,190.5c0.4-0.7,1.4-1.1,1.8-0.8c0.4,0.3,0.4,1.4-0.3,1.9
			C47.8,192,46,193,46,193S46.4,191,46.7,190.5"/>
		<path clip-path="url(#SVGID_4_)" fill="#E8AC13" d="M43.3,187.4c0.5,0.6,1.6,0.8,1.9,0.4c0.4-0.4,0.1-1.5-0.6-1.8
			c-0.5-0.3-2.4-0.9-2.4-0.9S43,187,43.3,187.4"/>
		<path clip-path="url(#SVGID_4_)" fill="#E8AC13" d="M40.4,187.6c0.5,0.6,1.6,0.8,1.9,0.4c0.4-0.4,0.1-1.5-0.6-1.8
			c-0.5-0.3-2.4-0.9-2.4-0.9S40,187.2,40.4,187.6"/>
		<path clip-path="url(#SVGID_4_)" fill="#E8AC13" d="M46.3,187.1c0.5,0.6,1.6,0.8,1.9,0.4c0.4-0.4,0.1-1.5-0.6-1.8
			c-0.5-0.3-2.4-0.9-2.4-0.9S46,186.7,46.3,187.1"/>
		<path clip-path="url(#SVGID_4_)" fill="#E8AC13" d="M72.3,114.2l-14.9-9.1c-0.2-0.2-0.6-0.1-0.7,0.2c-0.2,0.2-0.1,0.6,0.2,0.7
			l14.9,9.1c0.2,0.2,0.6,0.1,0.7-0.2C72.6,114.7,72.6,114.4,72.3,114.2"/>
		<path clip-path="url(#SVGID_4_)" fill="#E8AC13" d="M54.3,102.7c0.8,0.4,1.2,1.3,0.9,1.8c-0.3,0.4-1.4,0.4-1.9-0.1
			c-0.4-0.4-1.5-2.1-1.5-2.1S53.8,102.4,54.3,102.7"/>
		<path clip-path="url(#SVGID_4_)" fill="#E8AC13" d="M56.7,107.4c0.8-0.3,1.8,0,1.9,0.5c0.2,0.5-0.6,1.3-1.4,1.4
			c-0.5,0-2.6-0.2-2.6-0.2S56.2,107.6,56.7,107.4"/>
		<path clip-path="url(#SVGID_4_)" fill="#E8AC13" d="M54.2,105.8c0.8-0.3,1.8,0,1.9,0.5c0.2,0.5-0.6,1.3-1.4,1.4
			c-0.5,0-2.6-0.2-2.6-0.2S53.7,106,54.2,105.8"/>
		<path clip-path="url(#SVGID_4_)" fill="#E8AC13" d="M59.3,108.9c0.8-0.3,1.8-0.1,1.9,0.5c0.2,0.5-0.6,1.3-1.4,1.4
			c-0.5,0-2.6-0.2-2.6-0.2S58.8,109.1,59.3,108.9"/>
		<path clip-path="url(#SVGID_4_)" fill="#E8AC13" d="M58.5,104.4c0.1,0.8,0.8,1.6,1.3,1.5s0.9-1.1,0.6-1.9
			c-0.2-0.5-1.4-2.2-1.4-2.2S58.5,103.9,58.5,104.4"/>
		<path clip-path="url(#SVGID_4_)" fill="#E8AC13" d="M56,102.9c0.1,0.8,0.8,1.6,1.3,1.5c0.5-0.1,0.9-1.1,0.6-1.8
			c-0.2-0.5-1.4-2.2-1.4-2.2S56,102.4,56,102.9"/>
		<path clip-path="url(#SVGID_4_)" fill="#E8AC13" d="M61.1,106c0.1,0.8,0.8,1.6,1.3,1.5c0.5-0.1,0.9-1.1,0.6-1.8
			c-0.2-0.5-1.4-2.2-1.4-2.2S61.1,105.5,61.1,106"/>
		<polygon clip-path="url(#SVGID_4_)" fill="#12100B" points="56.5,206.9 58.7,210 32.3,228.2 44.6,215.2 		"/>
		<polygon clip-path="url(#SVGID_4_)" fill="#12100B" points="42.6,217.2 31.6,215.2 46.1,215.4 		"/>
		<polygon clip-path="url(#SVGID_4_)" fill="#12100B" points="48.2,215.6 46.9,223.1 51.3,213.2 		"/>
		<path clip-path="url(#SVGID_4_)" fill="#45772F" d="M29.4,210.3c2.7-1.2,5.8,0,7,2.7c1.2,2.7,0,5.8-2.7,7c-2.7,1.2-5.8,0-7-2.7
			C25.5,214.7,26.7,211.5,29.4,210.3"/>
		<path clip-path="url(#SVGID_4_)" fill="#BECE92" d="M25.9,223.3c3.7-1.6,8.1,0,9.7,3.8c1.6,3.7,0,8.1-3.8,9.7
			c-3.7,1.6-8.1,0-9.7-3.8C20.4,229.3,22.1,225,25.9,223.3"/>
		<path clip-path="url(#SVGID_4_)" fill="#45772F" d="M44.9,221.1c3.1-1.3,6.6,0,8,3.1c1.3,3.1,0,6.6-3.1,8c-3.1,1.3-6.6,0-8-3.1
			C40.5,226,41.8,222.4,44.9,221.1"/>
		<polygon clip-path="url(#SVGID_4_)" points="56.8,196.7 57.3,199.8 38.1,203 24.2,208.7 33.2,202.7 28.9,201.9 11,202.2 
			27.6,199.4 24.3,193.2 30.2,197.4 		"/>
		<path clip-path="url(#SVGID_4_)" fill="#BECE92" d="M27.1,213.6c2.5,0.9,5.3-0.4,6.2-3c0.9-2.5-0.4-5.3-3-6.2
			c-2.5-0.9-5.3,0.4-6.2,3C23.3,209.9,24.6,212.7,27.1,213.6"/>
		<path clip-path="url(#SVGID_4_)" fill="#BECE92" d="M24.1,195.2c2.8,1,5.8-0.5,6.8-3.3c1-2.8-0.5-5.8-3.3-6.8
			c-2.8-1-5.8,0.5-6.8,3.3C19.9,191.2,21.3,194.2,24.1,195.2"/>
		<path clip-path="url(#SVGID_4_)" fill="#45772F" d="M10,209c4.2,1.5,8.7-0.7,10.2-4.9c1.5-4.2-0.7-8.7-4.9-10.2
			c-4.2-1.5-8.7,0.7-10.2,4.9C3.7,203,5.9,207.5,10,209"/>
		<path clip-path="url(#SVGID_4_)" fill="#CCDD9C" d="M282.7,172.9c0,63.4-51.4,114.7-114.7,114.7S53.3,236.3,53.3,172.9
			S104.7,58.2,168,58.2S282.7,109.6,282.7,172.9"/>
		<path clip-path="url(#SVGID_4_)" fill="#EBF2DB" d="M179.3,71.8L179.3,71.8c-17.3,0,8.2,10.6,7.3,18.5c-0.5,3.9,14,3.6,14,11.4
			c0,6.1,1.8,12.4,11.2,12.4c2.6,0,5.7-0.5,9.6-1.6c5.2-1.5,8-2.1,9.6-2.1c4,0,1.4,3.7,11.4,7.4c2.7,1,4.5,1.4,5.6,1.4
			c4.7,0-2.9-7.7-7-11.9c-5.1-5.1-4.1-7.1-4.1-10.6c0-3.5-0.5-4.3-10.9-12C208.5,71.8,193.6,71.8,179.3,71.8"/>
		<path clip-path="url(#SVGID_4_)" fill="#FFFFFF" d="M79.4,245.8l-0.5,0.5c0.1,0.2,0.2,0.3,0.3,0.5c0.4,0.5,0.8,1,1.1,1.5l6.1,6.2
			l-0.3,0.6c5.9,6.3,12.3,11.3,18.6,15.3l0.7-1.3C95.6,262.6,86.8,254.8,79.4,245.8 M108.4,270.9l-0.8,1.2c4.7,2.8,9.2,5,13.2,6.7
			l0.4-1.1C116.8,275.7,112.5,273.5,108.4,270.9"/>
		<path clip-path="url(#SVGID_4_)" fill="#A4AE91" d="M80.3,248.3c0.2,0.2,0.4,0.5,0.6,0.7l0.5,0.4l-0.1,0.1
			c1.5,1.9,3.1,3.8,4.8,5.5l0.3-0.6L80.3,248.3"/>
		<path clip-path="url(#SVGID_4_)" fill="#B6C0A0" d="M80.9,249.1c0.1,0.2,0.3,0.4,0.4,0.5l0.1-0.1L80.9,249.1"/>
		<path clip-path="url(#SVGID_4_)" fill="#F3F7FB" d="M105.4,269l-0.7,1.3c1,0.6,2,1.2,3,1.8l0.8-1.2
			C107.3,270.3,106.3,269.7,105.4,269"/>
		<path clip-path="url(#SVGID_4_)" fill="#A4AE91" d="M78.1,244.2c0.1,0.7,0.3,1.5,0.7,2.1l0.5-0.5C79,245.2,78.5,244.7,78.1,244.2"
			/>
		<path clip-path="url(#SVGID_4_)" fill="#B2B2B2" d="M121.2,277.7l-0.4,1.1c8.9,3.7,15.5,5.1,16.6,5.1c0,0,0,0,0,0
			c0.2,0,0.4-0.1,0.5-0.3C132.1,282.1,126.6,280.1,121.2,277.7"/>
		<path clip-path="url(#SVGID_4_)" fill="#EBF2DB" d="M122.4,190.5C122.4,190.5,122.4,190.5,122.4,190.5
			c-7.4,0.1-10.2,31.4-16.6,38.1c-6.4,6.6-2.1,2.2-14.9,6.1c-9.9,3-13.1,6.4-12.8,9.5c0.4,0.5,0.9,1.1,1.3,1.6
			c7.4,9,16.2,16.9,26,23.3c1,0.6,2,1.3,3,1.9c4.1,2.5,8.4,4.8,12.9,6.8c5.3,2.4,10.9,4.4,16.7,5.9c1.4-2.2-1.7-15.7-1.8-19.6
			c-0.1-4.2,8.2-0.8,12.8-5.5c4.6-4.8-0.1-6.2-5.7-11.5c-5.6-5.4-10.9-8.1-13.9-19c-1.2-4.3,8.6-8.5,8.4-15.2c-0.1-3.6-7.1-5.5-9-9
			C125.1,197.5,125.3,190.5,122.4,190.5"/>
		<path clip-path="url(#SVGID_4_)" fill="#3E6D8E" d="M129.7,201.9c0,0-3.8,2.4-7.8,2.4c-3.9,0-6-1.4-6.5-2.4
			c-0.4-0.8,2.3-2.7,6.3-2.7C125.6,199.2,129.7,201.9,129.7,201.9"/>
		<polygon clip-path="url(#SVGID_4_)" fill="#3E6D8E" points="130.3,203.8 130.3,199.7 128.3,201.7 		"/>
		<path clip-path="url(#SVGID_4_)" fill="#3E6D8E" d="M213.9,84.2c0,0,3.8,2.4,7.8,2.4c3.9,0,6-1.4,6.5-2.4c0.4-0.8-2.3-2.7-6.3-2.7
			C218,81.5,213.9,84.2,213.9,84.2"/>
		<polygon clip-path="url(#SVGID_4_)" fill="#3E6D8E" points="213.3,86.1 213.3,82 215.3,84.1 		"/>
		<path clip-path="url(#SVGID_4_)" fill="#FFFFFF" d="M168,55.4c-31.4,0-60.9,12.2-83.1,34.4c-22.2,22.2-34.4,51.7-34.4,83.1
			c0,31.4,12.2,60.9,34.4,83.1c22.2,22.2,51.7,34.4,83.1,34.4c31.4,0,60.9-12.2,83.1-34.4c22.2-22.2,34.4-51.7,34.4-83.1
			c0-31.4-12.2-60.9-34.4-83.1C228.9,67.6,199.4,55.4,168,55.4 M168,58.2c63.4,0,114.7,51.4,114.7,114.7S231.4,287.7,168,287.7
			S53.3,236.3,53.3,172.9S104.7,58.2,168,58.2"/>
		<path clip-path="url(#SVGID_4_)" fill="#66AACF" d="M115.4,216.6c0,0-3.8,2.4-7.8,2.4c-3.9,0-6-1.4-6.5-2.4
			c-0.4-0.8,2.3-2.7,6.3-2.7C111.4,214,115.4,216.6,115.4,216.6"/>
		<polygon clip-path="url(#SVGID_4_)" fill="#66AACF" points="116.1,218.6 116.1,214.5 114,216.5 		"/>
		<path clip-path="url(#SVGID_4_)" fill="#3E6D8E" d="M141.3,227.2c0,0-3.8,2.4-7.8,2.4c-3.9,0-6-1.4-6.5-2.4
			c-0.4-0.8,2.3-2.7,6.3-2.7C137.2,224.5,141.3,227.2,141.3,227.2"/>
		<polygon clip-path="url(#SVGID_4_)" fill="#3E6D8E" points="141.9,229.1 141.9,225 139.9,227.1 		"/>
		<path clip-path="url(#SVGID_4_)" fill="#3E6D8E" d="M173.1,79.3c0,0,3.8,2.4,7.8,2.4c3.9,0,6-1.4,6.5-2.4c0.4-0.8-2.3-2.7-6.3-2.7
			C177.2,76.6,173.1,79.3,173.1,79.3"/>
		<polygon clip-path="url(#SVGID_4_)" fill="#3E6D8E" points="172.5,81.2 172.5,77.1 174.5,79.1 		"/>
		<path clip-path="url(#SVGID_4_)" fill="#66AACF" d="M191.3,87.7c0,0,3.8,2.4,7.8,2.4c3.9,0,6-1.4,6.5-2.4c0.4-0.8-2.3-2.7-6.3-2.7
			C195.4,85.1,191.3,87.7,191.3,87.7"/>
		<polygon clip-path="url(#SVGID_4_)" fill="#66AACF" points="190.7,89.7 190.7,85.6 192.7,87.6 		"/>
		<path clip-path="url(#SVGID_4_)" fill="#3E6D8E" d="M226,98.6c0,0,3.8,2.4,7.8,2.4c3.9,0,6-1.4,6.5-2.4c0.4-0.8-2.3-2.7-6.3-2.7
			C230,95.9,226,98.6,226,98.6"/>
		<polygon clip-path="url(#SVGID_4_)" fill="#3E6D8E" points="225.3,100.5 225.3,96.4 227.4,98.5 		"/>
		<path clip-path="url(#SVGID_4_)" fill="#3E6D8E" d="M193.5,104.9c0,0,3.8,2.4,7.8,2.4c3.9,0,6-1.4,6.5-2.4
			c0.4-0.8-2.3-2.7-6.3-2.7C197.6,102.2,193.5,104.9,193.5,104.9"/>
		<polygon clip-path="url(#SVGID_4_)" fill="#3E6D8E" points="192.9,106.8 192.9,102.7 194.9,104.7 		"/>
		<path clip-path="url(#SVGID_4_)" fill="#3E6D8E" d="M210.6,113.1c0,0,3.8,2.4,7.8,2.4c3.9,0,6-1.4,6.5-2.4
			c0.4-0.8-2.3-2.7-6.3-2.7C214.7,110.4,210.6,113.1,210.6,113.1"/>
		<polygon clip-path="url(#SVGID_4_)" fill="#3E6D8E" points="210,115 210,110.9 212,113 		"/>
		<path clip-path="url(#SVGID_4_)" fill="#3E6D8E" d="M204.1,94c0,0,3.8,2.4,7.8,2.4c3.9,0,6-1.4,6.5-2.4c0.4-0.8-2.3-2.7-6.3-2.7
			C208.2,91.3,204.1,94,204.1,94"/>
		<polygon clip-path="url(#SVGID_4_)" fill="#3E6D8E" points="203.5,95.9 203.5,91.8 205.5,93.9 		"/>
		<path clip-path="url(#SVGID_4_)" fill="#66AACF" d="M236.5,110.3c0,0,3.8,2.4,7.8,2.4c3.9,0,6-1.4,6.5-2.4
			c0.4-0.8-2.3-2.7-6.3-2.7C240.5,107.6,236.5,110.3,236.5,110.3"/>
		<polygon clip-path="url(#SVGID_4_)" fill="#66AACF" points="235.8,112.2 235.8,108.1 237.9,110.2 		"/>
		<path clip-path="url(#SVGID_4_)" fill="#3E6D8E" d="M195.1,73.8c0,0,3.8,2.4,7.8,2.4c3.9,0,6-1.4,6.5-2.4c0.4-0.8-2.3-2.7-6.3-2.7
			C199.2,71.1,195.1,73.8,195.1,73.8"/>
		<polygon clip-path="url(#SVGID_4_)" fill="#3E6D8E" points="194.5,75.7 194.5,71.6 196.5,73.6 		"/>
		<path clip-path="url(#SVGID_4_)" fill="#3E6D8E" d="M116.7,241.6c0,0-3.8,2.4-7.8,2.4c-3.9,0-6-1.4-6.5-2.4
			c-0.4-0.8,2.3-2.7,6.3-2.7C112.6,238.9,116.7,241.6,116.7,241.6"/>
		<polygon clip-path="url(#SVGID_4_)" fill="#3E6D8E" points="117.3,243.5 117.3,239.4 115.3,241.5 		"/>
		<path clip-path="url(#SVGID_4_)" fill="#3E6D8E" d="M95.6,233.1c0,0-3.8,2.4-7.8,2.4c-3.9,0-6-1.4-6.5-2.4
			c-0.4-0.8,2.3-2.7,6.3-2.7C91.6,230.4,95.6,233.1,95.6,233.1"/>
		<polygon clip-path="url(#SVGID_4_)" fill="#3E6D8E" points="96.3,235 96.3,230.9 94.2,233 		"/>
		<path clip-path="url(#SVGID_4_)" fill="#3E6D8E" d="M145,209.2c0,0-3.8,2.4-7.8,2.4c-3.9,0-6-1.4-6.5-2.4
			c-0.4-0.8,2.3-2.7,6.3-2.7C141,206.5,145,209.2,145,209.2"/>
		<polygon clip-path="url(#SVGID_4_)" fill="#3E6D8E" points="145.7,211.1 145.7,207 143.6,209.1 		"/>
		<path clip-path="url(#SVGID_4_)" fill="#3E6D8E" d="M110.3,251.5c0,0-3.8,2.4-7.8,2.4c-3.9,0-6-1.4-6.5-2.4
			c-0.4-0.8,2.3-2.7,6.3-2.7C106.2,248.8,110.3,251.5,110.3,251.5"/>
		<polygon clip-path="url(#SVGID_4_)" fill="#3E6D8E" points="110.9,253.4 110.9,249.3 108.9,251.3 		"/>
		<path clip-path="url(#SVGID_4_)" fill="#3E6D8E" d="M129.5,263.8c0,0-3.8,2.4-7.8,2.4c-3.9,0-6-1.4-6.5-2.4
			c-0.4-0.8,2.3-2.7,6.3-2.7C125.5,261.1,129.5,263.8,129.5,263.8"/>
		<polygon clip-path="url(#SVGID_4_)" fill="#3E6D8E" points="130.2,265.7 130.2,261.6 128.1,263.7 		"/>
		<path clip-path="url(#SVGID_4_)" fill="#3E6D8E" d="M138.4,244.7c0,0-3.8,2.4-7.8,2.4c-3.9,0-6-1.4-6.5-2.4
			c-0.4-0.8,2.3-2.7,6.3-2.7C134.4,242,138.4,244.7,138.4,244.7"/>
		<polygon clip-path="url(#SVGID_4_)" fill="#3E6D8E" points="139.1,246.6 139.1,242.5 137.1,244.5 		"/>
		<path clip-path="url(#SVGID_4_)" fill="#66AACF" d="M150.5,258.8c0,0-3.8,2.4-7.8,2.4c-3.9,0-6-1.4-6.5-2.4
			c-0.4-0.8,2.3-2.7,6.3-2.7C146.4,256.1,150.5,258.8,150.5,258.8"/>
		<polygon clip-path="url(#SVGID_4_)" fill="#66AACF" points="151.1,260.7 151.1,256.6 149.1,258.7 		"/>
		<path clip-path="url(#SVGID_4_)" fill="#FFFFFF" d="M25.9,135.7c-0.7,2.6,0.8,5.4,3.4,6.1c0.2,0,0.3,0.1,0.5,0.1
			c-0.6,0.5-1,1.1-1.2,1.9c-0.6,2,0.6,4.2,2.6,4.7c1.9,0.5,3.9-0.5,4.6-2.2l0,0l3.9-13.6l0,0c0-0.1,0.1-0.2,0.1-0.3
			c0.6-2-0.6-4.2-2.6-4.7c-2-0.6-4.2,0.6-4.7,2.6c-0.2,0.8-0.2,1.5,0,2.2c-0.2-0.1-0.3-0.1-0.5-0.2C29.3,131.5,26.6,133,25.9,135.7"
			/>
		<path clip-path="url(#SVGID_4_)" fill="#FFFFFF" d="M11.8,144.1c-0.3,2,1,3.9,3,4.2c0.1,0,0.2,0,0.4,0c-0.4,0.4-0.6,0.9-0.7,1.5
			c-0.3,1.6,0.8,3,2.4,3.3c1.5,0.2,2.8-0.7,3.2-2.1l0,0l1.7-10.4l0,0c0-0.1,0-0.2,0.1-0.2c0.3-1.6-0.8-3-2.4-3.3
			c-1.6-0.3-3,0.8-3.3,2.4c-0.1,0.6,0,1.1,0.2,1.6c-0.1,0-0.2-0.1-0.4-0.1C14,140.8,12.1,142.1,11.8,144.1"/>
		<path clip-path="url(#SVGID_4_)" fill="#FFFFFF" d="M16.4,161.4c-0.2,3,2,5.6,5,5.9c0.2,0,0.4,0,0.5,0c-0.5,0.6-0.8,1.4-0.9,2.3
			c-0.2,2.3,1.5,4.4,3.9,4.6c2.2,0.2,4.1-1.3,4.5-3.4l0,0l1.3-15.5l0,0c0-0.1,0-0.2,0-0.4c0.2-2.3-1.5-4.4-3.9-4.6
			c-2.3-0.2-4.4,1.5-4.6,3.9c-0.1,0.9,0.1,1.7,0.5,2.4c-0.2,0-0.4-0.1-0.5-0.1C19.3,156.1,16.6,158.4,16.4,161.4"/>
		<path clip-path="url(#SVGID_4_)" fill="#E8AC13" d="M98.8,34.8c0.3,2.8-1.8,5.4-4.7,5.6c-2.8,0.3-5.4-1.8-5.6-4.7
			c-0.3-2.8,1.8-5.4,4.7-5.6C96,29.9,98.6,32,98.8,34.8"/>
		<polygon clip-path="url(#SVGID_4_)" points="174.7,48.8 171.1,53.5 166.9,52.7 169.6,49.4 175,49.4 175,48.7 169.2,48.7 
			165.6,53.2 171.4,54.2 175.3,49.3 		"/>
		<polyline clip-path="url(#SVGID_4_)" points="168.7,48.3 170.9,54 171.6,53.7 169.3,48 		"/>
		<path clip-path="url(#SVGID_4_)" d="M169.1,52.9h-0.4v0c0,1.4-1.1,2.5-2.5,2.5h0h0c-1.4,0-2.5-1.1-2.5-2.5v0
			c0-1.4,1.1-2.5,2.5-2.5h0h0h0c1.4,0,2.5,1.1,2.5,2.5v0H169.1l0.4,0c0-1.7-1.4-3.2-3.2-3.2h0h0c-1.7,0-3.2,1.4-3.2,3.2v0
			c0,1.7,1.4,3.2,3.2,3.2h0h0c1.7,0,3.2-1.4,3.2-3.2v0v0L169.1,52.9z"/>
		<path clip-path="url(#SVGID_4_)" d="M167,52.9c0,0.4-0.3,0.7-0.7,0.7c-0.4,0-0.7-0.3-0.7-0.7c0-0.4,0.3-0.7,0.7-0.7
			C166.7,52.2,167,52.5,167,52.9"/>
		<path clip-path="url(#SVGID_4_)" d="M179.6,52.8l-0.4,0v0c0,1.4-1.1,2.5-2.5,2.5h0h0c-1.4,0-2.5-1.1-2.5-2.5v0
			c0-1.4,1.1-2.5,2.5-2.5h0c1.4,0,2.5,1.1,2.5,2.5L179.6,52.8l0.4,0c0-1.7-1.4-3.2-3.2-3.2h0c-1.8,0-3.2,1.4-3.2,3.2v0
			c0,1.7,1.4,3.2,3.2,3.2h0h0c1.7,0,3.2-1.4,3.2-3.2v0L179.6,52.8z"/>
		<path clip-path="url(#SVGID_4_)" d="M177.5,52.9c0,0.4-0.3,0.7-0.7,0.7c-0.4,0-0.7-0.3-0.7-0.7c0-0.4,0.3-0.7,0.7-0.7
			C177.2,52.1,177.5,52.5,177.5,52.9"/>
		<polyline clip-path="url(#SVGID_4_)" points="177.2,52.7 174.3,46.9 173.7,47.2 176.6,53 		"/>
		<path clip-path="url(#SVGID_4_)" d="M170.5,48c0,0-2.3,0.6-2.5,0.4c-0.3-0.2-0.6-1.2-0.1-1.2c0.3,0,2.6-0.3,2.8,0.2
			C170.8,47.7,170.8,47.9,170.5,48"/>
		<path clip-path="url(#SVGID_4_)" d="M172.6,45.7c0.9-0.1,3.3,0,2.7,0.5c-0.5,0.5-1.3,1.1-1.3,1.1s-0.3,0.2-0.4,0
			c-0.3-0.5,0.3-0.6,0.5-0.9c0.1-0.2-1.1-0.4-1.4-0.4C172.5,46,172.4,45.7,172.6,45.7"/>
		<path clip-path="url(#SVGID_4_)" fill="#2B2523" d="M171.3,55.4c0.1,0.3,0.5,0.1,0.9-0.1c0.3-0.1,0.5-0.2,0.6-0.3
			c0.3-0.2,0.1-0.6-0.1-0.6C172.3,54.4,171.1,54.9,171.3,55.4"/>
		<polyline clip-path="url(#SVGID_4_)" points="172.5,54.5 171.4,53.6 170.9,54.1 172,55.1 		"/>
		<path clip-path="url(#SVGID_4_)" fill="#FFFFFF" d="M157,27.5c-2,0.1-3.6,1.9-3.5,3.9c0,0.1,0,0.2,0,0.4c-0.5-0.3-1-0.4-1.6-0.4
			c-1.6,0.1-2.8,1.4-2.7,3c0.1,1.5,1.3,2.6,2.7,2.7l0,0l10.5-0.6l0,0c0.1,0,0.2,0,0.3,0c1.6-0.1,2.8-1.4,2.7-3
			c-0.1-1.6-1.4-2.8-3-2.7c-0.6,0-1.1,0.2-1.5,0.6c0-0.1,0-0.2,0-0.4C160.7,28.9,159,27.4,157,27.5"/>
		<path clip-path="url(#SVGID_4_)" fill="#45772F" d="M113,283.5c0-0.2-0.4-3.8-1.7-4.2c-1.3-0.4-3.6-0.4-3.7-0.4l0,0l0,0l0,0l0,0
			c0,0.2,0.4,2.4,1,3.6C109.2,283.8,112.9,283.6,113,283.5L113,283.5L113,283.5L113,283.5L113,283.5z"/>
		<path clip-path="url(#SVGID_4_)" fill="#CCDD9C" d="M106.6,279.1c0,0.2-0.8,3.8,0.3,4.6c1.1,0.8,3.3,1.5,3.4,1.6l0,0l0,0l0,0l0,0
			c0-0.2,0.4-2.4,0.2-3.8C110.3,280.1,106.7,279.1,106.6,279.1L106.6,279.1L106.6,279.1L106.6,279.1L106.6,279.1z"/>
		<path clip-path="url(#SVGID_4_)" fill="#2B2523" d="M97.5,277c-0.7-0.3-1.3-0.7-1.9-1.1c-1.9-1.4-3.2-3.6-3.5-5.6l0.2,0.1l6.5,5
			L97.5,277z M98,277.2l1.2-1.5l2.7,2.1C100.6,277.9,99.3,277.7,98,277.2 M91.4,270.1c0.4,2.4,1.7,4.6,3.8,6.3
			c2.4,1.8,5.2,2.4,7.8,1.9c2.7,1.5,5.4-0.8,3.4-2.3l-0.6-0.4c0.5-0.9,0.2-2-0.6-2.6c-0.8-0.6-2-0.6-2.7,0.1l-5.8-4.4
			c0.5-0.9,0.2-2-0.6-2.6c-0.8-0.6-2-0.6-2.7,0.1l-0.9-0.7C90,264,88.4,267.2,91.4,270.1"/>
		<path clip-path="url(#SVGID_4_)" fill="#45772F" d="M206.8,57.9c0,0.2,1.1,3.7,2.5,3.8c1.4,0.1,3.6-0.3,3.8-0.3l0,0l0,0l0,0l0,0
			c-0.1-0.2-0.9-2.3-1.7-3.4C210.5,56.9,206.9,57.9,206.8,57.9L206.8,57.9L206.8,57.9L206.8,57.9L206.8,57.9z"/>
		<path clip-path="url(#SVGID_4_)" fill="#CCDD9C" d="M214,61c0-0.2,0.1-3.9-1.2-4.4c-1.3-0.6-3.5-0.9-3.7-0.9l0,0l0,0l0,0l0,0
			c0,0.2,0.1,2.4,0.6,3.7C210.1,60.8,213.8,61,214,61L214,61L214,61L214,61L214,61z"/>
		<path clip-path="url(#SVGID_4_)" fill="#2B2523" d="M223.3,61.3c0.7,0.2,1.4,0.4,2.1,0.7c2.1,1,3.8,2.9,4.5,4.8l-0.2-0.1l-7.3-3.6
			L223.3,61.3z M222.7,61.2l-0.9,1.7l-3.1-1.5C220,61,221.4,61,222.7,61.2 M230.6,66.9c-0.8-2.2-2.5-4.2-4.9-5.4
			c-2.7-1.3-5.6-1.4-8-0.4c-2.9-1-5.1,1.8-2.9,2.9l0.6,0.3c-0.3,1,0.2,2,1.1,2.5c0.9,0.5,2,0.2,2.6-0.6l6.5,3.2
			c-0.3,1,0.2,2,1.1,2.5c0.9,0.5,2,0.2,2.6-0.6l1,0.5C233.1,72.6,234.1,69.2,230.6,66.9"/>
		<path clip-path="url(#SVGID_4_)" fill="#CCDD9C" d="M287.1,144.3c2.7,9.8,4.1,20.1,4.1,30.7c0,0.2,0,0.3,0,0.5
			c-0.1,20.9-5.7,40.6-15.4,57.5l1.2,0.7c9.8-17.2,15.5-37,15.6-58.2c0-0.2,0-0.3,0-0.5c0-10.8-1.4-21.2-4.1-31.1L287.1,144.3z"/>
		<polygon clip-path="url(#SVGID_4_)" points="287.5,153.9 291.9,153.1 291.5,155.4 286.6,156.1 		"/>
		<polygon clip-path="url(#SVGID_4_)" points="288.3,165.5 293,165.2 293.9,170.4 287.7,170.4 		"/>
		<polygon clip-path="url(#SVGID_4_)" points="288.7,179.1 293.5,179.2 293.4,181.3 288.4,181.1 		"/>
		<polygon clip-path="url(#SVGID_4_)" points="288.3,189.5 292.7,189.9 292.4,194.6 287,193.7 		"/>
		<polygon clip-path="url(#SVGID_4_)" points="285.8,201 290,202.4 290,204.3 284.1,202.6 		"/>
		<polygon clip-path="url(#SVGID_4_)" points="283.6,211.2 287.3,212.4 286.2,216.8 281.7,215.3 		"/>
		<polygon clip-path="url(#SVGID_4_)" points="279,222.7 282.9,224.7 281.7,226 277.1,224 		"/>
		<polygon clip-path="url(#SVGID_4_)" points="273.8,231.1 277.7,233.2 276.2,237 273,234.5 		"/>
		<path clip-path="url(#SVGID_4_)" fill="#F8F8F1" d="M286.5,168.5c0.1,0,0.6,0.1,1.2,0.1c0.6,0,1.4,0.1,2.4,0.1
			c1.7,0,3.8-0.2,5.8-0.7l-0.4-1.4c-1.9,0.5-3.8,0.7-5.5,0.7c-0.9,0-1.7,0-2.3-0.1c-0.6,0-1-0.1-1.3-0.1L286.5,168.5z"/>
		<path clip-path="url(#SVGID_4_)" fill="#F8F8F1" d="M285.4,191.8c0.1,0,0.4,0.1,0.9,0.2c1.4,0.4,4,1,6.8,1c0.5,0,1.1,0,1.7-0.1
			l-0.1-1.4c-0.5,0-1,0.1-1.5,0.1c-1.8,0-3.5-0.3-4.8-0.6c-0.7-0.1-1.2-0.3-1.7-0.4c-0.4-0.1-0.7-0.2-1-0.3L285.4,191.8z"/>
		<path clip-path="url(#SVGID_4_)" fill="#F8F8F1" d="M279.5,212.3c0.1,0,0.2,0.1,0.4,0.2c1.2,0.7,4.6,2.6,8.5,3.1l0.2-1.4
			c-2-0.3-4-1-5.5-1.7c-0.8-0.3-1.4-0.7-1.9-0.9c-0.2-0.1-0.5-0.3-0.6-0.3c-0.2-0.1-0.3-0.2-0.4-0.2L279.5,212.3z"/>
		<path clip-path="url(#SVGID_4_)" fill="#FFFFFF" d="M216.6,328.9c2.6-0.9,3.9-3.8,2.9-6.3c-0.1-0.2-0.1-0.3-0.2-0.5
			c0.7,0.2,1.5,0.1,2.2-0.1c2-0.7,3-2.9,2.3-4.9c-0.7-1.9-2.6-2.9-4.5-2.4l0,0l-13.3,4.8l0,0c-0.1,0-0.2,0.1-0.3,0.1
			c-2,0.7-3,2.9-2.3,4.9c0.7,2,2.9,3,4.9,2.3c0.7-0.3,1.3-0.7,1.8-1.3c0,0.2,0.1,0.3,0.1,0.5C211.2,328.5,214,329.8,216.6,328.9"/>
		<path clip-path="url(#SVGID_4_)" fill="#FFFFFF" d="M238,331.1c2-0.5,3.2-2.5,2.7-4.4c0-0.1-0.1-0.2-0.1-0.4
			c0.5,0.2,1.1,0.2,1.6,0.1c1.5-0.4,2.5-1.9,2.1-3.5c-0.3-1.4-1.7-2.4-3.1-2.2l0,0l-10.2,2.5l0,0c-0.1,0-0.2,0-0.3,0
			c-1.5,0.4-2.5,1.9-2.1,3.5c0.4,1.5,1.9,2.5,3.5,2.1c0.6-0.1,1-0.4,1.4-0.8c0,0.1,0,0.2,0.1,0.4C234,330.4,236,331.6,238,331.1"/>
		<path clip-path="url(#SVGID_4_)" fill="#FFFFFF" d="M80,46.1c-2.2,1.6-2.8,4.7-1.2,6.9c0.1,0.1,0.2,0.3,0.3,0.4
			c-0.7,0-1.5,0.2-2.1,0.7c-1.7,1.2-2.1,3.6-0.9,5.4c1.1,1.6,3.3,2.1,5,1.1l0,0l11.5-8.1l0,0c0.1-0.1,0.2-0.1,0.3-0.2
			c1.7-1.2,2.1-3.6,0.9-5.3c-1.2-1.7-3.6-2.1-5.4-0.9c-0.6,0.5-1.1,1.1-1.4,1.7c-0.1-0.1-0.2-0.3-0.3-0.4C85.3,45,82.3,44.5,80,46.1
			"/>
		<polygon clip-path="url(#SVGID_4_)" points="262.2,254 256,253.6 252.9,258.6 258.7,258.8 262.5,254.6 262,254.1 258.4,258.1 
			254.1,257.9 256.3,254.3 262.2,254.7 		"/>
		<polyline clip-path="url(#SVGID_4_)" points="259.3,259.2 256.5,253.8 255.8,254.1 258.7,259.6 		"/>
		<path clip-path="url(#SVGID_4_)" d="M255.4,256.2l0.2-0.3c-0.6-0.5-1.4-0.8-2.1-0.8c-0.9,0-1.7,0.4-2.4,1.1
			c-0.5,0.6-0.8,1.4-0.8,2.1c0,0.9,0.4,1.7,1.1,2.4c0.6,0.5,1.4,0.8,2.1,0.8c0.9,0,1.7-0.4,2.4-1.1c0.5-0.6,0.8-1.4,0.8-2.1
			c0-0.9-0.4-1.7-1.1-2.4L255.4,256.2l-0.2,0.3c0.5,0.5,0.8,1.2,0.8,1.8c0,0.6-0.2,1.2-0.6,1.6c-0.5,0.5-1.2,0.8-1.8,0.8
			c-0.6,0-1.2-0.2-1.6-0.6c-0.6-0.5-0.8-1.2-0.8-1.8c0-0.6,0.2-1.2,0.6-1.6c0.5-0.5,1.2-0.8,1.8-0.8c0.6,0,1.2,0.2,1.6,0.6
			L255.4,256.2z"/>
		<path clip-path="url(#SVGID_4_)" d="M254.1,257.7c-0.3-0.3-0.8-0.2-1,0.1c-0.3,0.3-0.2,0.8,0.1,1c0.3,0.3,0.8,0.2,1-0.1
			C254.4,258.5,254.4,258,254.1,257.7"/>
		<path clip-path="url(#SVGID_4_)" d="M262.4,248.4l0.2-0.3c-0.6-0.5-1.4-0.8-2.1-0.8c-0.9,0-1.7,0.4-2.4,1.1
			c-0.5,0.6-0.8,1.4-0.8,2.1c0,0.9,0.4,1.7,1.1,2.4c0.6,0.5,1.4,0.8,2.1,0.8c0.9,0,1.7-0.4,2.4-1.1c0.5-0.6,0.8-1.4,0.8-2.1
			c0-0.9-0.4-1.7-1.1-2.4L262.4,248.4l-0.2,0.3c0.5,0.5,0.8,1.2,0.8,1.8c0,0.6-0.2,1.2-0.6,1.6c-0.5,0.6-1.2,0.8-1.8,0.8
			c-0.6,0-1.2-0.2-1.6-0.6c-0.5-0.5-0.8-1.2-0.8-1.8c0-0.6,0.2-1.2,0.6-1.6c0.5-0.6,1.2-0.8,1.8-0.8c0.6,0,1.2,0.2,1.6,0.6
			L262.4,248.4z"/>
		<path clip-path="url(#SVGID_4_)" d="M261,249.9c-0.3-0.3-0.8-0.2-1,0.1c-0.3,0.3-0.2,0.8,0.1,1c0.3,0.3,0.8,0.2,1-0.1
			C261.4,250.6,261.3,250.2,261,249.9"/>
		<polyline clip-path="url(#SVGID_4_)" points="260.3,250.5 262.7,256.5 263.4,256.2 261,250.2 		"/>
		<path clip-path="url(#SVGID_4_)" d="M260.1,258.4c0,0-1.9,1.3-2,1.6c-0.1,0.3,0.5,1.2,0.9,0.8c0.2-0.2,1.9-1.8,1.7-2.3
			C260.5,258.3,260.3,258.3,260.1,258.4"/>
		<path clip-path="url(#SVGID_4_)" d="M263.2,258.3c0.7-0.6,2.2-2.4,1.4-2.4c-0.7,0-1.7,0.3-1.7,0.3s-0.4,0-0.3,0.3
			c0.2,0.5,0.6,0.2,1,0.2c0.3,0-0.5,1.1-0.7,1.3C262.9,258.2,263.1,258.5,263.2,258.3"/>
		<path clip-path="url(#SVGID_4_)" fill="#2B2523" d="M255.1,252.9c-0.1-0.3,0.2-0.4,0.6-0.6c0.3-0.1,0.4-0.2,0.6-0.2
			c0.4-0.1,0.5,0.3,0.3,0.5C256.4,252.8,255.3,253.4,255.1,252.9"/>
		<polyline clip-path="url(#SVGID_4_)" points="255.7,252.6 255.7,254 256.5,254 256.4,252.6 		"/>
		<polygon clip-path="url(#SVGID_4_)" fill="#DFEAF4" points="65.1,62.9 69.7,62.1 82.4,70.8 80.8,71.1 65.9,66.1 64.7,63.7 		"/>
		<polygon clip-path="url(#SVGID_4_)" fill="#DFEAF4" points="64,64.2 62.4,68.6 48.3,74.9 48.9,73.4 60.9,63.3 63.6,63.4 		"/>
		<polygon clip-path="url(#SVGID_4_)" fill="#DFEAF4" points="63.7,62.2 60.6,58.6 61.9,43.2 63,44.5 66,59.9 64.6,62.1 		"/>
		<path clip-path="url(#SVGID_4_)" fill="#DFEAF4" d="M63.3,64.1c-0.8-0.6-1-1.7-0.5-2.5c0.6-0.8,1.7-1,2.5-0.5
			c0.8,0.6,1,1.7,0.5,2.5C65.2,64.5,64.1,64.7,63.3,64.1"/>
		<polygon clip-path="url(#SVGID_4_)" fill="#DFEAF4" points="209.7,26.8 205.7,24.4 201.8,9.5 203.2,10.4 211.2,23.8 210.6,26.5 		
			"/>
		<polygon clip-path="url(#SVGID_4_)" fill="#DFEAF4" points="211.4,26.5 215.5,24.3 230.3,28.6 228.8,29.4 213.1,29.3 211.2,27.4 
					"/>
		<polygon clip-path="url(#SVGID_4_)" fill="#DFEAF4" points="210.3,28.3 210.3,33 199.3,43.8 199.3,42.1 207.1,28.5 209.6,27.7 		
			"/>
		<path clip-path="url(#SVGID_4_)" fill="#DFEAF4" d="M211.9,27c0.3,1-0.3,1.9-1.3,2.2c-1,0.3-1.9-0.3-2.2-1.3
			c-0.3-1,0.3-1.9,1.3-2.2C210.7,25.5,211.6,26.1,211.9,27"/>
		<polygon clip-path="url(#SVGID_4_)" fill="#DFEAF4" points="316.8,188.5 313.8,184.8 315.3,169.5 316.4,170.8 319.1,186.2 
			317.7,188.5 		"/>
		<polygon clip-path="url(#SVGID_4_)" fill="#DFEAF4" points="318.4,188.8 323,188.1 335.4,197.4 333.7,197.6 319.1,192 
			317.9,189.6 		"/>
		<polygon clip-path="url(#SVGID_4_)" fill="#DFEAF4" points="316.8,190.1 315.1,194.5 301,200.7 301.6,199.2 313.7,189.2 
			316.3,189.3 		"/>
		<path clip-path="url(#SVGID_4_)" fill="#DFEAF4" d="M318.7,189.5c-0.1,1-1,1.7-2,1.6c-1-0.1-1.7-1-1.6-2c0.1-1,1-1.7,2-1.6
			C318.1,187.6,318.8,188.5,318.7,189.5"/>
		<polygon clip-path="url(#SVGID_4_)" fill="#DFEAF4" points="306.4,227.5 301.9,226.2 294.2,212.9 295.9,213.3 307,224.3 
			307.1,227 		"/>
		<polygon clip-path="url(#SVGID_4_)" fill="#DFEAF4" points="307.9,226.8 311.3,223.6 326.7,224 325.5,225.1 310.3,229 308,227.7 
					"/>
		<polygon clip-path="url(#SVGID_4_)" fill="#DFEAF4" points="307.4,228.8 308.5,233.4 300.7,246.6 300.3,245 304.3,229.8 
			306.5,228.4 		"/>
		<path clip-path="url(#SVGID_4_)" fill="#DFEAF4" d="M308.6,227.2c0.5,0.9,0.2,2-0.7,2.5c-0.9,0.5-2,0.2-2.5-0.7
			c-0.5-0.9-0.2-2,0.7-2.5C307,226,308.1,226.3,308.6,227.2"/>
		<polygon clip-path="url(#SVGID_4_)" fill="#F1F0E2" points="80.2,254 78.8,255.7 80.3,256.7 81.5,255.1 		"/>
		<polygon clip-path="url(#SVGID_4_)" fill="#F1F0E2" points="226.4,295.4 228.3,294.8 227.7,292.3 225.8,292.7 		"/>
		<polygon clip-path="url(#SVGID_4_)" fill="#F1F0E2" points="227.1,285 227.8,287.5 229.7,286.9 228.8,284.6 		"/>
		<polygon clip-path="url(#SVGID_4_)" fill="#305620" points="63.1,232.9 60.1,233.7 61.3,237.6 64.6,235.8 		"/>
		<polygon clip-path="url(#SVGID_4_)" fill="#E8AC13" points="62,236.7 60.7,234 63.1,233.4 64.2,235.7 		"/>
	</g>
</g>
</svg>
