<?xml version="1.0" encoding="utf-8"?>
<!-- Generator: Adobe Illustrator 19.1.0, SVG Export Plug-In . SVG Version: 6.00 Build 0)  -->
<svg version="1.1" id="Layer_1" xmlns="http://www.w3.org/2000/svg" xmlns:xlink="http://www.w3.org/1999/xlink" x="0px" y="0px"
	 viewBox="0 0 595.3 841.9" style="enable-background:new 0 0 595.3 841.9;" xml:space="preserve">
<style type="text/css">
	.st0{fill:#D5E3ED;}
	.st1{fill:#C1DA9B;}
	.st2{fill:#275323;}
	.st3{fill:#EBEADB;}
	.st4{fill:#F4F3EA;}
	.st5{fill:#E6AA2D;}
	.st6{fill:#447839;}
	.st7{fill:#FFFFFF;}
	.st8{fill:#AFC88F;}
	.st9{fill:#231F20;}
	.st10{fill:#D6D5D5;}
	.st11{fill:#E4EFD4;}
	.st12{fill:#96A589;}
	.st13{fill:#A9B89A;}
	.st14{fill:#ECF2F6;}
	.st15{fill:#A7A9AC;}
	.st16{fill:#3F6F8E;}
	.st17{fill:#5EA8CB;}
</style>
<polygon points="454.9,581.2 434.9,602.8 446,609.5 461.7,592.2 "/>
<polygon class="st0" points="455.1,583.7 437.4,602.9 445.7,608.2 460.3,592 "/>
<polygon points="449.8,603.8 442.1,597.1 442.9,596.7 450.4,603.4 "/>
<polygon points="455.3,597.5 448.8,589.9 449.4,589.2 456.3,597.5 "/>
<polygon points="458.3,588.3 441.8,606 441.1,605.8 458,587.6 "/>
<polygon points="436.8,586.7 445,593.5 445.8,593 438.7,585 "/>
<polygon class="st1" points="441.7,577.4 450,582 444.7,583.8 445.5,588.5 440,585.8 439.7,590.4 434.8,587.9 436.6,594.2 
	430.5,591.1 431.7,594.5 427.6,593.5 429.3,598.8 423.2,595.7 423.4,600.4 418.7,598 412.3,592.3 "/>
<polygon class="st2" points="413.2,553.6 444.7,577.1 417.9,598.6 397.2,561 "/>
<polygon class="st3" points="413.2,556.6 440.2,577.3 436.7,580.2 411.8,557.9 "/>
<polygon class="st3" points="411.8,559.8 434.8,582.6 430.9,585.6 410.7,561.2 "/>
<polygon class="st4" points="408.8,562.4 428.7,587.3 425.2,589.8 406.6,563.9 "/>
<polygon class="st2" points="440.6,576.4 424,589.9 424.8,591.1 442.8,576.9 "/>
<polygon class="st2" points="437.5,573.9 421.9,586.5 421,585.1 436.5,572.2 "/>
<polygon class="st2" points="418.8,582 433.1,570.1 432.3,568.8 417.7,580.8 "/>
<polygon class="st2" points="429.5,566.8 415.9,577.9 414.7,576.9 428.8,565.4 "/>
<polygon class="st2" points="425.9,564 413,574.3 412.3,572.9 424.7,562.9 "/>
<polygon class="st2" points="422.6,561 410.4,570.9 409.8,569.6 421.6,559.9 "/>
<polygon class="st2" points="408.3,567.5 419.1,558.6 413.9,554.8 404.9,562.7 "/>
<polygon class="st2" points="428.1,573.3 431.9,569.5 436.4,573.6 431.6,577.5 "/>
<polygon class="st5" points="432,571 429.1,573.4 432,576 435.1,573.4 "/>
<polygon class="st1" points="192.9,182.6 185.4,176.8 191,175.9 190.9,171 195.9,174.6 196.9,170.1 201.4,173.3 200.5,166.8 
	206,170.8 205.5,167.3 209.4,168.9 208.5,163.4 214.1,167.4 214.5,162.7 218.8,165.8 224.3,172.3 "/>
<polygon class="st2" points="218.8,209.1 190.4,182.2 219.7,165.3 234.5,205.7 "/>
<polygon class="st3" points="217.9,206.5 195.1,182.2 199.4,180 220.1,206.2 "/>
<polygon class="st3" points="221.2,205.1 201.2,178.2 204.9,176.1 222,203.3 "/>
<polygon class="st4" points="223.2,202.4 206.5,175.4 211.2,172.9 225.5,201.3 "/>
<polygon class="st2" points="194.9,183.2 212.3,173 211.7,171.6 193.5,181.5 "/>
<polygon class="st2" points="196.6,186.7 213.9,176.6 214.6,178.1 197.3,188.5 "/>
<polygon class="st2" points="216.3,181.6 200.3,191.2 201.7,191.7 217.2,182.9 "/>
<polygon class="st2" points="204.3,194.4 218.6,186 219.5,187.3 205.3,195.6 "/>
<polygon class="st2" points="207.5,197.8 221.8,189.5 222.3,191 208.5,198.9 "/>
<polygon class="st2" points="210.9,200.8 222.9,193.9 223.3,195.2 211.8,201.9 "/>
<polygon class="st2" points="226.5,196.3 214.2,203.6 217.9,208.7 229.1,201.5 "/>
<polygon class="st2" points="203.4,184.3 198.2,187.3 201.8,191 206.5,187.5 "/>
<polygon class="st5" points="203.3,184.9 199.7,187.1 202.5,189.9 205.7,188 "/>
<polygon points="223.2,139.4 252.6,140.3 250.3,127.5 227,127.1 "/>
<polygon class="st0" points="224.9,137.7 251.1,138.3 249.6,128.5 227.7,128.3 "/>
<polygon points="242.8,138.3 243.6,138.6 243.6,128.4 242.9,128.1 "/>
<polygon points="235.2,128.4 233.8,138.3 232.9,138.3 234.5,127.7 "/>
<polygon points="226,132.9 250.8,133.6 250.5,133 226.3,132.2 "/>
<polygon points="239.3,149.4 239,138.8 238.1,138.5 236.7,149.2 "/>
<path class="st1" d="M226.7,155.4c-0.1-0.5-5.1-5.5-5.1-5.5l5.1-0.8l0.6-5.5l5.4,3.7l1.7-5l2,4.4l1.7-2.4l2.8,2.1l2.9-5.8l3,5.3
	l4.5-3.3l-3.4,9.5L226.7,155.4z"/>
<polygon class="st2" points="238.7,221.1 226.5,153.1 250.2,151 247.9,220.1 "/>
<polygon class="st3" points="246.1,204.3 246.3,153.4 241.8,154 243.8,204.3 "/>
<polygon class="st3" points="242.7,205 237.4,154.3 232.1,154.3 240.5,205.9 "/>
<polygon class="st2" points="248.5,158.3 231.4,160.2 231.6,161.9 248.5,159.7 "/>
<polygon class="st2" points="247,163.8 232.8,165.5 232.7,166.9 247.5,165.1 "/>
<polygon class="st2" points="247.3,168.8 233.8,170.4 234.3,171.8 247.4,170 "/>
<polygon class="st2" points="234.9,175.5 247.6,173.8 247.4,175 234.9,176.8 "/>
<polygon class="st2" points="247.9,178.8 234.4,180.4 234.8,181.8 248,180 "/>
<polygon class="st2" points="236,185.1 248.7,183.4 248.5,184.6 236,186.4 "/>
<polygon class="st2" points="237.3,189.3 248.9,187.8 248.8,189 237.3,190.7 "/>
<polygon class="st2" points="237.7,193.7 248.4,192.1 248.1,198.7 238.9,199.8 "/>
<polygon class="st2" points="241.5,160.1 247.1,159.4 246.9,164.6 241.6,165.1 "/>
<polygon class="st5" points="242.1,160.5 242.2,164.4 246.2,163.9 246.2,160 "/>
<polygon class="st2" points="234.9,176.2 240.2,175.4 240.8,180.2 235.6,181.2 "/>
<polygon class="st5" points="239.7,176.2 235.7,176.7 236.3,180.2 240.1,179.7 "/>
<polygon class="st1" points="190.7,154.1 182.7,150.1 189,149.4 187.1,142.8 191.5,145.7 191.9,142 196.1,144.7 195.5,140.5 
	201.5,143.9 200,139 204.5,145.3 205.6,150.4 "/>
<polygon class="st2" points="225.2,205.6 187.8,154.2 215.8,138.4 235.7,201.9 "/>
<polygon class="st3" points="198.9,158.2 195.2,160.4 198.5,165.2 201.7,163.4 "/>
<polygon class="st3" points="209.5,165.5 206.5,167.3 209.3,172.3 212.8,170.5 "/>
<polygon points="227.4,121.4 193,130.9 192,115.2 219.4,108 "/>
<polygon class="st0" points="224.9,119.8 194.3,128.1 193.2,116.2 218.9,109.5 "/>
<polygon points="200.2,114.2 203.1,126.3 204,125.7 201,113.8 "/>
<polygon points="210.1,111.8 214.6,123.1 215.7,122.8 210.7,110.8 "/>
<polygon points="221.6,113.8 193.5,121.6 193.3,122.5 222.2,114.4 "/>
<polygon points="211.4,137.8 208.6,125.2 209.6,124.6 214.3,136.8 "/>
<polygon class="st6" points="227.5,201.9 193.8,138.1 224.5,127.4 237.4,198.3 "/>
<polygon class="st3" points="229.5,202.3 199,139.9 204.3,137.3 230.8,201.8 "/>
<polygon class="st3" points="231.9,201.4 207.9,136.6 212.8,134 233,200.6 "/>
<polygon class="st3" points="234.8,200.9 216.1,132.4 220.9,130.7 236.6,200.5 "/>
<polygon class="st6" points="198,141.6 223.9,132.3 222.9,129.7 196.8,139.3 "/>
<polygon class="st6" points="200.1,147.3 224.8,137.8 224.7,140.1 200.3,149.4 "/>
<polygon class="st6" points="225.8,145.1 203,153.6 203.7,155.8 225.9,147.1 "/>
<polygon class="st6" points="227.2,151.8 205.7,159.9 207.3,161.9 228,154 "/>
<polygon class="st6" points="228.5,158.8 208.7,165.7 209.5,167.5 229.7,160.5 "/>
<polygon class="st6" points="229.7,165 211.7,171.4 212.7,173.5 230.3,167.5 "/>
<polygon class="st6" points="231.1,171.1 214.6,176.7 215.6,178.4 231.9,172.8 "/>
<polygon class="st6" points="231.9,176.9 217.6,181.7 218.4,183.6 232.1,178.5 "/>
<polygon class="st6" points="220,186.8 233.1,181.8 233.2,183.5 220.9,188.4 "/>
<polygon class="st6" points="234,186.4 222.8,190.8 222.8,192.2 234.3,187.8 "/>
<polygon class="st6" points="234.7,190.2 224.4,194.2 225.3,195.2 234.9,191.5 "/>
<polygon class="st6" points="226.4,197 235.5,193.6 235.4,194.8 226.5,198.3 "/>
<polygon class="st6" points="227.6,199.7 236.3,196.4 237,199.8 228.9,202.5 "/>
<polygon class="st6" points="205.1,154.5 211.2,152.1 213.8,158.1 207.4,159.9 "/>
<polygon class="st5" points="206.3,154.8 210.8,153 212.5,157.3 208.3,158.9 "/>
<polygon class="st6" points="223.3,162 228.5,160.5 229.7,166.1 224.6,167.5 "/>
<polygon class="st5" points="227.8,161.2 224.3,162.4 225.4,166.5 228.7,165.4 "/>
<polygon class="st6" points="221.2,187.3 225,186 226.3,189.4 222.8,191.1 "/>
<polygon class="st5" points="224.7,186.9 222.4,187.8 223.7,190.5 225.8,189.6 "/>
<polygon class="st6" points="225.7,185.6 228.9,184.4 230.3,188.7 227.3,189.6 "/>
<polygon class="st5" points="226.3,186.2 228.4,185.4 229.2,188.3 227.3,189 "/>
<polygon class="st6" points="217.4,141.4 224.8,139 225.4,146.3 219.4,148.5 "/>
<polygon class="st5" points="223.2,140.7 218.8,142.3 220.2,147.2 224.3,145.7 "/>
<path class="st7" d="M277.4,177.9L277.4,177.9L277.4,177.9c0,0,0.6,1.5,1.1,3c1.9-0.8,4.2-1.3,4.2-1.3l0,0l0,0c0,0,0.8,6.5-1.1,8
	c-2,1.5-8.2,2.8-8.2,2.8s-2.8-6.4-1.2-8.2C273.8,180.3,277.4,177.9,277.4,177.9"/>
<path class="st7" d="M277.4,177.9l-2.9,0.9l0,0l1.3,4.1l3.5-2.6L277.4,177.9l-2.8,1.2l0,0.1c0.1,0.3,0.6,1.5,1,2.7l1.1,3.2l3.1-1.3
	c0.7-0.3,1.7-0.6,2.4-0.8c0.4-0.1,0.7-0.2,0.9-0.2l0.2-0.1l0.1,0l0,0l-0.6-3l-3.1,0.4l0,0l0.4,3.1l3.1-0.5l-0.5-3l-3.1,0.4v0
	c0,0.1,0.1,1.3,0.1,2.6c0,0.8-0.1,1.7-0.2,2.3c-0.1,0.3-0.1,0.5-0.2,0.5l0,0l0.2,0.1l-0.2-0.1l0,0l0.2,0.1l-0.2-0.1l0.9,0.6
	l-0.7-0.9c-0.2,0.1-0.2,0.2-0.3,0.3l0.9,0.6l-0.7-0.9c0,0-0.2,0.1-0.4,0.2c-0.4,0.2-1.1,0.5-1.8,0.7c-1.1,0.4-2.3,0.7-3.2,0.9
	c-0.5,0.1-0.8,0.2-1.1,0.3c-0.1,0-0.2,0.1-0.3,0.1l-0.1,0l0,0l0.6,3l2.8-1.2c0-0.1-0.4-1-0.8-2.1c-0.2-0.6-0.4-1.2-0.5-1.7
	c-0.1-0.6-0.2-1.1-0.2-1.4l0-0.2l0,0l-1.1-0.2l0.8,0.7c0.2-0.3,0.3-0.5,0.3-0.5l-1.1-0.2l0.8,0.7c0.2-0.3,0.6-0.7,1.1-1.1
	c0.7-0.6,1.6-1.3,2.2-1.8c0.3-0.2,0.6-0.4,0.8-0.6l0.2-0.2l0.1,0l0,0L277.4,177.9l-2.9,0.9L277.4,177.9l-1.7-2.6c0,0-1,0.6-2.1,1.5
	c-0.6,0.4-1.2,0.9-1.8,1.5c-0.6,0.5-1.2,1.1-1.8,1.8c-0.6,0.7-0.8,1.4-1,2c-0.2,0.6-0.2,1.2-0.2,1.8c0,1,0.1,1.9,0.3,2.8
	c0.6,2.6,1.6,4.8,1.6,4.9l1,2.3l2.4-0.5c0,0,1.7-0.3,3.6-0.9c1-0.3,2-0.6,3-1c0.5-0.2,1-0.4,1.5-0.6c0.5-0.2,1-0.5,1.4-0.9
	c0.8-0.6,1.2-1.3,1.5-2c0.5-1,0.7-1.9,0.8-2.8c0.1-0.9,0.2-1.8,0.2-2.6c0-1.8-0.2-3.3-0.2-3.4l-0.4-3.2l-3.2,0.5l0.5,3l3.1-0.4l0,0
	l-0.5-3.3l-3.2,0.7c0,0-0.7,0.1-1.6,0.4c-0.9,0.2-2.1,0.6-3.2,1.1l1.2,2.8l2.9-1c-0.5-1.6-1.1-3.1-1.2-3.2l-1.5-3.7l-3.2,2.4
	L277.4,177.9l2.9-0.9l0,0l-1.2-3.9l-3.4,2.3L277.4,177.9z"/>
<path class="st6" d="M282.6,179.7c0,0.3,1,6.7-1.1,7.9c-2,1.2-5.9,2.3-6.2,2.3l0,0l0,0l0,0l0,0c0-0.3-0.3-4.2,0.1-6.6
	C276,181,282.3,179.7,282.6,179.7L282.6,179.7L282.6,179.7L282.6,179.7L282.6,179.7z"/>
<path class="st1" d="M273.6,190c-0.1-0.3-3-6-1.5-7.9c1.5-1.8,4.8-4,5.1-4.2l0,0l0,0l0,0l0,0c0.1,0.3,1.7,3.9,1.9,6.3
	C279.5,186.7,273.9,189.9,273.6,190L273.6,190L273.6,190L273.6,190L273.6,190z"/>
<polygon class="st2" points="274.1,191.4 274.1,176.5 264.6,169.2 256.1,178.5 259.7,192.9 "/>
<polygon class="st3" points="271.3,177.7 271.5,187.7 262,189.2 259.4,179.3 "/>
<polygon class="st2" points="265.7,175.6 267.6,189 266.8,189.6 264,176.5 "/>
<polygon class="st2" points="260.2,183.7 273.1,181.6 272.4,182.7 260.5,184.7 "/>
<polygon class="st2" points="120.7,557.5 134.9,567.3 152.2,537.4 139.4,524.3 "/>
<polygon class="st3" points="131.7,556.5 129.7,559.4 132.7,562 134.8,558.8 "/>
<polygon points="117.7,579.1 95.9,562.7 90.8,573.6 108.3,586.4 "/>
<polygon class="st0" points="115.5,579.5 96,565 91.9,573.2 108.4,585.1 "/>
<polygon points="96.4,576.6 101.8,568.8 102.3,569.4 96.8,577.1 "/>
<polygon points="102.7,581 109.1,574.3 109.8,574.8 102.9,581.9 "/>
<polygon points="111.5,582.9 93.7,569.4 93.7,568.7 112.1,582.6 "/>
<polygon points="110.9,562.9 105.4,571.1 106,571.8 112.7,564.4 "/>
<polygon class="st1" points="122.1,567 120.7,572.9 118.3,569.3 112.9,572.9 113,566.6 108.9,567.2 109.3,562.7 102.6,563.5 
	103.2,558.6 98.9,561.3 100.1,556.8 96.3,554.4 104.3,550.9 "/>
<polygon class="st6" points="143.4,528.5 123.1,568.7 102.3,550.6 135.7,522.5 "/>
<polygon class="st3" points="140.7,532.6 122.2,564.8 118,561.3 138.8,531.9 "/>
<polygon class="st3" points="137.5,531.3 116.2,559.5 112.2,556 135.9,529.7 "/>
<polygon class="st3" points="134.4,529 110.4,554.3 106.4,551 132.7,528.2 "/>
<polygon class="st6" points="123.5,564.6 106.1,550.2 104.3,551 122,566.7 "/>
<polygon class="st6" points="126.2,560.7 109.6,546.8 110.5,545.5 127,559.1 "/>
<polygon class="st6" points="129.1,555.2 113.9,542.4 115,541.4 129.9,553.6 "/>
<polygon class="st6" points="132.2,550.3 118.8,539 120,537.9 133.1,548.7 "/>
<polygon class="st6" points="134.4,545.3 122.7,535.5 124,534.5 135.2,543.7 "/>
<polygon class="st6" points="136.9,541.2 126.5,532.4 127.4,531.5 137.5,539.8 "/>
<polygon class="st6" points="138.6,537.3 129.4,529.7 135.1,527 141.9,530.8 "/>
<polygon class="st6" points="121.7,555.1 124.8,550.7 128.8,553.9 126.4,559.2 "/>
<polygon class="st5" points="124.8,551.6 122.3,555.2 126,558.2 128.1,554.4 "/>
<polygon class="st6" points="120.2,546.2 124.4,549.8 127.5,545.4 123.5,542.5 "/>
<polygon class="st5" points="123.7,543.2 121,546.2 124.2,548.9 126.7,545.6 "/>
<polygon class="st1" points="98.7,541.7 95.8,547 94.5,542.9 88.2,545 90,538.9 86,538.4 87.5,534.2 80.9,533.1 82.7,528.6 
	77.8,530 80.2,526 77.2,522.7 85.8,521.5 "/>
<polygon class="st0" points="556,355.5 491.4,365.4 491,372.1 556.6,358.6 "/>
<polygon class="st0" points="556,358 562.3,363.3 564.6,390.1 562.3,388.2 552.6,362.6 554.4,358.3 "/>
<polygon class="st0" points="553.1,357.9 545.3,360.6 521.1,348.7 523.9,347.8 550.8,352.7 553.6,356.5 "/>
<polygon class="st0" points="555.4,355.2 556.9,347.1 579,331.8 578.5,334.7 561.1,355.8 556.4,356.4 "/>
<path class="st0" d="M552.3,356.9c-0.1-1.7,1.1-3.2,2.9-3.4c1.7-0.1,3.2,1.1,3.4,2.9c0.1,1.7-1.1,3.2-2.9,3.4
	C554,359.9,552.4,358.6,552.3,356.9"/>
<polygon points="448.8,513.4 451.3,508.5 481.7,523.9 507.1,530.3 488.1,529.4 493.4,535.1 518.9,553.3 492.6,539.9 490.8,552.1 
	486.9,540.1 "/>
<path class="st8" d="M508,520.5c-2.6-3.9-7.9-4.9-11.8-2.3c-3.9,2.6-4.9,7.9-2.3,11.8c2.6,3.9,7.9,4.9,11.8,2.3
	C509.6,529.7,510.7,524.4,508,520.5"/>
<path class="st8" d="M493.1,549.4c-2.9-4.3-8.7-5.4-13-2.5c-4.3,2.9-5.4,8.7-2.5,13c2.9,4.3,8.7,5.4,13,2.5
	C494.9,559.5,496,553.7,493.1,549.4"/>
<path class="st6" d="M529.9,546.6c-4.3-6.4-13-8.1-19.4-3.8c-6.4,4.3-8.1,13-3.8,19.3c4.3,6.4,13,8.1,19.3,3.8
	C532.5,561.6,534.2,553,529.9,546.6"/>
<polygon class="st0" points="159.3,617.7 193.1,561.7 188.3,557.2 156.6,616.1 "/>
<polygon class="st0" points="158.5,612.5 152.9,606.5 154,579.6 156,581.7 162.4,608.4 160.1,612.4 "/>
<polygon class="st0" points="161.4,612.9 169.4,611.3 191.9,626.1 189,626.7 162.9,618.4 160.6,614.3 "/>
<polygon class="st0" points="158.7,615.4 156.2,623.2 132.3,635.6 133.2,632.8 153.2,614 157.9,614 "/>
<path class="st0" d="M162,614.1c-0.1,1.7-1.5,3.1-3.3,3c-1.7-0.1-3.1-1.5-3-3.3c0.1-1.7,1.5-3.1,3.3-3
	C160.7,610.9,162.1,612.3,162,614.1"/>
<polygon class="st6" points="92,538.8 84.5,520.2 126.3,505 138.8,516.9 "/>
<polygon class="st3" points="104.8,520.3 100.9,521.9 103,525.8 106.6,523.6 "/>
<polygon class="st3" points="93.5,519.5 89.2,521.2 90.8,524.6 94.9,522.9 "/>
<polygon points="89.5,568.7 75.8,538.5 64,547.2 75.2,570.9 "/>
<polygon class="st0" points="86.9,567.8 74.5,541 65.4,547.4 76,569.7 "/>
<polygon points="68.2,553.6 78.5,548.5 78.7,549.4 68.4,554.4 "/>
<polygon points="72.4,562 83.1,558.5 83.6,559.4 72.1,563.1 "/>
<polygon points="80.7,569.1 69.5,544.3 69.9,543.7 81.5,569.1 "/>
<polygon points="91.6,547.4 81.1,553 81.2,554.1 92.7,550.1 "/>
<polygon class="st2" points="142.3,519.8 98.2,562.7 81.5,538.1 137.3,510.5 "/>
<polygon class="st3" points="128.5,517.2 86,539.7 89.9,545 129.9,518.9 "/>
<polygon class="st3" points="130.2,520.1 91.1,547.5 93.8,551.5 132.1,521.1 "/>
<polygon class="st3" points="133.2,522.1 96.2,553.2 98.6,557.4 134.2,523.8 "/>
<polygon class="st2" points="100.5,558.5 86.2,538.8 84.2,539.7 99.1,560.4 "/>
<polygon class="st2" points="104.4,555.3 90.3,536.7 91.8,535.3 105.7,553.9 "/>
<polygon class="st2" points="96.2,533.2 108.8,550.7 110.6,549.9 97.3,531.9 "/>
<polygon class="st2" points="101.3,530.8 113.4,546.6 115,545.4 102.8,529.6 "/>
<polygon class="st2" points="106.2,527.4 117.8,543.2 119,541.7 107.5,527 "/>
<polygon class="st2" points="110.7,525.4 121.5,539.5 122.8,538.3 112,524.5 "/>
<polygon class="st2" points="114.6,522.4 125.2,536.2 126.5,535.1 116,521.7 "/>
<polygon class="st2" points="119,520.6 128.5,532.5 129.5,531.5 120.4,519.9 "/>
<polygon class="st2" points="123,518.7 131.7,529.6 136.6,524.3 128.5,515.6 "/>
<path class="st7" d="M105.6,495.6L105.6,495.6L105.6,495.6c0,0,1.2-1,2.5-2c-1.3-1.6-2.5-3.7-2.5-3.7l0,0l0,0c0,0,6-2.7,7.9-1.3
	c2.1,1.5,5.1,7,5.1,7s-5.3,4.5-7.5,3.6C109,498.3,105.6,495.6,105.6,495.6"/>
<path class="st7" d="M105.6,495.6l1.7,2.6l0,0l3.7-2.4l-3.5-2.7L105.6,495.6l1.9,2.4l0,0c0.2-0.2,1.3-1,2.3-1.8l2.7-1.9l-2.2-2.6
	c-0.5-0.6-1.1-1.4-1.5-2.1c-0.2-0.3-0.4-0.6-0.5-0.8l-0.1-0.2l0-0.1l0,0l-0.4,0.2l0.4-0.2v0l-0.4,0.2l0.4-0.2l-2.7,1.5l1.4,2.8l0,0
	l2.8-1.4l-1.5-2.8l-2.7,1.4l1.3,2.8l-0.1-0.1l0.1,0.1h0l-0.1-0.1l0.1,0.1c0,0,0.9-0.4,2-0.8c0.5-0.2,1.1-0.4,1.7-0.5
	c0.5-0.1,1-0.2,1.3-0.2l0.2,0l0,0l0.1-0.5l-0.2,0.5l0.1,0l0.1-0.5l-0.2,0.5l0.5-1.2l-0.7,1c0.1,0.1,0.2,0.1,0.3,0.1l0.5-1.2l-0.7,1
	l0,0c0.1,0,0.6,0.5,1,1.1c0.7,0.9,1.5,2.2,2.1,3.2c0.3,0.5,0.5,0.9,0.7,1.2c0.1,0.2,0.2,0.3,0.2,0.4l0,0.1l0,0l2.7-1.5l-2-2.3l0,0
	c-0.1,0.1-1.1,0.9-2.3,1.7c-0.6,0.4-1.2,0.8-1.7,1c-0.3,0.1-0.5,0.2-0.6,0.2l-0.2,0l0,0l0,0.4v-0.4l0,0l0,0.4v-0.4v1.3l0.5-1.2
	c-0.3-0.1-0.4-0.1-0.5-0.1v1.3l0.5-1.2c-0.3-0.1-0.8-0.4-1.4-0.8c-0.8-0.5-1.7-1.1-2.3-1.6c-0.3-0.2-0.6-0.5-0.8-0.6l-0.2-0.2
	l-0.1,0l0,0L105.6,495.6l1.7,2.6L105.6,495.6l-1.9,2.4c0,0,0.9,0.7,2.1,1.6c0.6,0.4,1.3,0.9,2,1.3c0.7,0.4,1.4,0.8,2.2,1.2
	c0.7,0.3,1.3,0.4,1.9,0.4c0.7,0,1.3-0.1,1.8-0.3c1-0.3,1.8-0.7,2.6-1.1c1.2-0.7,2.2-1.4,3-2c0.8-0.6,1.3-1,1.3-1.1l1.9-1.6l-1.2-2.2
	c0,0-0.8-1.5-1.9-3.2c-0.5-0.8-1.1-1.7-1.8-2.6c-0.7-0.8-1.3-1.6-2.3-2.3l0,0c-0.6-0.4-1.2-0.7-1.8-0.8c-0.6-0.1-1.1-0.2-1.6-0.2
	c-1,0-1.9,0.2-2.7,0.3c-2.5,0.6-4.7,1.6-4.8,1.6l-3,1.3l1.5,2.9l2.7-1.4l-1.4-2.8l0,0l-2.9,1.4l1.6,2.8c0,0,0.3,0.6,0.8,1.4
	c0.5,0.8,1.2,1.8,2,2.8l2.4-2l-1.8-2.5c-1.4,1-2.6,2-2.7,2l-3.1,2.5l3.2,2.4L105.6,495.6L104,493l0,0l-3.5,2.3l3.3,2.7L105.6,495.6z
	"/>
<path class="st6" d="M105.8,490.1c0.3-0.1,6.1-2.9,7.9-1.3c1.8,1.6,3.9,4.9,4.1,5.2l0,0l0,0l0,0l0,0c-0.3,0.1-4,1.6-6.3,1.8
	C109,496.1,106,490.4,105.8,490.1L105.8,490.1L105.8,490.1L105.8,490.1L105.8,490.1z"/>
<path class="st1" d="M118.4,495.7c-0.2,0.2-4.9,4.7-7.1,3.7c-2.2-0.9-5.2-3.5-5.5-3.7h0l0,0l0,0l0,0c0.2-0.2,3.3-2.7,5.4-3.7
	C113.5,491,118.2,495.4,118.4,495.7L118.4,495.7L118.4,495.7L118.4,495.7L118.4,495.7z"/>
<polygon class="st2" points="119,495.8 105.3,499.2 101.1,510.4 112.5,515.8 124.3,505.5 "/>
<polygon class="st3" points="107.3,501.6 116.3,499.2 120.2,506.1 112.3,512.4 "/>
<polygon class="st2" points="107,507.5 119.1,501.7 119.9,502.4 108.3,509.2 "/>
<polygon class="st2" points="116.3,510.4 110.5,498.7 111.7,499 117.1,509.4 "/>
<polygon class="st2" points="229.9,156.1 249.1,154 247.4,151.9 229.5,154 "/>
<polygon class="st2" points="238.5,196.9 248.4,195.9 248.2,204 241.4,205.8 "/>
<path class="st1" d="M327.8,582.3c9.7-12.9,28.1-15.5,41-5.8c12.9,9.7,15.5,28.1,5.8,41c-9.7,12.9-28.1,15.5-41,5.8
	C320.6,613.6,318,595.2,327.8,582.3"/>
<polygon class="st0" points="369.7,137.3 351.5,200.2 357.4,203.3 372.7,138.1 "/>
<polygon points="423.2,618.6 394.9,626.8 401,638.3 423.3,631.5 "/>
<polygon class="st0" points="422.1,620.8 397,628.3 401.4,637.1 422.3,630.6 "/>
<polygon points="407.1,635.4 404,625.7 404.9,625.7 407.9,635.4 "/>
<polygon points="415.1,632.8 413.4,623 414.3,622.7 416,633.3 "/>
<polygon points="422.4,626.5 399.2,633.1 398.7,632.6 422.5,625.7 "/>
<polygon points="404.8,614.1 408.3,624.1 409.3,624 407.3,613.5 "/>
<polygon points="458,623.1 429.2,643.3 440.5,654 463.2,637.6 "/>
<polygon class="st0" points="457.6,626 432,644.2 440.4,652.4 461.7,637 "/>
<polygon points="446.4,648.3 439,638.5 440,638.2 447.2,648 "/>
<polygon points="454.4,642.3 448.7,631.8 449.5,631.1 455.6,642.4 "/>
<polygon points="460.1,632.2 436.5,648.8 435.7,648.4 460,631.4 "/>
<polygon points="435.4,625 443.2,635 444.3,634.6 438,623.4 "/>
<polygon class="st2" points="387.7,566.8 395.8,617.3 430.2,608.9 396.1,558.3 "/>
<polygon class="st6" points="390.8,561.3 421.6,636.2 450.1,618.6 401.3,554.5 "/>
<polygon class="st3" points="423.4,631.1 393.2,562.8 394.3,562.1 427.6,628.6 "/>
<polygon class="st3" points="429.4,627.3 433.1,624.6 396.7,560.8 395.5,561.5 "/>
<polygon class="st3" points="401.3,557.6 443.9,617.8 440.6,620.5 400.6,558.7 "/>
<polygon class="st3" points="434.5,623.6 438.8,621 399.3,559.5 398.1,559.9 "/>
<polygon class="st6" points="421.8,631.1 444.6,616.9 446,619.1 422.5,633.8 "/>
<polygon class="st6" points="420.2,626.9 442.3,613 440.7,611.7 419.2,625.2 "/>
<polygon class="st6" points="417.6,621.4 438.6,608.2 437.5,607.2 416.6,619.8 "/>
<polygon class="st6" points="415.6,615.9 435.2,603.6 434.3,602.2 415.1,613.7 "/>
<polygon class="st6" points="413.5,610.4 431.8,598.9 431,597.7 412.5,608.7 "/>
<polygon class="st6" points="411.1,605.5 428.6,594.9 427.9,593.6 410.4,604.2 "/>
<polygon class="st6" points="409.3,601.2 426.1,590.7 425.3,589.5 408.5,599.9 "/>
<polygon class="st6" points="407.4,597 423.3,587 422.4,585.6 407.3,594.7 "/>
<polygon class="st6" points="405.2,592.6 420.6,583 419.6,581.4 404.2,590.9 "/>
<polygon class="st6" points="403.3,587.9 417.5,579.1 416.7,577.8 402.3,586.8 "/>
<polygon class="st6" points="401.6,584 415.2,575.4 414.2,574.2 401,582.5 "/>
<polygon class="st6" points="399.7,580.4 413.3,572.3 411.9,571.1 399.6,579 "/>
<polygon class="st6" points="398.5,576.7 410.7,569.1 410.1,568.2 397.7,575.8 "/>
<polygon class="st6" points="398,576.5 410.4,568.7 408.4,565.7 396.5,572.8 "/>
<polygon class="st6" points="396,570.9 407.1,564.5 406.7,563.8 395.5,570.3 "/>
<polygon class="st6" points="394.9,568.4 405.8,562.4 404.9,561.2 394.4,567.9 "/>
<polygon class="st6" points="394,566 404.2,559.7 403.4,559 393.7,565.4 "/>
<polygon class="st6" points="393.1,563.5 402.5,557.6 401.2,556.5 392.3,562.6 "/>
<polygon class="st6" points="417.5,595.1 421.1,592.6 418.9,589.3 415.5,591.5 "/>
<polygon class="st5" points="416.1,591.5 418.8,589.8 420.5,592.5 417.6,594.2 "/>
<polygon class="st6" points="417.9,619.8 422.5,617 420,612.2 415.5,615.5 "/>
<polygon class="st5" points="418,619 421.6,616.8 419.9,613.2 416.4,615.4 "/>
<polygon class="st6" points="434.2,624.1 439.7,621.1 436.4,615.8 431.5,619.4 "/>
<polygon class="st5" points="434.3,623.3 438.6,620.7 436.1,616.9 432.1,619.4 "/>
<polygon class="st6" points="421.9,603.8 418,606.2 415.7,602.1 419.4,599.4 "/>
<polygon class="st5" points="421.1,603.6 418.1,605.4 416.5,602.3 419.4,600.5 "/>
<polygon class="st6" points="425.1,590.2 421.4,591.9 419.2,589 422.7,587.2 "/>
<polygon class="st5" points="424.3,590.1 421.9,591.6 420.2,588.9 422.5,587.5 "/>
<polygon class="st6" points="409.7,582.6 407.8,579.2 405.4,580.8 406.7,584.6 "/>
<polygon class="st5" points="409.1,582.5 407,583.9 405.7,581.4 407.8,580.1 "/>
<polygon class="st0" points="556.6,424.2 491.3,421.4 490.2,414.8 556.8,421.1 "/>
<polygon class="st0" points="537.2,488.7 475.8,465.9 472.3,471.5 536.2,491.6 "/>
<polygon class="st0" points="340.3,658.7 326.5,594.8 332.5,592.1 343.4,658.1 "/>
<path class="st0" d="M358.7,680.8c0.4,0.7,0.3,1.2,0.3,1.2c0,0-0.5-0.1-1-0.7c-17.4-20.6-16.8-21.2-17.2-23.4h-0.2
	c-0.6-0.1-1.1-0.3-1.6-0.7c-1.8,1-3.5,1.6-29.1,0.6c-0.8,0-1.2-0.3-1.2-0.4c0,0,0.3-0.4,1.1-0.5c24.9-4.5,26.9-4,28.9-3.3
	c0.4-0.5,0.9-0.9,1.6-1c0.1-2.1,0.4-3.7,14.1-25.6c0.4-0.7,0.9-0.8,0.9-0.8l0,0l0,0c0,0,0.2,0.4-0.1,1.2c-9,25.1-10.1,25.7-11.8,27
	c0.1,0.3,0.2,0.7,0.1,1.1c0,0.2-0.1,0.5-0.2,0.7C345.7,657,346.9,658,358.7,680.8"/>
<path class="st1" d="M167.5,254.6c0,16.2-13.1,29.3-29.3,29.3c-16.2,0-29.3-13.1-29.3-29.3c0-16.2,13.1-29.3,29.3-29.3
	C154.4,225.3,167.5,238.4,167.5,254.6"/>
<polygon class="st0" points="108.1,203.2 153.2,250.6 158.9,247.1 110.3,201 "/>
<polygon points="321.9,201.3 327.3,201.8 330.8,168 339.2,143.1 329.8,159.6 327.8,152.1 326.4,120.8 323.3,150 312.2,145 
	320.1,154.8 "/>
<path class="st8" d="M348,147.6c1.8,4.3-0.1,9.3-4.5,11.1c-4.3,1.8-9.3-0.2-11.1-4.5c-1.8-4.3,0.2-9.3,4.5-11.1
	C341.2,141.4,346.2,143.3,348,147.6"/>
<path class="st8" d="M315.7,144.5c2,4.7-0.2,10.2-4.9,12.3c-4.7,2-10.3-0.2-12.3-4.9c-2-4.7,0.2-10.2,4.9-12.3
	C308.1,137.5,313.6,139.7,315.7,144.5"/>
<path class="st6" d="M338,115.1c3,7.1-0.3,15.3-7.3,18.3c-7.1,3-15.3-0.3-18.3-7.3c-3-7.1,0.3-15.3,7.3-18.3
	C326.8,104.8,335,108,338,115.1"/>
<polygon points="119.4,304.7 117.6,309.8 85.5,298.3 59.5,295.1 78.4,293.7 72.5,288.7 44.9,273.8 72.6,283.8 72.9,271.5 
	78.3,282.9 "/>
<path class="st8" d="M59.8,305c3.1,3.5,8.4,3.9,12,0.8c3.5-3.1,3.9-8.4,0.8-12c-3.1-3.5-8.4-3.9-12-0.8
	C57.1,296.1,56.7,301.5,59.8,305"/>
<path class="st8" d="M71,274.5c3.4,3.9,9.3,4.3,13.2,0.9c3.9-3.4,4.3-9.3,0.9-13.2c-3.4-3.9-9.3-4.3-13.2-0.9
	C68,264.7,67.6,270.6,71,274.5"/>
<path class="st6" d="M34.8,281.8c5.1,5.8,13.9,6.4,19.7,1.3c5.8-5.1,6.4-13.9,1.3-19.7c-5.1-5.8-13.9-6.4-19.7-1.3
	C30.4,267.2,29.8,276,34.8,281.8"/>
<path d="M341.9,605.9l3.6,11.8l0.5-0.2l-0.6,0.1c0,0,0.1,0.6,0.6,1.3c0.4,0.6,1.3,1.3,2.6,1.3c0.7,0,1.5-0.2,2.4-0.6l-0.5-1
	c-0.8,0.4-1.5,0.5-2,0.5c-0.9,0-1.4-0.4-1.7-0.8c-0.2-0.2-0.3-0.4-0.3-0.6l-0.1-0.2l0,0l0,0l-0.2,0l0.2,0l0,0l-0.2,0l0.2,0l0,0
	l-3.6-11.8L341.9,605.9z"/>
<polygon class="st9" points="342.6,607.9 340.1,605.2 340.7,605 340.5,601.8 341.7,602.8 342.4,602.1 343.4,604.4 343.9,604.3 
	343.6,607.6 "/>
<path class="st9" d="M376.9,614.1c0.7,2.3,3.1,3.7,5.4,3c2.3-0.7,3.7-3.1,3-5.4c-0.1-0.3-0.2-0.6-0.3-0.8c-0.8-2-2.9-7.1-3.7-7.5
	c-0.7-0.4-4.9,0.6-5.5,1.8c-0.2,0.4,0.6,5.6,1,7.9C376.7,613.4,376.8,613.8,376.9,614.1"/>
<path class="st9" d="M386.3,615.1c-1.3,0-3.5-1.6-3.4-2.4c0.1-0.8,2.4-1.5,3.8-1.3c0.8,0.1,2.5,2.3,2.5,2.3S387.1,615.1,386.3,615.1
	"/>
<path class="st9" d="M378,617.6c1.1-0.8,2-3.3,1.5-3.9c-0.6-0.6-2.8,0.1-3.9,1c-0.6,0.5-0.8,3.4-0.8,3.4S377.3,618.1,378,617.6"/>
<path class="st9" d="M362.2,599.9c-0.4-1.4-2-2.3-3.4-1.8l-4.1,1.2c-1.4,0.4-2.3,2-1.8,3.4l0.8,2.5c0.4,1.4,2,2.3,3.4,1.8l4.1-1.2
	c1.4-0.4,2.3-2,1.8-3.4L362.2,599.9z"/>
<path d="M357.6,599.4l-0.5-1.6c-0.1-0.3-0.4-0.5-0.7-0.4c-0.3,0.1-0.5,0.4-0.4,0.7l0.5,1.6c0.1,0.3,0.4,0.5,0.7,0.4
	C357.5,600,357.7,599.7,357.6,599.4"/>
<path d="M355.1,600.1l-0.5-1.6c-0.1-0.3-0.4-0.5-0.7-0.4c-0.3,0.1-0.5,0.4-0.4,0.7l0.5,1.6c0.1,0.3,0.4,0.5,0.7,0.4
	C355,600.8,355.2,600.4,355.1,600.1"/>
<path d="M360.1,598.6l-0.5-1.6c-0.1-0.3-0.4-0.5-0.7-0.4c-0.3,0.1-0.5,0.4-0.4,0.7l0.5,1.6c0.1,0.3,0.4,0.5,0.7,0.4
	C360,599.3,360.1,598.9,360.1,598.6"/>
<path class="st9" d="M356.5,607.2c-0.1,0.5-0.5,1.3-0.6,1.9c-0.1,0.6,0.1,1.3,0,2c-0.2,1.1-2,2-3.3,0.6c-1.2-1.3-2-1.7-2.7-2
	c-0.6-0.3-1-2.1,0.8-2.4c2-0.3,3.3-2,3.8-2.3C355.7,604.3,357,605.1,356.5,607.2 M370.5,597.5L370.5,597.5c-1.4-3.3-2.6-6.6-2.3-7.1
	c0.5-1.1,0.7-3.2,0.7-3.2l-3.6,1.3c0,0,2.4,7.4,1.3,11.5c-5.4,0.4-12.2,1.1-16.3,1.6c-0.7-0.7-2.4-1.3-2.6-1.4c0,0-1-3.7-0.8-4
	c0.9-1,0.6-2.8,0.6-2.8l-2.9,1l0.7,8.3l1.8,1.1l3.4,17.9l4.5-1.5c-0.3-1.6-0.7-4.9,0.3-5.3c1.2-0.4,2.6,0.6,3.4-0.8
	c0.7-1.3,0.6-6.9,3.4-6.3c1.6,0.3,1.8,2.1,3.2,1.7c3.8-1.2,4.3,1.3,6.1,0.7c2.4-0.7,2.3,2.5,2.2,3.6l6-2c0,0-0.9-5.5-3-9
	c-0.4,0.4-0.8,0.9-1.1,1.5c-0.5,0.8-1,1.9-1.5,1.2c-0.5-0.8-0.7-1.7-1.5-2.1c-0.7-0.4-1.3,0.3-1.7-0.9c-0.4-1.2-0.3-2.7-0.5-3.4
	C369.7,598.2,370.2,597.6,370.5,597.5"/>
<path class="st7" d="M355.2,614.9c1.2-0.4,2.6,0.6,3.4-0.8c0.7-1.3,0.6-6.9,3.4-6.3c1.6,0.3,1.8,2.1,3.2,1.7
	c3.8-1.2,4.3,1.3,6.1,0.7c2.4-0.7,2.3,2.5,2.2,3.6l-18.5,6.3C354.5,618.5,354.1,615.2,355.2,614.9"/>
<path class="st7" d="M355.9,609c-0.1,0.6,0.1,1.3,0,2c-0.2,1.1-2,2-3.3,0.6c-1.2-1.3-2-1.7-2.7-2c-0.6-0.3-1-2.1,0.8-2.4
	c2-0.3,3.3-2,3.8-2.3c1.2-0.7,2.5,0.1,2,2.2C356.4,607.6,356,608.4,355.9,609"/>
<path class="st7" d="M372.7,599.8c1.5,0.1,2.7,1.4,3.6,2.9c-0.4,0.4-0.8,0.9-1.1,1.5c-0.5,0.8-1,1.9-1.5,1.2
	c-0.5-0.8-0.7-1.7-1.5-2.1c-0.7-0.4-1.3,0.3-1.7-0.9c-0.4-1.2-0.3-2.7-0.5-3.4c-0.2-0.7,0.3-1.4,0.6-1.5v0c0.3,0.8,0.7,1.5,1,2.2
	C372,599.7,372.4,599.8,372.7,599.8"/>
<path class="st5" d="M315.4,599.9l4.1,30.2c0.1,0.5,0.5,0.9,1,0.8c0.5-0.1,0.9-0.5,0.8-1l-4.1-30.2c-0.1-0.5-0.5-0.9-1-0.8
	C315.7,598.9,315.3,599.4,315.4,599.9"/>
<path class="st5" d="M319.6,637.1c-0.3-1.4,0.5-3.1,1.4-3.2c0.9-0.1,2.1,1.4,1.9,2.8c-0.1,0.9-1.2,4.4-1.2,4.4
	S319.8,638.1,319.6,637.1"/>
<path class="st5" d="M323.2,628.6c-1.3-0.7-2-2.3-1.5-3.1c0.5-0.8,2.5-0.7,3.4,0.3c0.6,0.7,2.5,3.7,2.5,3.7S324.1,629,323.2,628.6"
	/>
<path class="st5" d="M323.9,633.7c-1.3-0.7-2-2.3-1.5-3.1c0.5-0.8,2.4-0.7,3.4,0.3c0.6,0.7,2.5,3.7,2.5,3.7S324.8,634.1,323.9,633.7
	"/>
<path class="st5" d="M322.5,623.4c-1.3-0.7-2-2.3-1.5-3.1c0.5-0.8,2.5-0.7,3.4,0.3c0.6,0.7,2.5,3.7,2.5,3.7S323.4,623.8,322.5,623.4
	"/>
<path class="st5" d="M317.3,629.4c1.1-1,1.3-2.8,0.6-3.4c-0.7-0.6-2.6,0-3.2,1.2c-0.4,0.8-1.5,4.3-1.5,4.3S316.6,630.1,317.3,629.4"
	/>
<path class="st5" d="M318,634.5c1.1-1,1.3-2.8,0.6-3.4c-0.7-0.6-2.6,0-3.2,1.2c-0.4,0.8-1.5,4.3-1.5,4.3S317.3,635.1,318,634.5"/>
<path class="st5" d="M316.6,624.2c1.1-1,1.3-2.8,0.6-3.4c-0.7-0.6-2.5,0-3.2,1.2c-0.4,0.8-1.5,4.3-1.5,4.3S315.9,624.8,316.6,624.2"
	/>
<path class="st5" d="M298.5,589.1l1,30.4c0,0.5,0.4,0.9,1,0.9c0.5,0,0.9-0.4,0.9-1l-1-30.4c0-0.5-0.4-0.9-1-0.9
	C298.9,588.1,298.5,588.6,298.5,589.1"/>
<path class="st5" d="M299,626.5c-0.2-1.5,0.8-3,1.7-3c0.9,0,2,1.6,1.6,3c-0.2,0.9-1.6,4.2-1.6,4.2S299.1,627.5,299,626.5"/>
<path class="st5" d="M303.5,618.4c-1.2-0.8-1.8-2.5-1.2-3.3c0.6-0.7,2.5-0.5,3.3,0.7c0.5,0.8,2.2,4,2.2,4S304.2,618.9,303.5,618.4"
	/>
<path class="st5" d="M303.6,623.5c-1.2-0.8-1.8-2.5-1.2-3.3c0.6-0.7,2.5-0.5,3.3,0.7c0.5,0.7,2.2,4,2.2,4S304.4,624,303.6,623.5"/>
<path class="st5" d="M303.3,613.1c-1.2-0.8-1.8-2.5-1.2-3.3c0.6-0.7,2.5-0.5,3.3,0.7c0.5,0.7,2.2,4,2.2,4S304.1,613.6,303.3,613.1"
	/>
<path class="st5" d="M297.4,618.6c1.2-0.9,1.6-2.7,1-3.3c-0.6-0.7-2.5-0.3-3.3,0.9c-0.5,0.8-1.9,4.1-1.9,4.1
	S296.7,619.2,297.4,618.6"/>
<path class="st5" d="M297.6,623.7c1.2-0.9,1.6-2.7,1-3.3c-0.6-0.7-2.5-0.3-3.3,0.9c-0.5,0.8-1.9,4.1-1.9,4.1
	S296.9,624.3,297.6,623.7"/>
<path class="st5" d="M297.3,613.3c1.2-0.9,1.6-2.7,1-3.3c-0.6-0.7-2.5-0.3-3.3,0.9c-0.5,0.8-1.9,4.1-1.9,4.1
	S296.5,613.9,297.3,613.3"/>
<path d="M505.7,331.9c-0.2-0.6-2-2-4.4-3.8c1,2.8,1.8,5.6,2.1,7c0.5,1.9-3.3,3.5-4.6,2.2c-0.8-0.8-2.3-6.4-4.8-13.8
	c-2.7-0.5-3.4,2.6-0.7,10.5v0v0c6.6,19.8,10.2,41,10.2,63c0,38.6-11,74.6-30,105.2c-6,10.9,8.7,8.9,12.9,2.5
	c18.7-31.5,29.4-68.4,29.4-107.6C515.9,374.3,512.3,352.4,505.7,331.9"/>
<path class="st1" d="M503.4,335.1c-0.3-1.4-1.2-4.1-2.1-7c-1.3-1-2.8-2.2-4.2-3.3c-1.2-0.8-2.2-1.2-3-1.4c2.5,7.4,4,13,4.8,13.8
	C500.1,338.5,503.9,337,503.4,335.1"/>
<polygon points="281,598.4 274.4,598.4 274.5,654.4 281,623.8 "/>
<polygon points="279.9,628.6 293.9,642.5 279.1,621.9 "/>
<polygon points="276.7,619 267.3,628.4 277.1,612.3 "/>
<path class="st6" d="M303,640.8c-1-5-5.8-8.3-10.8-7.3c-5,1-8.3,5.8-7.4,10.8c1,5,5.8,8.3,10.8,7.3C300.7,650.7,304,645.8,303,640.8
	"/>
<path class="st6" d="M272.2,629.2c-1.1-5.7-6.6-9.5-12.4-8.4c-5.7,1.1-9.5,6.7-8.4,12.4c1.1,5.7,6.7,9.5,12.4,8.4
	C269.5,640.5,273.3,634.9,272.2,629.2"/>
<path class="st8" d="M285.8,662.1c-0.6,7.1-6.9,12.3-14,11.7c-7.1-0.6-12.3-6.9-11.7-14c0.6-7.1,6.9-12.3,14-11.7
	C281.2,648.8,286.4,655,285.8,662.1"/>
<path class="st7" d="M196.9,201.6L196.9,201.6L196.9,201.6c0,0,1.1,1.1,2.2,2.3c1.4-1.5,3.4-2.8,3.4-2.8l0,0l0,0c0,0,3.2,5.7,2,7.8
	c-1.3,2.2-6.5,5.7-6.5,5.7s-5-4.8-4.2-7.1C194.5,205.1,196.9,201.6,196.9,201.6"/>
<path class="st7" d="M196.9,201.6l-2.4,2l0,0l2.8,3.3l2.3-3.7L196.9,201.6l-2.2,2.1l0,0c0.2,0.2,1.1,1.2,2,2.2l2.2,2.5l2.3-2.4
	c0.6-0.6,1.3-1.2,1.9-1.7c0.3-0.2,0.6-0.4,0.8-0.6l0.2-0.1l0.1,0l0,0l-0.3-0.4l0.3,0.4l-0.3-0.4l0.3,0.4l-1.7-2.6l-2.6,1.6l0,0
	l1.6,2.6l2.6-1.6l-1.6-2.6l-2.7,1.5c0,0.1,0.6,1,1,2.1c0.2,0.6,0.5,1.2,0.6,1.7c0.2,0.5,0.2,1,0.2,1.2l0,0.1l0.2,0l-0.2,0l0,0l0.2,0
	l-0.2,0l1.1,0.2l-0.9-0.5c-0.1,0.2-0.1,0.3-0.1,0.3l1.1,0.2l-0.9-0.5l0,0c0,0.1-0.4,0.6-1,1.1c-0.8,0.8-2,1.7-2.9,2.4
	c-0.5,0.3-0.9,0.6-1.2,0.8c-0.1,0.1-0.3,0.2-0.3,0.2l-0.1,0.1l0,0l1.7,2.6l2.1-2.2l-0.8,0.8l0.8-0.8l0,0l-0.8,0.8l0.8-0.8
	c0,0-1-1-1.9-2.2c-0.5-0.6-0.9-1.2-1.2-1.7c-0.1-0.2-0.2-0.5-0.3-0.6l0-0.1l-0.6,0.1h0.6l0-0.1l-0.6,0.1h0.6h-1.4l1.3,0.4
	c0.1-0.2,0.1-0.3,0.1-0.4h-1.4l1.3,0.4l0,0c0.1-0.3,0.3-0.9,0.6-1.4c0.4-0.9,1-1.8,1.4-2.5c0.2-0.3,0.4-0.6,0.5-0.8l0.2-0.2l0-0.1
	l0,0L196.9,201.6l-2.4,2L196.9,201.6l-2.6-1.7c0,0-0.7,1-1.4,2.2c-0.4,0.6-0.8,1.3-1.1,2.1c-0.4,0.7-0.7,1.5-1,2.3l0,0
	c-0.2,0.5-0.2,1-0.2,1.5c0,0.8,0.2,1.4,0.3,2c0.3,1,0.8,1.8,1.3,2.6c0.8,1.2,1.6,2.2,2.3,3c0.7,0.8,1.2,1.3,1.2,1.3l1.8,1.7l2.1-1.4
	c0,0,1.4-0.9,3-2.1c0.8-0.6,1.6-1.3,2.4-2c0.8-0.8,1.5-1.5,2.1-2.5l0,0c0.6-1,0.7-2,0.7-2.8c0-1.1-0.2-2-0.5-3
	c-0.4-1.4-0.9-2.6-1.4-3.5c-0.4-0.9-0.8-1.6-0.8-1.6l-1.6-2.7l-2.7,1.6l1.6,2.7l2.6-1.6l0,0l-1.7-2.7l-2.6,1.8c0,0-0.6,0.4-1.3,1
	c-0.7,0.6-1.7,1.3-2.6,2.2l2.2,2.2l2.3-2c-1.1-1.3-2.2-2.4-2.3-2.5l-2.8-2.8l-2.1,3.4L196.9,201.6l2.4-1.9l0,0l-2.6-3.2l-2.3,3.4
	L196.9,201.6z"/>
<path class="st6" d="M202.3,201.3c0.2,0.3,3.5,5.8,2,7.7c-1.4,1.9-4.6,4.3-4.8,4.5l0,0l0,0l0,0l0,0c-0.1-0.3-1.9-3.8-2.4-6.1
	C196.7,205,202.1,201.4,202.3,201.3L202.3,201.3L202.3,201.3L202.3,201.3L202.3,201.3z"/>
<path class="st1" d="M197.9,214.3c-0.2-0.2-5.1-4.4-4.3-6.7c0.7-2.3,3-5.5,3.1-5.8l0,0l0,0l0,0l0,0c0.2,0.2,3,3,4.2,5.1
	C202.1,208.9,198.2,214,197.9,214.3L197.9,214.3L197.9,214.3L197.9,214.3L197.9,214.3z"/>
<polygon class="st2" points="199.1,214.2 193.3,201.5 181.7,198.4 177.9,208.9 186,221.4 "/>
<polygon class="st3" points="191.1,203.7 195.7,212 186.5,217 181.4,209.4 "/>
<polygon class="st2" points="185.7,204.3 192.5,216.4 191.7,217.1 184.4,205.6 "/>
<polygon class="st2" points="182.6,213.6 194.3,206.7 194,207.9 183.1,214.5 "/>
<path class="st7" d="M156.2,228.1L156.2,228.1L156.2,228.1c0,0,0.7,1.5,1.4,2.9c-1.9,0.8-3.8,2.2-3.8,2.2l0,0l0,0c0,0,4.2,5,6.6,4.6
	c2.5-0.4,7.6-4.2,7.6-4.2s-2.8-6.4-5.2-6.5C160.4,227,156.2,228.1,156.2,228.1"/>
<path class="st7" d="M156.2,228.1l-2.7,1.6l0,0L156.2,228.1l-0.6-3l0,0l-3.9,0.8l1.7,3.6c0,0,0.7,1.5,1.5,3l2.7-1.5l-1.3-2.8
	c-1.1,0.5-2.2,1.1-3,1.6c-0.8,0.5-1.3,0.9-1.4,0.9l-2.6,1.8l1.9,2.5l2.5-1.9l-1.9-2.4l0,0l-2.5,2l2,2.4c0.1,0.1,1.1,1.3,2.5,2.6
	c0.7,0.7,1.6,1.3,2.5,1.9c0.5,0.3,1,0.6,1.6,0.8c0.6,0.2,1.2,0.4,2,0.4c0.3,0,0.5,0,0.8-0.1l0.1,0l0,0c0.6-0.1,1.1-0.3,1.6-0.5
	c0.9-0.3,1.7-0.8,2.5-1.2c2.4-1.4,4.7-3,4.7-3.1l2-1.5l-1-2.3c0-0.1-0.8-1.8-1.9-3.6c-0.6-0.9-1.2-1.9-2.1-2.7
	c-0.4-0.4-0.9-0.9-1.5-1.2c-0.6-0.4-1.4-0.7-2.4-0.7c-0.2,0-0.3,0-0.5,0c-1.6,0-3.2,0.3-4.6,0.5c-1.3,0.2-2.3,0.5-2.4,0.5l-4,1
	l2.1,3.6L156.2,228.1l0.7,3l0,0c0.2,0,1.1-0.3,2.2-0.5c1.1-0.2,2.5-0.4,3.2-0.4l0.2,0l0.1-1.4l-0.5,1.4c0.1,0,0.2,0.1,0.4,0.1
	l0.1-1.4l-0.5,1.4l0.2-0.6l-0.3,0.6l0.1,0.1l0.2-0.6l-0.3,0.6l0.1,0c0.2,0.1,0.5,0.5,0.9,1c0.5,0.7,1.1,1.7,1.5,2.5
	c0.2,0.4,0.4,0.7,0.5,0.9c0.1,0.1,0.1,0.2,0.1,0.3l0,0.1l0,0l0.5-0.2l-0.5,0.2l0,0l0.5-0.2l-0.5,0.2l2.8-1.2l-1.8-2.5l0,0
	c-0.1,0.1-1.4,1-2.8,1.9c-0.7,0.4-1.5,0.9-2.2,1.2c-0.3,0.2-0.6,0.3-0.9,0.4c-0.2,0.1-0.4,0.1-0.4,0.1l0,0l0.2,1.3v-1.3l-0.2,0
	l0.2,1.3v-1.3v0.8l0.2-0.8l-0.2,0v0.8l0.2-0.8v0c-0.1,0-0.5-0.2-1-0.5c-0.7-0.5-1.6-1.3-2.2-1.9c-0.3-0.3-0.6-0.6-0.7-0.8l-0.2-0.2
	l0-0.1l0,0l-0.5,0.4l0.5-0.4l0,0l-0.5,0.4l0.5-0.4l-2.4,2l1.9,2.4l0,0l2.4-1.9l-1.8-2.4l-2.5,1.9l1.8,2.5l-0.3-0.4l0.3,0.4l0,0
	l-0.3-0.4l0.3,0.4c0,0,0.5-0.3,1.1-0.7c0.6-0.4,1.5-0.9,2.2-1.2l3-1.4l-1.6-2.9c-0.4-0.6-0.7-1.3-1-1.8c-0.1-0.3-0.2-0.5-0.3-0.6
	l-0.1-0.2l0-0.1L156.2,228.1l0.6,3.1l0,0l4.2-0.8l-2.2-3.8L156.2,228.1l0.7,3L156.2,228.1z"/>
<path class="st6" d="M154,233.1c0.2,0.2,4.2,5.2,6.6,4.6c2.3-0.7,5.6-2.8,5.9-2.9l0,0l0,0l0,0l0,0c-0.2-0.2-2.9-3.1-4.9-4.4
	C159.5,229.1,154.3,232.9,154,233.1L154,233.1L154,233.1L154,233.1L154,233.1z"/>
<path class="st1" d="M167.7,233.5c-0.1-0.3-2.4-6.3-4.8-6.4c-2.4-0.1-6.2,0.9-6.5,0.9l0,0l0,0l0,0l0,0c0.1,0.3,1.8,3.9,3.3,5.7
	C161.3,235.6,167.4,233.6,167.7,233.5L167.7,233.5L167.7,233.5L167.7,233.5L167.7,233.5z"/>
<polygon class="st2" points="168.4,234.7 157.4,224.7 158.5,212.8 171.1,212.8 179.3,225.2 "/>
<polygon class="st3" points="160.2,223.4 167.4,230.4 175,224.4 169.4,215.8 "/>
<polygon class="st2" points="162.5,217.9 171,228.4 172,228.1 164.2,217.3 "/>
<polygon class="st2" points="172.2,219.3 161.9,227.4 163.2,227.6 172.7,220.2 "/>
<polygon points="450.8,276.3 453.9,282.1 503.4,256 473.3,264.5 "/>
<polygon points="478,263.1 483.9,244.3 472.5,267 "/>
<polygon points="471,270.5 483.8,274.5 464.9,273.3 "/>
<path class="st6" d="M478.1,237.1c-4,3.2-4.6,9-1.5,13c3.2,4,9,4.7,13,1.5c4-3.2,4.6-9,1.5-13C487.9,234.5,482.1,233.9,478.1,237.1"
	/>
<path class="st6" d="M482.2,269.7c-4.6,3.6-5.3,10.3-1.7,14.9c3.6,4.6,10.3,5.3,14.9,1.7c4.6-3.6,5.3-10.3,1.7-14.9
	C493.4,266.8,486.7,266.1,482.2,269.7"/>
<path class="st8" d="M505,242.4c6.6-2.7,14.1,0.4,16.9,6.9c2.7,6.6-0.4,14.1-6.9,16.9c-6.6,2.7-14.1-0.4-16.9-6.9
	C495.3,252.7,498.4,245.1,505,242.4"/>
<polygon points="459.7,309.2 457.7,304.2 489.3,291.6 510.9,276.8 497.7,290.3 505.4,290.2 535.9,283.1 508.6,293.9 516.5,303.3 
	504.9,298.3 "/>
<path class="st8" d="M504.2,269.5c-4.6-0.6-8.9,2.7-9.5,7.3c-0.6,4.6,2.7,8.9,7.3,9.5c4.6,0.6,8.9-2.7,9.5-7.3
	C512.1,274.4,508.8,270.1,504.2,269.5"/>
<path class="st8" d="M516,299.8c-5.1-0.7-9.8,2.9-10.5,8.1c-0.7,5.1,2.9,9.8,8.1,10.5c5.1,0.7,9.8-2.9,10.5-8.1
	C524.7,305.2,521.1,300.5,516,299.8"/>
<path class="st6" d="M538.2,270.4c-7.6-1-14.6,4.4-15.6,12c-1,7.6,4.4,14.6,12,15.6c7.6,1,14.6-4.4,15.6-12
	C551.2,278.4,545.8,271.4,538.2,270.4"/>
<path class="st7" d="M206.2,661.8c1.1,1.8,3.3,5.4,4.4,8.8c0.6,2,0.1,3.8-0.5,5.1c-1.1,2.5-2.9,4.5-4.5,6.1
	c-0.7,0.7-1.4,1.4-1.9,1.9l-4.1,3.5l-3.4-4.4c-0.3-0.5-0.7-1-1.1-1.7l-0.1,0.1l-5.4,3.2l-1.2-6.3c-0.5-2.1-1.5-6.2-1.4-9.7l0,0
	c0-0.9,0.2-1.7,0.5-2.4c0.8-1.7,1.9-2.8,3.1-3.8c1.2-1,2.4-1.7,3.6-2.4c1.3-0.7,2.6-1.3,3.4-1.7l2.9-1.3l1.7,3.3l1.7-1.2
	L206.2,661.8z"/>
<path class="st6" d="M200.3,681.8c0.4-0.3,7.9-6.6,6.8-10.2c-1.1-3.5-4.4-8.5-4.7-8.9l0-0.1l0,0l0,0l0,0.1c-0.3,0.3-4.7,4.5-6.6,7.7
	C194,673.6,199.9,681.4,200.3,681.8L200.3,681.8L200.3,681.8L200.3,681.8L200.3,681.8z"/>
<path class="st1" d="M200.5,660.8c-0.4,0.2-9.6,3.8-9.7,7.5c-0.1,3.7,1.5,9.5,1.6,10l0,0.1l0,0l0,0l0-0.1c0.4-0.2,5.9-2.8,8.6-5.2
	C203.8,670.6,200.7,661.3,200.5,660.8L200.5,660.8L200.5,660.8L200.5,660.8L200.5,660.8z"/>
<path class="st7" d="M229.6,645c1.1,1.8,3.3,5.4,4.4,8.8c0.6,2,0.1,3.8-0.5,5.1c-1.1,2.5-2.9,4.5-4.5,6.1c-0.7,0.7-1.4,1.4-1.9,1.9
	l-4.1,3.5l-3.4-4.4c-0.3-0.5-0.7-1-1.1-1.7l-0.1,0.1l-5.4,3.2l-1.2-6.3c-0.5-2.1-1.5-6.2-1.4-9.7l0,0c0-0.9,0.2-1.7,0.5-2.4
	c0.8-1.7,1.9-2.8,3.1-3.8c1.2-1,2.4-1.7,3.6-2.4c1.3-0.7,2.6-1.3,3.4-1.7l2.9-1.3l1.7,3.3l1.7-1.1L229.6,645z"/>
<path class="st6" d="M223.6,665c0.4-0.3,7.9-6.6,6.8-10.2c-1.1-3.5-4.4-8.5-4.7-8.9l0-0.1l0,0l0,0l0,0.1c-0.3,0.3-4.7,4.5-6.5,7.7
	C217.3,656.8,223.3,664.6,223.6,665L223.6,665L223.6,665L223.6,665L223.6,665z"/>
<path class="st1" d="M223.8,644c-0.4,0.2-9.6,3.8-9.7,7.5c-0.1,3.7,1.5,9.5,1.6,10l0,0.1l0,0l0,0l0-0.1c0.4-0.2,5.9-2.8,8.6-5.2
	C227.2,653.8,224,644.4,223.8,644L223.8,644L223.8,644L223.8,644L223.8,644z"/>
<polygon points="238.8,608.2 226.4,642.8 222.9,642.5 233.3,605.2 "/>
<polygon points="250.1,621.4 203.8,604.1 217.1,566.3 260,583.4 "/>
<polygon points="224.4,606.6 204.9,658.5 201.4,657.7 215,603.2 "/>
<polygon class="st3" points="213.7,604.5 220,586.8 221.9,587.8 215.7,605.2 "/>
<polygon class="st3" points="217.3,606.9 223,589.2 225,590 219.2,607 "/>
<polygon class="st3" points="221.2,607.9 222.9,608.8 228.5,591.6 226.4,591.7 "/>
<polygon class="st3" points="225.3,608.3 226.9,609.1 232.5,591.9 230.3,591.9 "/>
<polygon class="st3" points="229,609.8 234.8,592.6 236.5,592.9 231.1,610.6 "/>
<polygon class="st3" points="233.3,610.2 238.4,593.9 240,594.3 235.2,611.9 "/>
<polygon class="st3" points="236.9,612.2 242.6,594.1 243.9,595.4 239,612.3 "/>
<polygon class="st3" points="241,613.5 246.3,596 247.8,597.6 242.9,613.9 "/>
<polygon class="st3" points="245.1,614.9 250,597.1 251.8,597.6 247,615.5 "/>
<polygon class="st3" points="212.3,603 217.4,588.1 216.9,584.8 210,603.1 "/>
<polygon points="247.6,613.6 207.5,600.8 206.2,604.9 246.9,618.9 "/>
<polygon points="254.1,602.6 211.7,589.9 215.7,583.9 254.9,596.7 "/>
<polygon points="429.7,244.1 423.6,241.8 443,189.3 438.5,220.2 "/>
<polygon points="439.2,215.3 457.1,207.1 436.1,221.3 "/>
<polygon points="432.8,223.2 427.3,211.1 430.9,229.7 "/>
<path class="st6" d="M465.1,211.9c-2.6,4.4-8.3,5.8-12.7,3.1c-4.4-2.6-5.8-8.3-3.2-12.7c2.6-4.4,8.3-5.8,12.7-3.1
	C466.3,201.8,467.7,207.5,465.1,211.9"/>
<path class="st8" d="M453.1,192.7c-3.4,5.7-10.8,7.5-16.5,4.1c-5.7-3.4-7.5-10.8-4.1-16.5c3.4-5.7,10.8-7.5,16.5-4.1
	C454.7,179.6,456.5,187,453.1,192.7"/>
<path class="st6" d="M432.1,212.1c-3,5-9.5,6.6-14.5,3.6c-5-3-6.6-9.5-3.6-14.5c3-5,9.5-6.6,14.5-3.6
	C433.5,200.6,435.2,207.1,432.1,212.1"/>
<polygon points="444.4,262.3 440.1,259 460.9,231.9 471.9,208.1 467.4,226.6 474,222.5 496.6,200.8 478.6,224.1 490.2,228.1 
	477.7,229.7 "/>
<path class="st8" d="M462.4,205.4c-4.3,1.9-6.3,6.8-4.4,11.2c1.9,4.3,6.9,6.3,11.2,4.4c4.3-1.9,6.3-6.8,4.4-11.1
	C471.7,205.5,466.7,203.5,462.4,205.4"/>
<path class="st8" d="M488,225.3c-4.7,2-6.9,7.6-4.9,12.3c2,4.7,7.5,6.9,12.3,4.9c4.7-2,6.9-7.6,4.9-12.3
	C498.3,225.5,492.8,223.3,488,225.3"/>
<path class="st6" d="M492.1,188.7c-7.1,3.1-10.3,11.3-7.3,18.3c3,7.1,11.3,10.3,18.3,7.3c7.1-3,10.3-11.3,7.3-18.3
	C507.3,188.9,499.1,185.6,492.1,188.7"/>
<path class="st7" d="M77.3,373.6c-4.3-0.1-9.4,11.3-9.4,11.3s4.6,11.6,8.9,11.7l2.5,0l0.5-23l-3,0L77.3,373.6z"/>
<path class="st7" d="M77.3,373.6l0.1-2.8l-0.1,0c-1.2,0-2.2,0.4-3,0.9c-1.5,0.8-2.6,2-3.6,3.3c-1.5,1.9-2.8,4.1-3.7,5.8
	c-0.9,1.7-1.5,3-1.5,3l-0.5,1.1l0.4,1.1c0,0.1,1.2,3.1,3,6.2c0.9,1.6,2,3.2,3.2,4.5c0.6,0.7,1.3,1.3,2.2,1.8c0.8,0.5,1.8,0.9,3,0.9
	l5.3,0.1l0.6-28.7l-5.9-0.1l-0.1,5.7l0.5,0l0.1-5.7L77.3,373.6l0.1-2.8l-0.5,0l-0.1,5.7l0.2,0l-0.4,20.1l2.8,0.1l0.1-2.8l-2.5,0
	l0,0.3l0.1-0.3l0,0l0,0.3l0.1-0.3l0,0c-0.1,0-0.3-0.1-0.6-0.4c-0.5-0.4-1.3-1.3-2-2.3c-1-1.5-2-3.3-2.7-4.8
	c-0.3-0.7-0.6-1.3-0.8-1.8c-0.1-0.2-0.2-0.4-0.2-0.5l-0.1-0.1l0,0l-2.6,1l2.6,1.2l0,0c0.1-0.3,1.4-3,3-5.5c0.8-1.3,1.7-2.5,2.5-3.2
	c0.4-0.4,0.7-0.6,1-0.8c0.1-0.1,0.2-0.1,0.2-0.1l0,0l0-0.3v0.3l0,0l0-0.3v0.3v-0.6l0,0.6h0v-0.6l0,0.6l0.1-5.7L77.3,373.6z"/>
<rect x="73.8" y="379.5" transform="matrix(1.983507e-002 -0.9998 0.9998 1.983507e-002 -301.5065 462.8709)" class="st7" width="23" height="11.5"/>
<polygon class="st7" points="79.8,373.6 77,373.5 76.5,399.4 93.6,399.7 94.2,371.1 77,370.7 77,373.5 79.8,373.6 79.7,376.4 
	88.4,376.6 88.1,393.9 82.2,393.8 82.6,373.7 79.8,373.6 79.7,376.4 "/>
<path class="st6" d="M77.3,373.6c-4.3-0.1-9.4,11.3-9.4,11.3s4.6,11.6,8.9,11.7l2.5,0l0.5-23L77.3,373.6L77.3,373.6z"/>
<rect x="73.8" y="379.5" transform="matrix(1.975914e-002 -0.9998 0.9998 1.975914e-002 -301.5001 462.9008)" class="st10" width="23" height="11.5"/>
<path class="st7" d="M82.3,343.4c-4.2-0.7-10.8,9.9-10.8,9.9s3,12.1,7.2,12.8l2.5,0.4l3.6-22.7l-3-0.5L82.3,343.4z"/>
<path class="st7" d="M82.3,343.4l0.4-2.8c-0.3,0-0.6-0.1-0.8-0.1c-1.1,0-2,0.3-2.9,0.7c-1.5,0.7-2.7,1.7-3.8,2.8
	c-1.7,1.7-3.2,3.6-4.3,5.1c-1.1,1.5-1.8,2.6-1.8,2.7l-0.6,1l0.3,1.2c0,0.1,0.8,3.2,2.1,6.5c0.7,1.7,1.5,3.4,2.6,4.9
	c0.5,0.8,1.1,1.5,1.9,2.1c0.8,0.6,1.7,1.2,2.9,1.3l5.3,0.8l4.5-28.3l-5.8-0.9l-0.9,5.6l0.5,0.1l0.9-5.6L82.3,343.4l0.4-2.8l-0.5-0.1
	l-0.9,5.6l0.2,0L78.4,366l2.8,0.4l0.4-2.8l-2.5-0.4l0,0l0,0.3l0.1-0.3l0,0l0,0.3l0.1-0.3l0,0c-0.1,0-0.3-0.2-0.5-0.5
	c-0.5-0.5-1.1-1.4-1.6-2.5c-0.8-1.6-1.5-3.6-2-5.1c-0.2-0.8-0.4-1.4-0.6-1.9c-0.1-0.2-0.1-0.4-0.1-0.5l0-0.1l0,0l-2.8,0.7l2.4,1.5
	l0,0c0.1-0.2,1.7-2.6,3.6-4.9c0.9-1.1,2-2.2,2.9-2.9c0.4-0.3,0.9-0.6,1.1-0.7c0.1-0.1,0.3-0.1,0.3-0.1l0.1,0l0,0v0v0v0v0v-0.3l0,0.3
	l0,0v-0.3l0,0.3l0.9-5.6L82.3,343.4z"/>
<rect x="77.1" y="350.3" transform="matrix(0.1566 -0.9877 0.9877 0.1566 -276.8799 387.7879)" class="st7" width="23" height="11.5"/>
<polygon class="st7" points="84.8,343.8 82,343.3 77.9,368.8 94.9,371.5 99.3,343.2 82.4,340.5 82,343.3 84.8,343.8 84.3,346.6 
	92.9,347.9 90.1,365 84.4,364.1 87.5,344.2 84.8,343.8 84.3,346.6 "/>
<path class="st6" d="M82.3,343.4c-4.2-0.7-10.8,9.9-10.8,9.9s3,12.1,7.2,12.8l2.5,0.4l3.6-22.7L82.3,343.4L82.3,343.4z"/>
<rect x="77.1" y="350.3" transform="matrix(0.1565 -0.9877 0.9877 0.1565 -276.8762 387.818)" class="st10" width="23" height="11.5"/>
<path class="st7" d="M93.1,311.9c-4-1.5-12.6,7.5-12.6,7.5s0.5,12.5,4.5,14l2.4,0.9l8.1-21.5l-2.8-1L93.1,311.9z"/>
<path class="st7" d="M93.1,311.9l1-2.6c-0.7-0.3-1.4-0.4-2-0.4c-1,0-1.8,0.2-2.7,0.5c-1.4,0.5-2.7,1.3-4,2.1
	c-1.9,1.3-3.6,2.7-4.9,3.9c-1.3,1.2-2.1,2-2.1,2.1l-0.8,0.9l0,1.2c0,0.1,0.1,3.3,0.8,6.8c0.3,1.8,0.8,3.6,1.5,5.4
	c0.4,0.9,0.8,1.7,1.4,2.4c0.6,0.8,1.4,1.5,2.5,1.9l5,1.9l10.1-26.8l-5.5-2l-2,5.3l0.5,0.2l2-5.3L93.1,311.9l1-2.6l-0.5-0.2l-2,5.3
	l0.2,0.1l-7.1,18.8l2.6,1l1-2.6l-2.3-0.9l-0.1,0.3l0.1-0.3l0,0l-0.1,0.3l0.1-0.3l0,0l0,0l0,0l0,0c0,0-0.2-0.1-0.4-0.5
	c-0.4-0.5-0.8-1.6-1.1-2.7c-0.5-1.8-0.8-3.9-1-5.5c-0.1-0.8-0.1-1.5-0.2-2c0-0.2,0-0.4,0-0.6l0-0.1l0,0l-2.8,0.1l2.1,2l0,0
	c0.2-0.2,2-2,4.1-3.8c1.1-0.9,2.2-1.7,3.3-2.3c0.5-0.3,1-0.5,1.4-0.6c0.4-0.1,0.7-0.2,0.8-0.2l0.1,0l0-0.2l-0.1,0.2l0,0l0-0.2
	l-0.1,0.2l2-5.3L93.1,311.9z"/>
<rect x="85.2" y="319.8" transform="matrix(0.3538 -0.9353 0.9353 0.3538 -241.9624 300.8177)" class="st7" width="23" height="11.5"/>
<polygon class="st7" points="95.4,312.7 92.8,311.7 83.6,335.9 99.7,342 109.8,315.2 93.8,309.1 92.8,311.7 95.4,312.7 94.4,315.4 
	102.5,318.4 96.4,334.7 90.9,332.6 98.1,313.7 95.4,312.7 94.4,315.4 "/>
<path class="st6" d="M93.1,311.9c-4-1.5-12.6,7.5-12.6,7.5s0.5,12.5,4.5,14l2.4,0.9l8.1-21.5L93.1,311.9L93.1,311.9z"/>
<rect x="85.2" y="319.8" transform="matrix(0.3538 -0.9353 0.9353 0.3538 -241.9648 300.8403)" class="st10" width="23" height="11.5"/>
<path d="M139.3,243.7l-9.6-7.7l-0.4,0.4l0.4-0.4c0,0-0.9-0.9-2.2-0.9c-0.5,0-1.2,0.2-1.8,0.5s-1.2,1-1.8,1.9l1,0.6
	c0.5-0.8,1-1.3,1.4-1.6c0.4-0.3,0.8-0.4,1.1-0.4c0.4,0,0.8,0.1,1,0.3c0.1,0.1,0.2,0.1,0.3,0.2l0.1,0.1l0,0l0-0.1l0,0l0,0l0-0.1l0,0
	l0,0l9.7,7.7L139.3,243.7z"/>
<polygon class="st9" points="137.7,242.4 141.2,243.2 140.8,243.8 142.8,246.2 141.2,246.1 141.1,247 138.9,245.7 138.6,246.2 
	137,243.2 "/>
<path class="st9" d="M105.9,256.7c-1.9-1.5-4.6-1.2-6.2,0.6c-1.5,1.9-1.2,4.6,0.6,6.2c0.2,0.2,0.5,0.3,0.7,0.5
	c1.8,1.2,6.4,4.1,7.3,4c0.8-0.1,3.7-3.2,3.5-4.6c0-0.4-3.7-4.3-5.3-6C106.4,257.2,106.2,257,105.9,256.7"/>
<path class="st9" d="M97.6,261.3c1.1-0.7,3.8-0.7,4.1,0.1c0.4,0.7-1.1,2.6-2.3,3.2c-0.7,0.4-3.4-0.5-3.4-0.5S96.9,261.7,97.6,261.3"
	/>
<path class="st9" d="M103,254.5c-0.4,1.2,0.2,3.8,1,4c0.8,0.2,2.3-1.6,2.6-3c0.2-0.8-1.2-3.2-1.2-3.2S103.2,253.7,103,254.5"/>
<path class="st9" d="M126,260.1c1.2,0.9,2.9,0.7,3.8-0.4l2.6-3.3c0.9-1.2,0.7-2.9-0.4-3.8l-2.1-1.6c-1.2-0.9-2.9-0.7-3.8,0.4
	l-2.6,3.3c-0.9,1.2-0.7,2.9,0.4,3.8L126,260.1z"/>
<path d="M130.1,257.9l1.3,1.1c0.2,0.2,0.6,0.2,0.8-0.1c0.2-0.2,0.2-0.6-0.1-0.8l-1.3-1.1c-0.2-0.2-0.6-0.2-0.8,0.1
	C129.8,257.4,129.9,257.7,130.1,257.9"/>
<path d="M131.7,255.9l1.3,1.1c0.2,0.2,0.6,0.2,0.8-0.1c0.2-0.2,0.2-0.6-0.1-0.8l-1.3-1.1c-0.2-0.2-0.6-0.2-0.8,0.1
	C131.5,255.3,131.5,255.7,131.7,255.9"/>
<path d="M128.5,260l1.3,1.1c0.2,0.2,0.6,0.2,0.8-0.1c0.2-0.2,0.2-0.6-0.1-0.8l-1.3-1.1c-0.2-0.2-0.6-0.2-0.8,0.1
	C128.2,259.4,128.3,259.8,128.5,260"/>
<path class="st9" d="M126.6,250.9c-0.2-0.4-0.3-1.3-0.6-1.9c-0.2-0.5-0.8-1-1.1-1.6c-0.4-1.1,0.5-2.8,2.4-2.4
	c1.7,0.4,2.6,0.2,3.3,0.1c0.7-0.1,2,1.1,0.7,2.4c-1.5,1.4-1.6,3.5-1.9,4C128.9,252.8,127.4,252.9,126.6,250.9 M120.6,266.8
	L120.6,266.8c3,1.9,5.9,3.9,5.9,4.6c0.2,1.2,1.2,3,1.2,3l2.3-3.1c0,0-6.2-4.8-7.6-8.7c4.3-3.4,9.4-7.8,12.5-10.5
	c1,0.1,2.7-0.3,2.9-0.4c0,0,3,2.5,2.9,2.8c-0.2,1.3,1.1,2.7,1.1,2.7l1.9-2.5l-5.3-6.5l-2.1,0.1l-12.9-12.8l-2.8,3.8
	c1.2,1.1,3.4,3.7,2.7,4.5c-0.8,1-2.5,1-2.3,2.5c0.2,1.5,3.5,6,0.8,7.1c-1.5,0.6-2.7-0.7-3.6,0.4c-2.5,3.1-4.2,1.4-5.4,2.9
	c-1.5,1.9-3.3-0.7-3.9-1.7l-3.8,5.1c0,0,3.9,4,7.6,5.7c0.1-0.5,0.2-1.2,0.1-1.8c-0.1-1-0.3-2.2,0.6-1.8c0.8,0.4,1.6,1,2.4,0.9
	c0.8-0.1,0.9-1,1.9-0.2c1,0.8,1.8,2,2.4,2.5C120.8,265.8,120.8,266.6,120.6,266.8"/>
<path class="st7" d="M123.3,243.8c-0.8,1-2.5,1-2.3,2.5c0.2,1.5,3.5,6,0.8,7.1c-1.5,0.6-2.7-0.7-3.6,0.4c-2.5,3.1-4.2,1.4-5.4,2.9
	c-1.5,1.9-3.3-0.7-3.9-1.7l11.7-15.7C121.8,240.4,124,243,123.3,243.8"/>
<path class="st7" d="M126,249c-0.2-0.5-0.8-1-1.1-1.6c-0.4-1.1,0.5-2.8,2.4-2.4c1.7,0.4,2.6,0.2,3.3,0.1c0.7-0.1,2,1.1,0.7,2.4
	c-1.5,1.4-1.6,3.5-1.9,4c-0.6,1.3-2.1,1.4-2.9-0.6C126.4,250.5,126.3,249.6,126,249"/>
<path class="st7" d="M117.5,266.2c-1.3,0.7-3,0.4-4.6-0.4c0.1-0.5,0.2-1.2,0.1-1.8c-0.1-1-0.3-2.2,0.6-1.8c0.8,0.4,1.6,1,2.4,0.9
	c0.8-0.1,0.9-1,1.9-0.2c1,0.8,1.8,2,2.4,2.5c0.6,0.5,0.6,1.3,0.4,1.5h0c-0.7-0.4-1.4-0.9-2.1-1.3C118.1,265.8,117.8,266,117.5,266.2
	"/>
<path class="st5" d="M90.5,404l-30.3,2.8c-0.5,0-0.9,0.5-0.8,1c0,0.5,0.5,0.9,1,0.8l30.3-2.8c0.5,0,0.9-0.5,0.8-1
	C91.5,404.3,91,403.9,90.5,404"/>
<path class="st5" d="M53.1,406.6c1.5-0.3,3,0.6,3.1,1.5c0.1,0.9-1.5,2.1-2.9,1.8c-0.9-0.2-4.3-1.4-4.3-1.4S52.2,406.7,53.1,406.6"/>
<path class="st5" d="M61.5,410.5c0.7-1.3,2.4-1.9,3.2-1.4c0.7,0.6,0.6,2.5-0.5,3.4c-0.7,0.6-3.8,2.4-3.8,2.4S61,411.4,61.5,410.5"/>
<path class="st5" d="M56.4,411c0.7-1.3,2.4-1.9,3.2-1.4c0.7,0.6,0.6,2.5-0.5,3.4c-0.7,0.6-3.8,2.4-3.8,2.4S55.9,411.8,56.4,411"/>
<path class="st5" d="M66.8,410.1c0.7-1.3,2.4-1.9,3.2-1.4c0.7,0.6,0.6,2.5-0.5,3.4c-0.7,0.6-3.8,2.4-3.8,2.4S66.3,410.9,66.8,410.1"
	/>
<path class="st5" d="M61,404.5c1,1.1,2.7,1.4,3.4,0.8c0.6-0.7,0.2-2.5-1.1-3.2c-0.8-0.5-4.2-1.6-4.2-1.6S60.4,403.8,61,404.5"/>
<path class="st5" d="M55.8,405c1,1.1,2.7,1.4,3.4,0.8c0.6-0.7,0.2-2.5-1.1-3.2c-0.8-0.4-4.2-1.6-4.2-1.6S55.2,404.3,55.8,405"/>
<path class="st5" d="M66.2,404.1c1,1.1,2.7,1.4,3.4,0.8c0.6-0.7,0.2-2.5-1.1-3.2c-0.8-0.4-4.2-1.6-4.2-1.6S65.6,403.4,66.2,404.1"/>
<path class="st5" d="M106.5,419.4l-30.3,2.8c-0.5,0-0.9,0.5-0.8,1c0,0.5,0.5,0.9,1,0.8l30.3-2.8c0.5,0,0.9-0.5,0.8-1
	C107.4,419.7,107,419.3,106.5,419.4"/>
<path class="st5" d="M69.1,422c1.5-0.3,3,0.6,3.1,1.5c0.1,0.9-1.5,2.1-2.9,1.8c-0.9-0.2-4.3-1.4-4.3-1.4S68.2,422.2,69.1,422"/>
<path class="st5" d="M77.4,426c0.7-1.3,2.4-1.9,3.2-1.4c0.7,0.6,0.6,2.5-0.5,3.4c-0.7,0.6-3.8,2.4-3.8,2.4S77,426.8,77.4,426"/>
<path class="st5" d="M72.3,426.5c0.7-1.3,2.4-1.9,3.2-1.4c0.7,0.6,0.6,2.5-0.5,3.4c-0.7,0.6-3.8,2.4-3.8,2.4S71.9,427.3,72.3,426.5"
	/>
<path class="st5" d="M82.7,425.5c0.7-1.3,2.4-1.9,3.2-1.4c0.7,0.6,0.6,2.5-0.5,3.4c-0.7,0.6-3.8,2.4-3.8,2.4S82.3,426.3,82.7,425.5"
	/>
<path class="st5" d="M76.9,420c1,1.1,2.7,1.4,3.4,0.8c0.6-0.7,0.1-2.6-1.1-3.2c-0.8-0.4-4.2-1.6-4.2-1.6S76.3,419.3,76.9,420"/>
<path class="st5" d="M71.8,420.5c1,1.1,2.7,1.4,3.4,0.8c0.6-0.7,0.1-2.5-1.1-3.2c-0.8-0.4-4.2-1.6-4.2-1.6S71.2,419.8,71.8,420.5"/>
<path class="st5" d="M82.2,419.5c1,1.1,2.7,1.4,3.4,0.8c0.6-0.7,0.1-2.6-1.1-3.2c-0.8-0.4-4.2-1.6-4.2-1.6S81.6,418.8,82.2,419.5"/>
<path class="st5" d="M127.6,292.2l-26-15.9c-0.4-0.3-1-0.1-1.3,0.3c-0.3,0.4-0.1,1,0.3,1.3l26,15.9c0.4,0.3,1,0.1,1.3-0.3
	C128.1,293.1,128,292.5,127.6,292.2"/>
<path class="st5" d="M96,272c1.3,0.7,2.1,2.3,1.6,3.1c-0.5,0.8-2.4,0.8-3.4-0.3c-0.6-0.7-2.6-3.7-2.6-3.7S95.2,271.6,96,272"/>
<path class="st5" d="M100.3,280.2c1.4-0.6,3.1-0.1,3.4,0.8c0.3,0.9-1,2.4-2.4,2.4c-0.9,0-4.5-0.4-4.5-0.4S99.5,280.6,100.3,280.2"/>
<path class="st5" d="M95.9,277.5c1.4-0.6,3.1-0.1,3.4,0.8c0.3,0.9-1,2.4-2.4,2.4c-0.9,0-4.5-0.4-4.5-0.4S95.1,277.9,95.9,277.5"/>
<path class="st5" d="M104.8,283c1.4-0.6,3.1-0.1,3.4,0.8c0.3,0.9-1,2.4-2.4,2.4c-0.9,0-4.5-0.4-4.5-0.4S104,283.3,104.8,283"/>
<path class="st5" d="M103.5,275.1c0.1,1.5,1.3,2.8,2.3,2.6c0.9-0.2,1.6-2,1.1-3.2c-0.4-0.8-2.4-3.8-2.4-3.8S103.4,274.1,103.5,275.1
	"/>
<path class="st5" d="M99.1,272.4c0.1,1.5,1.3,2.8,2.2,2.6c0.9-0.2,1.6-2,1.1-3.2c-0.4-0.8-2.4-3.8-2.4-3.8S99,271.5,99.1,272.4"/>
<path class="st5" d="M108,277.8c0.1,1.5,1.3,2.8,2.3,2.6c0.9-0.2,1.6-2,1.1-3.2c-0.4-0.8-2.4-3.8-2.4-3.8S107.9,276.9,108,277.8"/>
<polygon points="100,454.2 103.7,459.5 57.6,491.4 79.1,468.6 "/>
<polygon points="75.7,472.2 56.3,468.6 81.7,469.1 "/>
<polygon points="85.5,469.4 83.1,482.5 90.8,465.2 "/>
<path class="st6" d="M52.6,460.2c4.7-2.1,10.1,0.1,12.2,4.7c2.1,4.7-0.1,10.2-4.7,12.2c-4.7,2.1-10.1-0.1-12.2-4.7
	C45.8,467.7,47.9,462.2,52.6,460.2"/>
<path class="st8" d="M46.4,482.8c6.5-2.9,14.1,0.1,17,6.6c2.9,6.5-0.1,14.1-6.6,17c-6.5,2.9-14.1-0.1-17-6.6
	C36.9,493.3,39.9,485.7,46.4,482.8"/>
<path class="st6" d="M79.7,478.9c5.3-2.4,11.6,0.1,14,5.4c2.4,5.3-0.1,11.6-5.4,14c-5.3,2.4-11.6-0.1-14-5.4
	C71.9,487.5,74.3,481.3,79.7,478.9"/>
<polygon points="100.4,436.3 101.3,441.6 67.7,447.4 43.5,457.4 59.3,446.8 51.7,445.4 20.4,446 49.4,441 43.6,430.2 53.9,437.5 "/>
<path class="st8" d="M48.6,465.8c4.4,1.6,9.3-0.7,10.8-5.2c1.6-4.4-0.7-9.3-5.2-10.8c-4.4-1.6-9.3,0.7-10.8,5.2
	C41.8,459.4,44.2,464.3,48.6,465.8"/>
<path class="st8" d="M43.3,433.7c4.9,1.7,10.2-0.8,11.9-5.7c1.7-4.9-0.8-10.2-5.7-11.9c-4.9-1.7-10.2,0.8-11.9,5.7
	C35.9,426.7,38.5,432,43.3,433.7"/>
<path class="st6" d="M18.7,457.8c7.3,2.6,15.2-1.2,17.8-8.5c2.6-7.3-1.2-15.2-8.5-17.8c-7.3-2.6-15.2,1.2-17.8,8.5
	C7.7,447.3,11.5,455.2,18.7,457.8"/>
<path class="st1" d="M495.2,394.8c0,110.7-89.7,200.4-200.4,200.4S94.4,505.5,94.4,394.8s89.7-200.4,200.4-200.4
	S495.2,284.1,495.2,394.8"/>
<path class="st11" d="M314.5,218.1L314.5,218.1c-30.2,0,14.4,18.5,12.7,32.3c-0.8,6.7,24.4,6.3,24.4,19.9c0,10.6,3.2,21.7,19.5,21.7
	c4.5,0,10-0.8,16.8-2.8c9.1-2.6,13.9-3.7,16.8-3.7c7,0,2.5,6.4,19.9,12.9c4.7,1.8,7.9,2.5,9.8,2.5c8.2,0-5.1-13.5-12.3-20.7
	c-8.9-8.9-7.1-12.3-7.1-18.5c0-6.2-0.8-7.4-19-21C365.6,218.1,339.4,218.1,314.5,218.1"/>
<path class="st7" d="M139.9,522.1l-1,0.9c0.2,0.3,0.4,0.6,0.6,0.8c0.7,0.9,1.3,1.8,2,2.7l10.6,10.9l-0.6,1
	c10.3,10.9,21.5,19.7,32.4,26.7l1.2-2.3C168.2,551.5,152.9,537.8,139.9,522.1 M190.5,566l-1.3,2.2c8.2,4.8,16.1,8.7,23.1,11.6l0.7-2
	C205.3,574.4,197.7,570.4,190.5,566"/>
<path class="st12" d="M141.5,526.5c0.3,0.4,0.7,0.9,1,1.3l0.9,0.7l-0.1,0.3c2.7,3.4,5.5,6.6,8.4,9.7l0.6-1L141.5,526.5"/>
<path class="st13" d="M142.5,527.8c0.2,0.3,0.5,0.6,0.7,0.9l0.1-0.3L142.5,527.8"/>
<path class="st14" d="M185.3,562.7L184,565c1.7,1.1,3.5,2.2,5.2,3.2l1.3-2.2C188.8,565,187,563.8,185.3,562.7"/>
<path class="st12" d="M137.7,519.3c0.1,1.3,0.6,2.5,1.3,3.7l1-0.9C139.2,521.1,138.4,520.2,137.7,519.3"/>
<path class="st15" d="M213,577.9l-0.7,2c15.5,6.5,27,8.9,28.9,8.9c0,0,0,0,0,0c0.4,0,0.6-0.2,0.8-0.5
	C232.1,585.5,222.4,582.1,213,577.9"/>
<path class="st11" d="M215.1,425.5C215.1,425.5,215.1,425.5,215.1,425.5c-13,0.2-17.9,54.9-29.1,66.5c-11.2,11.6-3.6,3.8-26,10.6
	c-17.3,5.3-22.8,11.3-22.4,16.6c0.7,0.9,1.5,1.9,2.3,2.8c12.9,15.7,28.2,29.5,45.4,40.7c1.7,1.1,3.5,2.2,5.2,3.3
	c7.2,4.4,14.7,8.4,22.5,11.8c9.3,4.2,19.1,7.7,29.1,10.4c2.5-3.9-3-27.5-3.1-34.3c-0.1-7.4,14.3-1.3,22.3-9.7
	c8-8.3-0.2-10.8-9.9-20.2c-9.7-9.4-19.1-14.1-24.4-33.2c-2.1-7.6,15-14.9,14.6-26.5c-0.2-6.2-12.3-9.7-15.7-15.8
	C219.8,437.6,220.1,425.5,215.1,425.5"/>
<path class="st16" d="M227.8,445.4c0,0-6.7,4.2-13.6,4.2c-6.9,0-10.5-2.4-11.3-4.2c-0.6-1.3,4.1-4.7,10.9-4.7
	C220.7,440.7,227.8,445.4,227.8,445.4"/>
<polygon class="st16" points="228.9,448.7 228.9,441.6 225.3,445.1 "/>
<path class="st16" d="M375,239.8c0,0,6.7,4.2,13.6,4.2c6.9,0,10.5-2.4,11.3-4.2c0.6-1.3-4.1-4.7-10.9-4.7
	C382.1,235.1,375,239.8,375,239.8"/>
<polygon class="st16" points="373.8,243.1 373.8,235.9 377.4,239.5 "/>
<path class="st7" d="M294.8,189.4c-54.9,0-106.4,21.4-145.2,60.2c-38.8,38.8-60.2,90.4-60.2,145.2c0,54.9,21.4,106.4,60.2,145.2
	c38.8,38.8,90.4,60.2,145.2,60.2S401.2,578.8,440,540c38.8-38.8,60.2-90.4,60.2-145.2c0-54.9-21.4-106.4-60.2-145.2
	C401.2,210.8,349.7,189.4,294.8,189.4 M294.8,194.4c110.7,0,200.4,89.7,200.4,200.4s-89.7,200.4-200.4,200.4S94.4,505.5,94.4,394.8
	S184.1,194.4,294.8,194.4"/>
<path class="st17" d="M202.9,471.2c0,0-6.7,4.2-13.6,4.2c-6.9,0-10.5-2.4-11.3-4.2c-0.6-1.3,4.1-4.7,10.9-4.7
	C195.8,466.5,202.9,471.2,202.9,471.2"/>
<polygon class="st17" points="204,474.5 204,467.4 200.5,470.9 "/>
<path class="st16" d="M248,489.7c0,0-6.7,4.2-13.6,4.2c-6.9,0-10.5-2.4-11.3-4.2c-0.6-1.3,4.1-4.7,10.9-4.7
	C241,485,248,489.7,248,489.7"/>
<polygon class="st16" points="249.2,493 249.2,485.8 245.6,489.4 "/>
<path class="st16" d="M303.7,231.2c0,0,6.7,4.2,13.6,4.2c6.9,0,10.5-2.4,11.3-4.2c0.6-1.3-4.1-4.7-10.9-4.7
	C310.8,226.5,303.7,231.2,303.7,231.2"/>
<polygon class="st16" points="302.6,234.5 302.6,227.3 306.2,230.9 "/>
<path class="st17" d="M335.5,245.9c0,0,6.7,4.2,13.6,4.2c6.9,0,10.5-2.4,11.3-4.2c0.6-1.3-4.1-4.7-10.9-4.7
	C342.6,241.2,335.5,245.9,335.5,245.9"/>
<polygon class="st17" points="334.4,249.3 334.4,242.1 338,245.7 "/>
<path class="st16" d="M396.1,264.9c0,0,6.7,4.2,13.6,4.2c6.9,0,10.5-2.4,11.3-4.2c0.6-1.3-4.1-4.7-10.9-4.7S396.1,264.9,396.1,264.9
	"/>
<polygon class="st16" points="394.9,268.3 394.9,261.1 398.5,264.7 "/>
<path class="st16" d="M339.3,275.9c0,0,6.7,4.2,13.6,4.2c6.9,0,10.5-2.4,11.3-4.2c0.6-1.3-4.1-4.7-10.9-4.7S339.3,275.9,339.3,275.9
	"/>
<polygon class="st16" points="338.2,279.2 338.2,272.1 341.8,275.6 "/>
<path class="st16" d="M369.2,290.3c0,0,6.7,4.2,13.6,4.2c6.9,0,10.5-2.4,11.3-4.2c0.6-1.3-4.1-4.7-10.9-4.7
	C376.3,285.6,369.2,290.3,369.2,290.3"/>
<polygon class="st16" points="368.1,293.6 368.1,286.4 371.6,290 "/>
<path class="st16" d="M357.8,256.9c0,0,6.7,4.2,13.6,4.2c6.9,0,10.5-2.4,11.3-4.2c0.6-1.3-4.1-4.7-10.9-4.7
	C364.9,252.2,357.8,256.9,357.8,256.9"/>
<polygon class="st16" points="356.7,260.2 356.7,253.1 360.3,256.7 "/>
<path class="st17" d="M414.4,285.3c0,0,6.7,4.2,13.6,4.2c6.9,0,10.5-2.4,11.3-4.2c0.6-1.3-4.1-4.7-10.9-4.7
	C421.5,280.6,414.4,285.3,414.4,285.3"/>
<polygon class="st17" points="413.3,288.7 413.3,281.5 416.8,285.1 "/>
<path class="st16" d="M342.2,221.6c0,0,6.7,4.2,13.6,4.2c6.9,0,10.5-2.4,11.3-4.2c0.6-1.3-4.1-4.7-10.9-4.7
	C349.2,216.9,342.2,221.6,342.2,221.6"/>
<polygon class="st16" points="341,224.9 341,217.7 344.6,221.3 "/>
<path class="st16" d="M205,514.8c0,0-6.7,4.2-13.6,4.2c-6.9,0-10.5-2.4-11.3-4.2c-0.6-1.3,4.1-4.7,10.9-4.7
	C198,510.1,205,514.8,205,514.8"/>
<polygon class="st16" points="206.2,518.2 206.2,511 202.6,514.6 "/>
<path class="st16" d="M168.2,499.9c0,0-6.7,4.2-13.6,4.2c-6.9,0-10.5-2.4-11.3-4.2c-0.6-1.3,4.1-4.7,10.9-4.7
	C161.2,495.3,168.2,499.9,168.2,499.9"/>
<polygon class="st16" points="169.4,503.3 169.4,496.1 165.8,499.7 "/>
<path class="st16" d="M254.6,458.2c0,0-6.7,4.2-13.6,4.2c-6.9,0-10.5-2.4-11.3-4.2c-0.6-1.3,4.1-4.7,10.9-4.7
	C247.5,453.5,254.6,458.2,254.6,458.2"/>
<polygon class="st16" points="255.7,461.5 255.7,454.4 252.1,458 "/>
<path class="st16" d="M193.8,532c0,0-6.7,4.2-13.6,4.2c-6.9,0-10.5-2.4-11.3-4.2c-0.6-1.3,4.1-4.7,10.9-4.7
	C186.8,527.3,193.8,532,193.8,532"/>
<polygon class="st16" points="195,535.4 195,528.2 191.4,531.8 "/>
<path class="st16" d="M227.5,553.6c0,0-6.7,4.2-13.6,4.2c-6.9,0-10.5-2.4-11.3-4.2c-0.6-1.3,4.1-4.7,10.9-4.7
	C220.4,548.9,227.5,553.6,227.5,553.6"/>
<polygon class="st16" points="228.6,556.9 228.6,549.7 225.1,553.3 "/>
<path class="st16" d="M243.1,520.1c0,0-6.7,4.2-13.6,4.2c-6.9,0-10.5-2.4-11.3-4.2c-0.6-1.3,4.1-4.7,10.9-4.7
	C236,515.4,243.1,520.1,243.1,520.1"/>
<polygon class="st16" points="244.3,523.5 244.3,516.3 240.7,519.9 "/>
<path class="st17" d="M264.2,544.9c0,0-6.7,4.2-13.6,4.2c-6.9,0-10.5-2.4-11.3-4.2c-0.6-1.3,4.1-4.7,10.9-4.7
	C257.1,540.2,264.2,544.9,264.2,544.9"/>
<polygon class="st17" points="265.3,548.2 265.3,541.1 261.7,544.6 "/>
<path class="st7" d="M46.4,329.7c-1.3,4.6,1.4,9.3,5.9,10.7c0.3,0.1,0.6,0.1,0.9,0.2c-1,0.8-1.7,1.9-2.1,3.3c-1,3.6,1.1,7.3,4.6,8.3
	c3.3,0.9,6.8-0.8,8-3.9l0,0l6.8-23.7l0,0c0.1-0.2,0.1-0.4,0.2-0.6c1-3.6-1-7.3-4.6-8.3c-3.6-1-7.3,1.1-8.3,4.6
	c-0.4,1.3-0.3,2.6,0.1,3.9c-0.3-0.1-0.5-0.2-0.8-0.3C52.5,322.4,47.7,325.1,46.4,329.7"/>
<path class="st7" d="M21.8,344.5c-0.6,3.5,1.8,6.8,5.3,7.4c0.2,0,0.4,0.1,0.6,0.1c-0.6,0.7-1.1,1.6-1.3,2.6
	c-0.4,2.7,1.4,5.3,4.1,5.7c2.5,0.4,5-1.2,5.6-3.6l0,0l2.9-18.1l0,0c0-0.1,0.1-0.3,0.1-0.4c0.4-2.7-1.4-5.3-4.1-5.7
	c-2.7-0.4-5.3,1.4-5.7,4.1c-0.2,1,0,2,0.4,2.9c-0.2-0.1-0.4-0.1-0.6-0.1C25.7,338.6,22.4,341,21.8,344.5"/>
<path class="st7" d="M29.8,374.6c-0.4,5.2,3.4,9.8,8.7,10.2c0.3,0,0.6,0,1,0c-0.9,1.1-1.4,2.5-1.6,4c-0.3,4.1,2.7,7.6,6.7,8
	c3.8,0.3,7.2-2.3,7.9-6l0,0l2.3-27l0,0c0-0.2,0.1-0.4,0.1-0.6c0.3-4.1-2.7-7.6-6.7-8c-4.1-0.3-7.6,2.7-8,6.7
	c-0.1,1.5,0.2,2.9,0.9,4.2c-0.3-0.1-0.6-0.1-1-0.1C34.9,365.5,30.3,369.3,29.8,374.6"/>
<path class="st5" d="M173.9,153.5c0.5,5-3.2,9.4-8.2,9.8c-5,0.5-9.4-3.2-9.8-8.2c-0.5-5,3.2-9.4,8.2-9.8
	C169,144.9,173.4,148.5,173.9,153.5"/>
<polygon points="306.5,177.9 300.2,186.1 292.8,184.8 297.5,179 306.9,178.9 306.9,177.7 296.9,177.8 290.6,185.6 300.7,187.4 
	307.4,178.7 "/>
<polyline points="295.9,177 299.8,186.9 301,186.5 297.1,176.5 "/>
<path d="M296.7,185.1h-0.6v0c0,2.4-1.9,4.3-4.3,4.3h0h0c-2.4,0-4.3-1.9-4.3-4.3v0c0-2.4,1.9-4.3,4.3-4.3h0h0h0
	c2.4,0,4.3,1.9,4.3,4.3v0H296.7l0.6,0c0-3.1-2.5-5.5-5.5-5.5h0h0c-3.1,0-5.5,2.5-5.5,5.5v0c0,3.1,2.5,5.5,5.6,5.5h0h0
	c3.1,0,5.5-2.5,5.5-5.6v0v0L296.7,185.1z"/>
<path d="M293,185.1c0,0.7-0.6,1.3-1.3,1.3c-0.7,0-1.3-0.6-1.3-1.3c0-0.7,0.6-1.3,1.3-1.3C292.4,183.8,293,184.4,293,185.1"/>
<path d="M315,185l-0.6,0v0c0,2.4-1.9,4.3-4.3,4.3h0h0c-2.4,0-4.3-1.9-4.3-4.3v0c0-2.4,1.9-4.3,4.3-4.3h0c2.4,0,4.3,1.9,4.3,4.3
	L315,185l0.6,0c0-3.1-2.5-5.5-5.5-5.5h0c-3.1,0-5.5,2.5-5.5,5.6v0c0,3.1,2.5,5.5,5.5,5.5h0h0c3.1,0,5.5-2.5,5.5-5.5v0L315,185z"/>
<path d="M311.3,185c0,0.7-0.6,1.3-1.3,1.3c-0.7,0-1.3-0.6-1.3-1.3c0-0.7,0.6-1.3,1.3-1.3C310.8,183.7,311.3,184.3,311.3,185"/>
<polyline points="310.8,184.7 305.8,174.6 304.7,175.2 309.7,185.3 "/>
<path d="M299.1,176.4c0,0-4,1-4.4,0.8c-0.5-0.3-1.1-2-0.1-2.1c0.6,0,4.5-0.5,4.9,0.4C299.7,176,299.6,176.3,299.1,176.4"/>
<path d="M302.9,172.4c1.6-0.2,5.7-0.1,4.8,0.9c-0.9,0.9-2.3,1.9-2.3,1.9s-0.5,0.4-0.7,0.1c-0.5-0.8,0.5-1,0.8-1.6
	c0.2-0.4-2-0.6-2.5-0.6C302.6,173,302.5,172.5,302.9,172.4"/>
<path class="st9" d="M300.5,189.4c0.3,0.6,0.8,0.2,1.5-0.2c0.5-0.2,0.8-0.3,1-0.5c0.6-0.4,0.2-1-0.2-1
	C302.3,187.8,300.1,188.5,300.5,189.4"/>
<polyline points="302.5,187.9 300.7,186.2 299.9,187.2 301.7,188.8 "/>
<path class="st7" d="M275.5,140.7c-3.5,0.2-6.2,3.2-6.1,6.8c0,0.2,0,0.4,0.1,0.6c-0.8-0.5-1.8-0.7-2.8-0.7c-2.8,0.2-4.9,2.5-4.7,5.3
	c0.1,2.6,2.2,4.6,4.7,4.7l0,0l18.3-1l0,0c0.1,0,0.3,0,0.4,0c2.8-0.2,4.9-2.5,4.7-5.3c-0.2-2.8-2.5-4.9-5.3-4.7c-1,0.1-1.9,0.4-2.7,1
	c0-0.2,0-0.4,0-0.7C282.1,143.2,279,140.5,275.5,140.7"/>
<path class="st6" d="M198.7,588.1c0-0.3-0.7-6.7-3-7.4c-2.3-0.7-6.2-0.7-6.6-0.7l0,0l0,0l0,0l0,0c0.1,0.3,0.7,4.2,1.8,6.3
	C192,588.5,198.4,588.1,198.7,588.1L198.7,588.1L198.7,588.1L198.7,588.1L198.7,588.1z"/>
<path class="st1" d="M187.4,580.3c-0.1,0.3-1.4,6.6,0.5,8c2,1.4,5.7,2.7,6,2.8l0,0l0,0l0,0l0,0c0-0.3,0.6-4.2,0.3-6.6
	C193.9,582,187.7,580.4,187.4,580.3L187.4,580.3L187.4,580.3L187.4,580.3L187.4,580.3z"/>
<path class="st9" d="M171.6,576.7c-1.2-0.5-2.3-1.2-3.3-2c-3.3-2.5-5.6-6.2-6.1-9.8l0.3,0.2l11.4,8.7L171.6,576.7z M172.4,577.1
	l2.1-2.7l4.8,3.6C177,578.2,174.7,577.9,172.4,577.1 M160.9,564.6c0.7,4.1,2.9,8.1,6.7,11c4.1,3.1,9.1,4.2,13.7,3.3
	c4.7,2.7,9.4-1.4,5.9-4.1l-1-0.8c0.8-1.6,0.4-3.5-1.1-4.6c-1.4-1.1-3.4-1-4.7,0.2l-10.1-7.7c0.8-1.6,0.4-3.5-1.1-4.6
	c-1.4-1.1-3.4-1-4.7,0.2l-1.6-1.2C158.5,554,155.7,559.5,160.9,564.6"/>
<path class="st6" d="M362.5,193.8c0.1,0.3,2,6.4,4.4,6.7c2.4,0.2,6.3-0.5,6.6-0.6l0,0l0,0l0,0l0,0c-0.1-0.3-1.5-4-3-5.9
	C369,192.1,362.8,193.7,362.5,193.8L362.5,193.8L362.5,193.8L362.5,193.8L362.5,193.8z"/>
<path class="st1" d="M375.1,199.2c0-0.3,0.1-6.7-2.1-7.7c-2.2-1-6.1-1.5-6.4-1.5l0,0l0,0l0,0l0,0c0,0.3,0.2,4.3,1,6.5
	C368.3,198.8,374.8,199.3,375.1,199.2L375.1,199.2L375.1,199.2L375.1,199.2L375.1,199.2z"/>
<path class="st9" d="M391.3,199.7c1.2,0.3,2.5,0.7,3.6,1.3c3.7,1.8,6.7,5,7.9,8.5l-0.3-0.2l-12.8-6.3L391.3,199.7z M390.4,199.6
	l-1.5,3l-5.4-2.7C385.7,199.3,388,199.2,390.4,199.6 M404.1,209.5c-1.4-3.9-4.4-7.4-8.6-9.5c-4.6-2.3-9.8-2.4-14-0.6
	c-5.1-1.7-9,3.2-5,5.1l1.1,0.6c-0.5,1.7,0.3,3.5,1.9,4.3c1.6,0.8,3.6,0.3,4.6-1.1l11.4,5.6c-0.5,1.7,0.3,3.5,1.9,4.3
	c1.6,0.8,3.6,0.3,4.6-1.1l1.8,0.9C408.6,219.5,410.2,213.5,404.1,209.5"/>
<path class="st1" d="M502.8,344.7c4.6,17.1,7.1,35.1,7.1,53.6c0,0.3,0,0.6,0,0.8c-0.1,36.6-9.9,70.9-26.9,100.5l2.1,1.2
	c17.2-30,27-64.7,27.2-101.7c0-0.3,0-0.6,0-0.9c0-18.8-2.5-37-7.2-54.3L502.8,344.7z"/>
<polygon points="503.5,361.6 511.2,360.2 510.6,364.1 501.9,365.4 "/>
<polygon points="504.9,381.9 513.1,381.3 514.7,390.3 503.9,390.4 "/>
<polygon points="505.7,405.6 514.1,405.7 513.9,409.4 505.2,409.1 "/>
<polygon points="505,423.7 512.6,424.4 512.1,432.7 502.7,431.1 "/>
<polygon points="500.6,443.8 507.9,446.3 507.9,449.5 497.7,446.7 "/>
<polygon points="496.8,461.6 503.2,463.8 501.3,471.4 493.4,468.8 "/>
<polygon points="488.8,481.7 495.5,485.2 493.5,487.5 485.4,484.1 "/>
<polygon points="479.6,496.5 486.4,500 483.7,506.8 478.3,502.4 "/>
<path class="st4" d="M501.9,387c0.2,0,1,0.1,2.1,0.2c1.1,0.1,2.5,0.2,4.2,0.2c3,0,6.6-0.3,10.2-1.3l-0.7-2.4
	c-3.3,0.9-6.7,1.2-9.5,1.2c-1.5,0-2.9-0.1-4-0.2c-1.1-0.1-1.8-0.2-2.2-0.2L501.9,387z"/>
<path class="st4" d="M499.8,427.8c0.2,0,0.8,0.2,1.6,0.4c2.4,0.7,6.9,1.8,11.9,1.8c0.9,0,1.9,0,2.9-0.1l-0.2-2.5
	c-0.9,0.1-1.8,0.1-2.7,0.1c-3.1,0-6-0.5-8.4-1c-1.2-0.3-2.1-0.5-2.9-0.7c-0.8-0.2-1.3-0.4-1.7-0.5L499.8,427.8z"/>
<path class="st4" d="M489.5,463.6c0.1,0,0.3,0.2,0.6,0.3c2.1,1.2,8.1,4.5,14.9,5.4l0.3-2.4c-3.6-0.5-6.9-1.7-9.6-2.9
	c-1.3-0.6-2.4-1.2-3.3-1.6c-0.4-0.2-0.8-0.4-1.1-0.6c-0.3-0.2-0.5-0.3-0.7-0.4L489.5,463.6z"/>
<path class="st7" d="M379.6,667.3c4.5-1.6,6.8-6.6,5.1-11.1c-0.1-0.3-0.2-0.5-0.3-0.8c1.2,0.3,2.6,0.2,3.9-0.2
	c3.5-1.3,5.3-5.1,4-8.6c-1.2-3.2-4.6-5-7.9-4.2l0,0l-23.2,8.5l0,0c-0.2,0.1-0.4,0.1-0.6,0.2c-3.5,1.3-5.3,5.1-4,8.6
	c1.3,3.5,5.1,5.3,8.6,4c1.3-0.5,2.3-1.3,3.1-2.3c0.1,0.3,0.2,0.6,0.3,0.8C370.2,666.7,375.1,669,379.6,667.3"/>
<path class="st7" d="M417.1,671.2c3.4-0.8,5.6-4.3,4.7-7.8c-0.1-0.2-0.1-0.4-0.2-0.6c0.9,0.3,1.9,0.4,2.9,0.2c2.7-0.7,4.3-3.4,3.7-6
	c-0.6-2.5-3-4.1-5.5-3.8l0,0l-17.9,4.3l0,0c-0.1,0-0.3,0-0.4,0.1c-2.7,0.7-4.3,3.4-3.7,6c0.6,2.7,3.4,4.3,6,3.7
	c1-0.2,1.8-0.8,2.5-1.5c0,0.2,0.1,0.4,0.1,0.6C410.1,670,413.6,672.1,417.1,671.2"/>
<path class="st7" d="M141,173.1c-3.9,2.7-4.8,8.1-2.1,12c0.2,0.2,0.3,0.5,0.5,0.7c-1.3,0-2.5,0.4-3.7,1.2c-3,2.1-3.7,6.3-1.6,9.3
	c2,2.8,5.8,3.6,8.7,2l0,0l20.2-14.2l0,0c0.2-0.1,0.3-0.2,0.5-0.3c3-2.1,3.8-6.3,1.6-9.3c-2.1-3-6.3-3.7-9.4-1.6
	c-1.1,0.8-1.9,1.9-2.4,3c-0.1-0.3-0.3-0.5-0.5-0.7C150.3,171.3,144.9,170.4,141,173.1"/>
<polygon points="459.4,536.4 448.5,535.7 443.1,544.5 453.2,544.9 459.9,537.4 458.9,536.6 452.7,543.6 445.2,543.3 449.1,537 
	459.4,537.6 "/>
<polyline points="454.3,545.6 449.3,536.1 448.2,536.6 453.2,546.2 "/>
<path d="M447.6,540.3l0.4-0.5c-1.1-0.9-2.4-1.4-3.7-1.4c-1.5,0-3.1,0.6-4.1,1.9c-0.9,1.1-1.4,2.4-1.4,3.7c0,1.5,0.6,3.1,1.9,4.1
	c1.1,0.9,2.4,1.4,3.7,1.4c1.5,0,3.1-0.6,4.1-1.9c0.9-1.1,1.4-2.4,1.4-3.7c0-1.5-0.6-3.1-1.9-4.1L447.6,540.3l-0.4,0.5
	c1,0.9,1.4,2,1.4,3.2c0,1-0.4,2-1.1,2.9c-0.9,1-2,1.4-3.2,1.4c-1,0-2-0.4-2.9-1.1c-1-0.9-1.4-2-1.4-3.2c0-1,0.4-2,1.1-2.9
	c0.9-1,2-1.4,3.2-1.4c1,0,2,0.4,2.9,1.1L447.6,540.3z"/>
<path d="M445.1,543c-0.5-0.5-1.3-0.4-1.8,0.1c-0.5,0.5-0.4,1.3,0.1,1.8c0.5,0.5,1.3,0.4,1.8-0.1C445.7,544.3,445.7,543.5,445.1,543"
	/>
<path d="M459.7,526.6l0.4-0.5c-1.1-0.9-2.4-1.4-3.7-1.4c-1.5,0-3.1,0.6-4.1,1.9c-0.9,1.1-1.4,2.4-1.4,3.7c0,1.5,0.6,3.1,1.9,4.1
	c1.1,0.9,2.4,1.4,3.7,1.4c1.5,0,3.1-0.6,4.1-1.9c0.9-1.1,1.4-2.4,1.4-3.7c0-1.5-0.6-3.1-1.9-4.1L459.7,526.6l-0.4,0.5
	c1,0.9,1.4,2,1.4,3.2c0,1-0.4,2-1.1,2.9c-0.9,1-2,1.4-3.2,1.4c-1,0-2-0.4-2.9-1.1c-1-0.9-1.4-2-1.4-3.2c0-1,0.4-2,1.1-2.9
	c0.9-1,2-1.5,3.2-1.5c1,0,2,0.4,2.9,1.1L459.7,526.6z"/>
<path d="M457.3,529.3c-0.5-0.5-1.3-0.4-1.8,0.1c-0.5,0.5-0.4,1.3,0.1,1.8c0.5,0.5,1.3,0.4,1.8-0.1
	C457.9,530.6,457.8,529.8,457.3,529.3"/>
<polyline points="456,530.3 460.3,540.8 461.4,540.3 457.2,529.8 "/>
<path d="M455.6,544.2c0,0-3.4,2.4-3.5,2.8c-0.1,0.5,0.8,2.2,1.5,1.5c0.4-0.4,3.4-3.1,2.9-3.9C456.4,543.9,456.1,543.9,455.6,544.2"
	/>
<path d="M461.2,544c1.2-1.1,3.8-4.2,2.5-4.2c-1.3,0.1-2.9,0.5-2.9,0.5s-0.6,0.1-0.5,0.5c0.3,0.9,1.1,0.3,1.7,0.4
	c0.4,0.1-0.8,1.9-1.2,2.3C460.5,543.7,460.9,544.2,461.2,544"/>
<path class="st9" d="M446.9,534.5c-0.2-0.6,0.4-0.8,1.1-1c0.5-0.2,0.8-0.4,1.1-0.4c0.7-0.2,0.9,0.5,0.6,0.8
	C449.2,534.3,447.3,535.4,446.9,534.5"/>
<polyline points="448,534 448.1,536.5 449.3,536.5 449.3,534 "/>
<polygon class="st0" points="115,202.6 123,201.1 145.2,216.3 142.3,216.9 116.4,208.1 114.2,203.9 "/>
<polygon class="st0" points="113.1,204.8 110.2,212.5 85.7,223.6 86.7,220.8 107.6,203.2 112.3,203.4 "/>
<polygon class="st0" points="112.4,201.2 107.1,195 109.4,168.1 111.3,170.4 116.5,197.2 114,201.2 "/>
<path class="st0" d="M111.8,204.7c-1.4-1-1.8-2.9-0.8-4.4c1-1.4,2.9-1.8,4.4-0.8c1.4,1,1.8,2.9,0.8,4.4
	C115.2,205.3,113.2,205.7,111.8,204.7"/>
<polygon class="st0" points="367.6,139.4 360.6,135.3 353.7,109.2 356.2,110.7 370.1,134.3 369.1,138.9 "/>
<polygon class="st0" points="370.5,139 377.7,135 403.5,142.6 401,144 373.6,143.7 370.2,140.5 "/>
<polygon class="st0" points="368.7,142.1 368.6,150.3 349.4,169.1 349.4,166.2 363,142.4 367.5,141 "/>
<path class="st0" d="M371.4,139.9c0.4,1.7-0.6,3.4-2.2,3.8c-1.7,0.4-3.4-0.6-3.8-2.2c-0.4-1.7,0.6-3.4,2.2-3.8
	C369.3,137.2,371,138.2,371.4,139.9"/>
<polygon class="st0" points="554.7,421.9 549.5,415.6 552.2,388.8 554,391.1 558.8,418 556.2,421.9 "/>
<polygon class="st0" points="557.5,422.5 565.6,421.3 587.2,437.5 584.3,437.9 558.7,428.1 556.7,423.9 "/>
<polygon class="st0" points="554.7,424.8 551.8,432.4 527.2,443.4 528.2,440.7 549.3,423.1 553.9,423.4 "/>
<path class="st0" d="M558.1,423.7c-0.2,1.7-1.7,3-3.4,2.8c-1.7-0.2-3-1.7-2.8-3.4c0.2-1.7,1.7-3,3.4-2.8
	C557,420.4,558.2,422,558.1,423.7"/>
<polygon class="st0" points="536.6,490.1 528.7,487.9 515.3,464.6 518.1,465.3 537.7,484.5 537.9,489.2 "/>
<polygon class="st0" points="539.2,488.9 545.2,483.3 572.1,483.9 570,485.9 543.4,492.8 539.3,490.5 "/>
<polygon class="st0" points="538.3,492.4 540.3,500.4 526.6,523.5 525.9,520.7 532.9,494.2 536.8,491.8 "/>
<path class="st0" d="M540.4,489.6c0.9,1.5,0.3,3.4-1.2,4.3c-1.5,0.9-3.4,0.3-4.3-1.2c-0.9-1.5-0.3-3.4,1.2-4.3
	C537.6,487.6,539.5,488.1,540.4,489.6"/>
<polygon class="st3" points="141.3,536.5 139,539.4 141.4,541.1 143.7,538.3 "/>
<polygon class="st3" points="396.7,608.7 400.1,607.8 399.1,603.3 395.7,604.1 "/>
<polygon class="st3" points="398.1,590.5 399.2,594.9 402.5,593.9 401,589.8 "/>
<polygon class="st2" points="111.5,499.6 106.2,500.9 108.4,507.8 114.1,504.6 "/>
<polygon class="st5" points="109.5,506.3 107.3,501.6 111.4,500.5 113.4,504.5 "/>
</svg>
