<?xml version="1.0" encoding="utf-8"?>
<!-- Generator: Adobe Illustrator 19.1.0, SVG Export Plug-In . SVG Version: 6.00 Build 0)  -->
<svg version="1.1" id="Layer_1" xmlns="http://www.w3.org/2000/svg" xmlns:xlink="http://www.w3.org/1999/xlink" x="0px" y="0px"
	 viewBox="303.3 432.2 211.7 125.2" style="enable-background:new 303.3 432.2 211.7 125.2;" xml:space="preserve">
<style type="text/css">
	.st0{fill:#447531;}
	.st1{fill:#EFD40A;}
	.st2{fill:none;stroke:#F8F8F0;stroke-width:1.4208;stroke-miterlimit:10;}
	.st3{fill:#EFD40A;stroke:#FFFFFF;stroke-width:0.6766;stroke-miterlimit:10;}
	.st4{fill:#EFD40A;stroke:#FFFFFF;stroke-width:1.1633;stroke-miterlimit:10;}
</style>
<path class="st0" d="M323.1,510.7c0,0.4,0,0.8-0.1,1.2c-0.1,0.3-0.3,0.5-0.5,0.9c0.4-0.4,0.6-1.1,0.7-1.9c0.3,0.3-0.1,1-0.1,1.4
	c0.1,0.3,0.4,0.6,0.2,0.9c-0.1,0.1-0.5,0.2-0.5,0.2c-0.2,0.2-0.5,0.4-0.6,0.5c-0.3,0.3-0.8,0.8-0.9,1.2c-0.2,0.3-0.2,0.8-0.2,1.1
	c-0.1,0.5-0.2,0.9-0.3,1.3c-0.2,1.2-0.3,2.4-0.5,3.6c-0.2,1-0.1,2.2-0.5,3.2c-0.1,0.3-0.3,0.5-0.4,0.8c-0.2,0.4,0,0.3,0.2,0.6
	c0.4,0.6,0,1.5-0.2,2.2c-0.1,0.3-0.5,0.9-0.2,1.2c0.4,0.3,0.6-0.4,1-0.3c-0.2-0.1,0.2-0.1,0.2-0.1c0.2-0.1,0.3-0.2,0.5-0.2
	c0.5-0.2,0.4-0.2,0.5-0.7c0-0.4-0.3-1.3-0.2-1.5s0.2-0.1,0.3-0.2c0.1-0.1,0.4-0.4,0.5-0.5c0.2,0.8-0.2,1.4-0.2,2.1
	c0,0.2,0.1,0.4,0.1,0.5c0,0.2-0.2,0.4-0.2,0.5c0.1,0.6,0.4,0.2,0.8,0.2c0.2,1.4,0.6,2.8,0.6,4.2c0.1,1.4-0.2,2.8-0.2,4.2
	c0,0.7,0.1,1.2,0.2,1.9c0.2,0.7-0.2,1.3-0.1,2c0,0.6,0.1,1.2-0.1,1.8c-0.2,0.5-0.5,0.9-0.7,1.5c-0.2,0.5,0.3,0.8,0.9,0.7
	c0.7,0,0.9-0.4,1.2-0.9c0.2-0.2,0.1-0.2,0.2-0.3c0.1-0.1,0.2,0,0.3-0.2c0.2-0.3-0.2-0.9,0-1.2c0.2-0.4,0.3-0.5,0.3-0.9
	c0-0.7,0-1.3,0.1-2c0.2-1.5,0.2-2.9,0.2-4.4c0.1-1.6,0.2-3.2,0.2-4.9c0-0.3-0.1-2.2,0.5-2.1c0.4,1.7,0.1,3.5,0.2,5.2
	c0.1,1.7,0,3.3,0.1,5c0,0.9,0,1.6,0,2.5c0,0.3-0.1,0.7,0,1c0.1,0.2,0.3,0.4,0.4,0.5c0.5,0.8-0.2,2,0.5,2.6c0.2,0.2,0.9,0.3,1.2,0.2
	c0.6-0.2,0.5-0.9,0.3-1.4c-0.2-0.7-0.2-0.9,0-1.6c0.2-0.8,0.2-1.4,0.2-2.2c0.1-1.3,0-2.7,0.1-4c0-0.4,0.1-0.8,0.2-1.2
	c0.1-0.6-0.2-1.2-0.2-1.9c0.1-0.9,0.4-1.8,0.5-2.6c0-0.2,0-0.5,0.1-0.7c0.2-0.4,0-0.2,0.4-0.3c0.2-0.1,0.5,0,0.7-0.2
	c0.4-0.2,0.5-0.7,0.6-1.2c0-0.2,0-0.5,0-0.7c0-0.4,0.2-0.9,0.1-1.2c0.4,0,0.6,0.1,0.6-0.3c0-0.2-0.2-0.6-0.2-0.9s0-0.6,0-0.9
	c0.1-0.9,0.3-1.8,0.4-2.7c0.2-1.9-0.1-4-0.4-6c-0.2-0.9-0.9-1.5-1.6-2c-0.4-0.3-0.7-0.4-1.2-0.5c-0.5-0.2-0.9-0.4-0.9-0.9
	c-0.1-0.5,0-1.1-0.1-1.5c-0.1-0.7-0.3-1.4-0.6-2c-0.6-1.2-1.4-2-2.6-1.6c-0.9,0.2-2.2,0.5-2.2,1.8c0,0.2,0.2,0.3,0.2,0.5
	s-0.1,0.5-0.1,0.6s0.2,0.3,0.2,0.5C323.1,510.3,323.1,510.5,323.1,510.7"/>
<path class="st0" d="M327.7,528c-0.2,0.5-0.3,0.9-0.1,1.5c0.2,0.4,0.1,0.3,0.5,0.5c0.2,0.2,0.5,0.3,0.9,0.3c0-0.1,0-0.2-0.1-0.3
	c0.5-0.1,0.7-0.7,0.2-0.7c0.2-0.5,0.1-0.9,0.4-1.2c0-0.1,0-0.2,0-0.2c0.1,0,0.2,0,0.2,0c0.2-0.2,0.2-0.5,0.3-0.7
	c0.3-1.1,0.8-2.1,1.1-3.2c0.2,0.6-0.1,1.2-0.1,1.8c0,0.7-0.1,1.3-0.1,2s-0.2,1.5,0,2.2c0.1,0.5,0.3,1,0.4,1.6
	c0.1,0.6,0.2,1.2,0.5,1.8c0.4,0.5,0.4,1.2,0.7,1.9c0.1,0.2,0.3,0.5,0.4,0.8c0.1,0.3,0,0.5,0,0.8s0.1,0.5,0,0.9
	c-0.1,0.4-0.4,0.7-0.5,1c-0.6,1.2-1.1,2.9-0.9,4.3c0.1,0.7-0.1,0.9-0.3,1.5c-0.3,0.6-0.4,1.2-0.4,1.9c0,0.6-0.5,0.9-0.9,1.2
	c-0.2,0.2-0.6,0.5-0.5,0.8c0.2,0.4,2.3,0.7,2.7,0.6c0.1,0,0.2,0,0.3-0.1c0.1,0,0.2-0.1,0.2-0.2c0.1,0,0.2,0,0.2,0
	c0.5-0.2,0.4-0.2,0.5-0.6c0.2-0.6,0.2-1,0.5-1.5c0.3-0.8,0.3-1.4,0.5-2.2c0.2-0.6,0.7-1.4,1.1-1.9c0.3,0.5,0.7,1.6,0.7,2.2
	c-0.1,0.6-0.9,0.8-1,1.4c-0.2,0.6,1.1,0.5,1.5,0.5c0.3,0,0.8,0,1-0.2c0.3-0.2,0.2-0.5,0.3-0.9c0.1-0.2,0.2-0.5,0.3-0.6l0.1-0.1
	c0.1-0.2,0.2-0.2,0.3,0c0.2-0.2,0.5-0.5,0.7-0.7c0.5-0.7-0.3-1.4-0.5-2c-0.3-0.7-0.5-1.5-0.9-2.2c-0.4-0.8-0.5-1.5-0.8-2.2
	c-0.1-0.3-0.2-0.4-0.2-0.8c0.1-0.4,0.2-0.8,0.3-1.2c0.2-1.1,0.5-2.2,0.8-3.2c0.2-0.9,0.4-1.9,0.6-2.7c0.1-0.4,0.2-0.9,0.3-1.2
	c0.2-0.5,0.3-0.2,0.6-0.4c0.3-0.2,0.4-0.3,0.5-0.6c0.2-0.2,0.3-0.5,0.5-0.8c0.2-0.5,0.6-1.3,0.8-1.9c0.3-0.8,0.5-1.7,0.6-2.5
	c0.2-0.9,0-1.8,0-2.7c-0.1-1-0.2-2-0.2-3c0-0.7,0-1.6-0.5-2.2c-0.6-0.5-1.5-0.8-2.3-1.1c-0.4-0.2-0.9-0.3-1.2-0.6
	c-0.2-0.2-0.3-0.6-0.7-0.8c0.2-0.2,0.2-0.5,0.3-0.8c0.2-0.3,0.4-0.6,0.5-1c0.2-0.8,0.5-1.5,0.2-2.2c-0.8-1.3-2.2-1.7-3.6-1.1
	c0.1,0.1,0.2,0.2,0.3,0.2c-0.4,0.2-0.9,0.9-1,1.3c-0.1,0.2-0.1,0.3-0.1,0.5c0.2,0.1,0.2,0.2,0.1,0.4c-0.1,0.1-0.1,0.2-0.2,0.4
	c-0.1,0.5-0.2,1.3-0.1,1.8c0.1,0.2,0.9,0.8,0.6,1.1c0,0.3-1.2,0.6-1.5,0.8c-0.5,0.2-1.5,0.4-1.9,0.9c-0.3,0.5-0.4,1.4-0.5,2
	c-0.2,0.8-0.4,1.5-0.5,2.3c-0.3,1.5-0.8,2.9-1,4.3c-0.1,0.8-0.2,1.6-0.3,2.4C328,526.4,328,527.3,327.7,528"/>
<path class="st0" d="M317.1,527c0.5,0.9,0.2,2-1,2.1c0-0.1,0-0.2,0.1-0.2c-0.2,0-0.3-0.2-0.5-0.3c-0.1-0.2,0.1-0.3,0.3-0.3
	c-0.2-0.4-0.1-0.7-0.3-1.1c0-0.2-0.1-0.4-0.4-0.2c-0.1-0.2-0.2-0.5-0.2-0.7c-0.3-0.9-0.7-1.9-0.9-2.8c-0.2,0.8,0.2,1.9,0.2,2.7
	s0.1,1.7,0,2.5c-0.1,0.6-0.3,1.2-0.4,1.9c-0.2,0.8-0.5,1.3-0.8,2c-0.2,0.6-0.6,1.5-0.7,2.1c-0.1,0.8,0.2,1.3,0.5,1.9
	c0.4,0.7,0.6,1.5,0.8,2.2c0.2,0.7-0.1,1.5,0.1,2.2c0.1,0.6,0.6,1.2,0.7,1.8c0.1,0.4-0.1,0.9,0.1,1.2c0.2,0.2,0.5,0.5,0.8,0.7
	c0.3,0.3,0.6,0.4,0.3,0.8c-0.2,0.3-1.4,0.4-1.7,0.5c-0.4,0.1-1.1,0.2-1.4-0.1c-0.5-0.3-0.4-1.1-0.6-1.6c-0.5-1.4-0.5-2.7-1.5-3.9
	c-0.3,0.5-0.7,1.6-0.5,2.2c0.2,0.4,1.2,0.9,0.8,1.4c-0.3,0.3-1.8,0.2-2.1,0c-0.3-0.2-0.2-0.6-0.4-1c-0.2-0.5-0.5-0.3-0.8-0.5
	c-0.9-0.7-0.5-1.1-0.1-1.9s0.5-1.6,0.9-2.3c0.3-0.7,0.5-1.3,0.7-2.1c0.2-0.9-0.1-1.5-0.3-2.5c-0.2-1.2-0.5-2.3-0.8-3.4
	c-0.2-0.5-0.2-2.2-0.8-2.6c-0.2-0.1-0.3,0-0.4-0.1c-0.2-0.2-0.3-0.3-0.5-0.7c-0.3-0.6-0.5-1.1-0.9-1.8c-0.4-0.9-0.5-1.8-0.8-2.7
	c-0.2-1.1,0-2.1,0-3.1c0-0.9,0.2-1.7,0.2-2.6c0.1-0.9,0.2-1.4,1-1.9c0.9-0.5,2-0.6,2.7-1.5c0.3-0.4,0.5-0.5,0.2-1
	c-0.1-0.2-0.3-0.5-0.5-0.8c-0.4-1.1-0.6-1.9,0.3-2.8c0.8-0.7,1.8-0.8,2.7-0.4c-0.2,0.5-0.2,0.2,0.2,0.7c0.2,0.2,0.2,0.4,0.4,0.5
	c0.2,0.5,0.2,0.5,0.2,1s0.3,1.2,0.2,1.7c-0.1,0.2-0.8,0.9-0.6,1.2c0.1,0.6,2.5,0.9,3,1.5c0.3,0.4,0.4,1.2,0.5,1.6
	c0.2,0.9,0.4,1.6,0.5,2.5c0.3,1.4,0.7,2.7,0.9,4.1C316.6,524.2,316.6,525.9,317.1,527"/>
<path class="st0" d="M363.5,518.1c-0.3,0.6-0.1,1.4,0.7,1.4c0-0.1,0-0.1,0-0.2c0.1,0,0.2-0.1,0.3-0.2c0-0.2,0-0.2-0.2-0.2
	c0.1-0.3,0.1-0.5,0.2-0.7c0-0.2,0.1-0.2,0.3-0.2c0-0.2,0.1-0.3,0.1-0.5c0.2-0.6,0.5-1.3,0.7-1.9c0.1,0.5-0.1,1.3-0.1,1.9
	c0,0.5-0.1,1.2,0,1.7c0.1,0.4,0.2,0.9,0.3,1.3c0.1,0.5,0.3,0.9,0.5,1.4c0.2,0.4,0.4,1,0.5,1.4c0.1,0.5-0.1,0.9-0.4,1.3
	c-0.3,0.5-0.4,1-0.5,1.5s0,1,0,1.5c-0.1,0.4-0.4,0.8-0.5,1.2c0,0.3,0,0.6-0.1,0.8c-0.1,0.2-0.4,0.4-0.5,0.5
	c-0.2,0.2-0.4,0.3-0.2,0.5c0.2,0.2,1,0.3,1.2,0.3c0.3,0,0.7,0.1,1-0.1c0.3-0.2,0.3-0.7,0.4-1.1c0.4-1,0.4-1.9,1-2.7
	c0.2,0.3,0.5,1.1,0.4,1.5c-0.1,0.3-0.8,0.6-0.5,1c0.2,0.2,1.2,0.1,1.4,0c0.2-0.2,0.2-0.4,0.3-0.7c0.2-0.4,0.3-0.2,0.5-0.4
	c0.6-0.5,0.3-0.7,0-1.3c-0.3-0.5-0.4-1.1-0.6-1.6s-0.4-0.9-0.5-1.4c-0.1-0.6,0.1-1.1,0.2-1.7c0.2-0.8,0.4-1.6,0.5-2.4
	c0.1-0.4,0.2-1.5,0.5-1.8c0.1-0.1,0.2,0,0.3-0.1c0.2-0.1,0.2-0.2,0.3-0.5c0.2-0.4,0.4-0.8,0.6-1.2c0.3-0.6,0.4-1.2,0.5-1.9
	c0.2-0.7,0-1.4,0-2.2c0-0.6-0.1-1.2-0.2-1.8c0-0.6-0.1-0.9-0.7-1.3c-0.6-0.3-1.4-0.4-1.9-1c-0.2-0.3-0.3-0.3-0.2-0.7
	c0.1-0.2,0.2-0.3,0.3-0.5c0.3-0.7,0.4-1.3-0.2-1.9c-0.5-0.5-1.2-0.5-1.9-0.2c0.2,0.3,0.1,0.1-0.1,0.5c-0.1,0.1-0.2,0.3-0.2,0.4
	c-0.1,0.3-0.1,0.4-0.1,0.7c0,0.4-0.2,0.8-0.1,1.2c0,0.2,0.5,0.7,0.4,0.8c-0.1,0.4-1.7,0.6-2.1,1c-0.2,0.3-0.3,0.8-0.3,1.1
	c-0.1,0.6-0.3,1.1-0.4,1.7c-0.2,0.9-0.5,1.9-0.6,2.8C363.9,516.2,363.9,517.4,363.5,518.1"/>
<path class="st0" d="M427.6,507c0,0.5,0,1-0.1,1.5c-0.1,0.4-0.4,0.7-0.6,1.1c0.5-0.5,0.8-1.4,0.9-2.4c0.4,0.4-0.1,1.3-0.1,1.8
	c0.1,0.4,0.5,0.8,0.2,1.2c-0.1,0.1-0.6,0.2-0.7,0.3c-0.2,0.2-0.6,0.5-0.8,0.7c-0.4,0.4-1,1-1.2,1.6c-0.2,0.4-0.2,1-0.2,1.4
	c-0.1,0.6-0.3,1.1-0.4,1.7c-0.3,1.5-0.4,3.1-0.6,4.6c-0.2,1.3-0.1,2.8-0.6,4.1c-0.1,0.4-0.4,0.6-0.5,1c-0.2,0.5,0,0.4,0.2,0.8
	c0.5,0.8,0,2-0.3,2.9c-0.1,0.4-0.7,1.1-0.2,1.5c0.5,0.4,0.8-0.5,1.3-0.4c-0.3-0.1,0.2-0.1,0.2-0.1c0.3-0.1,0.4-0.2,0.7-0.3
	c0.6-0.3,0.5-0.3,0.6-0.9c0-0.5-0.4-1.7-0.2-2c0.1-0.2,0.3-0.1,0.4-0.2c0.1-0.1,0.5-0.5,0.7-0.6c0.2,1-0.2,1.8-0.2,2.7
	c0,0.2,0.1,0.5,0.1,0.7s-0.2,0.5-0.2,0.7c0.1,0.8,0.5,0.2,1,0.3c0.2,1.8,0.8,3.6,0.8,5.4c0.1,1.8-0.2,3.6-0.2,5.4
	c0,0.9,0.1,1.6,0.2,2.5c0.2,0.9-0.2,1.7-0.1,2.6c0,0.8,0.1,1.5-0.1,2.3c-0.2,0.7-0.7,1.2-0.9,1.9c-0.2,0.7,0.4,1,1.1,0.9
	c0.9,0,1.1-0.5,1.5-1.2c0.2-0.3,0.1-0.2,0.3-0.4c0.1-0.1,0.3,0,0.4-0.3c0.2-0.4-0.2-1.1,0-1.5c0.2-0.5,0.4-0.6,0.4-1.2
	c0-0.9,0-1.7,0.1-2.6c0.2-1.9,0.2-3.8,0.3-5.7c0.1-2.1,0.3-4.2,0.3-6.3c0-0.4-0.1-2.8,0.6-2.7c0.5,2.2,0.1,4.5,0.2,6.7
	s0,4.3,0.1,6.5c0,1.1,0,2.1,0,3.2c0,0.4-0.1,0.9,0,1.3c0.1,0.3,0.4,0.5,0.5,0.7c0.6,1-0.3,2.6,0.6,3.4c0.3,0.3,1.2,0.4,1.6,0.3
	c0.8-0.3,0.6-1.1,0.4-1.8c-0.3-0.9-0.3-1.2,0-2.1c0.3-1,0.2-1.8,0.3-2.8c0.1-1.7,0-3.5,0.1-5.2c0-0.5,0.1-1,0.2-1.5
	c0.1-0.8-0.3-1.6-0.2-2.5c0.1-1.1,0.5-2.3,0.6-3.4c0-0.2,0-0.7,0.1-0.9c0.2-0.5,0-0.3,0.5-0.4c0.3-0.1,0.6,0,0.9-0.2
	c0.5-0.3,0.7-0.9,0.8-1.5c0-0.2,0-0.6,0-0.9c0-0.5,0.2-1.1,0.1-1.6c0.5,0,0.8,0.1,0.8-0.4c0-0.3-0.2-0.8-0.2-1.1c0-0.4,0-0.8,0-1.1
	c0.1-1.2,0.4-2.3,0.5-3.5c0.2-2.5-0.1-5.2-0.5-7.7c-0.2-1.2-1.1-1.9-2.1-2.6c-0.5-0.4-0.9-0.5-1.5-0.7s-1.1-0.5-1.2-1.2s0-1.4-0.1-2
	c-0.1-0.9-0.4-1.8-0.8-2.6c-0.8-1.5-1.8-2.6-3.4-2.1c-1.2,0.3-2.8,0.7-2.9,2.3c0,0.3,0.2,0.4,0.2,0.7c0,0.3-0.1,0.6-0.1,0.8
	c0,0.1,0.2,0.4,0.2,0.6C427.6,506.4,427.5,506.7,427.6,507"/>
<path class="st0" d="M384.2,527.3c0.6,1.2,0.2,2.6-1.3,2.7c0-0.1,0-0.2,0.1-0.3c-0.2,0-0.4-0.2-0.6-0.4c-0.1-0.3,0.1-0.4,0.4-0.4
	c-0.2-0.5-0.1-0.9-0.4-1.4c0-0.3-0.1-0.5-0.5-0.3c-0.1-0.3-0.2-0.6-0.2-0.9c-0.4-1.2-0.9-2.4-1.2-3.6c-0.2,1,0.2,2.4,0.2,3.5
	c0,1,0.1,2.2,0,3.2c-0.1,0.8-0.4,1.6-0.5,2.5c-0.2,1-0.7,1.7-1,2.6c-0.3,0.8-0.8,1.9-0.9,2.7c-0.1,1,0.2,1.7,0.7,2.5
	c0.5,0.9,0.8,1.9,1,2.9c0.2,0.9-0.1,2,0.1,2.8c0.1,0.8,0.8,1.5,0.9,2.3c0.1,0.5-0.1,1.1,0.1,1.5c0.2,0.3,0.7,0.7,1,0.9
	c0.4,0.4,0.8,0.5,0.4,1c-0.3,0.4-1.8,0.5-2.2,0.6c-0.5,0.1-1.4,0.2-1.8-0.1c-0.6-0.4-0.5-1.4-0.8-2.1c-0.7-1.8-0.7-3.5-2-5.1
	c-0.4,0.6-0.9,2.1-0.7,2.8c0.2,0.5,1.5,1.2,1,1.8c-0.4,0.4-2.3,0.3-2.7,0c-0.4-0.3-0.3-0.8-0.5-1.3c-0.3-0.7-0.6-0.4-1-0.7
	c-1.1-0.9-0.6-1.4-0.1-2.4s0.7-2.1,1.2-3c0.4-0.9,0.7-1.7,0.9-2.7c0.2-1.1-0.1-2-0.4-3.2c-0.3-1.5-0.7-3-1-4.4
	c-0.2-0.7-0.3-2.8-1-3.3c-0.2-0.1-0.4,0-0.5-0.1c-0.3-0.3-0.4-0.4-0.6-0.9c-0.4-0.8-0.7-1.4-1.1-2.3c-0.5-1.1-0.7-2.3-1-3.5
	c-0.3-1.4,0-2.7,0-4c0-1.1,0.2-2.2,0.3-3.3c0.1-1.2,0.3-1.8,1.3-2.4c1.2-0.6,2.6-0.8,3.5-1.9c0.4-0.5,0.6-0.6,0.3-1.3
	c-0.1-0.3-0.4-0.6-0.6-1c-0.5-1.4-0.8-2.5,0.4-3.6c1-0.9,2.3-1,3.5-0.5c-0.3,0.6-0.2,0.3,0.2,0.9c0.2,0.2,0.3,0.5,0.5,0.7
	c0.3,0.6,0.2,0.7,0.2,1.3c0,0.7,0.4,1.5,0.2,2.2c-0.1,0.3-1,1.2-0.8,1.5c0.1,0.8,3.2,1.1,3.9,1.9c0.4,0.5,0.5,1.5,0.6,2.1
	c0.3,1.1,0.5,2.1,0.7,3.2c0.4,1.8,0.9,3.5,1.1,5.3C383.6,523.7,383.5,525.9,384.2,527.3"/>
<path class="st0" d="M402.1,517.2c-0.5,1-0.2,2.1,1.1,2.2c0-0.1,0-0.2-0.1-0.3c0.2,0,0.3-0.1,0.5-0.3c0.1-0.2-0.1-0.4-0.3-0.4
	c0.1-0.4,0.1-0.7,0.3-1.1c0-0.3,0.1-0.4,0.4-0.3c0.1-0.2,0.1-0.5,0.2-0.7c0.3-1,0.7-1.9,1-2.9c0.2,0.8-0.1,2-0.2,2.8
	c0,0.8-0.1,1.8,0,2.6c0.1,0.7,0.3,1.3,0.4,2c0.1,0.8,0.5,1.4,0.8,2.1c0.2,0.7,0.7,1.5,0.7,2.2c0.1,0.8-0.2,1.3-0.5,2
	c-0.4,0.7-0.6,1.5-0.8,2.3c-0.1,0.8,0.1,1.6,0,2.3c-0.1,0.6-0.6,1.2-0.7,1.8c-0.1,0.4,0.1,0.9-0.1,1.2c-0.1,0.3-0.6,0.5-0.8,0.7
	c-0.3,0.3-0.6,0.4-0.3,0.8c0.2,0.3,1.5,0.4,1.8,0.5c0.4,0.1,1.1,0.1,1.5-0.1c0.5-0.3,0.4-1.1,0.6-1.7c0.6-1.5,0.6-2.9,1.6-4.1
	c0.3,0.5,0.8,1.7,0.6,2.3c-0.1,0.4-1.2,1-0.8,1.5c0.3,0.3,1.8,0.2,2.2,0c0.4-0.3,0.3-0.7,0.4-1.1c0.2-0.6,0.5-0.3,0.8-0.6
	c0.9-0.7,0.5-1.1,0.1-1.9s-0.6-1.7-1-2.5c-0.4-0.7-0.6-1.4-0.7-2.2c-0.2-0.9,0.1-1.6,0.3-2.6c0.3-1.2,0.5-2.4,0.8-3.6
	c0.1-0.6,0.3-2.3,0.8-2.7c0.1-0.1,0.3,0,0.4-0.1c0.3-0.2,0.3-0.3,0.5-0.7c0.3-0.6,0.6-1.2,0.9-1.9c0.4-0.9,0.6-1.9,0.8-2.8
	c0.2-1.1,0-2.2,0-3.3c0-0.9-0.2-1.8-0.2-2.7c-0.1-1-0.2-1.4-1.1-1.9c-1-0.5-2.1-0.6-2.8-1.5c-0.3-0.4-0.5-0.5-0.2-1.1
	c0.1-0.2,0.4-0.5,0.5-0.8c0.4-1.1,0.7-2.1-0.3-2.9c-0.8-0.7-1.9-0.8-2.8-0.4c0.2,0.5,0.2,0.2-0.2,0.7c-0.1,0.2-0.3,0.4-0.4,0.6
	c-0.2,0.5-0.1,0.6-0.1,1c0,0.5-0.3,1.2-0.2,1.8c0.1,0.2,0.8,1,0.6,1.2c-0.1,0.7-2.6,0.9-3.1,1.5c-0.4,0.4-0.4,1.2-0.5,1.7
	c-0.2,0.9-0.4,1.7-0.6,2.6c-0.3,1.4-0.7,2.8-0.9,4.3C402.6,514.3,402.6,516.1,402.1,517.2"/>
<path class="st0" d="M393.5,506.2c0,0.5,0,1-0.1,1.5c-0.1,0.4-0.4,0.7-0.6,1.1c0.5-0.5,0.8-1.4,0.9-2.4c0.4,0.4-0.1,1.3-0.1,1.8
	c0.1,0.4,0.5,0.8,0.2,1.2c-0.1,0.1-0.6,0.2-0.7,0.3c-0.2,0.2-0.6,0.5-0.8,0.7c-0.4,0.4-1,1-1.2,1.6c-0.2,0.4-0.2,1-0.2,1.4
	c-0.1,0.6-0.3,1.1-0.4,1.7c-0.3,1.5-0.4,3.1-0.6,4.6c-0.2,1.3-0.1,2.8-0.6,4.1c-0.1,0.4-0.4,0.6-0.5,1c-0.2,0.5,0,0.4,0.2,0.8
	c0.5,0.8,0,2-0.3,2.9c-0.1,0.4-0.7,1.1-0.2,1.5c0.5,0.4,0.8-0.5,1.3-0.4c-0.3-0.1,0.2-0.1,0.2-0.1c0.3-0.1,0.4-0.2,0.7-0.3
	c0.6-0.3,0.5-0.3,0.6-0.9c0-0.5-0.4-1.7-0.2-2c0.1-0.2,0.3-0.1,0.4-0.2c0.1-0.1,0.5-0.5,0.7-0.6c0.2,1-0.2,1.8-0.2,2.7
	c0,0.2,0.1,0.5,0.1,0.7s-0.2,0.5-0.2,0.7c0.1,0.8,0.5,0.2,1,0.3c0.2,1.8,0.8,3.6,0.8,5.4c0.1,1.8-0.2,3.6-0.2,5.4
	c0,0.9,0.1,1.6,0.2,2.5c0.2,0.9-0.2,1.7-0.1,2.6c0,0.8,0.1,1.5-0.1,2.3c-0.2,0.7-0.7,1.2-0.9,1.9c-0.2,0.7,0.4,1,1.1,0.9
	c0.9,0,1.1-0.5,1.5-1.2c0.2-0.3,0.1-0.2,0.3-0.4c0.1-0.1,0.3,0,0.4-0.3c0.2-0.4-0.2-1.1,0-1.5c0.2-0.5,0.4-0.6,0.4-1.2
	c0-0.9,0-1.7,0.1-2.6c0.2-1.9,0.2-3.8,0.3-5.7c0.1-2.1,0.3-4.2,0.3-6.3c0-0.4-0.1-2.8,0.6-2.7c0.5,2.2,0.1,4.5,0.2,6.7
	s0,4.3,0.1,6.5c0,1.1,0,2.1,0,3.2c0,0.4-0.1,0.9,0,1.3c0.1,0.3,0.4,0.5,0.5,0.7c0.6,1-0.3,2.6,0.6,3.4c0.3,0.3,1.2,0.4,1.6,0.3
	c0.8-0.3,0.6-1.1,0.4-1.8c-0.3-0.9-0.3-1.2,0-2.1c0.3-1,0.2-1.8,0.3-2.8c0.1-1.7,0-3.5,0.1-5.2c0-0.5,0.1-1,0.2-1.5
	c0.1-0.8-0.3-1.6-0.2-2.5c0.1-1.1,0.5-2.3,0.6-3.4c0-0.2,0-0.7,0.1-0.9c0.2-0.5,0-0.3,0.5-0.4c0.3-0.1,0.6,0,0.9-0.2
	c0.5-0.3,0.7-0.9,0.8-1.5c0-0.2,0-0.6,0-0.9c0-0.5,0.2-1.1,0.1-1.6c0.5,0,0.8,0.1,0.8-0.4c0-0.3-0.2-0.8-0.2-1.1c0-0.4,0-0.8,0-1.1
	c0.1-1.2,0.4-2.3,0.5-3.5c0.2-2.5-0.1-5.2-0.5-7.7c-0.2-1.2-1.1-1.9-2.1-2.6c-0.5-0.4-0.9-0.5-1.5-0.7s-1.1-0.5-1.2-1.2s0-1.4-0.1-2
	c-0.1-0.9-0.4-1.8-0.8-2.6c-0.8-1.5-1.8-2.6-3.4-2.1c-1.2,0.3-2.8,0.7-2.9,2.3c0,0.3,0.2,0.4,0.2,0.7c0,0.3-0.1,0.6-0.1,0.8
	c0,0.1,0.2,0.4,0.2,0.6C393.5,505.6,393.4,505.9,393.5,506.2"/>
<path class="st0" d="M421.1,501c0,0.4,0,0.8,0.1,1.1c0.1,0.3,0.3,0.5,0.5,0.8c-0.4-0.4-0.6-1.1-0.7-1.8c-0.3,0.3,0.1,1,0.1,1.4
	c0,0.3-0.4,0.6-0.2,0.9c0,0.1,0.5,0.2,0.5,0.2c0.2,0.1,0.5,0.4,0.6,0.5c0.3,0.3,0.7,0.8,0.9,1.2c0.1,0.3,0.1,0.8,0.2,1.1
	c0.1,0.4,0.2,0.8,0.3,1.3c0.2,1.1,0.3,2.3,0.5,3.5c0.1,1,0.1,2.2,0.4,3.1c0.1,0.3,0.3,0.5,0.4,0.8c0.1,0.4,0,0.3-0.2,0.6
	c-0.4,0.6,0,1.6,0.3,2.2c0.1,0.3,0.6,0.8,0.2,1.1c-0.4,0.3-0.6-0.4-1-0.3c0.2-0.1-0.1,0-0.2-0.1c-0.2-0.1-0.3-0.1-0.5-0.2
	c-0.4-0.2-0.4-0.2-0.5-0.7c0-0.3,0.3-1.3,0.2-1.5c-0.1-0.2-0.2-0.1-0.3-0.2c-0.1-0.1-0.4-0.4-0.6-0.5c-0.2,0.7,0.1,1.4,0.2,2.1
	c0,0.2-0.1,0.4,0,0.5c0,0.1,0.2,0.4,0.1,0.5c-0.1,0.6-0.4,0.2-0.7,0.2c-0.2,1.4-0.6,2.7-0.6,4.1c0,1.4,0.2,2.8,0.1,4.2
	c0,0.7-0.1,1.2-0.2,1.9s0.1,1.3,0.1,2c0,0.6-0.1,1.2,0.1,1.8c0.2,0.5,0.6,1,0.7,1.5c0.2,0.6-0.3,0.7-0.8,0.7c-0.7,0-0.8-0.4-1.2-0.9
	c-0.1-0.2-0.1-0.2-0.2-0.3s-0.2,0-0.3-0.2c-0.2-0.3,0.1-0.8,0-1.2c-0.2-0.4-0.3-0.4-0.3-0.9c0-0.7,0-1.3-0.1-2
	c-0.1-1.5-0.2-2.9-0.3-4.4c-0.1-1.6-0.2-3.2-0.2-4.8c0-0.3,0-2.1-0.5-2.1c-0.4,1.7-0.1,3.4-0.2,5.1s0,3.3,0,5c0,0.8,0,1.6,0,2.4
	c0,0.3,0.1,0.7,0,1s-0.3,0.4-0.4,0.6c-0.5,0.7,0.2,2-0.4,2.6c-0.3,0.2-0.9,0.3-1.2,0.2c-0.6-0.2-0.4-0.9-0.3-1.4
	c0.2-0.7,0.2-0.9,0-1.6s-0.2-1.4-0.2-2.1c-0.1-1.3,0-2.7,0-4c0-0.4-0.1-0.8-0.1-1.1c-0.1-0.6,0.2-1.3,0.1-1.9
	c-0.1-0.8-0.4-1.7-0.5-2.6c0-0.2,0-0.5-0.1-0.7c-0.1-0.4,0-0.2-0.4-0.3c-0.3-0.1-0.5,0-0.7-0.2c-0.4-0.3-0.5-0.7-0.6-1.2
	c0-0.2,0-0.5,0-0.7c0-0.4-0.2-0.8-0.1-1.2c-0.4,0-0.6,0.1-0.6-0.3c0-0.2,0.1-0.6,0.1-0.8c0-0.3,0-0.6,0-0.9
	c-0.1-0.9-0.3-1.8-0.4-2.7c-0.2-1.9,0.1-4,0.4-5.9c0.2-0.9,0.9-1.5,1.6-2c0.4-0.3,0.7-0.4,1.1-0.6c0.5-0.2,0.8-0.4,0.9-0.9
	s0-1,0.1-1.6c0.1-0.7,0.3-1.4,0.6-2c0.6-1.1,1.3-2,2.6-1.6c0.9,0.2,2.1,0.6,2.2,1.8c0,0.2-0.1,0.3-0.2,0.5c0,0.2,0.1,0.5,0,0.6
	c0,0.1-0.1,0.3-0.2,0.4C421.1,500.5,421.2,500.7,421.1,501"/>
<path class="st0" d="M423.8,518.1c-0.3,0.6-0.1,1.4,0.7,1.4c0-0.1,0-0.1,0-0.2c0.1,0,0.2-0.1,0.3-0.2c0-0.2,0-0.2-0.2-0.2
	c0.1-0.3,0.1-0.5,0.2-0.7c0-0.2,0.1-0.2,0.3-0.2c0-0.2,0.1-0.3,0.1-0.5c0.2-0.6,0.5-1.3,0.7-1.9c0.1,0.5-0.1,1.3-0.1,1.9
	c0,0.5-0.1,1.2,0,1.7c0.1,0.4,0.2,0.9,0.3,1.3c0.1,0.5,0.3,0.9,0.5,1.4c0.2,0.4,0.4,1,0.5,1.4c0.1,0.5-0.1,0.9-0.4,1.3
	c-0.3,0.5-0.4,1-0.5,1.5s0,1,0,1.5c-0.1,0.4-0.4,0.8-0.5,1.2c0,0.3,0,0.6-0.1,0.8c-0.1,0.2-0.4,0.4-0.5,0.5
	c-0.2,0.2-0.4,0.3-0.2,0.5c0.2,0.2,1,0.3,1.2,0.3c0.3,0,0.7,0.1,1-0.1s0.3-0.7,0.4-1.1c0.4-1,0.4-1.9,1-2.7c0.2,0.3,0.5,1.1,0.4,1.5
	c-0.1,0.3-0.8,0.6-0.5,1c0.2,0.2,1.2,0.1,1.4,0c0.2-0.2,0.2-0.4,0.3-0.7c0.2-0.4,0.3-0.2,0.5-0.4c0.6-0.5,0.3-0.7,0-1.3
	c-0.3-0.5-0.4-1.1-0.6-1.6s-0.4-0.9-0.5-1.4c-0.1-0.6,0.1-1.1,0.2-1.7c0.2-0.8,0.4-1.6,0.5-2.4c0.1-0.4,0.2-1.5,0.5-1.8
	c0.1-0.1,0.2,0,0.3-0.1c0.2-0.1,0.2-0.2,0.3-0.5c0.2-0.4,0.4-0.8,0.6-1.2c0.3-0.6,0.4-1.2,0.5-1.9c0.2-0.7,0-1.4,0-2.2
	c0-0.6-0.1-1.2-0.2-1.8c0-0.6-0.1-0.9-0.7-1.3c-0.6-0.3-1.4-0.4-1.9-1c-0.2-0.3-0.3-0.3-0.2-0.7c0.1-0.2,0.2-0.3,0.3-0.5
	c0.3-0.7,0.4-1.3-0.2-1.9c-0.5-0.5-1.2-0.5-1.9-0.2c0.2,0.3,0.1,0.1-0.1,0.5c-0.1,0.1-0.2,0.3-0.2,0.4c-0.1,0.3-0.1,0.4-0.1,0.7
	c0,0.4-0.2,0.8-0.1,1.2c0,0.2,0.5,0.7,0.4,0.8c-0.1,0.4-1.7,0.6-2.1,1c-0.2,0.3-0.3,0.8-0.3,1.1c-0.1,0.6-0.3,1.1-0.4,1.7
	c-0.2,0.9-0.5,1.9-0.6,2.8C424.1,516.2,424.1,517.4,423.8,518.1"/>
<path class="st0" d="M480.5,506.2c0,0.5,0,1-0.1,1.5c-0.1,0.4-0.4,0.7-0.6,1.1c0.5-0.5,0.8-1.4,0.9-2.4c0.4,0.4-0.1,1.3-0.1,1.8
	c0.1,0.4,0.5,0.8,0.2,1.2c-0.1,0.1-0.6,0.2-0.7,0.3c-0.2,0.2-0.6,0.5-0.8,0.7c-0.4,0.4-1,1-1.2,1.6c-0.2,0.4-0.2,1-0.2,1.4
	c-0.1,0.6-0.3,1.1-0.4,1.7c-0.3,1.5-0.4,3.1-0.6,4.6c-0.2,1.3-0.1,2.8-0.6,4.1c-0.1,0.4-0.4,0.6-0.5,1c-0.2,0.5,0,0.4,0.2,0.8
	c0.5,0.8,0,2-0.3,2.9c-0.1,0.4-0.7,1.1-0.2,1.5c0.5,0.4,0.8-0.5,1.3-0.4c-0.3-0.1,0.2-0.1,0.2-0.1c0.3-0.1,0.4-0.2,0.7-0.3
	c0.6-0.3,0.5-0.3,0.6-0.9c0-0.5-0.4-1.7-0.2-2c0.1-0.2,0.3-0.1,0.4-0.2c0.1-0.1,0.5-0.5,0.7-0.6c0.2,1-0.2,1.8-0.2,2.7
	c0,0.2,0.1,0.5,0.1,0.7s-0.2,0.5-0.2,0.7c0.1,0.8,0.5,0.2,1,0.3c0.2,1.8,0.8,3.6,0.8,5.4c0.1,1.8-0.2,3.6-0.2,5.4
	c0,0.9,0.1,1.6,0.2,2.5c0.2,0.9-0.2,1.7-0.1,2.6c0,0.8,0.1,1.5-0.1,2.3c-0.2,0.7-0.7,1.2-0.9,1.9c-0.2,0.7,0.4,1,1.1,0.9
	c0.9,0,1.1-0.5,1.5-1.2c0.2-0.3,0.1-0.2,0.3-0.4c0.1-0.1,0.3,0,0.4-0.3c0.2-0.4-0.2-1.1,0-1.5c0.2-0.5,0.4-0.6,0.4-1.2
	c0-0.9,0-1.7,0.1-2.6c0.2-1.9,0.2-3.8,0.3-5.7c0.1-2.1,0.3-4.2,0.3-6.3c0-0.4-0.1-2.8,0.6-2.7c0.5,2.2,0.1,4.5,0.2,6.7
	s0,4.3,0.1,6.5c0,1.1,0,2.1,0,3.2c0,0.4-0.1,0.9,0,1.3c0.1,0.3,0.4,0.5,0.5,0.7c0.6,1-0.3,2.6,0.6,3.4c0.3,0.3,1.2,0.4,1.6,0.3
	c0.8-0.3,0.6-1.1,0.4-1.8c-0.3-0.9-0.3-1.2,0-2.1c0.3-1,0.2-1.8,0.3-2.8c0.1-1.7,0-3.5,0.1-5.2c0-0.5,0.1-1,0.2-1.5
	c0.1-0.8-0.3-1.6-0.2-2.5c0.1-1.1,0.5-2.3,0.6-3.4c0-0.2,0-0.7,0.1-0.9c0.2-0.5,0-0.3,0.5-0.4c0.3-0.1,0.6,0,0.9-0.2
	c0.5-0.3,0.7-0.9,0.8-1.5c0-0.2,0-0.6,0-0.9c0-0.5,0.2-1.1,0.1-1.6c0.5,0,0.8,0.1,0.8-0.4c0-0.3-0.2-0.8-0.2-1.1c0-0.4,0-0.8,0-1.1
	c0.1-1.2,0.4-2.3,0.5-3.5c0.2-2.5-0.1-5.2-0.5-7.7c-0.2-1.2-1.1-1.9-2.1-2.6c-0.5-0.4-0.9-0.5-1.5-0.7s-1.1-0.5-1.2-1.2s0-1.4-0.1-2
	c-0.1-0.9-0.4-1.8-0.8-2.6c-0.8-1.5-1.8-2.6-3.4-2.1c-1.2,0.3-2.8,0.7-2.9,2.3c0,0.3,0.2,0.4,0.2,0.7c0,0.3-0.1,0.6-0.1,0.8
	c0,0.1,0.2,0.4,0.2,0.6C480.5,505.6,480.5,505.9,480.5,506.2"/>
<path class="st0" d="M486.4,528.6c-0.3,0.7-0.4,1.2-0.1,2c0.2,0.5,0.1,0.4,0.6,0.6c0.3,0.2,0.7,0.4,1.1,0.4c0-0.1,0-0.3-0.1-0.4
	c0.6-0.1,0.9-0.9,0.2-0.9c0.2-0.6,0.1-1.1,0.5-1.6c0-0.1,0-0.2,0-0.3c0.1,0,0.2,0,0.3,0c0.2-0.2,0.3-0.6,0.4-0.9
	c0.4-1.4,1-2.7,1.4-4.1c0.2,0.8-0.1,1.6-0.1,2.3c0,0.9-0.1,1.7-0.1,2.6c0,0.9-0.2,1.9,0,2.8c0.1,0.7,0.4,1.3,0.5,2.1
	s0.2,1.6,0.7,2.3c0.5,0.7,0.5,1.6,0.9,2.4c0.1,0.3,0.4,0.7,0.5,1c0.1,0.4,0,0.6,0,1c0,0.4,0.1,0.7,0,1.1c-0.1,0.5-0.5,0.9-0.7,1.3
	c-0.8,1.6-1.4,3.7-1.2,5.5c0.1,0.9-0.1,1.1-0.4,1.9c-0.4,0.8-0.5,1.5-0.5,2.4c0,0.8-0.6,1.1-1.1,1.6c-0.3,0.3-0.8,0.6-0.6,1
	c0.3,0.5,3,0.9,3.5,0.8c0.1,0,0.3,0,0.4-0.1c0.1,0,0.2-0.1,0.3-0.2c0.1,0,0.2,0,0.3,0c0.6-0.2,0.5-0.3,0.6-0.8
	c0.2-0.8,0.3-1.3,0.6-2c0.4-1,0.4-1.8,0.6-2.8c0.2-0.8,0.9-1.8,1.4-2.4c0.4,0.6,0.9,2.1,0.9,2.9c-0.1,0.8-1.1,1-1.3,1.8
	c-0.2,0.8,1.4,0.7,2,0.7c0.4,0,1,0,1.3-0.3c0.4-0.3,0.3-0.7,0.4-1.2c0.1-0.2,0.2-0.6,0.4-0.8l0.1-0.1c0.1-0.2,0.2-0.2,0.4,0
	c0.3-0.2,0.7-0.6,0.9-0.9c0.6-0.9-0.4-1.8-0.7-2.6c-0.4-0.9-0.7-1.9-1.1-2.8c-0.5-1-0.6-1.9-1-2.9c-0.1-0.4-0.2-0.5-0.2-1
	c0.1-0.5,0.3-1,0.4-1.5c0.3-1.4,0.6-2.8,1-4.2c0.3-1.2,0.5-2.4,0.8-3.5c0.1-0.5,0.2-1.1,0.4-1.5c0.3-0.6,0.4-0.3,0.8-0.5
	s0.5-0.4,0.7-0.8c0.2-0.3,0.4-0.6,0.6-1c0.3-0.6,0.8-1.7,1-2.5c0.4-1,0.6-2.2,0.8-3.2c0.3-1.2,0-2.3,0-3.5c-0.1-1.3-0.3-2.6-0.3-3.9
	c0-0.9,0-2.1-0.7-2.8c-0.8-0.7-2-1-3-1.4c-0.5-0.2-1.1-0.4-1.5-0.8c-0.3-0.3-0.4-0.8-0.9-1c0.2-0.3,0.3-0.7,0.4-1
	c0.2-0.4,0.5-0.8,0.6-1.3c0.3-1,0.7-1.9,0.2-2.8c-1-1.7-2.9-2.2-4.7-1.4c0.1,0.1,0.2,0.2,0.4,0.3c-0.5,0.3-1.1,1.2-1.3,1.7
	c-0.1,0.3-0.1,0.4-0.1,0.7c0.2,0.1,0.2,0.3,0.1,0.5c-0.1,0.1-0.1,0.3-0.2,0.5c-0.1,0.6-0.3,1.7-0.1,2.3c0.1,0.3,1.2,1,0.8,1.4
	c0,0.4-1.5,0.8-2,1c-0.7,0.3-2,0.5-2.5,1.2c-0.4,0.7-0.5,1.8-0.7,2.6c-0.2,1-0.5,2-0.7,3c-0.4,1.9-1,3.7-1.3,5.6
	c-0.1,1-0.3,2.1-0.4,3.1C486.8,526.5,486.8,527.7,486.4,528.6"/>
<path class="st0" d="M453.7,527.3c0.6,1.2,0.2,2.6-1.3,2.7c0-0.1,0-0.2,0.1-0.3c-0.2,0-0.4-0.2-0.6-0.4c-0.1-0.3,0.1-0.4,0.4-0.4
	c-0.2-0.5-0.1-0.9-0.4-1.4c0-0.3-0.1-0.5-0.5-0.3c-0.1-0.3-0.2-0.6-0.2-0.9c-0.4-1.2-0.9-2.4-1.2-3.6c-0.2,1,0.2,2.4,0.2,3.5
	c0,1,0.1,2.2,0,3.2c-0.1,0.8-0.4,1.6-0.5,2.5c-0.2,1-0.7,1.7-1,2.6c-0.3,0.8-0.8,1.9-0.9,2.7c-0.1,1,0.2,1.7,0.7,2.5
	c0.5,0.9,0.8,1.9,1,2.9c0.2,0.9-0.1,2,0.1,2.8c0.1,0.8,0.8,1.5,0.9,2.3c0.1,0.5-0.1,1.1,0.1,1.5c0.2,0.3,0.7,0.7,1,0.9
	c0.4,0.4,0.8,0.5,0.4,1c-0.3,0.4-1.8,0.5-2.2,0.6c-0.5,0.1-1.4,0.2-1.8-0.1c-0.6-0.4-0.5-1.4-0.8-2.1c-0.7-1.8-0.7-3.5-2-5.1
	c-0.4,0.6-0.9,2.1-0.7,2.8c0.2,0.5,1.5,1.2,1,1.8c-0.4,0.4-2.3,0.3-2.7,0c-0.4-0.3-0.3-0.8-0.5-1.3c-0.3-0.7-0.6-0.4-1-0.7
	c-1.1-0.9-0.6-1.4-0.1-2.4s0.7-2.1,1.2-3c0.4-0.9,0.7-1.7,0.9-2.7c0.2-1.1-0.1-2-0.4-3.2c-0.3-1.5-0.7-3-1-4.4
	c-0.2-0.7-0.3-2.8-1-3.3c-0.2-0.1-0.4,0-0.5-0.1c-0.3-0.3-0.4-0.4-0.6-0.9c-0.4-0.8-0.7-1.4-1.1-2.3c-0.5-1.1-0.7-2.3-1-3.5
	c-0.3-1.4,0-2.7,0-4c0-1.1,0.2-2.2,0.3-3.3c0.1-1.2,0.3-1.8,1.3-2.4c1.2-0.6,2.6-0.8,3.5-1.9c0.4-0.5,0.6-0.6,0.3-1.3
	c-0.1-0.3-0.4-0.6-0.6-1c-0.5-1.4-0.8-2.5,0.4-3.6c1-0.9,2.3-1,3.5-0.5c-0.3,0.6-0.2,0.3,0.2,0.9c0.2,0.2,0.3,0.5,0.5,0.7
	c0.3,0.6,0.2,0.7,0.2,1.3c0,0.7,0.4,1.5,0.2,2.2c-0.1,0.3-1,1.2-0.8,1.5c0.1,0.8,3.2,1.1,3.9,1.9c0.4,0.5,0.5,1.5,0.6,2.1
	c0.3,1.1,0.5,2.1,0.7,3.2c0.4,1.8,0.9,3.5,1.1,5.3C453.1,523.7,453,525.9,453.7,527.3"/>
<path class="st0" d="M465.1,468.9l1.1,43.5l0.5,28.7l0.2,4.8c0,0-0.2,1.2-3.1,1.3c0,0-4.2,0.1-4.6-1l1.3-44.8l1.3-30.8
	c0,0-0.9,0.7-1.3,1c0,0-1.9,1-2.9-0.3c0,0-1.4-1.4,0.2-2.7l2.7-1.7c0,0,2-0.9-7.7-0.6l-15.8,0.1l-8.9,0.1c0,0-0.8,0.2-0.9-0.4
	c0,0-0.4-1.3,0.6-1.4l22.4-1.1c0,0,7.1-0.5,7.8-0.2c0,0,2.6,1.3,3.1,1.3c0,0,2.9,0,3.1-0.3c0,0,1.2-1,1.9-1.3l0.5-2.1l5.9-18.1
	l2.6-8.6c0,0,0.5-1.8,1.5-0.5c0,0,0,1.3-1.3,7.1l-4.6,17.7c0,0-0.1,0.5-0.5,0.9c0,0-2,2.2-1.8,3.1c0,0-0.1,0.9,0.1,1.2
	c0,0,1.6,1.8-0.1,2.9c0,0,3.5,5,4.8,7.2c0,0,11,16.6,12.3,18.9c0,0,3.5,5.5,3.8,6.2c0,0,1.3,1.7,0.1,2.2l-6.4-8.3l-12.9-17.7
	c0,0-0.2-2.9-0.6-3.5l-2.7-4L465.1,468.9z"/>
<path class="st1" d="M325.9,443.7c0.1-0.9,1.3,7.1,2,7.2c0.8,0.1,4-5.4,4.7-5.9c0.7-0.5-1.3,6.9-0.9,7.1s5.9-2.7,6.5-3.4
	c0.5-0.5-3.2,6.2-3,6.6c0.3,0.4,8-2,7.5-1.5c-1,0.9-6.1,4.3-5.9,4.9c0.1,0.6,7.8,1.6,7.7,1.9c-0.1,0.4-7.5,2.2-7.6,2.5
	s5.9,4,6.5,4.1c-1.4,0.1-7.3-1.5-7.7-0.7c-0.5,0.8,4.4,6.4,4.2,6.7c-0.2,0.3-6.8-3.7-7.1-3.5c-0.4,0.2,1.9,8.3,1.6,7.6
	c-0.6-1.3-4.8-6.1-5.1-6c-0.3,0.1-1.4,7-1.7,5.7c-0.4-1.6-1.8-5.7-2.5-5.6c-0.8,0.2-3.2,4.2-3.6,5c-0.4,0.7,0.6-5.9,0.1-6.2
	c-0.5-0.3-4.6,1.8-5.4,2.7c-0.9,0.9,2.6-4.9,2.2-5.6c-0.4-0.6-5.5,0.4-6.1,0.7c-0.6,0.3,4.5-3.6,4.4-4.2s-4.8-2-5.6-1.8
	c-0.9,0.2,5.3-1.8,5.3-2.2c0.1-0.4-3.7-3.8-4.5-3.9c-0.7-0.1,5.5,0.4,5.8-0.1c0.3-0.5-2.2-4.6-2.8-5.1c-0.6-0.6,5,2.5,5.5,2.1
	c0.5-0.3-0.1-5.1-0.4-5.9c-0.2-0.8,3.3,4.2,4.1,4C324.8,451,325.8,444.4,325.9,443.7"/>
<path class="st2" d="M324.7,450.3"/>
<path class="st3" d="M318.8,461.1"/>
<circle class="st4" cx="326.6" cy="461.1" r="7.9"/>
<path class="st0" d="M348.3,493.7l0.6,25l0.3,16.5l0.1,2.7c0,0-0.1,0.7-1.8,0.7c0,0-2.4,0-2.7-0.6l0.8-25.7l0.8-17.7
	c0,0-0.5,0.4-0.8,0.6c0,0-1.1,0.6-1.6-0.2c0,0-0.8-0.8,0.1-1.6l1.5-1c0,0,1.2-0.5-4.4-0.4h-9.1H327c0,0-0.5,0.1-0.5-0.2
	c0,0-0.2-0.8,0.4-0.8l12.8-0.6c0,0,4.1-0.3,4.5-0.1c0,0,1.5,0.7,1.8,0.7c0,0,1.6,0,1.8-0.2c0,0,0.7-0.6,1.1-0.7l0.3-1.2l3.4-10.4
	l1.5-4.9c0,0,0.3-1,0.9-0.3c0,0,0,0.7-0.7,4.1l-2.6,10.2c0,0,0,0.3-0.3,0.5c0,0-1.1,1.3-1,1.8c0,0,0,0.5,0,0.7c0,0,0.9,1.1,0,1.7
	c0,0,2,2.9,2.7,4.1c0,0,6.3,9.5,7.1,10.9c0,0,2,3.2,2.2,3.6c0,0,0.7,1,0,1.3l-3.6-4.8l-7.4-10.2c0,0-0.1-1.7-0.4-2l-1.5-2.3
	L348.3,493.7z"/>
</svg>
