<?xml version="1.0" encoding="utf-8"?>
<!-- Generator: Adobe Illustrator 19.1.0, SVG Export Plug-In . SVG Version: 6.00 Build 0)  -->
<!DOCTYPE svg PUBLIC "-//W3C//DTD SVG 1.1//EN" "http://www.w3.org/Graphics/SVG/1.1/DTD/svg11.dtd">
<svg version="1.1" id="Layer_1" xmlns="http://www.w3.org/2000/svg" xmlns:xlink="http://www.w3.org/1999/xlink" x="0px" y="0px"
	 viewBox="-143 354.5 280.2 57.9" style="enable-background:new -143 354.5 280.2 57.9;" xml:space="preserve">
<metadata><?xpacket begin="﻿" id="W5M0MpCehiHzreSzNTczkc9d"?>
<x:xmpmeta xmlns:x="adobe:ns:meta/" x:xmptk="Adobe XMP Core 5.6-c067 79.157747, 2015/03/30-23:40:42        ">
   <rdf:RDF xmlns:rdf="http://www.w3.org/1999/02/22-rdf-syntax-ns#">
      <rdf:Description rdf:about=""/>
   </rdf:RDF>
</x:xmpmeta>
                                                                                                    
                                                                                                    
                                                                                                    
                                                                                                    
                                                                                                    
                                                                                                    
                                                                                                    
                                                                                                    
                                                                                                    
                                                                                                    
                                                                                                    
                                                                                                    
                                                                                                    
                                                                                                    
                                                                                                    
                                                                                                    
                                                                                                    
                                                                                                    
                                                                                                    
                                                                                                    
                           
<?xpacket end="w"?></metadata>
<style type="text/css">
	.st0{clip-path:url(#SVGID_2_);}
	.st1{clip-path:url(#SVGID_4_);fill:#8CC440;}
	.st2{clip-path:url(#SVGID_6_);}
	.st3{clip-path:url(#SVGID_8_);fill:#8CC440;}
	.st4{fill:#222221;}
	.st5{fill:none;stroke:#FFFFFF;stroke-width:0.1107;stroke-miterlimit:10;}
	.st6{fill:none;}
	.st7{clip-path:url(#SVGID_10_);fill:none;}
	.st8{fill:none;stroke:#FFFFFF;stroke-width:0.2312;stroke-miterlimit:10;}
	.st9{fill:#FFFFFF;}
</style>
<g>
	<g>
		<g>
			<g>
				<defs>
					<rect id="SVGID_1_" x="-151.5" y="351.5" width="202.6" height="61.8"/>
				</defs>
				<clipPath id="SVGID_2_">
					<use xlink:href="#SVGID_1_"  style="overflow:visible;"/>
				</clipPath>
				<g class="st0">
					<defs>
						<rect id="SVGID_3_" x="-143" y="358.5" width="185.1" height="53.8"/>
					</defs>
					<clipPath id="SVGID_4_">
						<use xlink:href="#SVGID_3_"  style="overflow:visible;"/>
					</clipPath>
					<path class="st1" d="M42.4,412.3v-5.8h-6.7v-4.3h-4.5V393h-2v-1.7h-0.3v-0.7h-0.4v-1.3h-0.2v1.3h-0.7v0.7h-2.7v1.5h-1.2v-2.9
						h-1v-0.7H22V389h-1.1v-0.1h-0.6v-1h-0.8v-0.3l-0.1,0v-0.8h-0.2v0.8l-0.9,0.1v-0.1l-0.8-0.2l-1.1,0.2v0.5h-1.3v0.4h-0.3v-0.3
						h-0.2v0.3h-0.2h-0.2v1.5h-0.2v0.3h0.2v0.3h-0.2v0.3h0.2v0.3h-0.2v0.3h0.2v0.3h-0.2v0.3h0.2v0.3h-0.2v0.1h-0.1v-1.5h-0.5V391
						l-0.5-0.6h0v-0.5h-0.6V373l-0.2-0.1h0c0.3,0,0.5-0.2,0.5-0.6c0-0.4-0.8-0.8-1.1-0.8c-0.3,0-0.4,0.3-0.4,0.3l0.3,0l0,0.2
						l-1.1,0.1l-0.3-0.2l0-0.4l-2.2-1.3l-2.8,0.2l-0.3,0.2c-1.2,0-1.6,0.7-1.6,0.7l0.5,0l-0.4,0.2l-1.3,0l-1,0.6
						c-0.2,0.1-0.4,0.2-0.4,0.3l0,0c-0.1,0.1-0.1,0.2-0.1,0.2c0,0.2,0.1,0.3,0.3,0.4l-0.5,0.3c-0.2-1.2-1.1-2.2-2.3-2.4v-0.5
						c0-0.2-0.1-0.3-0.3-0.3h-0.1v-1.1h-0.2v1.1h-0.1c-0.2,0-0.3,0.1-0.3,0.3v0.5c-1.2,0.2-2.2,1.3-2.4,2.6l-1.8,0.4v0.5l-1.2,0.1
						l-1.8,1V390h-0.8v0.8h-0.8v6.3h-1v-28l-0.8-0.3l0.5-0.1l0.3,0.1v-0.2l-2.1-0.8l-1-0.1l-1-0.5v-0.8l-1.8-0.7
						c-0.4-0.5-1.1-0.8-1.9-0.8c-0.2,0-0.4,0-0.6,0.1v-0.9h-0.3v1c-0.4,0.1-0.7,0.3-0.9,0.6h-0.1l-0.9,0.8v1.1l-2,0.7v1.6h-0.5v0.9
						h-0.9v1.6l-0.3,0.2l0,0.6l0.3-0.2v0.5l-0.7,0.6l0.3,0.2l0.4,0v0.4h-0.8v15.9h-0.9v0.4h-0.5v0.2h-0.5v0.7l-1.4,0.4v1.8h-0.9
						v-2.2H-32v2.2h-0.8v-1.9h0.2v-0.3h-0.2v-0.1h-1.6v-0.6h0.1v-0.6h-0.1v-0.4h-0.2v1.5h-1.2v-0.6h-1.3v-3.2h-0.9v-1.2h-3.6l-1.6-1
						v0h0.2v-0.3h-0.2v-1.6h0.2v-0.3h-0.2v-1.6h0.2v-0.3h-0.2v-1.6h0.2v-0.3h-0.2V378h0.2v-0.3h-0.2v-1.6h0.2v-0.3h-0.2v-1.6h0.2
						v-0.3h-0.2v-11.4h-0.1v-2.9h-1.8v-0.2h-0.1v-0.3c0,0-0.7-0.6-1-0.8c-0.1,0.1-0.3,0.1-0.4,0.2c-0.6,0.3-1.1,0.6-1.4,0.9h0v-0.2
						h-1.2v0.6H-50v0.8h-0.5v1.8h-0.1c-0.6,0-0.7,1.9,0.1,2v0.9c-0.6,0.1-0.7,0.8-0.7,1.2v26.6l-0.6,0.1v1.1h-0.7V393h-1.5v-1.3
						h-0.6v-0.4h-1.4v0.4h-0.2l-0.5,0.3v1h-0.2v-0.7h-0.3v-2h-0.7v-0.8h-1.6v-1.9l-1.7-0.2v-0.4c0-0.3-0.3-0.6-0.6-0.6l-2.5-0.4
						v-0.2h0.3v-0.7l-2.2-0.2v-0.3h-0.5v-0.9h-0.7v-4.5l-0.6-0.7l-5.7,1.1l-0.6,0.5v12.7h-0.3v0.8h-0.5V389l-5.4,1.4v-0.2h0.1v-0.4
						h-0.1v-0.2h0.1v-0.3h-0.1v-0.2h0.1v-0.3h-0.1v-0.2h0.1v-0.3h-0.1V388h0.1v-0.4h-0.1v-0.2h0.1v-0.4h-0.1v-0.2h0.1v-0.3h-0.1
						v-0.2h0.1V386h-0.1v-0.2h0.1v-0.4h-0.1v-0.2h0.1v-0.4h-0.1v-0.2h0.1v-0.4h-0.1v-0.2h0.1v-0.4h-0.1v-0.2h0.1v-0.4h-0.1v-0.2h0.1
						v-0.4h-0.1v-0.2h0.1v-0.4h-0.1V381c0-1.3-9.6-0.9-9.6-0.1v1.2h-0.2v0.4h0.2v0.2h-0.2v0.4h0.2v0.2h-0.2v0.4h0.2v0.2h-0.2v0.4
						h0.2v0.2h-0.2v0.4h0.2v0.2h-0.2v0.4h0.2v0.2h-0.2v0.4h0.2v0.2h-0.2v0.3h0.2v0.2h-0.2v0.3h0.2v0.2h-0.2v0.4h0.2v0.2h-0.2v0.4
						h0.2v0.2h-0.2v0.3h0.2v0.2h-0.2v0.3h0.2v0.2h-0.2v0.3h0.2v0.2h-0.2v0.4h0.2v0.2h-0.2v0.4h0.2v0.2h-0.2v0.4h0.2v0.2h-0.2v0.4
						h0.2v0.2h-0.2v0.4h0.2v0.2h-0.2v0.4h0.2v0.2h-0.2v0.3h0.2v0.2h-0.2v0.3h0.2v0.2h-0.2v0.4h0.2v0.2h-0.2v0.4h0.2v0.2h-0.2v0.4
						h0.2v0.2h-0.2v0.4h0.2v0.2h-0.2v0h-1.6v-8.7h-0.7v-0.9h-0.1v-0.2h-0.1v-0.4h-0.1v0.5h-3.6v-2.6l-0.4-0.6h-0.1v-1.3h0.2
						c0.1,0,0.2-0.1,0.2-0.2v-7.9c0-0.5,0.1-0.6-0.4-0.6c-0.7-0.1-1.3-0.1-1.9-0.1v-0.1h0.1c0.1,0,0.1,0,0.1-0.1
						c0-0.1,0-0.1-0.1-0.1h-0.1v-0.6h0.1c0.1,0,0.1,0,0.1-0.1s0-0.1-0.1-0.1h-0.1v-0.6h0.1c0.1,0,0.1,0,0.1-0.1s0-0.1-0.1-0.1h-0.1
						v-0.6h0.1c0.1,0,0.1,0,0.1-0.1c0-0.1,0-0.1-0.1-0.1h-0.1v-4c0-0.1-0.1-0.2-0.2-0.2c-0.1,0-0.2,0.1-0.2,0.2v4h0h-0.1
						c-0.1,0-0.1,0-0.1,0.1c0,0.1,0,0.1,0.1,0.1h0.1h0v0.6h0h-0.1c-0.1,0-0.1,0-0.1,0.1s0,0.1,0.1,0.1h0.1h0v0.2l0,0l-0.4,0.4
						l-0.3,0.3l-0.8,0.8c-0.4,0-0.8,0-1.2,0.1c-0.3,0-0.6,0-0.9,0.1c-0.4,0-0.5,0-0.5,0.4v1.9v0.6l-0.7,0v0.3l0.5,0.4v0.2h0.3v0
						l-0.7,0v0.3l0.5,0.4v0.2h0.3v0l-0.7,0v0.3l0.5,0.4v0.2h0.3v0l-0.7,0v0.3l0.5,0.4v0.2h0.3v0l-0.7,0v0.3l0.5,0.4v0.2h0.3v0h-0.7
						v0.3l0.5,0.4v0.2h0.3v0l-0.7,0v0.3l0.5,0.4v0.2h0.2v4.5h-4.1v0.6h-0.5v8.2h-1.3v-0.4h-0.2V396h-0.5v-0.2l-0.8-0.9h-0.3v0.9
						h-0.4v-0.2h-0.3v0.3h-0.5v1.8h-1.1v1h-0.6v1.3h-0.5v0.2h-0.2v0.2h-0.3v-0.1h0.1v-0.1h-0.1v-0.1h0.1v-0.1h-0.1V400h0.1v-0.1
						h-0.1v-0.1h0.1v-0.1h-0.1v-0.1h0.1v-0.1h-0.1v-0.1h0.1v-0.1h-0.1V399h0.1v-0.1h-0.1v-0.1h0.1v-0.1h-0.1v-0.1h0.1v-0.1h-0.1
						v-0.1h0.1v-0.1h-0.1v-0.1h0.1V398h-0.1v0h0.2v-0.2h-0.1v0h-0.1v-0.1h0.1v-0.1h-0.1v-0.1h0.1v-0.1h-0.1v0h0.2V397h-0.1v0h-0.1
						v-0.1h0.1v-0.1h-0.1v-0.1h0.1v-0.1h-0.1v-0.1h0.1v-0.1h-0.1v-0.1h0.1V396h-0.1v-0.1h0.1v-0.1h-0.1v-0.1h0.1v-0.1h-0.1v-0.1h0.1
						v-0.1h-0.1v-0.1h0.1V395h-0.1v-0.1h0.1v-0.1h-0.1v-0.1h0.1v-0.1h-0.1v-0.1h0.1v-0.1h-0.1v-1.7h-0.8V392h-0.5v-0.3l-0.6-0.5
						h-0.2v0.5h-0.6l-0.4-0.5h-0.2v0.8h-0.7v0.6h-0.5v-5.1c0-0.2-0.2-0.3-0.4-0.4c-0.1,0-0.1,0-0.2,0v-0.2c0-0.3-0.2-0.5-0.5-0.5
						v-0.9l-0.5,0.1v-0.8c0-0.1-0.1-0.2-0.2-0.2l-2.8,0.5c-0.1,0-0.2,0.1-0.2,0.2v0.6l-0.5,0v0.7c-0.3,0-0.5,0.2-0.5,0.5v0.3
						c-0.1,0-0.3,0.1-0.4,0.1c-0.2,0-0.4,0.2-0.4,0.4v13.3h-1.2V401h0.1v-0.3h-0.9v0.3h0v0.1h-0.1v-2.7h-0.1v-0.4h-0.1v-0.7h-0.7
						v-0.2h0.1v-0.4h-0.2v-0.1h-1.3v0.1h-1.1v0.4h0.1v0.2h-0.2v0.7h-1.2v0.4h-1.3v4.8h-1.3v3.4h-7.4v5.6H42.4z M-101.5,374.3
						c0,0-0.3,0-0.6,0c-0.4,0-0.9,0-1,0c0,0,0.1-0.2,1-0.3c0.3,0,0.6,0,1,0C-101.4,374.3-101.5,374.3-101.5,374.3 M-100.2,373.6
						c-0.1,0-0.2,0-0.3,0l0.4-0.4l0.3-0.3l0.1-0.1l-0.1,0.2l-0.3,0.6L-100.2,373.6z M-99.4,373.3L-99.4,373.3L-99.4,373.3
						c-0.1,0-0.2,0-0.2,0.1c0,0.1,0,0.1,0.1,0.1h0.1h0v0.1h0c-0.1,0-0.3,0-0.4,0h-0.1l0.1-0.1l0.4-0.7l0,0V373.3z M-99.4,372.4
						L-99.4,372.4L-99.4,372.4L-99.4,372.4L-99.4,372.4L-99.4,372.4z M14.4,392.6L14.4,392.6h-0.1v-0.3h0.1h0.1V392.6z M14.4,391.9
						L14.4,391.9h-0.1v-0.3h0.1h0.1V391.9z M14.4,391.3L14.4,391.3h-0.1v-0.3h0.1h0.1V391.3z M14.4,390.7L14.4,390.7h-0.1v-0.3h0.1
						h0.1V390.7z M14.4,390L14.4,390h-0.1v-0.3h0.1h0.1V390z"/>
				</g>
			</g>
		</g>
		<g>
			<g>
				<defs>
					<rect id="SVGID_5_" x="-61.4" y="371.9" width="133.2" height="41.5"/>
				</defs>
				<clipPath id="SVGID_6_">
					<use xlink:href="#SVGID_5_"  style="overflow:visible;"/>
				</clipPath>
				<g class="st2">
					<defs>
						<rect id="SVGID_7_" x="-52.4" y="378.9" width="115.2" height="33.5"/>
					</defs>
					<clipPath id="SVGID_8_">
						<use xlink:href="#SVGID_7_"  style="overflow:visible;"/>
					</clipPath>
					<path class="st3" d="M45.4,398.5L45.4,398.5L45.4,398.5l-0.1-0.2h0h0V398.5z M45.4,398.9L45.4,398.9L45.4,398.9l-0.1-0.2h0h0
						V398.9z M45.4,399.3L45.4,399.3L45.4,399.3l-0.1-0.2h0h0V399.3z M45.4,399.7L45.4,399.7L45.4,399.7l-0.1-0.2h0h0V399.7z
						 M45.4,400.1L45.4,400.1L45.4,400.1l-0.1-0.2h0h0V400.1z M-25.5,387.5L-25.5,387.5L-25.5,387.5L-25.5,387.5L-25.5,387.5
						L-25.5,387.5z M-25.5,388.1L-25.5,388.1L-25.5,388.1c-0.1,0-0.1,0-0.1,0.1c0,0,0,0.1,0.1,0.1h0.1h0v0l0,0c-0.1,0-0.2,0-0.3,0
						h-0.1l0.1-0.1l0.3-0.4l0,0V388.1z M-26,388.3c-0.1,0-0.1,0-0.2,0l0.2-0.3l0.2-0.2l0.1-0.1l-0.1,0.1L-26,388.3L-26,388.3z
						 M-26.8,388.7c0,0-0.2,0-0.4,0c-0.3,0-0.6,0-0.6,0c0,0,0.1-0.1,0.6-0.2c0.2,0,0.4,0,0.6,0C-26.8,388.7-26.8,388.7-26.8,388.7
						 M58.7,408.8v-2.7h-2.8v-5.7h-1.3v-1h-0.2v-0.4h-0.2V398H54v0.8h-0.4v0.4h-1.7v0.9h-0.7v-1.8h-0.6V398h-0.5v-0.1h-0.7v-0.1H49
						v-0.6h-0.5V397l-0.1,0v-0.5h-0.1v0.5l-0.5,0.1V397l-0.5-0.2l-0.7,0.2v0.3h-0.8v0.3h-0.2v-0.2h-0.2v0.2h-0.1h-0.1v0.9h-0.2v0.2
						h0.2v0.2h-0.2v0.2h0.2v0.2h-0.2v0.2h0.2v0.2h-0.2v0.2h0.2v0.2h-0.2v0.1H45v-1h-0.3v-0.1l-0.3-0.4h0v-0.3H44v-10.5l-0.1-0.1h0
						c0.2,0,0.3-0.1,0.3-0.4c0-0.2-0.5-0.5-0.7-0.5c-0.2,0-0.2,0.2-0.2,0.2l0.2,0l0,0.1l-0.7,0.1l-0.2-0.1l0-0.2l-1.4-0.8l-1.7,0.1
						l-0.2,0.1c-0.7,0-1,0.5-1,0.5l0.3,0l-0.2,0.1l-0.8,0l-0.6,0.4c-0.1,0.1-0.2,0.1-0.3,0.2l0,0c0,0-0.1,0.1-0.1,0.1
						c0,0.1,0.1,0.2,0.2,0.3l-0.3,0.2c-0.1-0.8-0.7-1.4-1.4-1.5v-0.3c0-0.1-0.1-0.2-0.2-0.2h-0.1v-0.7h-0.1v0.7h-0.1
						c-0.1,0-0.2,0.1-0.2,0.2v0.3c-0.8,0.1-1.4,0.8-1.5,1.6l-1.1,0.3v0.3l-0.8,0l-1.1,0.6v9h-0.5v0.5H29v3.9h-0.6v-17.4l-0.5-0.2
						l0.3-0.1l0.2,0.1v-0.1l-1.3-0.5l-0.6-0.1l-0.6-0.3v-0.5l-1.1-0.4c-0.2-0.3-0.7-0.5-1.2-0.5c-0.1,0-0.2,0-0.4,0v-0.6H23v0.6
						c-0.2,0.1-0.4,0.2-0.6,0.3h-0.1l-0.5,0.5v0.7l-1.2,0.4v1h-0.3v0.6h-0.6v1l-0.2,0.1l0,0.4l0.2-0.1v0.3l-0.4,0.4l0.2,0.1l0.2,0
						v0.3h-0.5v9.9h-0.6v0.2h-0.3v0.1h-0.3v0.4l-0.9,0.2v1.1h-0.6v-1.3h-0.2v1.3h-0.5v-1.2h0.1v-0.2h-0.1v-0.1h-1V399H15v-0.4H15
						v-0.2h-0.2v1H14V399h-0.8v-2h-0.6v-0.7h-2.2l-1-0.6v0h0.1v-0.2H9.5v-1h0.1v-0.2H9.5v-1h0.1v-0.2H9.5v-1h0.1v-0.2H9.5v-1h0.1
						v-0.2H9.5v-1h0.1v-0.2H9.5v-1h0.1v-0.2H9.5v-7.1H9.4v-1.8H8.3v-0.1H8.3v-0.2c0,0-0.5-0.4-0.6-0.5c-0.1,0-0.2,0.1-0.3,0.1
						c-0.4,0.2-0.7,0.4-0.9,0.6h0v-0.1H5.7v0.4H5.3v0.5H5v1.1h0c-0.4,0-0.4,1.2,0,1.2v0.6c-0.4,0.1-0.4,0.5-0.4,0.8v16.6l-0.4,0.1
						v0.7H3.8v-1H2.8v-0.8H2.4v-0.2H1.6v0.2H1.4l-0.3,0.2v0.6H1V400H0.8v-1.3H0.3v-0.5h-1V397l-1-0.1v-0.2c0-0.2-0.2-0.4-0.4-0.4
						l-1.5-0.2v-0.1h0.2v-0.4l-1.4-0.1v-0.2h-0.3v-0.6h-0.5v-2.8l-0.3-0.4l-3.5,0.7l-0.4,0.3v7.9h-0.2v0.5h-0.3v-2.8l-3.3,0.9v-0.1
						h0.1v-0.2h-0.1v-0.1h0.1v-0.2h-0.1V398h0.1v-0.2h-0.1v-0.1h0.1v-0.2h-0.1v-0.1h0.1v-0.2h-0.1v-0.1h0.1v-0.2h-0.1v-0.1h0.1v-0.2
						h-0.1v-0.1h0.1V396h-0.1v-0.1h0.1v-0.2h-0.1v-0.1h0.1v-0.2h-0.1v-0.1h0.1V395h-0.1v-0.1h0.1v-0.2h-0.1v-0.1h0.1v-0.2h-0.1v-0.1
						h0.1V394h-0.1v-0.1h0.1v-0.2h-0.1v-0.7c0-0.8-6-0.6-6-0.1v0.8h-0.1v0.2h0.1v0.1h-0.1v0.2h0.1v0.1h-0.1v0.2h0.1v0.1h-0.1v0.2
						h0.1v0.1h-0.1v0.2h0.1v0.1h-0.1v0.2h0.1v0.1h-0.1v0.2h0.1v0.1h-0.1v0.2h0.1v0.1h-0.1v0.2h0.1v0.1h-0.1v0.2h0.1v0.1h-0.1v0.2
						h0.1v0.1h-0.1v0.2h0.1v0.1h-0.1v0.2h0.1v0.1h-0.1v0.2h0.1v0.1h-0.1v0.2h0.1v0.1h-0.1v0.2h0.1v0.1h-0.1v0.2h0.1v0.1h-0.1v0.2
						h0.1v0.1h-0.1v0.2h0.1v0.1h-0.1v0.2h0.1v0.1h-0.1v0.2h0.1v0.1h-0.1v0.2h0.1v0.1h-0.1v0.2h0.1v0.1h-0.1v0.2h0.1v0.1h-0.1v0.2
						h0.1v0.1h-0.1v0.2h0.1v0.1h-0.1v0h-1v-5.4h-0.4v-0.6h-0.1v-0.1h-0.1v-0.2h-0.1v0.3h-2.2v-1.6l-0.3-0.4h-0.1v-0.8h0.2
						c0.1,0,0.1,0,0.1-0.1v-4.9c0-0.3,0-0.4-0.3-0.4c-0.4,0-0.8-0.1-1.2-0.1v0h0c0,0,0.1,0,0.1-0.1c0,0,0-0.1-0.1-0.1h0v-0.4h0
						c0,0,0.1,0,0.1-0.1s0-0.1-0.1-0.1h0v-0.4h0c0,0,0.1,0,0.1-0.1c0,0,0-0.1-0.1-0.1h0v-0.4h0c0,0,0.1,0,0.1-0.1c0,0,0-0.1-0.1-0.1
						h0v-2.5c0-0.1,0-0.1-0.1-0.1c-0.1,0-0.1,0-0.1,0.1v2.5h0h-0.1c0,0-0.1,0-0.1,0.1c0,0,0,0.1,0.1,0.1h0.1h0v0.4h0h-0.1
						c0,0-0.1,0-0.1,0.1c0,0,0,0.1,0.1,0.1h0.1h0v0.1l0,0l-0.3,0.3l-0.2,0.2l-0.5,0.5c-0.2,0-0.5,0-0.7,0c-0.2,0-0.4,0-0.5,0
						c-0.2,0-0.3,0-0.3,0.3v1.2v0.4l-0.5,0v0.2l0.3,0.2v0.2h0.2v0l-0.5,0v0.2l0.3,0.2v0.2h0.2v0l-0.5,0v0.2l0.3,0.2v0.2h0.2v0
						l-0.5,0v0.2l0.3,0.2v0.2h0.2v0l-0.5,0v0.2l0.3,0.2v0.2h0.2v0l-0.5,0v0.2l0.3,0.2v0.2h0.2v0l-0.5,0v0.2l0.3,0.2v0.2h0.1v2.8
						h-2.6v0.4H-31v5.1h-0.8v-0.2h-0.1v-0.2h-0.3v-0.1l-0.5-0.6h-0.2v0.6h-0.3v-0.1h-0.2v0.2h-0.3v1.1h-0.7v0.6h-0.4v0.8h-0.3v0.1
						h-0.1v0.1h-0.2v0h0V405h0v-0.1h0v-0.1h0v-0.1h0v-0.1h0v-0.1h0v-0.1h0v-0.1h0v-0.1h0v-0.1h0v-0.1h0v-0.1h0v-0.1h0V404h0v-0.1h0
						v-0.1h0v-0.1h0v-0.1h0v-0.1h0v-0.1h0v-0.1h0v0h0.1v-0.1h-0.1v0h0v-0.1h0v-0.1h0v-0.1h0V403h0v0h0.1v-0.1h-0.1v0h0v-0.1h0v-0.1
						h0v-0.1h0v-0.1h0v-0.1h0v-0.1h0v-0.1h0v-0.1h0v-0.1h0v-0.1h0V402h0V402h0v-0.1h0v-0.1h0v-0.1h0v-0.1h0v-0.1h0v-0.1h0v-0.1h0
						v-0.1h0v-0.1h0v-0.1h0v-1.1h-0.5v-0.4h-0.3v-0.2l-0.4-0.3h-0.2v0.3h-0.4l-0.2-0.3h-0.1v0.5h-0.4v0.4h-0.3v-3.2
						c0-0.1-0.1-0.2-0.2-0.2c0,0-0.1,0-0.1,0v-0.1c0-0.2-0.1-0.3-0.3-0.3v-0.5l-0.3,0v-0.5c0-0.1-0.1-0.1-0.1-0.1l-1.7,0.3
						c-0.1,0-0.1,0.1-0.1,0.1v0.4l-0.3,0v0.5c-0.2,0-0.3,0.2-0.3,0.3v0.2c-0.1,0-0.2,0-0.3,0c-0.1,0-0.2,0.1-0.2,0.2v8.3H-43v-0.1
						h0.1v-0.2h-0.6v0.2h0v0.1h-0.1v-1.7h-0.1v-0.3h-0.1v-0.4h-0.4V403h0.1v-0.3h-0.1v-0.1H-45v0.1h-0.7v0.3h0.1v0.1h-0.1v0.4h-0.7
						v0.3h-0.8v3h-0.8v2.1h-4.3v3.5h25.1h1.2h0.2h0.3H7.4h38h17.5v-3.6H58.7z"/>
				</g>
			</g>
		</g>
	</g>
</g>
<polygon class="st4" points="-126.5,380.3 -127.1,412.4 -124,412.4 -125.1,380.3 "/>
<polygon class="st4" points="-127,381.6 -130.2,383.9 -132.5,397 -131.3,396.1 -125.6,384 -126.3,381.8 "/>
<polygon class="st4" points="-124.3,379.3 -125.8,381 -125.6,381.7 -122,383.4 -109.9,378.6 -111.2,378 "/>
<polygon class="st4" points="-136.8,369.3 -129.3,380.4 -127.1,380.9 -126.6,380.3 -127,376.3 -136.9,367.8 "/>
<path class="st4" d="M-125.2,381.3c0.1-0.8-0.4-1.7-1.2-1.8c-0.8-0.1-1.6,0.4-1.8,1.3c-0.1,0.8,0.4,1.7,1.2,1.8
	C-126.1,382.7-125.3,382.1-125.2,381.3"/>
<path class="st5" d="M-125.2,381.3c0.1-0.8-0.4-1.7-1.2-1.8c-0.8-0.1-1.6,0.4-1.8,1.3c-0.1,0.8,0.4,1.7,1.2,1.8
	C-126.1,382.7-125.3,382.1-125.2,381.3z"/>
<rect x="-137" y="367.7" class="st6" width="27.3" height="44.7"/>
<polygon class="st4" points="-99.9,412.3 -95.7,412.3 -96.3,372.9 -98.3,372.9 "/>
<g>
	<defs>
		<rect id="SVGID_9_" x="-118.4" y="355.9" width="37.1" height="61.1"/>
	</defs>
	<clipPath id="SVGID_10_">
		<use xlink:href="#SVGID_9_"  style="overflow:visible;"/>
	</clipPath>
	<polygon class="st7" points="-98.3,372.1 -99.9,415.8 -95.7,416.9 -96.3,372.1 	"/>
</g>
<polygon class="st4" points="-95.6,375 -91.2,378.2 -88.2,395.9 -89.8,394.8 -97.5,378.3 -96.6,375.3 "/>
<polygon class="st4" points="-118.8,370.9 -102.4,377.4 -97.5,375.1 -97.2,374.1 -99.2,371.8 -117,370.1 "/>
<polygon class="st4" points="-95.6,367.7 -96.1,373.1 -95.4,373.9 -92.4,373.2 -82.3,358.1 -82.1,356.2 "/>
<path class="st4" d="M-98,374.5c-0.2-1.1,0.5-2.2,1.7-2.4c1.1-0.2,2.2,0.6,2.4,1.7c0.2,1.1-0.6,2.2-1.7,2.4
	C-96.7,376.4-97.8,375.6-98,374.5"/>
<path class="st8" d="M-98,374.5c-0.2-1.1,0.5-2.2,1.7-2.4c1.1-0.2,2.2,0.6,2.4,1.7c0.2,1.1-0.6,2.2-1.7,2.4
	C-96.8,376.4-97.8,375.6-98,374.5z"/>
<polygon class="st4" points="-41.7,379.5 -80.7,380 -86.4,400.8 -37.2,400.7 "/>
<polygon class="st9" points="-83.7,397.7 -39.8,397.5 -42.8,381.3 -79.4,381.9 "/>
<polygon class="st4" points="-52.9,381.3 -52.3,398.3 -53.7,398 -54.1,380.9 "/>
<polygon class="st4" points="-66.9,381.7 -68.8,398.3 -70.3,398.4 -68.1,380.6 "/>
<polygon class="st4" points="-81.5,388.6 -41.2,388.6 -40.6,389.7 -82.1,389.7 "/>
<polygon class="st4" points="-63.3,412.4 -58.7,412.3 -60,399 -61.6,398.6 "/>
<g>
	<path class="st4" d="M2.7,373.8c0,0-3.1,15.5,1.2,20.9c0.4,0,0.4,0,0.4,0v1.8h2.5v-1.5c0,0,4.8-6,1.4-21.3c-0.3-0.1-0.3,0-0.3,0
		v-2.2H7.5v-0.9h1V370h11.2v0.4H21v0.3h0.9v0.7h-0.3c0,0-4.9,21.5,3.4,25.4c0.1,0.3,0,0.6,0,0.6h1.4v1h-1.2v13.1h1.1l0.2,0.8
		l-41.5,0v-0.8h1.7V399H-15v-0.9c0,0,9.8-3.7,5.2-24.5h-0.4v-2.2h-0.3v-0.9h0.8v-0.6h12v0.4h1v0.4h0.5v1.4H3.1L2.7,373.8z"/>
	<rect x="-10.4" y="375.7" class="st4" width="2.3" height="0.7"/>
	<rect x="-10.4" y="378.6" class="st4" width="2.3" height="0.7"/>
	<rect x="-10.4" y="381.7" class="st4" width="2.3" height="0.7"/>
	<rect x="-10.4" y="384.5" class="st4" width="2.3" height="0.7"/>
	<rect x="-10.4" y="387.4" class="st4" width="2.3" height="0.7"/>
	<rect x="-10.4" y="390.3" class="st4" width="2.3" height="0.7"/>
	<rect x="8.1" y="375.7" class="st4" width="2.3" height="0.7"/>
	<rect x="8.1" y="378.6" class="st4" width="2.3" height="0.7"/>
	<rect x="8.1" y="381.7" class="st4" width="2.3" height="0.7"/>
	<rect x="8.1" y="384.5" class="st4" width="2.3" height="0.7"/>
	<rect x="8.1" y="387.4" class="st4" width="2.3" height="0.7"/>
	<rect x="8.1" y="390.3" class="st4" width="2.3" height="0.7"/>
</g>
<g>
	<polyline class="st4" points="26.1,392 27.2,392 27.2,361.1 27.8,361.1 27.8,360.2 27.2,360.2 27.2,359 27.7,359 27.7,357.2 
		27.3,357.2 27.3,356.6 27.9,356.6 27.9,356.2 30.9,356.2 31.3,356.6 31,356.9 31,359 31.7,359 31.7,359.5 30.9,359.5 30.9,361.1 
		31.8,361.1 31.8,392.1 33.2,392.1 33.2,399.2 36.6,399.2 36.6,396.4 37.1,396.4 37.1,399.1 38.2,399.1 38.2,396.9 39.5,396.9 
		39.5,399.2 40.3,399.2 51.8,391.1 52.3,391.1 64.5,399.9 65.4,399.9 65.2,412.3 24,412.3 24.4,399.3 26,399.3 26,392.3 	"/>
	<rect x="44" y="395.4" class="st4" width="16.2" height="2.6"/>
	<rect x="24.4" y="362.8" class="st4" width="5.4" height="0.6"/>
	<rect x="25.2" y="363.1" class="st4" width="0.3" height="32.3"/>
	<rect x="24.4" y="365.4" class="st4" width="5.4" height="0.6"/>
	<rect x="24.4" y="368.7" class="st4" width="5.4" height="0.6"/>
	<rect x="24.4" y="371.4" class="st4" width="5.4" height="0.6"/>
	<rect x="24.4" y="374.6" class="st4" width="5.4" height="0.6"/>
	<rect x="24.4" y="377.2" class="st4" width="5.4" height="0.6"/>
	<rect x="24.4" y="380.5" class="st4" width="5.4" height="0.6"/>
	<rect x="24.4" y="383.2" class="st4" width="5.4" height="0.6"/>
	<rect x="24.4" y="386.5" class="st4" width="5.4" height="0.6"/>
	<rect x="24.4" y="389.2" class="st4" width="5.4" height="0.6"/>
	<rect x="24.4" y="392.4" class="st4" width="5.4" height="0.6"/>
	<rect x="24.4" y="395.1" class="st4" width="5.4" height="0.6"/>
</g>
<g>
	<g>
		<rect x="67.5" y="359.6" class="st4" width="5.5" height="8.2"/>
		<rect x="68.7" y="363.4" class="st4" width="3.1" height="34.5"/>
		<rect x="67.1" y="395.2" class="st4" width="6.2" height="3.7"/>
		<rect x="67" y="373.8" class="st4" width="6.6" height="1"/>
		<rect x="67" y="380.8" class="st4" width="6.6" height="1"/>
		<rect x="67" y="387.9" class="st4" width="6.6" height="1"/>
		<ellipse class="st4" cx="70.2" cy="359.7" rx="2.7" ry="1"/>
		<ellipse class="st4" cx="70.2" cy="395.4" rx="3.1" ry="1.1"/>
		<path class="st4" d="M93.7,399.4l0.1-0.2c0,0,1.4,0.3,1.7,0c0.3-0.3,6.9-6.9,6.9-6.9h0.3l6.7,6.9h1.2l7.2-7.3h0.5l7.2,7.3h0.8v0.5
			h0.7v1.1h0.7l-0.2,11.6H64.4l0.1-11.7c0,0,1.5-3.6,5.6-3.6c0.6,0.1,4.3,0.5,5.3,3.6"/>
	</g>
	<g>
		<rect x="77.3" y="359.6" class="st4" width="5.5" height="8.2"/>
		<rect x="78.5" y="363.4" class="st4" width="3.1" height="34.5"/>
		<rect x="76.9" y="395.2" class="st4" width="6.2" height="3.7"/>
		<rect x="76.8" y="373.8" class="st4" width="6.6" height="1"/>
		<rect x="76.8" y="380.8" class="st4" width="6.6" height="1"/>
		<rect x="76.8" y="387.9" class="st4" width="6.6" height="1"/>
		<ellipse class="st4" cx="80" cy="359.7" rx="2.7" ry="1"/>
		<ellipse class="st4" cx="80.1" cy="395.4" rx="3.1" ry="1.1"/>
		<path class="st4" d="M74.4,400.6c0,0,1.5-3.6,5.6-3.6c0.6,0.1,4.3,0.5,5.3,3.6"/>
	</g>
	<g>
		<rect x="86.7" y="359.6" class="st4" width="5.5" height="8.2"/>
		<rect x="87.9" y="363.4" class="st4" width="3.1" height="34.5"/>
		<rect x="86.3" y="395.2" class="st4" width="6.2" height="3.7"/>
		<rect x="86.2" y="373.8" class="st4" width="6.6" height="1"/>
		<rect x="86.2" y="380.8" class="st4" width="6.6" height="1"/>
		<rect x="86.2" y="387.9" class="st4" width="6.6" height="1"/>
		<ellipse class="st4" cx="89.4" cy="359.7" rx="2.7" ry="1"/>
		<ellipse class="st4" cx="89.4" cy="395.4" rx="3.1" ry="1.1"/>
		<path class="st4" d="M83.8,400.6c0,0,1.5-3.6,5.6-3.6c0.6,0.1,4.3,0.5,5.3,3.6"/>
	</g>
</g>
<rect x="-22" y="404.4" class="st4" width="17.4" height="7.9"/>
<rect x="116.2" y="404.4" class="st4" width="17.4" height="7.9"/>
<polygon class="st4" points="137.1,412.3 123.6,412.3 123.5,410.2 137.2,410.2 "/>
<polygon class="st4" points="-7.3,412.3 -24.9,412.3 -24.9,407.7 -7.5,407.7 "/>
</svg>
