<?xml version="1.0" encoding="utf-8"?>
<!-- Generator: Adobe Illustrator 18.1.1, SVG Export Plug-In . SVG Version: 6.00 Build 0)  -->
<!DOCTYPE svg PUBLIC "-//W3C//DTD SVG 1.1//EN" "http://www.w3.org/Graphics/SVG/1.1/DTD/svg11.dtd">
<svg version="1.1" id="Layer_1" xmlns="http://www.w3.org/2000/svg" xmlns:xlink="http://www.w3.org/1999/xlink" x="0px" y="0px"
	 viewBox="0 0 280.2 57.9" enable-background="new 0 0 280.2 57.9" xml:space="preserve">
<g>
	<g>
		<defs>
			<rect id="SVGID_1_" x="72.9" y="2" width="186.6" height="55.8"/>
		</defs>
		<clipPath id="SVGID_2_">
			<use xlink:href="#SVGID_1_"  overflow="visible"/>
		</clipPath>
		<g clip-path="url(#SVGID_2_)">
			<defs>
				<rect id="SVGID_3_" x="73.9" y="3" width="184.6" height="53.8"/>
			</defs>
			<clipPath id="SVGID_4_">
				<use xlink:href="#SVGID_3_"  overflow="visible"/>
			</clipPath>
			<path clip-path="url(#SVGID_4_)" fill="#6CC62C" d="M258.8,56.8V51h-6.7v-4.3h-4.5v-9.2h-2v-1.7h-0.3v-0.7h-0.4v-1.3h-0.2v1.3
				H244v0.7h-2.7v1.5h-1.2v-2.9h-1v-0.7h-0.8v-0.2h-1.1v-0.1h-0.6v-1h-0.8v-0.3l-0.1,0v-0.8h-0.2v0.8l-0.9,0.1v-0.1l-0.8-0.2
				l-1.1,0.2v0.5h-1.3v0.4h-0.3v-0.3h-0.2v0.3h-0.2h-0.2v1.5h-0.2v0.3h0.2v0.3h-0.2v0.3h0.2v0.3h-0.2v0.3h0.2v0.3h-0.2v0.3h0.2v0.3
				h-0.2v0.1h-0.1v-1.5h-0.5v-0.2l-0.5-0.6h0v-0.5h-0.6V17.6l-0.2-0.1h0c0.3,0,0.5-0.2,0.5-0.6c0-0.4-0.8-0.8-1.1-0.8
				c-0.3,0-0.4,0.3-0.4,0.3l0.3,0l0,0.2l-1.1,0.1l-0.3-0.2l0-0.4l-2.2-1.3l-2.8,0.2l-0.3,0.2c-1.2,0-1.6,0.7-1.6,0.7l0.5,0l-0.4,0.2
				l-1.3,0l-1,0.6c-0.2,0.1-0.3,0.2-0.4,0.3l0,0c-0.1,0.1-0.1,0.2-0.1,0.2c0,0.2,0.1,0.3,0.3,0.4l-0.5,0.3c-0.2-1.2-1.1-2.2-2.3-2.4
				V15c0-0.2-0.1-0.3-0.3-0.3h-0.1v-1.1h-0.2v1.1h-0.1c-0.2,0-0.3,0.1-0.3,0.3v0.5c-1.2,0.2-2.2,1.3-2.4,2.6l-1.8,0.4V19l-1.2,0.1
				l-1.8,1v14.5h-0.8v0.8h-0.8v6.3h-1v-28l-0.8-0.3l0.5-0.1l0.3,0.1v-0.2l-2.1-0.8l-1-0.1l-1-0.5v-0.8l-1.8-0.7
				c-0.4-0.5-1.1-0.8-1.9-0.8c-0.2,0-0.4,0-0.6,0.1V8.5h-0.3v1c-0.4,0.1-0.7,0.3-0.9,0.6h-0.1l-0.9,0.8v1.1l-2,0.7v1.6h-0.5v0.9
				h-0.9v1.6l-0.3,0.2l0,0.6l0.3-0.2v0.5l-0.7,0.6l0.3,0.2l0.4,0v0.4h-0.8v15.9h-0.9v0.4h-0.5v0.2H187v0.7l-1.4,0.4v1.8h-0.9v-2.2
				h-0.3v2.2h-0.8v-1.9h0.2v-0.3h-0.2V36h-1.6v-0.6h0.1v-0.6h-0.1v-0.4h-0.2V36h-1.2v-0.6h-1.3v-3.2h-0.9V31h-3.6l-1.6-1v0h0.2v-0.3
				h-0.2v-1.6h0.2v-0.3h-0.2v-1.6h0.2V26h-0.2v-1.6h0.2v-0.3h-0.2v-1.6h0.2v-0.3h-0.2v-1.6h0.2v-0.3h-0.2v-1.6h0.2v-0.3h-0.2V7.2
				h-0.1V4.3h-1.8V4.1h-0.1V3.8c0,0-0.7-0.6-1-0.8c-0.1,0.1-0.3,0.1-0.4,0.2c-0.6,0.3-1.1,0.6-1.4,0.9h0V3.9h-1.2v0.6h-0.6v0.8h-0.5
				v1.8h-0.1c-0.6,0-0.7,1.9,0.1,2v0.9c-0.6,0.1-0.7,0.8-0.7,1.2v26.6l-0.6,0.1v1.1H164v-1.6h-1.5v-1.3h-0.6v-0.4h-1.4v0.4h-0.2
				l-0.5,0.3v1h-0.2v-0.7h-0.3v-2h-0.7V34h-1.6v-1.9l-1.7-0.2v-0.4c0-0.3-0.3-0.6-0.6-0.6l-2.5-0.4v-0.2h0.3v-0.7l-2.2-0.2v-0.3
				h-0.5v-0.9h-0.7v-4.5l-0.6-0.7l-5.7,1.1l-0.6,0.5v12.7h-0.3v0.8h-0.5v-4.6l-5.4,1.4v-0.2h0.1v-0.4h-0.1v-0.2h0.1v-0.3h-0.1v-0.2
				h0.1v-0.3h-0.1v-0.2h0.1v-0.3h-0.1v-0.2h0.1v-0.4h-0.1V32h0.1v-0.4h-0.1v-0.2h0.1v-0.3h-0.1v-0.2h0.1v-0.3h-0.1v-0.2h0.1V30h-0.1
				v-0.2h0.1v-0.4h-0.1v-0.2h0.1v-0.4h-0.1v-0.2h0.1v-0.4h-0.1v-0.2h0.1v-0.4h-0.1v-0.2h0.1v-0.4h-0.1v-0.2h0.1v-0.4h-0.1v-1.1
				c0-1.3-9.6-0.9-9.6-0.1v1.2h-0.2v0.4h0.2v0.2h-0.2v0.4h0.2v0.2h-0.2v0.4h0.2v0.2h-0.2v0.4h0.2v0.2h-0.2v0.4h0.2v0.2h-0.2v0.4h0.2
				V30h-0.2v0.4h0.2v0.2h-0.2v0.3h0.2v0.2h-0.2v0.3h0.2v0.2h-0.2V32h0.2v0.2h-0.2v0.4h0.2v0.2h-0.2v0.3h0.2v0.2h-0.2v0.3h0.2v0.2
				h-0.2v0.3h0.2v0.2h-0.2v0.4h0.2V35h-0.2v0.4h0.2v0.2h-0.2v0.4h0.2v0.2h-0.2v0.4h0.2v0.2h-0.2V37h0.2v0.2h-0.2v0.4h0.2v0.2h-0.2
				v0.3h0.2v0.2h-0.2v0.3h0.2v0.2h-0.2v0.4h0.2v0.2h-0.2v0.4h0.2V40h-0.2v0.4h0.2v0.2h-0.2v0.4h0.2v0.2h-0.2v0h-1.6v-8.7h-0.7v-0.9
				h-0.1v-0.2h-0.1v-0.4h-0.1v0.5h-3.6v-2.6l-0.4-0.6h-0.1v-1.3h0.2c0.1,0,0.2-0.1,0.2-0.2v-7.9c0-0.5,0.1-0.6-0.4-0.6
				c-0.7-0.1-1.3-0.1-1.9-0.1v-0.1h0.1c0.1,0,0.1,0,0.1-0.1c0-0.1,0-0.1-0.1-0.1h-0.1v-0.6h0.1c0.1,0,0.1,0,0.1-0.1s0-0.1-0.1-0.1
				h-0.1v-0.6h0.1c0.1,0,0.1,0,0.1-0.1s0-0.1-0.1-0.1h-0.1v-0.6h0.1c0.1,0,0.1,0,0.1-0.1c0-0.1,0-0.1-0.1-0.1h-0.1v-4
				c0-0.1-0.1-0.2-0.2-0.2c-0.1,0-0.2,0.1-0.2,0.2v4h0h-0.1c-0.1,0-0.1,0-0.1,0.1c0,0.1,0,0.1,0.1,0.1h0.1h0v0.6h0h-0.1
				c-0.1,0-0.1,0-0.1,0.1s0,0.1,0.1,0.1h0.1h0v0.2l0,0l-0.4,0.4l-0.3,0.3l-0.8,0.8c-0.4,0-0.8,0-1.2,0.1c-0.3,0-0.6,0-0.9,0.1
				c-0.4,0-0.5,0-0.5,0.4v1.9v0.6l-0.7,0v0.3l0.5,0.4v0.2h0.3v0l-0.7,0v0.3l0.5,0.4v0.2h0.3v0l-0.7,0v0.3l0.5,0.4v0.2h0.3v0l-0.7,0
				v0.3l0.5,0.4V25h0.3v0l-0.7,0v0.3l0.5,0.4V26h0.3v0h-0.7v0.3l0.5,0.4v0.2h0.3v0l-0.7,0v0.3l0.5,0.4v0.2h0.2v4.5h-4.1V33h-0.5v8.2
				h-1.3v-0.4h-0.2v-0.2h-0.5v-0.2l-0.8-0.9h-0.3v0.9h-0.4v-0.2h-0.3v0.3h-0.5v1.8h-1.1v1h-0.6v1.3h-0.5v0.2h-0.2v0.2h-0.3V45h0.1
				v-0.1h-0.1v-0.1h0.1v-0.1h-0.1v-0.1h0.1v-0.1h-0.1v-0.1h0.1v-0.1h-0.1v-0.1h0.1V44h-0.1v-0.1h0.1v-0.1h-0.1v-0.1h0.1v-0.1h-0.1
				v-0.1h0.1v-0.1h-0.1v-0.1h0.1V43h-0.1v-0.1h0.1v-0.1h-0.1v-0.1h0.1v-0.1h-0.1v0h0.2v-0.2h-0.1v0h-0.1v-0.1h0.1V42h-0.1v-0.1h0.1
				v-0.1h-0.1v0h0.2v-0.2h-0.1v0h-0.1v-0.1h0.1v-0.1h-0.1v-0.1h0.1V41h-0.1v-0.1h0.1v-0.1h-0.1v-0.1h0.1v-0.1h-0.1v-0.1h0.1v-0.1
				h-0.1v-0.1h0.1v-0.1h-0.1v-0.1h0.1v-0.1h-0.1v-0.1h0.1v-0.1h-0.1v-0.1h0.1v-0.1h-0.1v-0.1h0.1v-0.1h-0.1V39h0.1v-0.1h-0.1v-1.7
				h-0.8v-0.6h-0.5v-0.3l-0.6-0.5H99v0.5h-0.6L98,35.7h-0.2v0.8h-0.7v0.6h-0.5V32c0-0.2-0.2-0.3-0.4-0.4c-0.1,0-0.1,0-0.2,0v-0.2
				c0-0.3-0.2-0.5-0.5-0.5V30L95.1,30v-0.8c0-0.1-0.1-0.2-0.2-0.2l-2.8,0.5c-0.1,0-0.2,0.1-0.2,0.2v0.6l-0.5,0v0.7
				c-0.3,0-0.5,0.2-0.5,0.5v0.3c-0.1,0-0.3,0.1-0.4,0.1c-0.2,0-0.4,0.2-0.4,0.4v13.3H89v-0.1h0.1v-0.3h-0.9v0.3h0v0.1h-0.1v-2.7
				h-0.1v-0.4h-0.1V42h-0.7v-0.2h0.1v-0.4H87v-0.1h-1.3v0.1h-1.1v0.4h0.1V42h-0.2v0.7h-1.2v0.4h-1.3v4.8h-1.3v3.4h-6.9v5.6H258.8z
				 M114.9,18.8c0,0-0.3,0-0.6,0c-0.4,0-0.9,0-1,0c0,0,0.1-0.2,1-0.3c0.3,0,0.6,0,1,0C115,18.8,114.9,18.8,114.9,18.8 M116.2,18.1
				c-0.1,0-0.2,0-0.3,0l0.4-0.4l0.3-0.3l0.1-0.1l-0.1,0.2l-0.3,0.6L116.2,18.1z M116.9,17.9L116.9,17.9L116.9,17.9
				c-0.1,0-0.2,0-0.2,0.1c0,0.1,0,0.1,0.1,0.1h0.1h0v0.1h0c-0.1,0-0.3,0-0.4,0h-0.1l0.1-0.1l0.4-0.7l0,0V17.9z M116.9,16.9
				L116.9,16.9L116.9,16.9L116.9,16.9L116.9,16.9L116.9,16.9z M230.8,37.1L230.8,37.1h-0.1v-0.3h0.1h0.1V37.1z M230.8,36.5
				L230.8,36.5h-0.1v-0.3h0.1h0.1V36.5z M230.8,35.9L230.8,35.9h-0.1v-0.3h0.1h0.1V35.9z M230.8,35.2L230.8,35.2h-0.1V35h0.1h0.1
				V35.2z M230.8,34.5L230.8,34.5h-0.1v-0.3h0.1h0.1V34.5z"/>
		</g>
	</g>
</g>
<g>
	<g>
		<defs>
			<rect id="SVGID_5_" x="163" y="22.4" width="117.2" height="35.5"/>
		</defs>
		<clipPath id="SVGID_6_">
			<use xlink:href="#SVGID_5_"  overflow="visible"/>
		</clipPath>
		<g clip-path="url(#SVGID_6_)">
			<defs>
				<rect id="SVGID_7_" x="164" y="23.4" width="115.2" height="33.5"/>
			</defs>
			<clipPath id="SVGID_8_">
				<use xlink:href="#SVGID_7_"  overflow="visible"/>
			</clipPath>
			<path clip-path="url(#SVGID_8_)" fill="#6CC62C" d="M261.8,43L261.8,43L261.8,43l-0.1-0.2h0h0V43z M261.8,43.5L261.8,43.5
				L261.8,43.5l-0.1-0.2h0h0V43.5z M261.8,43.9L261.8,43.9L261.8,43.9l-0.1-0.2h0h0V43.9z M261.8,44.3L261.8,44.3L261.8,44.3
				l-0.1-0.2h0h0V44.3z M261.8,44.6L261.8,44.6L261.8,44.6l-0.1-0.2h0h0V44.6z M190.8,32.1L190.8,32.1L190.8,32.1L190.8,32.1
				L190.8,32.1L190.8,32.1z M190.8,32.7L190.8,32.7L190.8,32.7c-0.1,0-0.1,0-0.1,0.1c0,0,0,0.1,0.1,0.1h0.1h0v0l0,0
				c-0.1,0-0.2,0-0.3,0h-0.1l0.1-0.1l0.3-0.4l0,0V32.7z M190.4,32.8c-0.1,0-0.1,0-0.2,0l0.2-0.3l0.2-0.2l0.1-0.1l-0.1,0.1
				L190.4,32.8L190.4,32.8z M189.6,33.3c0,0-0.2,0-0.4,0c-0.3,0-0.6,0-0.6,0c0,0,0.1-0.1,0.6-0.2c0.2,0,0.4,0,0.6,0
				C189.6,33.2,189.6,33.3,189.6,33.3 M275.1,53.3v-2.7h-2.8v-5.7H271v-1h-0.2v-0.4h-0.2v-0.8h-0.2v0.8H270v0.4h-1.7v0.9h-0.7V43
				H267v-0.4h-0.5v-0.1h-0.7v-0.1h-0.4v-0.6h-0.5v-0.2l-0.1,0v-0.5h-0.1v0.5l-0.5,0.1v-0.1l-0.5-0.2l-0.7,0.2v0.3h-0.8v0.3H262V42
				h-0.2v0.2h-0.1h-0.1v0.9h-0.2v0.2h0.2v0.2h-0.2v0.2h0.2v0.2h-0.2v0.2h0.2v0.2h-0.2v0.2h0.2v0.2h-0.2v0.1h-0.1v-1h-0.3v-0.1
				l-0.3-0.4h0V43h-0.4V32.5l-0.1-0.1h0c0.2,0,0.3-0.1,0.3-0.4c0-0.2-0.5-0.5-0.7-0.5c-0.2,0-0.2,0.2-0.2,0.2l0.2,0l0,0.1l-0.7,0.1
				l-0.2-0.1l0-0.2l-1.4-0.8l-1.7,0.1l-0.2,0.1c-0.7,0-1,0.5-1,0.5l0.3,0l-0.2,0.1l-0.8,0l-0.6,0.4c-0.1,0.1-0.2,0.1-0.3,0.2h0
				c0,0-0.1,0.1-0.1,0.2c0,0.1,0.1,0.2,0.2,0.3l-0.3,0.2c-0.1-0.8-0.7-1.4-1.4-1.5v-0.3c0-0.1-0.1-0.2-0.2-0.2h-0.1V30h-0.1v0.7H251
				c-0.1,0-0.2,0.1-0.2,0.2v0.3c-0.8,0.1-1.4,0.8-1.5,1.6l-1.1,0.3v0.3l-0.8,0l-1.1,0.6v9h-0.5v0.5h-0.5v3.9h-0.6V30l-0.5-0.2
				l0.3-0.1l0.2,0.1v-0.1l-1.3-0.5l-0.6-0.1l-0.6-0.3v-0.5l-1.1-0.4c-0.2-0.3-0.7-0.5-1.2-0.5c-0.1,0-0.2,0-0.4,0v-0.6h-0.2v0.6
				c-0.2,0.1-0.4,0.2-0.6,0.3h-0.1l-0.5,0.5v0.7l-1.2,0.4v1h-0.3v0.6h-0.6v1L236,32l0,0.4l0.2-0.1v0.3l-0.4,0.4l0.2,0.1l0.2,0v0.3
				h-0.5v9.9h-0.6v0.2h-0.3v0.1h-0.3V44l-0.9,0.2v1.1H233V44h-0.2v1.3h-0.5v-1.2h0.1V44h-0.1v-0.1h-1v-0.4h0.1v-0.4h-0.1V43h-0.2v1
				h-0.8v-0.4h-0.8v-2H229v-0.7h-2.2l-1-0.6v0h0.1v-0.2h-0.1v-1h0.1v-0.2h-0.1v-1h0.1v-0.2h-0.1v-1h0.1v-0.2h-0.1v-1h0.1v-0.2h-0.1
				v-1h0.1v-0.2h-0.1v-1h0.1v-0.2h-0.1V26h-0.1v-1.8h-1.1v-0.1h-0.1v-0.2c0,0-0.5-0.4-0.6-0.5c-0.1,0-0.2,0.1-0.3,0.1
				c-0.4,0.2-0.7,0.4-0.9,0.6h0V24h-0.8v0.4h-0.4v0.5h-0.3V26h0c-0.4,0-0.4,1.2,0,1.2v0.6c-0.4,0.1-0.4,0.5-0.4,0.8v16.6l-0.4,0.1
				v0.7h-0.4v-1h-0.9v-0.8h-0.4v-0.2H218v0.2h-0.1l-0.3,0.2v0.6h-0.1v-0.4h-0.2v-1.3h-0.4v-0.5h-1v-1.2l-1-0.1v-0.2
				c0-0.2-0.2-0.4-0.4-0.4l-1.5-0.2v-0.1h0.2v-0.4l-1.4-0.1v-0.2h-0.3v-0.6h-0.5v-2.8l-0.3-0.4l-3.5,0.7l-0.4,0.3v7.9h-0.2v0.5H206
				v-2.8l-3.3,0.9v-0.1h0.1V43h-0.1v-0.1h0.1v-0.2h-0.1v-0.1h0.1v-0.2h-0.1v-0.1h0.1V42h-0.1v-0.1h0.1v-0.2h-0.1v-0.1h0.1v-0.2h-0.1
				v-0.1h0.1v-0.2h-0.1v-0.1h0.1v-0.2h-0.1v-0.1h0.1v-0.2h-0.1v-0.1h0.1v-0.2h-0.1v-0.1h0.1v-0.2h-0.1v-0.1h0.1v-0.2h-0.1v-0.1h0.1
				v-0.2h-0.1v-0.1h0.1v-0.2h-0.1v-0.1h0.1v-0.2h-0.1v-0.7c0-0.8-6-0.6-6-0.1v0.8h-0.1v0.2h0.1v0.1h-0.1v0.2h0.1v0.1h-0.1v0.2h0.1
				v0.1h-0.1v0.2h0.1v0.1h-0.1v0.2h0.1v0.1h-0.1v0.2h0.1v0.1h-0.1v0.2h0.1v0.1h-0.1v0.2h0.1v0.1h-0.1v0.2h0.1v0.1h-0.1v0.2h0.1v0.1
				h-0.1v0.2h0.1V42h-0.1v0.2h0.1v0.1h-0.1v0.2h0.1v0.1h-0.1v0.2h0.1V43h-0.1v0.2h0.1v0.1h-0.1v0.2h0.1v0.1h-0.1v0.2h0.1V44h-0.1
				v0.2h0.1v0.1h-0.1v0.2h0.1v0.1h-0.1v0.2h0.1v0.1h-0.1v0.2h0.1v0.1h-0.1v0.2h0.1v0.1h-0.1V46h0.1v0.1h-0.1v0.2h0.1v0.1h-0.1v0.2
				h0.1v0.1h-0.1V47h0.1v0.1h-0.1v0h-1v-5.4h-0.4v-0.6h-0.1V41H195v-0.2h-0.1v0.3h-2.2v-1.6l-0.3-0.4h-0.1v-0.8h0.2
				c0.1,0,0.1,0,0.1-0.1v-4.9c0-0.3,0-0.4-0.3-0.4c-0.4,0-0.8-0.1-1.2-0.1v0h0c0,0,0.1,0,0.1-0.1c0,0,0-0.1-0.1-0.1h0v-0.4h0
				c0,0,0.1,0,0.1-0.1s0-0.1-0.1-0.1h0v-0.4h0c0,0,0.1,0,0.1-0.1s0-0.1-0.1-0.1h0v-0.4h0c0,0,0.1,0,0.1-0.1c0,0,0-0.1-0.1-0.1h0
				v-2.5c0-0.1,0-0.1-0.1-0.1c-0.1,0-0.1,0-0.1,0.1v2.5h0h-0.1c0,0-0.1,0-0.1,0.1c0,0,0,0.1,0.1,0.1h0.1h0v0.4h0h-0.1
				c0,0-0.1,0-0.1,0.1s0,0.1,0.1,0.1h0.1h0v0.1l0,0l-0.3,0.3l-0.2,0.2l-0.5,0.5c-0.2,0-0.5,0-0.7,0c-0.2,0-0.4,0-0.5,0
				c-0.2,0-0.3,0-0.3,0.3v1.2v0.4l-0.5,0V35l0.3,0.2v0.2h0.2v0l-0.5,0v0.2l0.3,0.2v0.2h0.2v0l-0.5,0v0.2l0.3,0.2v0.2h0.2v0l-0.5,0
				v0.2l0.3,0.2v0.2h0.2v0l-0.5,0v0.2l0.3,0.2v0.2h0.2v0l-0.5,0v0.2l0.3,0.2v0.2h0.2v0l-0.5,0v0.2l0.3,0.2v0.2h0.1v2.8h-2.6v0.4
				h-0.3v5.1h-0.8V47h-0.1v-0.2h-0.3v-0.1l-0.5-0.6h-0.2v0.6h-0.3v-0.1H183v0.2h-0.3v1.1H182v0.6h-0.4v0.8h-0.3v0.1h-0.1v0.1H181v0
				h0v-0.1h0v-0.1h0v-0.1h0v-0.1h0v-0.1h0v-0.1h0v-0.1h0V49h0v-0.1h0v-0.1h0v-0.1h0v-0.1h0v-0.1h0v-0.1h0v-0.1h0v-0.1h0v-0.1h0v-0.1
				h0v-0.1h0v-0.1h0V48h0v0h0.1v-0.1h-0.1v0h0v-0.1h0v-0.1h0v-0.1h0v-0.1h0v0h0.1v-0.1h-0.1v0h0v-0.1h0v-0.1h0v-0.1h0v-0.1h0V47h0
				V47h0v-0.1h0v-0.1h0v-0.1h0v-0.1h0v-0.1h0v-0.1h0v-0.1h0v-0.1h0v-0.1h0v-0.1h0v-0.1h0V46h0V46h0v-0.1h0v-0.1h0v-0.1h0v-1.1h-0.5
				v-0.4h-0.3v-0.2l-0.4-0.3h-0.2v0.3h-0.4l-0.2-0.3H179v0.5h-0.4v0.4h-0.3v-3.2c0-0.1-0.1-0.2-0.2-0.2c0,0-0.1,0-0.1,0v-0.1
				c0-0.2-0.1-0.3-0.3-0.3v-0.5l-0.3,0v-0.5c0-0.1-0.1-0.1-0.1-0.1l-1.7,0.3c-0.1,0-0.1,0.1-0.1,0.1v0.4l-0.3,0v0.5
				c-0.2,0-0.3,0.2-0.3,0.3v0.2c-0.1,0-0.2,0-0.3,0c-0.1,0-0.2,0.1-0.2,0.2V50h-0.7v-0.1h0.1v-0.2h-0.6v0.2h0V50h-0.1v-1.7h-0.1
				v-0.3h-0.1v-0.4h-0.4v-0.1h0v-0.3h-0.1v-0.1h-0.8v0.1h-0.7v0.3h0.1v0.1h-0.1v0.4H170v0.3h-0.8v3h-0.8v2.1H164v3.5h25.1h1.2h0.2
				h0.3h32.9h38h17.5v-3.6H275.1z"/>
		</g>
	</g>
</g>
<g>
	<defs>
		<rect id="SVGID_9_" width="219.3" height="57.7"/>
	</defs>
	<clipPath id="SVGID_10_">
		<use xlink:href="#SVGID_9_"  overflow="visible"/>
	</clipPath>
	<polygon clip-path="url(#SVGID_10_)" points="59.4,56.6 1,56.6 1,48.9 6.2,48.8 6.2,42.6 59.4,42.6 	"/>
	<g clip-path="url(#SVGID_10_)">
		<defs>
			<rect id="SVGID_11_" x="1" y="1" width="217.3" height="55.7"/>
		</defs>
		<clipPath id="SVGID_12_">
			<use xlink:href="#SVGID_11_"  overflow="visible"/>
		</clipPath>
		<path clip-path="url(#SVGID_12_)" d="M70.1,35.6L65,30.5l-5.1,5.1h0l-5.1-5.1l-5.1,5.1v5.2h11.8v15.9h157v-2.3l-6.1-0.1v-5.7
			l-80.7,0v-13H81.7V1.5c-2.1-0.5-3.4-0.8-5.2,0v34.1L70.1,35.6z"/>
	</g>
	<path clip-path="url(#SVGID_10_)" d="M127.2,36.7c0-13.3-9.3-22.5-20.7-22.5c-11.4,0-20.7,9.3-20.7,22.5H127.2z"/>
	<path clip-path="url(#SVGID_10_)" d="M157.2,49h11.4c-1.1-4.2-4-21.1-2.3-31.5h-9.1h-9.1c1.7,10.4-1.2,27.3-2.3,31.5H157.2z"/>
	<path clip-path="url(#SVGID_10_)" d="M181.7,49h11.4c-1.1-4.2-4-21.1-2.3-31.5h-9.1h-9.1c1.7,10.4-1.2,27.3-2.3,31.5H181.7z"/>
</g>
<path fill="#CAE2E2" d="M156.8,26.1l-1.4-2.6c-1.3,0.7-2.1,2.1-2.1,3.7h3C156.2,26.7,156.4,26.3,156.8,26.1"/>
<path fill="#CAE2E2" d="M156.8,28.2l-1.5,2.5c1.3,0.7,2.9,0.8,4.3,0l-1.5-2.6C157.6,28.5,157.1,28.4,156.8,28.2"/>
<path fill="#CAE2E2" d="M158,26.1l1.4-2.6c1.3,0.7,2.1,2.1,2.1,3.7h-3C158.6,26.7,158.4,26.3,158,26.1"/>
<path fill="#CAE2E2" d="M158.3,27.1c0,0.5-0.4,0.9-0.9,0.9c-0.5,0-0.9-0.4-0.9-0.9c0-0.5,0.4-0.9,0.9-0.9
	C157.9,26.2,158.3,26.6,158.3,27.1"/>
<path fill="#CAE2E2" d="M181.7,26.1l-1.4-2.6c-1.3,0.7-2.1,2.1-2.1,3.7h3C181.1,26.7,181.4,26.3,181.7,26.1"/>
<path fill="#CAE2E2" d="M181.7,28.2l-1.5,2.5c1.3,0.7,2.9,0.8,4.3,0l-1.5-2.6C182.5,28.5,182.1,28.4,181.7,28.2"/>
<path fill="#CAE2E2" d="M182.9,26.1l1.4-2.6c1.3,0.7,2.1,2.1,2.1,3.7h-3C183.6,26.7,183.3,26.3,182.9,26.1"/>
<path fill="#CAE2E2" d="M183.2,27.1c0,0.5-0.4,0.9-0.9,0.9c-0.5,0-0.9-0.4-0.9-0.9c0-0.5,0.4-0.9,0.9-0.9
	C182.8,26.2,183.2,26.6,183.2,27.1"/>
</svg>
